<svg fill="none" viewBox="0 0 22 22">
    <path stroke="currentColor" stroke-linecap="round" stroke-linejoin="round" stroke-width="1.5"
        d="M1.25 5.75c0 8.2843 6.7157 15 15 15h2.25c1.2426 0 2.25-1.0074 2.25-2.25v-1.3716c0-.5163-.3513-.9662-.8521-1.0914l-4.4232-1.1058a1.125 1.125 0 0 0-1.1729.4164l-.9702 1.2936c-.2816.3754-.7686.5415-1.2093.38-3.307-1.2114-5.9321-3.8366-7.1435-7.1435-.1615-.4407.0046-.9277.38-1.2093l1.2936-.9702a1.125 1.125 0 0 0 .4164-1.1729L5.963 2.1022A1.125 1.125 0 0 0 4.8716 1.25H3.5c-1.2426 0-2.25 1.0074-2.25 2.25v2.25Z" />
</svg>