<svg width="16" height="16" viewBox="0 0 16 16" fill="none" xmlns="http://www.w3.org/2000/svg">
    <g clip-path="url(#clip0_3763_11361)">
        <path
            d="M8.98489 3.09064C9.17242 2.90317 9.42673 2.79785 9.69189 2.79785C9.95706 2.79785 10.2114 2.90317 10.3989 3.09064L14.8989 7.59064C15.0864 7.77817 15.1917 8.03247 15.1917 8.29764C15.1917 8.5628 15.0864 8.81711 14.8989 9.00464L10.3989 13.5046C10.2103 13.6868 9.95769 13.7876 9.69549 13.7853C9.4333 13.783 9.18248 13.6779 8.99708 13.4925C8.81167 13.307 8.7065 13.0562 8.70422 12.794C8.70194 12.5318 8.80274 12.2792 8.98489 12.0906L11.6919 9.29764H2.19189C1.92668 9.29764 1.67232 9.19228 1.48479 9.00474C1.29725 8.81721 1.19189 8.56285 1.19189 8.29764C1.19189 8.03242 1.29725 7.77807 1.48479 7.59053C1.67232 7.403 1.92668 7.29764 2.19189 7.29764H11.6919L8.98489 4.50464C8.79742 4.31711 8.69211 4.0628 8.69211 3.79764C8.69211 3.53247 8.79742 3.27817 8.98489 3.09064Z"
            fill="white" />
    </g>
    <defs>
        <clipPath id="clip0_3763_11361">
            <rect width="15" height="15" fill="white" transform="translate(0.691895 0.797852)" />
        </clipPath>
    </defs>
</svg>