<svg fill="none" viewBox="0 0 440 78">
    <mask id="a" width="439" height="78" x="0" y="0" maskUnits="userSpaceOnUse"
        style="mask-type:luminance">
        <path fill="#fff" d="M438.975 0H0v77.575h438.975V0Z" />
    </mask>
    <g mask="url(#a)">
        <path fill="#15AED5"
            d="M129.102 17.35c-2.6-4.019-6.098-7.564-10.022-10.353A37.675 37.675 0 0 0 105.276.899c-4.774-1.04-9.69-1.182-14.56-.331-4.869.85-9.454 2.553-13.614 5.153-4.35 2.694-8.037 6.145-10.968 10.352L52.52 35.313l-10.116-7.185c-5.862-4.16-13-5.767-20.044-4.538-7.09 1.181-13.236 5.105-17.396 10.967s-5.768 13-4.539 20.044c1.23 7.09 5.106 13.236 10.968 17.396 5.861 4.16 12.952 5.767 20.043 4.538 7.091-1.229 13.237-5.105 17.397-10.967l5.72-8.084 1.418-2.032 8.367-11.819 13.615-19.24c3.64-5.152 9.029-8.556 15.269-9.596 6.24-1.04 12.433.378 17.585 3.97 4.917 3.452 8.415 8.699 9.36 14.04l14.229-2.6c-.851-4.396-2.647-8.84-5.294-12.857ZM36.967 57.2c-1.938 2.695-4.774 4.492-8.036 5.059-3.262.567-6.571-.19-9.266-2.08-2.694-1.938-4.49-4.775-5.058-8.037a12.388 12.388 0 0 1 2.08-9.265c1.891-2.695 4.775-4.491 8.037-5.058 3.261-.568 6.57.189 9.265 2.08l10.116 7.185c.048 0-7.138 10.117-7.138 10.117Z" />
        <path fill="#15AED5"
            d="M148.436 41.175c-.756 4.112-2.411 10.021-5.861 15.032-4.964 7.564-12.622 14.04-21.131 17.68-3.357 1.466-6.808 2.458-10.306 3.073-2.08.378-4.16.567-6.287.615-6.382.189-12.953-.993-19.476-3.499-4.444-1.701-8.793-4.065-12.811-6.901L56.018 55.45l8.367-11.818 16.546 11.723c3.073 2.175 6.335 3.924 9.644 5.2 20.185 7.753 34.603-4.112 39.945-12.385l.095-.142.094-.095c3.64-5.152 4.538-14.323 3.971-17.585l14.276-2.458c.52 3.498.379 8.462-.52 13.284Z" />
        <path fill="#fff"
            d="M183.465 22.739c-3.545-.71-6.949-1.23-9.455-2.175-2.505-.945-4.16-2.363-4.16-4.822 0-4.349 3.499-7.185 9.266-7.185 6.807 0 10.447 2.884 11.298 9.17l9.833-1.654C198.403 5.91 190.792.284 179.21.284c-11.581 0-19.192 6.713-19.192 16.168 0 10.305 9.36 13.094 17.963 14.843 7.091 1.418 12.859 2.506 12.859 7.044s-3.593 7.422-9.833 7.422c-7.375 0-10.92-2.648-12.149-9.313l-3.924.662-6.004 1.04c2.175 9.974 9.455 15.93 22.455 15.93 12.007 0 19.335-6.57 19.335-16.45.094-10.59-8.746-13.284-17.255-14.891ZM377.615 30.775c-.473-.095-.993-.19-1.466-.284-1.938-.378-3.781-.709-5.105-1.229-2.033-.803-2.364-1.749-2.364-2.553 0-2.6 2.128-4.16 5.673-4.16 4.396 0 6.571 1.75 7.138 5.72l.142.993 8.887-1.512-.142-.946c-1.37-7.658-7.185-12.054-15.93-12.054-8.746 0-14.655 5.247-14.655 12.48 0 8.792 8.84 10.541 13.567 11.487l.189.047c5.106 1.04 8.226 1.75 8.226 4.066 0 3.781-3.782 4.349-6.051 4.349-4.822 0-6.949-1.608-7.753-5.862l-.189-.898-8.982 1.418.237.992c1.749 7.895 7.611 12.055 16.923 12.055 9.313 0 14.749-4.964 14.749-12.669 0-8.935-8.556-10.59-13.094-11.44ZM278.011 3.12h9.36l8.32 34.983L305.997 3.12h8.414l10.258 35.076 8.415-35.076h9.076l-13 50.818h-9.171l-9.927-33.989-10.022 33.99h-9.265L278.011 3.12ZM344.476 15.506h9.738v38.432h-9.738V15.506ZM349.25 3.12h.189a4.912 4.912 0 0 1 4.916 4.917 4.913 4.913 0 0 1-4.916 4.917h-.189a4.913 4.913 0 0 1-4.917-4.917 4.883 4.883 0 0 1 4.917-4.916ZM230.123 17.35c2.506 1.134 4.586 2.93 6.24 5.342 1.466 2.127 2.411 4.632 2.884 7.469.236 1.654.378 4.018.331 7.138h-26.284c.142 3.64 1.418 6.145 3.782 7.61 1.418.899 3.167 1.372 5.2 1.372 2.127 0 3.876-.567 5.247-1.655.709-.614 1.371-1.418 1.938-2.458h9.644c-.236 2.127-1.418 4.302-3.498 6.524-3.215 3.498-7.753 5.247-13.567 5.247-4.822 0-9.029-1.466-12.717-4.444-3.687-2.978-5.483-7.752-5.483-14.418 0-6.24 1.654-11.062 4.963-14.37 3.309-3.31 7.611-5.012 12.906-5.012 3.072 0 5.909.568 8.414 1.655Zm-14.087 8.178c-1.324 1.37-2.175 3.215-2.505 5.578h16.214c-.189-2.505-.993-4.396-2.505-5.72-1.513-1.323-3.357-1.938-5.579-1.938-2.41 0-4.301.71-5.625 2.08ZM268.887 17.35c2.505 1.134 4.585 2.93 6.24 5.342 1.465 2.127 2.458 4.632 2.884 7.469.236 1.654.378 4.018.33 7.138h-26.283c.142 3.64 1.418 6.145 3.782 7.61 1.418.899 3.167 1.372 5.2 1.372 2.127 0 3.876-.567 5.247-1.655.709-.614 1.371-1.418 1.938-2.458h9.644c-.237 2.127-1.418 4.302-3.498 6.524-3.215 3.498-7.753 5.247-13.568 5.247-4.822 0-9.029-1.466-12.716-4.444-3.687-2.978-5.484-7.752-5.484-14.418 0-6.24 1.655-11.062 4.964-14.37 3.309-3.31 7.611-5.012 12.905-5.012 3.073 0 5.909.568 8.415 1.655ZM254.8 25.528c-1.324 1.37-2.175 3.215-2.506 5.578h16.215c-.189-2.505-.993-4.396-2.506-5.72-1.512-1.323-3.356-1.938-5.578-1.938-2.411 0-4.302.71-5.625 2.08ZM422.807 39.19c-.662 3.45-2.647 6.523-8.273 7.469-5.436.898-9.502-1.56-11.062-6.95l27.608-4.632-.568-3.404c-2.032-12.054-10.163-18.53-21.745-16.592-11.156 1.89-17.68 11.44-15.695 23.258 1.986 11.865 10.731 18.2 22.597 16.214 9.927-1.654 14.749-7.138 16.356-13.709l-9.218-1.654Zm-12.953-16.31c5.153-.85 8.651 1.466 9.975 6.95l-17.68 2.978c-.189-5.437 2.836-9.124 7.705-9.927ZM163.517 65.142h-4.538v-1.513h10.92v1.513h-4.539V77.29h-1.796l-.047-12.15ZM180.582 63.629h1.796v5.862h7.186v-5.862h1.796V77.29h-1.796v-6.24h-7.186v6.24h-1.796V63.629ZM203.604 63.629h9.455v1.513h-7.611v4.349h7.091v1.512h-7.091v4.728h7.658v1.512h-9.502V63.63ZM242.699 63.629h1.985l5.342 13.662h-1.985l-1.513-4.113h-5.767l-1.513 4.113h-1.844l5.295-13.662Zm-1.371 7.989h4.633l-2.269-6.382h-.048l-2.316 6.382ZM260.615 63.629h1.797V77.29h-1.797V63.629ZM289.168 63.629h8.982v1.513h-7.138v4.349h6.287v1.512h-6.287v6.24h-1.797l-.047-13.614ZM312 63.629h1.986l5.341 13.662h-1.985l-1.513-4.113h-5.767l-1.513 4.113h-1.843L312 63.629Zm-1.324 7.989h4.633l-2.269-6.382h-.094l-2.27 6.382ZM339.465 67.742c-.189-.993-.662-1.702-1.323-2.175-.709-.472-1.513-.709-2.459-.709-.803 0-1.512.142-2.08.473-.567.33-1.04.71-1.418 1.23a5.478 5.478 0 0 0-.851 1.748 7.62 7.62 0 0 0-.283 2.08c0 .757.094 1.513.283 2.222.189.71.473 1.324.851 1.796.378.473.851.946 1.466 1.23.567.283 1.276.472 2.127.472.615 0 1.135-.094 1.607-.283a3.49 3.49 0 0 0 1.182-.804c.331-.331.615-.756.804-1.23.189-.472.331-.992.331-1.56h1.796c-.189 1.703-.756 3.073-1.796 4.019-.993.945-2.364 1.418-4.113 1.418-1.04 0-1.986-.189-2.789-.52-.804-.378-1.466-.85-1.986-1.513a6.886 6.886 0 0 1-1.181-2.269 10.439 10.439 0 0 1-.379-2.789c0-.993.142-1.938.426-2.789a6.516 6.516 0 0 1 1.229-2.269 5.997 5.997 0 0 1 2.033-1.56c.803-.378 1.749-.567 2.789-.567.709 0 1.371.094 2.032.283.662.19 1.182.473 1.702.851.52.379.898.851 1.229 1.371.331.52.568 1.182.662 1.939l-1.891-.095ZM355.963 65.142h-4.538v-1.513h10.92v1.513h-4.538V77.29h-1.844V65.14ZM372.273 70.436c0-.945.142-1.843.425-2.694a7.515 7.515 0 0 1 1.229-2.27 6.821 6.821 0 0 1 2.033-1.607c.804-.378 1.749-.567 2.837-.567 1.087 0 2.032.19 2.836.567a5.69 5.69 0 0 1 2.033 1.608c.567.662.945 1.418 1.229 2.269.283.85.425 1.749.425 2.694 0 .946-.142 1.844-.425 2.695a7.513 7.513 0 0 1-1.229 2.269 6.006 6.006 0 0 1-2.033 1.56c-.804.378-1.749.567-2.836.567-1.088 0-2.033-.189-2.837-.567-.803-.378-1.513-.898-2.033-1.56-.567-.662-.945-1.418-1.229-2.27a8.482 8.482 0 0 1-.425-2.694Zm1.796 0c0 .71.095 1.371.284 2.033a5.73 5.73 0 0 0 .851 1.796c.378.52.851.946 1.465 1.277.615.33 1.324.472 2.128.472.803 0 1.56-.141 2.127-.472.567-.331 1.087-.757 1.465-1.277.379-.52.662-1.134.851-1.796.189-.662.284-1.37.284-2.033 0-.662-.095-1.37-.284-2.032a5.708 5.708 0 0 0-.851-1.797 4.283 4.283 0 0 0-1.465-1.276c-.615-.331-1.324-.473-2.127-.473-.804 0-1.56.142-2.128.473-.567.33-1.087.756-1.465 1.276a5.73 5.73 0 0 0-.851 1.797 7.536 7.536 0 0 0-.284 2.032ZM396.76 63.629h6.43c1.323 0 2.316.33 3.072.945.757.615 1.088 1.513 1.088 2.6 0 .851-.19 1.56-.568 2.175-.378.614-.992 1.04-1.796 1.276v.047c.378.095.709.19.945.379.237.189.426.378.615.662.142.236.236.52.331.85.094.331.142.615.142.946 0 .33.047.662.047.993 0 .33.047.661.094.992.048.331.142.662.237.946.094.283.236.567.425.803h-2.032a.783.783 0 0 1-.237-.567 4.187 4.187 0 0 1-.094-.803c0-.284 0-.615-.048-.946 0-.33-.047-.662-.094-.993-.047-.33-.095-.662-.189-.945-.095-.284-.189-.567-.378-.804a1.226 1.226 0 0 0-.662-.52 3.218 3.218 0 0 0-1.088-.189h-4.443v5.815h-1.797V63.629Zm5.626 6.287c.425 0 .804-.047 1.182-.094.378-.048.709-.19.992-.379.284-.189.52-.425.71-.756.189-.33.236-.709.236-1.229 0-.71-.189-1.23-.567-1.702-.379-.472-.993-.662-1.844-.662h-4.491v4.775h3.782v.047ZM423.989 71.666v5.578h-1.843v-5.578l-5.295-8.084h2.175l4.113 6.524 4.018-6.524h2.08l-5.248 8.084ZM432.593.19a6.356 6.356 0 0 1 6.382 6.381 6.356 6.356 0 0 1-6.382 6.382 6.355 6.355 0 0 1-6.382-6.382c0-3.545 2.884-6.382 6.382-6.382Zm5.578 6.381c0-3.073-2.505-5.53-5.531-5.578-3.073 0-5.578 2.458-5.578 5.53 0 3.073 2.505 5.579 5.531 5.579 3.072.047 5.578-2.458 5.578-5.531Z" />
        <path fill="#fff"
            d="M430.869 9.455V3.782h1.917c.443 0 .806.076 1.091.227.284.15.495.356.631.618.137.262.205.56.205.894 0 .335-.068.631-.205.89a1.44 1.44 0 0 1-.629.609c-.282.146-.643.219-1.083.219h-1.551v-.62h1.529c.303 0 .547-.045.732-.134a.84.84 0 0 0 .404-.376c.085-.165.127-.36.127-.588 0-.227-.042-.425-.127-.595a.87.87 0 0 0-.407-.393c-.187-.095-.433-.142-.74-.142h-1.207v5.064h-.687Zm2.67-2.549 1.396 2.549h-.798l-1.374-2.549h.776Z" />
    </g>
</svg>