<svg fill="none" viewBox="0 0 350 96">
    <g clip-path="url(#a)">
        <path fill="#fff"
            d="M46.824.002C21.167.244.18 21.166-.002 46.745c-.122 12.578 4.73 24.067 12.737 32.593a3.06 3.06 0 0 1 .728 2.782l-2.972 11.973c-.121.604.425 1.088.97.846l12.132-5.321c1.031-.423 2.123-.423 3.154.06a46.553 46.553 0 0 0 21.108 4.656C73.452 93.972 94.318 73.11 94.5 47.591 94.742 21.166 73.27-.239 46.824.002Z"
            opacity=".25" />
        <path fill="#fff"
            d="M47.31 81.332c18.621 0 33.664-15.056 33.664-33.56 0-18.504-15.104-33.621-33.664-33.621-18.561 0-33.725 15.057-33.725 33.56 0 18.504 15.103 33.621 33.725 33.621Z" />
        <path fill="#00356B"
            d="M60.897 50.374c-1.334-1.573-2.972-2.721-4.852-3.508-1.88-.786-4.246-1.572-7.158-2.358-2.183-.605-3.82-1.149-4.973-1.572a8.765 8.765 0 0 1-2.67-1.512c-.788-.725-1.334-1.693-1.334-2.721-.06-1.39.546-2.54 1.76-3.386 1.152-.847 2.85-1.21 5.034-1.21 2.183 0 4.003.545 5.337 1.633a5.603 5.603 0 0 1 1.517 1.874c.728 1.452 2.123 2.42 3.7 2.42h.06c3.034 0 5.096-3.266 3.58-5.927-.729-1.33-1.699-2.479-2.912-3.507-2.79-2.298-6.49-3.447-11.04-3.447-3.093 0-5.762.484-8.127 1.512-2.366 1.028-4.186 2.419-5.46 4.172-1.213 1.694-1.82 3.69-1.82 5.805 0 2.6.668 4.717 2.063 6.35a12.853 12.853 0 0 0 4.913 3.568c1.88.786 4.367 1.572 7.34 2.418 3.093.847 5.398 1.693 6.793 2.42 1.395.725 2.184 1.813 2.184 3.325 0 1.39-.668 2.54-1.941 3.447-1.274.907-3.094 1.33-5.46 1.33-2.365 0-4.124-.544-5.58-1.693a5.842 5.842 0 0 1-1.88-2.177c-.667-1.33-2.123-2.116-3.64-2.116h.061c-2.608 0-4.367 2.297-4.064 4.595 1.274.665 2.79.847 4.246.665.91-.12 1.82-.423 2.67-.786a12.4 12.4 0 0 1-2.548 1.21 7.903 7.903 0 0 1-3.943.12c.121.182.182.363.303.545.06.06.122.12.182.242.182.242.425.544.667.786 1.395 1.21 3.397 1.693 5.277 1.451.91-.12 1.76-.423 2.548-.725-.788.483-1.638.907-2.487 1.148-1.031.242-2.062.363-3.093.242.91.665 1.94 1.27 3.032 1.754.789.363 1.699.665 2.548.907.97 0 1.941-.182 2.79-.544.97-.363 1.82-.907 2.67-1.512-.729.726-1.578 1.451-2.488 1.935-.364.181-.788.363-1.152.544 1.274.242 2.669.363 4.064.363 3.093 0 5.823-.484 8.128-1.512 2.305-1.028 4.124-2.418 5.337-4.232 1.274-1.815 1.88-3.81 1.88-6.108 0-2.6-.727-4.656-2.062-6.228Z" />
        <path fill="#fff"
            d="M138.612 33.131c2.392 0 4.526.495 6.403 1.486 1.913.99 3.404 2.458 4.471 4.402 1.104 1.944 1.656 4.292 1.656 7.043v17.884h-6.237V46.998c0-2.715-.681-4.788-2.043-6.218-1.361-1.468-3.219-2.201-5.575-2.201-2.355 0-4.231.733-5.63 2.2-1.361 1.431-2.042 3.504-2.042 6.219v16.948h-6.237V46.998c0-2.715-.681-4.788-2.043-6.218-1.361-1.468-3.219-2.201-5.575-2.201-2.355 0-4.231.733-5.63 2.2-1.361 1.431-2.042 3.504-2.042 6.219v16.948h-6.292v-30.32h6.292v3.467c1.03-1.247 2.337-2.22 3.919-2.917 1.582-.696 3.275-1.045 5.078-1.045 2.429 0 4.6.514 6.513 1.54 1.914 1.028 3.386 2.514 4.416 4.458.92-1.834 2.355-3.283 4.306-4.347a12.602 12.602 0 0 1 6.292-1.651Zm18.439 15.518c0-3.045.626-5.742 1.877-8.09 1.288-2.347 3.017-4.163 5.189-5.447 2.208-1.32 4.636-1.981 7.286-1.981 2.392 0 4.471.477 6.237 1.43 1.803.918 3.238 2.074 4.305 3.468v-4.403h6.348v30.32h-6.348v-4.512c-1.067 1.43-2.52 2.623-4.36 3.577-1.84.954-3.938 1.43-6.293 1.43-2.612 0-5.004-.66-7.175-1.98-2.172-1.358-3.901-3.229-5.189-5.613-1.251-2.421-1.877-5.153-1.877-8.199Zm24.894.11c0-2.091-.441-3.907-1.325-5.448-.846-1.54-1.968-2.715-3.367-3.522a8.9 8.9 0 0 0-4.526-1.21 8.902 8.902 0 0 0-4.526 1.21c-1.398.77-2.539 1.926-3.422 3.467-.846 1.504-1.27 3.301-1.27 5.393 0 2.09.424 3.925 1.27 5.502.883 1.578 2.024 2.788 3.422 3.632 1.435.807 2.944 1.21 4.526 1.21a8.902 8.902 0 0 0 4.526-1.21c1.399-.807 2.521-1.98 3.367-3.522.884-1.577 1.325-3.411 1.325-5.502Zm20.905-10.73c.92-1.541 2.135-2.734 3.643-3.577 1.546-.88 3.368-1.321 5.465-1.321v6.493h-1.6c-2.467 0-4.343.624-5.63 1.871-1.252 1.248-1.878 3.412-1.878 6.493v15.958h-6.292v-30.32h6.292v4.403Zm22.233.715v16.783c0 1.137.258 1.963.773 2.476.552.477 1.472.716 2.759.716h3.865v5.227h-4.969c-2.833 0-5.003-.66-6.513-1.98-1.509-1.321-2.263-3.468-2.263-6.439V38.744h-3.587v-5.118h3.587v-7.538h6.348v7.538h7.397v5.118h-7.397Zm19.489-15.518v40.72h-6.292v-40.72h6.292Zm36.136 24.817c0 1.138-.075 2.165-.221 3.082h-23.239c.185 2.421 1.085 4.365 2.706 5.833 1.618 1.467 3.605 2.2 5.961 2.2 3.385 0 5.778-1.412 7.176-4.236h6.789c-.921 2.788-2.595 5.08-5.024 6.878-2.391 1.761-5.373 2.641-8.941 2.641-2.908 0-5.52-.642-7.839-1.925-2.281-1.321-4.083-3.155-5.409-5.503-1.287-2.385-1.932-5.136-1.932-8.254 0-3.118.626-5.852 1.878-8.2 1.287-2.384 3.072-4.218 5.354-5.502 2.318-1.284 4.966-1.926 7.948-1.926 2.87 0 5.428.624 7.672 1.87 2.245 1.248 3.993 3.009 5.245 5.284 1.25 2.237 1.876 4.824 1.876 7.758Zm-6.569-1.98c-.037-2.312-.865-4.164-2.483-5.558-1.621-1.395-3.626-2.091-6.017-2.091-2.172 0-4.03.697-5.576 2.09-1.544 1.358-2.465 3.21-2.759 5.558l16.835.001Zm15.3 18.268c-1.141 0-2.098-.385-2.87-1.155-.773-.77-1.16-1.724-1.16-2.861 0-1.138.387-2.092 1.16-2.862.772-.77 1.729-1.156 2.87-1.156 1.104 0 2.043.386 2.815 1.156.772.77 1.159 1.724 1.159 2.861 0 1.138-.387 2.092-1.159 2.862s-1.711 1.155-2.815 1.155Zm8.678-15.682c0-3.045.626-5.742 1.876-8.09 1.289-2.347 3.018-4.163 5.189-5.447 2.207-1.32 4.637-1.981 7.287-1.981 2.39 0 4.47.477 6.237 1.43 1.802.918 3.237 2.074 4.305 3.468v-4.403h6.346v30.32h-6.346v-4.512c-1.068 1.43-2.522 2.623-4.361 3.577-1.841.954-3.937 1.43-6.292 1.43-2.613 0-5.006-.66-7.176-1.98-2.171-1.358-3.9-3.229-5.189-5.613-1.25-2.421-1.876-5.153-1.876-8.199Zm24.894.11c0-2.091-.442-3.907-1.326-5.448-.846-1.54-1.968-2.715-3.366-3.522a8.904 8.904 0 0 0-4.526-1.21 8.9 8.9 0 0 0-4.526 1.21c-1.398.77-2.539 1.926-3.422 3.467-.847 1.504-1.271 3.301-1.271 5.393 0 2.09.424 3.925 1.271 5.502.883 1.578 2.024 2.788 3.422 3.632 1.435.807 2.942 1.21 4.526 1.21a8.908 8.908 0 0 0 4.526-1.21c1.398-.807 2.52-1.98 3.366-3.522.884-1.577 1.326-3.411 1.326-5.502Zm17.813-19.15c-1.141 0-2.098-.385-2.87-1.155-.772-.77-1.159-1.724-1.159-2.862 0-1.137.387-2.09 1.159-2.861.772-.77 1.729-1.156 2.87-1.156 1.104 0 2.043.386 2.815 1.156.774.77 1.159 1.724 1.159 2.861 0 1.138-.385 2.091-1.159 2.862-.772.77-1.711 1.155-2.815 1.155Zm3.091 4.017v30.32h-6.293v-30.32h6.293Z" />
    </g>
    <defs>
        <clipPath id="a">
            <path fill="#fff" d="M0 0h350v96H0z" />
        </clipPath>
    </defs>
</svg>