<svg fill="none" viewBox="0 0 119 49">
    <path fill="#14AED5"
        d="M14.704 8.38v4.481H10.45V8.51c0-3.443-.524-4.807-2.618-4.807-2.03 0-2.553 1.69-2.553 5.262v2.273c0 1.95.59 4.028 1.57 5.782l5.302 9.289c1.637 2.858 2.553 5.52 2.553 8.704v3.183c0 7.275-1.178 10.328-7.069 10.328-5.628 0-6.872-2.404-6.872-8.185v-5.196h4.254v5.066c0 3.508.524 4.872 2.684 4.872 2.487 0 2.749-1.948 2.749-6.236v-3.248c0-2.338-.393-4.287-1.31-5.976l-5.628-9.938c-1.702-2.923-2.422-5.327-2.422-6.95v-2.729C1.09 3.248 2.53.26 7.832.26c5.628 0 6.872 2.273 6.872 8.12ZM21.078.973h5.236c5.825 0 8.247 1.104 8.247 6.106v13.446c0 5.002-2.422 6.106-8.247 6.106h-1.178v21.111h-4.058V.974Zm4.058 3.443V23.19h1.113c3.6 0 4.058-1.3 4.058-5.327v-8.12c0-4.027-.458-5.326-4.058-5.326h-1.113ZM40.205.974h6.218c5.825 0 8.181 1.104 8.181 6.106v10.588c0 3.703-1.113 5.262-5.105 5.586 4.189.26 5.432 1.754 5.432 5.587v18.902h-4.32V30.27c0-4.222-.72-5.262-4.843-5.262h-1.505v22.735h-4.058V.974Zm4.058 3.443V21.5h1.44c4.058 0 4.647-1.17 4.647-5.262V9.743c0-4.092-.59-5.326-4.647-5.326h-1.44ZM90.426.974h4.058v43.067h7.33v3.702H90.426V.974Zm15.994 0h11.258v3.703h-7.2V21.5h6.872v3.702h-6.872v18.838h7.396v3.702H106.42V.974Z" />
    <path fill="#76DC00"
        d="M62.655.974h4.32v46.77h-4.32V.974Zm9.083 0h13.81v3.703h-4.843v43.067h-4.123V4.677h-4.844V.974Z" />
</svg>