<svg width="23" height="22" viewBox="0 0 23 22" fill="none" xmlns="http://www.w3.org/2000/svg">
<path d="M4.85102 19.9787V15.546M4.85102 6.6807V2.24805M2.63469 4.46437H7.06734M2.63469 17.7623H7.06734M12.3865 3.13458L10.8491 7.13182C10.5991 7.78185 10.4741 8.10687 10.2797 8.38026C10.1074 8.62256 9.89573 8.83425 9.65343 9.00654C9.38004 9.20093 9.05503 9.32594 8.40499 9.57595L4.40775 11.1134L8.405 12.6508C9.05503 12.9008 9.38004 13.0258 9.65343 13.2202C9.89573 13.3925 10.1074 13.6042 10.2797 13.8465C10.4741 14.1198 10.5991 14.4449 10.8491 15.0949L12.3865 19.0921L13.9239 15.0949C14.1739 14.4449 14.2989 14.1198 14.4933 13.8465C14.6656 13.6042 14.8773 13.3925 15.1196 13.2202C15.393 13.0258 15.718 12.9008 16.3681 12.6508L20.3653 11.1134L16.3681 9.57595C15.718 9.32594 15.393 9.20093 15.1196 9.00654C14.8773 8.83425 14.6656 8.62256 14.4933 8.38026C14.2989 8.10687 14.1739 7.78185 13.9239 7.13182L12.3865 3.13458Z" stroke="white" stroke-width="1.3298" stroke-linecap="round" stroke-linejoin="round"/>
</svg>
