<svg fill="none" viewBox="0 0 74 74">
    <rect width="73" height="73" x=".5" y=".5" fill="url(#a)" rx="36.5" />
    <rect width="73" height="73" x=".5" y=".5" stroke="url(#b)" rx="36.5" />
    <path fill="#fff"
        d="M30.75 50.63c12.67 0 19.6-10.5 19.6-19.6l-.01-.9a14.02 14.02 0 0 0 3.44-3.57c-1.26.56-2.6.93-3.96 1.09a6.91 6.91 0 0 0 3.03-3.81 13.8 13.8 0 0 1-4.38 1.67 6.9 6.9 0 0 0-11.74 6.28 19.56 19.56 0 0 1-14.2-7.2 6.9 6.9 0 0 0 2.13 9.2 6.84 6.84 0 0 1-3.13-.86v.09a6.9 6.9 0 0 0 5.53 6.75 6.88 6.88 0 0 1-3.11.12 6.9 6.9 0 0 0 6.44 4.79 13.83 13.83 0 0 1-10.2 2.85 19.51 19.51 0 0 0 10.56 3.1" />
    <defs>
        <linearGradient id="a" x1="37" x2="37" y1="0" y2="74" gradientUnits="userSpaceOnUse">
            <stop stop-color="#1A1A1A" />
            <stop offset="1" stop-color="#1A1A1A" stop-opacity="0" />
        </linearGradient>
        <linearGradient id="b" x1="37" x2="37" y1="0" y2="74" gradientUnits="userSpaceOnUse">
            <stop stop-color="#262626" />
            <stop offset="1" stop-color="#262626" stop-opacity="0" />
        </linearGradient>
    </defs>
</svg>