<svg width="75" height="75" viewBox="0 0 75 75" fill="none" xmlns="http://www.w3.org/2000/svg">
<path d="M8.73833 22.8295C9.74969 21.8182 9.74969 20.1704 8.73833 19.1591C8.23833 18.6591 7.56787 18.3977 6.90878 18.3977C6.24969 18.3977 5.57923 18.6477 5.07923 19.1591C4.5906 19.6477 4.31787 20.2954 4.31787 20.9886C4.31787 21.6818 4.5906 22.3295 5.07923 22.8182C6.07923 23.8409 7.72696 23.8409 8.73833 22.8295Z" fill="#15AED5"/>
<path d="M21.3068 10.2726C22.3181 9.26128 22.3181 7.61355 21.3068 6.60218C20.7954 6.10218 20.1363 5.84082 19.4772 5.84082C18.8181 5.84082 18.1477 6.09082 17.6477 6.60218C16.6363 7.61355 16.6363 9.26128 17.6477 10.2726C18.625 11.2499 20.3295 11.2499 21.3068 10.2726Z" fill="#15AED5"/>
<path d="M29.4317 18.3976C30.443 17.3863 30.443 15.7385 29.4317 14.7272C28.9317 14.2272 28.2612 13.9658 27.6021 13.9658C26.943 13.9658 26.2726 14.2158 25.7726 14.7272C25.284 15.2158 25.0112 15.8635 25.0112 16.5567C25.0112 17.2499 25.284 17.8976 25.7726 18.3863C26.7499 19.3749 28.4544 19.3749 29.4317 18.3976Z" fill="#15AED5"/>
<path d="M41.1363 6.69316C42.1476 5.6818 42.1476 4.03407 41.1363 3.02271C40.6249 2.52271 39.9658 2.27271 39.2953 2.27271C38.6249 2.27271 37.9658 2.52271 37.4658 3.03407C36.4544 4.04543 36.4544 5.69316 37.4658 6.70452C38.4772 7.70452 40.1135 7.70452 41.1363 6.69316Z" fill="#15AED5"/>
<path d="M31.7385 14.0341L36.7612 9.01134C36.443 8.81816 36.1362 8.57952 35.8521 8.3068C35.5794 8.0227 35.3408 7.71589 35.1476 7.39771L30.1362 12.4204C30.4544 12.6023 30.7612 12.8409 31.0453 13.125C31.318 13.4091 31.5567 13.7159 31.7385 14.0341Z" fill="#15AED5"/>
<path d="M23.3634 14.1817C23.568 13.7953 23.8407 13.443 24.1589 13.1249C24.3861 12.8976 24.6361 12.693 24.8975 12.5112L23.5225 11.1362C23.3407 11.3976 23.1361 11.6476 22.9089 11.8749C22.5907 12.193 22.2384 12.4658 21.8521 12.6703L23.3634 14.1817Z" fill="#15AED5"/>
<path d="M11.0568 18.4657L16.9318 12.5793C16.6136 12.3861 16.3068 12.1475 16.034 11.8748C15.7613 11.6021 15.5227 11.2952 15.3295 10.9771L9.44312 16.8521C9.7613 17.0452 10.0681 17.2839 10.3522 17.5566C10.6249 17.8407 10.8636 18.1475 11.0568 18.4657Z" fill="#15AED5"/>
<path d="M56.1362 14.4431V26.2272L64.4658 34.5568C66.3067 32.3522 67.3067 29.6022 67.3067 26.6931C67.3067 20.2954 62.3862 15.0113 56.1362 14.4431Z" fill="#15AED5"/>
<path d="M47.1362 36.1703C49.3408 38.0112 52.0908 39.0112 54.9999 39.0112C57.909 39.0112 60.659 38.0112 62.8635 36.1703L54.9999 28.3066L47.1362 36.1703Z" fill="#15AED5"/>
<path d="M53.8633 14.4431C47.602 15.0227 42.6929 20.2954 42.6929 26.6931C42.6929 29.6022 43.6929 32.3522 45.5338 34.5568L53.8747 26.2158V14.4431H53.8633Z" fill="#15AED5"/>
<path d="M54.9998 8.73853C45.0794 8.73853 37.0339 16.784 37.0339 26.7044C37.0339 34.4544 41.9544 41.034 48.818 43.5567V47.2726C48.818 47.8976 49.318 48.3976 49.943 48.3976H60.0339C60.6589 48.3976 61.1589 47.8976 61.1589 47.2726V43.5567C68.0339 41.034 72.943 34.4544 72.943 26.7044C72.9544 16.784 64.9089 8.73853 54.9998 8.73853ZM65.3067 37.0113C62.5567 39.7613 58.8862 41.284 54.9998 41.284C51.1135 41.284 47.443 39.7726 44.6817 37.0113C41.9317 34.2613 40.4089 30.5908 40.4089 26.7044C40.4089 18.659 46.9544 12.1249 54.9885 12.1249C63.0339 12.1249 69.568 18.6703 69.568 26.7044C69.5794 30.5908 68.0567 34.2613 65.3067 37.0113Z" fill="#15AED5"/>
<path d="M51.5339 67.5453C51.5339 69.4544 53.0794 70.9998 54.9885 70.9998C56.8976 70.9998 58.443 69.4544 58.443 67.5453V50.6589H51.5339V67.5453Z" fill="#15AED5"/>
<path d="M27.2612 51.8862H33.659V68.1817H27.2612V51.8862Z" fill="#15AED5"/>
<path d="M5.44312 56.4089H11.8408V68.1817H5.44312V56.4089Z" fill="#15AED5"/>
<path d="M16.3521 40.5908H22.7498V68.1817H16.3521V40.5908Z" fill="#15AED5"/>
<path d="M38.1816 47.375H44.5794V68.1818H38.1816V47.375Z" fill="#15AED5"/>
<path d="M46.8293 70.4543H3.18153C2.55653 70.4543 2.04517 70.9657 2.04517 71.5907C2.04517 72.2157 2.55653 72.7271 3.18153 72.7271H46.8406C47.4656 72.7271 47.977 72.2157 47.977 71.5907C47.977 70.9657 47.4656 70.4543 46.8293 70.4543Z" fill="#15AED5"/>
</svg>
