<svg width="60" height="58" viewBox="0 0 60 58" fill="none" xmlns="http://www.w3.org/2000/svg">
<path d="M28.3334 24.3333C28.0667 24.3333 27.8201 24.4932 27.7201 24.7466L24.3867 32.7466C24.2467 33.0866 24.4067 33.4799 24.7467 33.6199C25.0867 33.7599 25.4801 33.5999 25.6201 33.2599L26.5601 31.0066H30.1134L31.0534 33.2599C31.1601 33.5132 31.4067 33.6732 31.6667 33.6732C31.7534 33.6732 31.8401 33.6599 31.9201 33.6199C32.2601 33.4799 32.4201 33.0866 32.2801 32.7466L28.9467 24.7466C28.8401 24.4999 28.6001 24.3333 28.3334 24.3333ZM27.1134 29.6666L28.3334 26.7332L29.5534 29.6666H27.1067H27.1134ZM35.0001 24.3333C35.3667 24.3333 35.6667 24.6333 35.6667 24.9999V32.9999C35.6667 33.3666 35.3667 33.6666 35.0001 33.6666C34.6334 33.6666 34.3334 33.3666 34.3334 32.9999V24.9999C34.3334 24.6333 34.6334 24.3333 35.0001 24.3333ZM21.3334 19.6666H38.6667C39.0334 19.6666 39.3334 19.9666 39.3334 20.3333V23.9999C39.3334 24.3666 39.0334 24.6666 38.6667 24.6666C38.3001 24.6666 38.0001 24.3666 38.0001 23.9999V20.9999H22.0001V36.9999H38.0001V29.9999C38.0001 29.6332 38.3001 29.3333 38.6667 29.3333C39.0334 29.3333 39.3334 29.6332 39.3334 29.9999V37.6666C39.3334 38.0332 39.0334 38.3332 38.6667 38.3332H21.3334C20.9667 38.3332 20.6667 38.0332 20.6667 37.6666V20.3333C20.6667 19.9666 20.9667 19.6666 21.3334 19.6666ZM39.3334 26.3999V27.5999C39.3334 27.9666 39.0334 28.2666 38.6667 28.2666C38.3001 28.2666 38.0001 27.9666 38.0001 27.5999V26.3999C38.0001 26.0332 38.3001 25.7332 38.6667 25.7332C39.0334 25.7332 39.3334 26.0332 39.3334 26.3999ZM45.3334 16.3333H57.3334C57.9801 16.3333 58.5534 16.0199 58.9201 15.5333C58.9334 15.5133 58.9534 15.4999 58.9667 15.4799C59.2001 15.1533 59.3334 14.7599 59.3334 14.3266V2.33325C59.3334 1.23325 58.4334 0.333252 57.3334 0.333252H45.3334C44.2334 0.333252 43.3334 1.23325 43.3334 2.33325V7.66658H32.0001C31.6334 7.66658 31.3334 7.96658 31.3334 8.33325V16.9999H28.6667V8.33325C28.6667 7.96658 28.3667 7.66658 28.0001 7.66658H16.6667V2.33325C16.6667 1.23325 15.7667 0.333252 14.6667 0.333252H2.66675C1.56675 0.333252 0.666748 1.23325 0.666748 2.33325V14.3333C0.666748 15.4333 1.56675 16.3333 2.66675 16.3333H14.6667C15.7667 16.3333 16.6667 15.4333 16.6667 14.3333V8.99992H27.3334V16.9999H20.0001C18.9001 16.9999 18.0001 17.8999 18.0001 18.9999V38.9999C18.0001 40.0999 18.9001 40.9999 20.0001 40.9999H27.3334V48.9999H16.6667V43.6666C16.6667 42.5666 15.7667 41.6666 14.6667 41.6666H2.66675C1.56675 41.6666 0.666748 42.5666 0.666748 43.6666V55.6666C0.666748 56.7666 1.56675 57.6666 2.66675 57.6666H14.6667C15.7667 57.6666 16.6667 56.7666 16.6667 55.6666V50.3332H28.0001C28.3667 50.3332 28.6667 50.0332 28.6667 49.6666V40.9999H31.3334V49.6666C31.3334 50.0332 31.6334 50.3332 32.0001 50.3332H43.3334V55.6666C43.3334 56.7666 44.2334 57.6666 45.3334 57.6666H57.3334C58.4334 57.6666 59.3334 56.7666 59.3334 55.6666V43.6666C59.3334 42.5666 58.4334 41.6666 57.3334 41.6666H45.3334C44.2334 41.6666 43.3334 42.5666 43.3334 43.6666V48.9999H32.6667V40.9999H40.0001C41.1001 40.9999 42.0001 40.0999 42.0001 38.9999V18.9999C42.0001 17.8999 41.1001 16.9999 40.0001 16.9999H32.6667V8.99992H43.3334V14.3333C43.3334 15.4333 44.2334 16.3333 45.3334 16.3333ZM15.3334 14.3333C15.3334 14.6999 15.0334 14.9999 14.6667 14.9999H2.66675C2.30008 14.9999 2.00008 14.6999 2.00008 14.3333V2.33325C2.00008 1.96659 2.30008 1.66659 2.66675 1.66659H14.6667C15.0334 1.66659 15.3334 1.96659 15.3334 2.33325V14.3333ZM15.3334 55.6666C15.3334 56.0332 15.0334 56.3332 14.6667 56.3332H2.66675C2.30008 56.3332 2.00008 56.0332 2.00008 55.6666V43.6666C2.00008 43.2999 2.30008 42.9999 2.66675 42.9999H14.6667C15.0334 42.9999 15.3334 43.2999 15.3334 43.6666V55.6666ZM44.6667 43.6666C44.6667 43.2999 44.9668 42.9999 45.3334 42.9999H57.3334C57.7001 42.9999 58.0001 43.2999 58.0001 43.6666V55.6666C58.0001 56.0332 57.7001 56.3332 57.3334 56.3332H45.3334C44.9668 56.3332 44.6667 56.0332 44.6667 55.6666V43.6666ZM40.6667 18.9999V38.9999C40.6667 39.3666 40.3667 39.6666 40.0001 39.6666H20.0001C19.6334 39.6666 19.3334 39.3666 19.3334 38.9999V18.9999C19.3334 18.6333 19.6334 18.3333 20.0001 18.3333H40.0001C40.3667 18.3333 40.6667 18.6333 40.6667 18.9999ZM44.6734 14.3733L48.0867 8.45325C48.2601 8.15325 48.5467 8.11992 48.6601 8.11992C48.7734 8.11992 49.0601 8.15325 49.2334 8.45325L53.0068 14.9999H45.3201C44.9668 14.9999 44.6801 14.7199 44.6601 14.3733H44.6734ZM54.5601 14.9999L52.4868 11.4133L53.4201 9.79325C53.5934 9.49325 53.8801 9.45992 53.9934 9.45992C54.1067 9.45992 54.3934 9.49325 54.5667 9.79325L57.5534 14.9599C57.4801 14.9866 54.5534 15.0066 54.5534 15.0066L54.5601 14.9999ZM44.6667 2.33325C44.6667 1.96659 44.9668 1.66659 45.3334 1.66659H57.3334C57.7001 1.66659 58.0001 1.96659 58.0001 2.33325V13.0466L55.7334 9.11992C55.3734 8.49325 54.7267 8.11992 54.0001 8.11992C53.2734 8.11992 52.6334 8.49325 52.2668 9.11992L51.7134 10.0733L50.3934 7.77992C50.0334 7.15325 49.3867 6.77992 48.6601 6.77992C47.9334 6.77992 47.2934 7.15325 46.9268 7.77992L44.6601 11.7133V2.32659L44.6667 2.33325ZM4.48008 7.50659V9.15325C4.48008 9.51992 4.18008 9.81992 3.81342 9.81992C3.44675 9.81992 3.14675 9.51992 3.14675 9.15325V7.50659C3.14675 7.13992 3.44675 6.83992 3.81342 6.83992C4.18008 6.83992 4.48008 7.13992 4.48008 7.50659ZM6.90675 6.68658V9.97992C6.90675 10.3466 6.60675 10.6466 6.24008 10.6466C5.87341 10.6466 5.57341 10.3466 5.57341 9.97992V6.68658C5.57341 6.31992 5.87341 6.01992 6.24008 6.01992C6.60675 6.01992 6.90675 6.31992 6.90675 6.68658ZM9.33342 4.79325V11.8733C9.33342 12.2399 9.03341 12.5399 8.66675 12.5399C8.30008 12.5399 8.00008 12.2399 8.00008 11.8733V4.79325C8.00008 4.42658 8.30008 4.12658 8.66675 4.12658C9.03341 4.12658 9.33342 4.42658 9.33342 4.79325ZM11.7601 6.68658V9.97992C11.7601 10.3466 11.4601 10.6466 11.0934 10.6466C10.7267 10.6466 10.4267 10.3466 10.4267 9.97992V6.68658C10.4267 6.31992 10.7267 6.01992 11.0934 6.01992C11.4601 6.01992 11.7601 6.31992 11.7601 6.68658ZM14.1867 7.50659V9.15325C14.1867 9.51992 13.8867 9.81992 13.5201 9.81992C13.1534 9.81992 12.8534 9.51992 12.8534 9.15325V7.50659C12.8534 7.13992 13.1534 6.83992 13.5201 6.83992C13.8867 6.83992 14.1867 7.13992 14.1867 7.50659ZM46.6667 46.3332C46.6667 45.9666 46.9668 45.6666 47.3334 45.6666H55.3334C55.7001 45.6666 56.0001 45.9666 56.0001 46.3332C56.0001 46.6999 55.7001 46.9999 55.3334 46.9999H47.3334C46.9668 46.9999 46.6667 46.6999 46.6667 46.3332ZM46.6667 49.6666C46.6667 49.2999 46.9668 48.9999 47.3334 48.9999H55.3334C55.7001 48.9999 56.0001 49.2999 56.0001 49.6666C56.0001 50.0332 55.7001 50.3332 55.3334 50.3332H47.3334C46.9668 50.3332 46.6667 50.0332 46.6667 49.6666ZM46.6667 52.9999C46.6667 52.6332 46.9668 52.3332 47.3334 52.3332H55.3334C55.7001 52.3332 56.0001 52.6332 56.0001 52.9999C56.0001 53.3666 55.7001 53.6666 55.3334 53.6666H47.3334C46.9668 53.6666 46.6667 53.3666 46.6667 52.9999ZM52.0001 6.99992C53.1001 6.99992 54.0001 6.09992 54.0001 4.99992C54.0001 3.89992 53.1001 2.99992 52.0001 2.99992C50.9001 2.99992 50.0001 3.89992 50.0001 4.99992C50.0001 6.09992 50.9001 6.99992 52.0001 6.99992ZM52.0001 4.33325C52.3667 4.33325 52.6667 4.63325 52.6667 4.99992C52.6667 5.36658 52.3667 5.66658 52.0001 5.66658C51.6334 5.66658 51.3334 5.36658 51.3334 4.99992C51.3334 4.63325 51.6334 4.33325 52.0001 4.33325ZM10.9267 48.5466L8.47341 47.1266C8.06675 46.8932 7.58675 46.8932 7.18008 47.1266C6.77342 47.3599 6.53341 47.7799 6.53341 48.2466V51.0799C6.53341 51.5466 6.77342 51.9666 7.18008 52.1999C7.38008 52.3199 7.60675 52.3732 7.82675 52.3732C8.04675 52.3732 8.27342 52.3133 8.47341 52.1999L10.9267 50.7799C11.3334 50.5466 11.5734 50.1266 11.5734 49.6599C11.5734 49.1932 11.3334 48.7732 10.9267 48.5399V48.5466ZM7.86675 51.0132L7.84675 48.3133L10.1934 49.6666L7.86675 51.0132ZM8.66675 43.9999C5.54008 43.9999 3.00008 46.5399 3.00008 49.6666C3.00008 52.7932 5.54008 55.3332 8.66675 55.3332C11.7934 55.3332 14.3334 52.7932 14.3334 49.6666C14.3334 46.5399 11.7934 43.9999 8.66675 43.9999ZM8.66675 53.9999C6.28008 53.9999 4.33341 52.0532 4.33341 49.6666C4.33341 47.2799 6.28008 45.3332 8.66675 45.3332C11.0534 45.3332 13.0001 47.2799 13.0001 49.6666C13.0001 52.0532 11.0534 53.9999 8.66675 53.9999Z" fill="#15AED5"/>
</svg>
