<svg width="64" height="64" viewBox="0 0 64 64" fill="none" xmlns="http://www.w3.org/2000/svg">
<path d="M62.2567 32.9375H32.5625C32.0793 32.9375 31.6875 32.5458 31.6875 32.0625C31.6875 31.5793 32.0793 31.1875 32.5625 31.1875H62.2567C62.74 31.1875 63.1317 31.5793 63.1317 32.0625C63.1317 32.5458 62.74 32.9375 62.2567 32.9375Z" fill="#15AED5"/>
<path d="M50.8902 25.8922H44.892C44.4087 25.8922 44.017 25.5005 44.017 25.0172C44.017 24.534 44.4087 24.1422 44.892 24.1422H50.2212L51.0092 21.24C51.1127 20.8587 51.4587 20.5942 51.8537 20.5942H62.0465C62.5297 20.5942 62.9215 20.986 62.9215 21.4692C62.9215 21.9525 62.5297 22.3442 62.0465 22.3442H52.5227L51.7347 25.2465C51.6312 25.6277 51.2855 25.8922 50.8902 25.8922Z" fill="#15AED5"/>
<path d="M62.0465 43.5307H51.8537C51.4587 43.5307 51.1127 43.2662 51.0092 42.8849L50.2212 39.9827H44.892C44.4087 39.9827 44.017 39.5909 44.017 39.1077C44.017 38.6244 44.4087 38.2327 44.892 38.2327H50.8902C51.2852 38.2327 51.6312 38.4972 51.7347 38.8784L52.5227 41.7807H62.0465C62.5297 41.7807 62.9215 42.1724 62.9215 42.6557C62.9215 43.1389 62.5297 43.5307 62.0465 43.5307Z" fill="#15AED5"/>
<path d="M62.2567 33.4375H32.5625C31.8043 33.4375 31.1875 32.8205 31.1875 32.0625C31.1875 31.3045 31.8043 30.6875 32.5625 30.6875H62.2567C63.015 30.6875 63.6317 31.3045 63.6317 32.0625C63.6317 32.8205 63.015 33.4375 62.2567 33.4375ZM32.5625 31.6875C32.3557 31.6875 32.1875 31.8557 32.1875 32.0625C32.1875 32.2693 32.3557 32.4375 32.5625 32.4375H62.2567C62.4635 32.4375 62.6317 32.2693 62.6317 32.0625C62.6317 31.8557 62.4635 31.6875 62.2567 31.6875H32.5625Z" fill="#15AED5"/>
<path d="M50.8906 26.392H44.8923C44.1341 26.392 43.5173 25.775 43.5173 25.017C43.5173 24.2587 44.1341 23.642 44.8923 23.642H49.8393L50.5271 21.1087C50.6893 20.5112 51.2351 20.094 51.8541 20.094H62.0468C62.8051 20.094 63.4218 20.711 63.4218 21.469C63.4218 22.2272 62.8051 22.844 62.0468 22.844H52.9056L52.2178 25.3775C52.0553 25.9747 51.5096 26.392 50.8906 26.392ZM44.8921 24.642C44.6853 24.642 44.5171 24.8102 44.5171 25.017C44.5171 25.2237 44.6853 25.392 44.8921 25.392H50.8903C51.0593 25.392 51.2081 25.2782 51.2523 25.1155L52.0403 22.2132C52.0996 21.9955 52.2971 21.8442 52.5228 21.8442H62.0466C62.2533 21.8442 62.4216 21.676 62.4216 21.4692C62.4216 21.2625 62.2533 21.0942 62.0466 21.0942H51.8538C51.6851 21.0942 51.5361 21.208 51.4918 21.371L50.7038 24.273C50.6446 24.4907 50.4471 24.642 50.2213 24.642H44.8921Z" fill="#15AED5"/>
<path d="M62.0468 44.0307H51.8541C51.2351 44.0307 50.6893 43.6134 50.5271 43.0159L49.8393 40.4827H44.8923C44.1341 40.4827 43.5173 39.8659 43.5173 39.1077C43.5173 38.3497 44.1341 37.7327 44.8923 37.7327H50.8906C51.5096 37.7327 52.0553 38.1499 52.2176 38.7472L52.9053 41.2807H62.0466C62.8048 41.2807 63.4216 41.8974 63.4216 42.6557C63.4218 43.4137 62.8048 44.0307 62.0468 44.0307ZM44.8921 38.7329C44.6853 38.7329 44.5171 38.9012 44.5171 39.1079C44.5171 39.3147 44.6853 39.4829 44.8921 39.4829H50.2213C50.4471 39.4829 50.6446 39.6339 50.7038 39.8519L51.4918 42.7539C51.5361 42.9169 51.6848 43.0307 51.8538 43.0307H62.0466C62.2533 43.0307 62.4216 42.8624 62.4216 42.6557C62.4216 42.4489 62.2533 42.2807 62.0466 42.2807H52.5228C52.2971 42.2807 52.0996 42.1297 52.0403 41.9117L51.2523 39.0094C51.2081 38.8467 51.0593 38.7329 50.8903 38.7329H44.8921Z" fill="#15AED5"/>
<path d="M61.7567 23.0251C62.6159 23.0251 63.3124 22.3285 63.3124 21.4693C63.3124 20.6101 62.6159 19.9136 61.7567 19.9136C60.8975 19.9136 60.2009 20.6101 60.2009 21.4693C60.2009 22.3285 60.8975 23.0251 61.7567 23.0251Z" fill="#15AED5"/>
<path d="M61.7567 23.5251C60.6232 23.5251 59.7009 22.6031 59.7009 21.4693C59.7009 20.3356 60.6229 19.4136 61.7567 19.4136C62.8904 19.4136 63.8124 20.3356 63.8124 21.4693C63.8124 22.6031 62.8904 23.5251 61.7567 23.5251ZM61.7567 20.4136C61.1744 20.4136 60.7009 20.8873 60.7009 21.4693C60.7009 22.0513 61.1744 22.5251 61.7567 22.5251C62.3389 22.5251 62.8124 22.0513 62.8124 21.4693C62.8124 20.8873 62.3389 20.4136 61.7567 20.4136Z" fill="#15AED5"/>
<path d="M61.7567 44.2116C62.6159 44.2116 63.3124 43.5151 63.3124 42.6558C63.3124 41.7966 62.6159 41.1001 61.7567 41.1001C60.8975 41.1001 60.2009 41.7966 60.2009 42.6558C60.2009 43.5151 60.8975 44.2116 61.7567 44.2116Z" fill="#15AED5"/>
<path d="M61.7567 44.7116C60.6232 44.7116 59.7009 43.7896 59.7009 42.6558C59.7009 41.5221 60.6229 40.6001 61.7567 40.6001C62.8904 40.6001 63.8124 41.5221 63.8124 42.6558C63.8124 43.7896 62.8904 44.7116 61.7567 44.7116ZM61.7567 41.6001C61.1744 41.6001 60.7009 42.0738 60.7009 42.6558C60.7009 43.2378 61.1744 43.7116 61.7567 43.7116C62.3389 43.7116 62.8124 43.2378 62.8124 42.6558C62.8124 42.0738 62.3389 41.6001 61.7567 41.6001Z" fill="#15AED5"/>
<path d="M61.7567 33.6181C62.6159 33.6181 63.3124 32.9216 63.3124 32.0623C63.3124 31.2031 62.6159 30.5066 61.7567 30.5066C60.8975 30.5066 60.2009 31.2031 60.2009 32.0623C60.2009 32.9216 60.8975 33.6181 61.7567 33.6181Z" fill="#15AED5"/>
<path d="M61.7567 34.1183C60.6232 34.1183 59.7009 33.1961 59.7009 32.0623C59.7009 30.9286 60.6229 30.0066 61.7567 30.0066C62.8904 30.0066 63.8124 30.9286 63.8124 32.0623C63.8124 33.1961 62.8904 34.1183 61.7567 34.1183ZM61.7567 31.0066C61.1744 31.0066 60.7009 31.4803 60.7009 32.0623C60.7009 32.6446 61.1744 33.1183 61.7567 33.1183C62.3389 33.1183 62.8124 32.6446 62.8124 32.0623C62.8124 31.4803 62.3389 31.0066 61.7567 31.0066Z" fill="#15AED5"/>
<path d="M1.74316 31.1875H31.4374C31.9207 31.1875 32.3124 31.5793 32.3124 32.0625C32.3124 32.5458 31.9207 32.9375 31.4374 32.9375H1.74316C1.25991 32.9375 0.868164 32.5458 0.868164 32.0625C0.868164 31.5793 1.25991 31.1875 1.74316 31.1875Z" fill="#15AED5"/>
<path d="M13.1095 38.2327H19.1077C19.591 38.2327 19.9827 38.6244 19.9827 39.1077C19.9827 39.5909 19.591 39.9827 19.1077 39.9827H13.7785L12.9905 42.8849C12.887 43.2662 12.541 43.5307 12.146 43.5307H1.95325C1.47 43.5307 1.07825 43.1389 1.07825 42.6557C1.07825 42.1724 1.47 41.7807 1.95325 41.7807H11.477L12.265 38.8784C12.3687 38.4972 12.7145 38.2327 13.1095 38.2327Z" fill="#15AED5"/>
<path d="M1.95325 20.5942H12.146C12.541 20.5942 12.887 20.8587 12.9905 21.24L13.7785 24.1422H19.1077C19.591 24.1422 19.9827 24.534 19.9827 25.0172C19.9827 25.5005 19.591 25.8922 19.1077 25.8922H13.1095C12.7145 25.8922 12.3685 25.6277 12.265 25.2465L11.477 22.3442H1.95325C1.47 22.3442 1.07825 21.9525 1.07825 21.4692C1.07825 20.986 1.47025 20.5942 1.95325 20.5942Z" fill="#15AED5"/>
<path d="M31.4374 33.4375H1.74316C0.984914 33.4375 0.368164 32.8205 0.368164 32.0625C0.368164 31.3045 0.984914 30.6875 1.74316 30.6875H31.4374C32.1957 30.6875 32.8124 31.3045 32.8124 32.0625C32.8124 32.8205 32.1957 33.4375 31.4374 33.4375ZM1.74316 31.6875C1.53641 31.6875 1.36816 31.8557 1.36816 32.0625C1.36816 32.2693 1.53641 32.4375 1.74316 32.4375H31.4374C31.6442 32.4375 31.8124 32.2693 31.8124 32.0625C31.8124 31.8557 31.6442 31.6875 31.4374 31.6875H1.74316Z" fill="#15AED5"/>
<path d="M12.146 44.0307H1.95325C1.195 44.0307 0.578247 43.4137 0.578247 42.6557C0.578247 41.8974 1.195 41.2807 1.95325 41.2807H11.0945L11.7822 38.7472C11.9445 38.1499 12.4902 37.7327 13.1092 37.7327H19.1075C19.8657 37.7327 20.4825 38.3497 20.4825 39.1077C20.4825 39.8659 19.8657 40.4827 19.1075 40.4827H14.161L13.4732 43.0159C13.3107 43.6134 12.765 44.0307 12.146 44.0307ZM1.95325 42.2807C1.7465 42.2807 1.57825 42.4489 1.57825 42.6557C1.57825 42.8624 1.7465 43.0307 1.95325 43.0307H12.146C12.3147 43.0307 12.4637 42.9169 12.508 42.7539L13.296 39.8519C13.3552 39.6342 13.5527 39.4829 13.7785 39.4829H19.1077C19.3145 39.4829 19.4827 39.3147 19.4827 39.1079C19.4827 38.9012 19.3145 38.7329 19.1077 38.7329H13.1095C12.9405 38.7329 12.7917 38.8467 12.7475 39.0094L11.9595 41.9117C11.9002 42.1294 11.7027 42.2807 11.477 42.2807H1.95325Z" fill="#15AED5"/>
<path d="M19.108 26.392H13.1095C12.4905 26.392 11.9447 25.9747 11.7825 25.3775L11.0947 22.844H1.95325C1.195 22.844 0.578247 22.2272 0.578247 21.469C0.578247 20.711 1.195 20.094 1.95325 20.094H12.146C12.765 20.094 13.3107 20.5112 13.473 21.1087L14.1607 23.642H19.1077C19.866 23.642 20.4827 24.2587 20.4827 25.017C20.483 25.7752 19.866 26.392 19.108 26.392ZM1.95325 21.0942C1.7465 21.0942 1.57825 21.2625 1.57825 21.4692C1.57825 21.676 1.7465 21.8442 1.95325 21.8442H11.477C11.7027 21.8442 11.9002 21.9952 11.9595 22.2132L12.7475 25.1155C12.7917 25.2782 12.9405 25.392 13.1095 25.392H19.1077C19.3145 25.392 19.4827 25.2237 19.4827 25.017C19.4827 24.8102 19.3145 24.642 19.1077 24.642H13.7785C13.5527 24.642 13.3552 24.491 13.296 24.273L12.508 21.371C12.4637 21.208 12.315 21.0942 12.146 21.0942H1.95325Z" fill="#15AED5"/>
<path d="M2.24325 44.2116C3.10247 44.2116 3.799 43.5151 3.799 42.6558C3.799 41.7966 3.10247 41.1001 2.24325 41.1001C1.38403 41.1001 0.6875 41.7966 0.6875 42.6558C0.6875 43.5151 1.38403 44.2116 2.24325 44.2116Z" fill="#15AED5"/>
<path d="M2.24325 44.7116C1.10975 44.7116 0.1875 43.7896 0.1875 42.6558C0.1875 41.5221 1.1095 40.6001 2.24325 40.6001C3.377 40.6001 4.299 41.5221 4.299 42.6558C4.299 43.7896 3.37675 44.7116 2.24325 44.7116ZM2.24325 41.6001C1.661 41.6001 1.1875 42.0738 1.1875 42.6558C1.1875 43.2378 1.661 43.7116 2.24325 43.7116C2.8255 43.7116 3.299 43.2378 3.299 42.6558C3.299 42.0738 2.82525 41.6001 2.24325 41.6001Z" fill="#15AED5"/>
<path d="M2.24325 23.0251C3.10247 23.0251 3.799 22.3285 3.799 21.4693C3.799 20.6101 3.10247 19.9136 2.24325 19.9136C1.38403 19.9136 0.6875 20.6101 0.6875 21.4693C0.6875 22.3285 1.38403 23.0251 2.24325 23.0251Z" fill="#15AED5"/>
<path d="M2.24325 23.5251C1.10975 23.5251 0.1875 22.6031 0.1875 21.4693C0.1875 20.3356 1.1095 19.4136 2.24325 19.4136C3.377 19.4136 4.299 20.3356 4.299 21.4693C4.299 22.6031 3.37675 23.5251 2.24325 23.5251ZM2.24325 20.4136C1.661 20.4136 1.1875 20.8873 1.1875 21.4693C1.1875 22.0513 1.661 22.5251 2.24325 22.5251C2.8255 22.5251 3.299 22.0513 3.299 21.4693C3.299 20.8873 2.82525 20.4136 2.24325 20.4136Z" fill="#15AED5"/>
<path d="M2.24325 33.6186C3.10247 33.6186 3.799 32.922 3.799 32.0628C3.799 31.2036 3.10247 30.5071 2.24325 30.5071C1.38403 30.5071 0.6875 31.2036 0.6875 32.0628C0.6875 32.922 1.38403 33.6186 2.24325 33.6186Z" fill="#15AED5"/>
<path d="M2.24325 34.1186C1.10975 34.1186 0.1875 33.1966 0.1875 32.0628C0.1875 30.9291 1.1095 30.0068 2.24325 30.0068C3.377 30.0068 4.299 30.9291 4.299 32.0628C4.299 33.1966 3.37675 34.1186 2.24325 34.1186ZM2.24325 31.0068C1.661 31.0068 1.1875 31.4806 1.1875 32.0628C1.1875 32.6448 1.661 33.1186 2.24325 33.1186C2.8255 33.1186 3.299 32.6448 3.299 32.0628C3.29875 31.4806 2.82525 31.0068 2.24325 31.0068Z" fill="#15AED5"/>
<path d="M32.875 1.80566V31.4999C32.875 31.9832 32.4833 32.3749 32 32.3749C31.5168 32.3749 31.125 31.9832 31.125 31.4999V1.80566C31.125 1.32241 31.5168 0.930664 32 0.930664C32.4833 0.930664 32.875 1.32241 32.875 1.80566Z" fill="#15AED5"/>
<path d="M25.8297 13.1719V19.1701C25.8297 19.6534 25.438 20.0451 24.9547 20.0451C24.4715 20.0451 24.0797 19.6534 24.0797 19.1701V13.8409L21.1775 13.0529C20.7962 12.9494 20.5317 12.6034 20.5317 12.2084V2.01562C20.5317 1.53237 20.9235 1.14062 21.4067 1.14062C21.89 1.14062 22.2817 1.53237 22.2817 2.01562V11.5394L25.184 12.3274C25.5652 12.4311 25.8297 12.7769 25.8297 13.1719Z" fill="#15AED5"/>
<path d="M43.4683 2.01562V12.2084C43.4683 12.6034 43.2038 12.9494 42.8225 13.0529L39.9203 13.8409V19.1701C39.9203 19.6534 39.5285 20.0451 39.0453 20.0451C38.562 20.0451 38.1703 19.6534 38.1703 19.1701V13.1719C38.1703 12.7769 38.4348 12.4309 38.816 12.3274L41.7183 11.5394V2.01562C41.7183 1.53237 42.11 1.14062 42.5933 1.14062C43.0765 1.14062 43.4683 1.53262 43.4683 2.01562Z" fill="#15AED5"/>
<path d="M32 32.8749C31.2418 32.8749 30.625 32.2579 30.625 31.4999V1.80566C30.625 1.04766 31.2418 0.430664 32 0.430664C32.7582 0.430664 33.375 1.04766 33.375 1.80566V31.4999C33.375 32.2579 32.7582 32.8749 32 32.8749ZM32 1.43066C31.7932 1.43066 31.625 1.59891 31.625 1.80566V31.4999C31.625 31.7067 31.7932 31.8749 32 31.8749C32.2068 31.8749 32.375 31.7067 32.375 31.4999V1.80566C32.375 1.59891 32.2068 1.43066 32 1.43066Z" fill="#15AED5"/>
<path d="M24.9547 20.5454C24.1965 20.5454 23.5797 19.9284 23.5797 19.1704V14.2234L21.0465 13.5354C20.449 13.3734 20.0317 12.8276 20.0317 12.2084V2.01562C20.0317 1.25738 20.6485 0.640625 21.4067 0.640625C22.165 0.640625 22.7817 1.25738 22.7817 2.01562V11.1569L25.315 11.8449C25.9125 12.0069 26.3297 12.5526 26.3297 13.1719V19.1701C26.3297 19.9284 25.713 20.5454 24.9547 20.5454ZM21.4067 1.64062C21.2 1.64062 21.0317 1.80887 21.0317 2.01562V12.2084C21.0317 12.3774 21.1455 12.5261 21.3085 12.5704L24.2107 13.3584C24.4287 13.4174 24.5797 13.6151 24.5797 13.8409V19.1701C24.5797 19.3769 24.748 19.5451 24.9547 19.5451C25.1615 19.5451 25.3297 19.3769 25.3297 19.1701V13.1719C25.3297 13.0029 25.216 12.8541 25.053 12.8099L22.1507 12.0219C21.9327 11.9629 21.7817 11.7651 21.7817 11.5394V2.01562C21.7817 1.80887 21.6135 1.64062 21.4067 1.64062Z" fill="#15AED5"/>
<path d="M39.0453 20.5454C38.287 20.5454 37.6703 19.9284 37.6703 19.1704V13.1719C37.6703 12.5526 38.0875 12.0071 38.6848 11.8449L41.218 11.1569V2.01562C41.218 1.25738 41.8348 0.640625 42.593 0.640625C43.3513 0.640625 43.968 1.25738 43.968 2.01562V12.2084C43.968 12.8276 43.5508 13.3731 42.9535 13.5354L40.4203 14.2234V19.1704C40.4203 19.9284 39.8035 20.5454 39.0453 20.5454ZM42.5933 1.64062C42.3865 1.64062 42.2183 1.80887 42.2183 2.01562V11.5394C42.2183 11.7649 42.0673 11.9626 41.8493 12.0219L38.947 12.8099C38.7843 12.8544 38.6705 13.0029 38.6705 13.1719V19.1701C38.6705 19.3769 38.8388 19.5451 39.0455 19.5451C39.2523 19.5451 39.4205 19.3769 39.4205 19.1701V13.8409C39.4205 13.6154 39.5715 13.4176 39.7895 13.3584L42.6918 12.5704C42.8545 12.5259 42.9683 12.3774 42.9683 12.2084V2.01562C42.9683 1.80887 42.8 1.64062 42.5933 1.64062Z" fill="#15AED5"/>
<path d="M21.4068 3.8615C22.266 3.8615 22.9626 3.16497 22.9626 2.30575C22.9626 1.44653 22.266 0.75 21.4068 0.75C20.5476 0.75 19.8511 1.44653 19.8511 2.30575C19.8511 3.16497 20.5476 3.8615 21.4068 3.8615Z" fill="#15AED5"/>
<path d="M21.4068 4.36125C20.2733 4.36125 19.3511 3.43925 19.3511 2.3055C19.3511 1.17175 20.2733 0.25 21.4068 0.25C22.5403 0.25 23.4626 1.172 23.4626 2.30575C23.4626 3.4395 22.5403 4.36125 21.4068 4.36125ZM21.4068 1.25C20.8246 1.25 20.3511 1.72375 20.3511 2.30575C20.3511 2.88775 20.8246 3.3615 21.4068 3.3615C21.9891 3.3615 22.4626 2.88775 22.4626 2.30575C22.4626 1.72375 21.9891 1.25 21.4068 1.25Z" fill="#15AED5"/>
<path d="M42.5933 3.8615C43.4526 3.8615 44.1491 3.16497 44.1491 2.30575C44.1491 1.44653 43.4526 0.75 42.5933 0.75C41.7341 0.75 41.0376 1.44653 41.0376 2.30575C41.0376 3.16497 41.7341 3.8615 42.5933 3.8615Z" fill="#15AED5"/>
<path d="M42.5933 4.36125C41.4598 4.36125 40.5376 3.43925 40.5376 2.3055C40.5376 1.17175 41.4598 0.25 42.5933 0.25C43.7268 0.25 44.6491 1.172 44.6491 2.30575C44.6491 3.4395 43.7268 4.36125 42.5933 4.36125ZM42.5933 1.25C42.0111 1.25 41.5376 1.72375 41.5376 2.30575C41.5376 2.88775 42.0113 3.3615 42.5933 3.3615C43.1753 3.3615 43.6491 2.88775 43.6491 2.30575C43.6491 1.72375 43.1756 1.25 42.5933 1.25Z" fill="#15AED5"/>
<path d="M31.9998 3.8615C32.8591 3.8615 33.5556 3.16497 33.5556 2.30575C33.5556 1.44653 32.8591 0.75 31.9998 0.75C31.1406 0.75 30.4441 1.44653 30.4441 2.30575C30.4441 3.16497 31.1406 3.8615 31.9998 3.8615Z" fill="#15AED5"/>
<path d="M32.0001 4.36125C30.8666 4.36125 29.9443 3.43925 29.9443 2.3055C29.9443 1.17175 30.8663 0.25 32.0001 0.25C33.1338 0.25 34.0558 1.172 34.0558 2.30575C34.0558 3.4395 33.1336 4.36125 32.0001 4.36125ZM32.0001 1.25C31.4178 1.25 30.9443 1.72375 30.9443 2.30575C30.9443 2.88775 31.4178 3.3615 32.0001 3.3615C32.5823 3.3615 33.0558 2.88775 33.0558 2.30575C33.0558 1.72375 32.5821 1.25 32.0001 1.25Z" fill="#15AED5"/>
<path d="M31.125 62.3192V32.625C31.125 32.1418 31.5168 31.75 32 31.75C32.4833 31.75 32.875 32.1418 32.875 32.625V62.3192C32.875 62.8025 32.4833 63.1942 32 63.1942C31.5168 63.1942 31.125 62.8025 31.125 62.3192Z" fill="#15AED5"/>
<path d="M38.1703 50.9531V44.9548C38.1703 44.4716 38.562 44.0798 39.0453 44.0798C39.5285 44.0798 39.9203 44.4716 39.9203 44.9548V50.2841L42.8225 51.0721C43.2038 51.1756 43.4683 51.5216 43.4683 51.9166V62.1093C43.4683 62.5926 43.0765 62.9843 42.5933 62.9843C42.11 62.9843 41.7183 62.5926 41.7183 62.1093V52.5856L38.816 51.7976C38.4348 51.6938 38.1703 51.3481 38.1703 50.9531Z" fill="#15AED5"/>
<path d="M20.5317 62.1093V51.9166C20.5317 51.5216 20.7962 51.1756 21.1775 51.0721L24.0797 50.2841V44.9548C24.0797 44.4716 24.4715 44.0798 24.9547 44.0798C25.438 44.0798 25.8297 44.4716 25.8297 44.9548V50.9531C25.8297 51.3481 25.5652 51.6941 25.184 51.7976L22.2817 52.5856V62.1093C22.2817 62.5926 21.89 62.9843 21.4067 62.9843C20.9235 62.9843 20.5317 62.5923 20.5317 62.1093Z" fill="#15AED5"/>
<path d="M32 63.6942C31.2418 63.6942 30.625 63.0772 30.625 62.3192V32.625C30.625 31.867 31.2418 31.25 32 31.25C32.7582 31.25 33.375 31.867 33.375 32.625V62.3192C33.375 63.0775 32.7582 63.6942 32 63.6942ZM32 32.25C31.7932 32.25 31.625 32.4182 31.625 32.625V62.3192C31.625 62.526 31.7932 62.6942 32 62.6942C32.2068 62.6942 32.375 62.526 32.375 62.3192V32.625C32.375 32.4182 32.2068 32.25 32 32.25Z" fill="#15AED5"/>
<path d="M42.5933 63.4843C41.835 63.4843 41.2183 62.8676 41.2183 62.1093V52.9681L38.685 52.2801C38.0875 52.1181 37.6703 51.5723 37.6703 50.9531V44.9548C37.6703 44.1968 38.287 43.5798 39.0453 43.5798C39.8035 43.5798 40.4203 44.1968 40.4203 44.9548V49.9018L42.9535 50.5898C43.551 50.7518 43.9683 51.2976 43.9683 51.9168V62.1096C43.9683 62.8676 43.3513 63.4843 42.5933 63.4843ZM39.0453 44.5796C38.8385 44.5796 38.6703 44.7478 38.6703 44.9546V50.9528C38.6703 51.1218 38.784 51.2706 38.947 51.3148L41.849 52.1028C42.067 52.1618 42.218 52.3596 42.218 52.5853V62.1091C42.218 62.3158 42.3863 62.4841 42.593 62.4841C42.7998 62.4841 42.968 62.3158 42.968 62.1091V51.9163C42.968 51.7473 42.8543 51.5986 42.6913 51.5543L39.7893 50.7663C39.5713 50.7073 39.4203 50.5096 39.4203 50.2838V44.9546C39.4203 44.7478 39.252 44.5796 39.0453 44.5796Z" fill="#15AED5"/>
<path d="M21.4067 63.4843C20.6485 63.4843 20.0317 62.8676 20.0317 62.1093V51.9166C20.0317 51.2973 20.449 50.7518 21.0465 50.5896L23.5797 49.9016V44.9546C23.5797 44.1966 24.1965 43.5796 24.9547 43.5796C25.713 43.5796 26.3297 44.1966 26.3297 44.9546V50.9528C26.3297 51.5721 25.9125 52.1176 25.315 52.2798L22.7817 52.9678V62.1091C22.7817 62.8676 22.165 63.4843 21.4067 63.4843ZM24.9547 44.5796C24.748 44.5796 24.5797 44.7478 24.5797 44.9546V50.2838C24.5797 50.5093 24.4287 50.7071 24.2107 50.7663L21.3085 51.5543C21.1455 51.5988 21.0317 51.7473 21.0317 51.9163V62.1091C21.0317 62.3158 21.2 62.4841 21.4067 62.4841C21.6135 62.4841 21.7817 62.3158 21.7817 62.1091V52.5853C21.7817 52.3598 21.9327 52.1621 22.1507 52.1028L25.053 51.3148C25.216 51.2703 25.3297 51.1218 25.3297 50.9528V44.9546C25.3297 44.7478 25.1615 44.5796 24.9547 44.5796Z" fill="#15AED5"/>
<path d="M42.5933 63.3749C43.4526 63.3749 44.1491 62.6784 44.1491 61.8192C44.1491 60.96 43.4526 60.2634 42.5933 60.2634C41.7341 60.2634 41.0376 60.96 41.0376 61.8192C41.0376 62.6784 41.7341 63.3749 42.5933 63.3749Z" fill="#15AED5"/>
<path d="M42.5933 63.8749C41.4598 63.8749 40.5376 62.9529 40.5376 61.8192C40.5376 60.6854 41.4598 59.7634 42.5933 59.7634C43.7268 59.7634 44.6491 60.6854 44.6491 61.8192C44.6491 62.9529 43.7268 63.8749 42.5933 63.8749ZM42.5933 60.7637C42.0111 60.7637 41.5376 61.2374 41.5376 61.8194C41.5376 62.4014 42.0113 62.8752 42.5933 62.8752C43.1753 62.8752 43.6491 62.4014 43.6491 61.8194C43.6491 61.2374 43.1756 60.7637 42.5933 60.7637Z" fill="#15AED5"/>
<path d="M21.4068 63.3749C22.266 63.3749 22.9626 62.6784 22.9626 61.8192C22.9626 60.96 22.266 60.2634 21.4068 60.2634C20.5476 60.2634 19.8511 60.96 19.8511 61.8192C19.8511 62.6784 20.5476 63.3749 21.4068 63.3749Z" fill="#15AED5"/>
<path d="M21.4068 63.8749C20.2733 63.8749 19.3511 62.9529 19.3511 61.8192C19.3511 60.6854 20.2731 59.7634 21.4068 59.7634C22.5406 59.7634 23.4626 60.6854 23.4626 61.8192C23.4626 62.9529 22.5403 63.8749 21.4068 63.8749ZM21.4068 60.7637C20.8246 60.7637 20.3511 61.2374 20.3511 61.8194C20.3511 62.4014 20.8246 62.8752 21.4068 62.8752C21.9891 62.8752 22.4626 62.4014 22.4626 61.8194C22.4626 61.2374 21.9891 60.7637 21.4068 60.7637Z" fill="#15AED5"/>
<path d="M32.0003 63.3749C32.8595 63.3749 33.5561 62.6784 33.5561 61.8192C33.5561 60.96 32.8595 60.2634 32.0003 60.2634C31.1411 60.2634 30.4446 60.96 30.4446 61.8192C30.4446 62.6784 31.1411 63.3749 32.0003 63.3749Z" fill="#15AED5"/>
<path d="M32.0001 63.8749C30.8666 63.8749 29.9443 62.9529 29.9443 61.8192C29.9443 60.6854 30.8663 59.7634 32.0001 59.7634C33.1338 59.7634 34.0558 60.6854 34.0558 61.8192C34.0558 62.9529 33.1338 63.8749 32.0001 63.8749ZM32.0001 60.7637C31.4178 60.7637 30.9443 61.2374 30.9443 61.8194C30.9443 62.4014 31.4178 62.8752 32.0001 62.8752C32.5823 62.8752 33.0558 62.4014 33.0558 61.8194C33.0558 61.2374 32.5823 60.7637 32.0001 60.7637Z" fill="#15AED5"/>
<path d="M55.973 31.993H55.969C54.1447 24.5602 44.109 18.8752 32.0002 18.8752C19.8915 18.8752 9.85572 24.5602 8.03147 31.993H8.02747C8.02797 31.9952 8.02897 31.9977 8.02947 32C8.02897 32.0022 8.02797 32.0047 8.02747 32.007H8.03147C9.85572 39.4397 19.8915 45.1247 32.0002 45.1247C44.109 45.1247 54.1447 39.4397 55.969 32.007H55.973C55.9725 32.0047 55.9715 32.0022 55.971 32C55.9715 31.9977 55.9722 31.9952 55.973 31.993Z" fill="#15AED5"/>
<path d="M32 45.6247C26.1 45.6247 20.3885 44.2632 15.917 41.7907C11.46 39.3262 8.49328 35.913 7.55753 32.1747C7.52778 32.0925 7.51953 32.0032 7.53578 31.916C7.53978 31.8907 7.54578 31.866 7.55353 31.8415C8.48478 28.0967 11.4535 24.6772 15.917 22.2092C20.3885 19.7367 26.1 18.3752 32 18.3752C37.9 18.3752 43.6115 19.7367 48.083 22.2092C52.54 24.6737 55.5068 28.087 56.4425 31.8252C56.4723 31.9075 56.4805 31.9967 56.4643 32.084C56.4603 32.1092 56.4543 32.134 56.4465 32.1585C55.5153 35.9032 52.5465 39.3227 48.083 41.7907C43.6115 44.2632 37.9 45.6247 32 45.6247ZM8.54503 32C9.43203 35.4397 12.217 38.602 16.4008 40.9155C20.7265 43.3072 26.2663 44.6247 31.9998 44.6247C37.7333 44.6247 43.273 43.3072 47.5988 40.9155C51.7825 38.602 54.5675 35.4397 55.4545 32C54.5675 28.5602 51.7825 25.398 47.5988 23.0845C43.2733 20.6927 37.7335 19.3752 32 19.3752C26.2665 19.3752 20.7268 20.6927 16.401 23.0845C12.217 25.398 9.43203 28.5602 8.54503 32Z" fill="#15AED5"/>
<path d="M32.0002 45.1247C39.2488 45.1247 45.125 39.2486 45.125 32C45.125 24.7514 39.2488 18.8752 32.0002 18.8752C24.7516 18.8752 18.8755 24.7514 18.8755 32C18.8755 39.2486 24.7516 45.1247 32.0002 45.1247Z" fill="white"/>
<path d="M31.9999 45.6175C24.4892 45.6175 18.3787 39.507 18.3787 31.9962C18.3787 24.4857 24.4892 18.3755 31.9999 18.3755C39.5107 18.3755 45.6212 24.4857 45.6212 31.9962C45.6212 39.5067 39.5107 45.6175 31.9999 45.6175ZM31.9999 19.3752C25.0407 19.3752 19.3787 25.0367 19.3787 31.996C19.3787 38.9555 25.0404 44.6172 31.9999 44.6172C38.9594 44.6172 44.6212 38.9555 44.6212 31.996C44.6212 25.0367 38.9592 19.3752 31.9999 19.3752Z" fill="#15AED5"/>
<path d="M31.9999 35.5602C33.9662 35.5602 35.5602 33.9662 35.5602 31.9999C35.5602 30.0337 33.9662 28.4397 31.9999 28.4397C30.0337 28.4397 28.4397 30.0337 28.4397 31.9999C28.4397 33.9662 30.0337 35.5602 31.9999 35.5602Z" fill="#15AED5"/>
<path d="M29.8242 22.5205L29.6992 24.7632C29.287 24.8947 28.8897 25.0602 28.5112 25.257L26.8357 23.7582C26.614 23.56 26.276 23.5692 26.0657 23.7797L23.7797 26.0657C23.5695 26.276 23.56 26.614 23.7582 26.8357L25.257 28.5112C25.0602 28.8897 24.8947 29.287 24.7632 29.6992L22.5202 29.8242C22.2232 29.8407 21.991 30.0865 21.991 30.384V33.6167C21.991 33.9142 22.2232 34.1597 22.5202 34.1765L24.7632 34.3015C24.8947 34.7137 25.0602 35.111 25.257 35.4895L23.7582 37.165C23.56 37.3867 23.5692 37.7247 23.7797 37.935L26.0657 40.221C26.276 40.4312 26.614 40.4407 26.8357 40.2425L28.5112 38.7437C28.8897 38.9405 29.287 39.106 29.6992 39.2375L29.8242 41.4802C29.8407 41.7772 30.0865 42.0095 30.384 42.0095H33.6167C33.9142 42.0095 34.16 41.7772 34.1765 41.4802L34.3015 39.2375C34.7137 39.106 35.111 38.9405 35.4895 38.7437L37.165 40.2425C37.3867 40.4407 37.7247 40.4315 37.935 40.221L40.221 37.935C40.4312 37.7247 40.4407 37.3867 40.2425 37.165L38.7437 35.4895C38.9405 35.111 39.106 34.7137 39.2375 34.3015L41.4805 34.1765C41.7775 34.16 42.0097 33.9142 42.0097 33.6167V30.384C42.0097 30.0865 41.7775 29.841 41.4805 29.8242L39.2375 29.6992C39.106 29.287 38.9405 28.8897 38.7437 28.5112L40.2425 26.8357C40.4407 26.614 40.4315 26.276 40.221 26.0657L37.935 23.7797C37.7247 23.5695 37.3867 23.56 37.165 23.7582L35.4895 25.257C35.111 25.0602 34.7137 24.8947 34.3015 24.7632L34.1765 22.5205C34.16 22.2235 33.9142 21.9912 33.6167 21.9912H30.384C30.0865 21.9912 29.8407 22.2235 29.8242 22.5205ZM36.1507 32.0002C36.1507 34.2925 34.2925 36.1507 32.0002 36.1507C29.708 36.1507 27.8497 34.2925 27.8497 32.0002C27.8497 29.708 29.708 27.8497 32.0002 27.8497C34.2925 27.8497 36.1507 29.708 36.1507 32.0002Z" fill="#15AED5"/>
<path d="M33.617 42.5092H30.3842C29.8217 42.5092 29.3565 42.0692 29.3252 41.5075L29.2192 39.6007C29.007 39.5227 28.798 39.4362 28.5935 39.341L27.1695 40.6147C26.7497 40.9897 26.1097 40.9717 25.7122 40.5742L23.4265 38.2882C23.0287 37.8907 23.0107 37.2507 23.386 36.8312L24.6597 35.4072C24.5645 35.2025 24.4775 34.9935 24.3997 34.7817L22.4927 34.6755C21.9312 34.6445 21.4912 34.1795 21.4912 33.6167V30.3837C21.4912 29.8215 21.931 29.3565 22.4925 29.325L24.3995 29.219C24.4772 29.007 24.5642 28.798 24.6595 28.5932L23.3855 27.169C23.0105 26.75 23.0282 26.1102 23.426 25.7122L25.712 23.4262C26.1102 23.0285 26.7502 23.0107 27.169 23.386L28.593 24.6597C28.667 24.6252 28.7417 24.592 28.8165 24.56C28.9482 24.5032 29.0827 24.4497 29.2187 24.3997L29.3247 22.4927C29.356 21.9312 29.821 21.4912 30.3837 21.4912H33.6165C34.179 21.4912 34.6442 21.9312 34.6755 22.4927L34.7815 24.3997C34.9932 24.4777 35.2022 24.5642 35.407 24.6597L36.831 23.386C37.2502 23.0105 37.8902 23.0287 38.288 23.426L40.574 25.7122C40.9717 26.1102 40.9895 26.75 40.6145 27.1692L39.3407 28.5932C39.436 28.798 39.523 29.007 39.6007 29.219L41.5075 29.325C42.0692 29.3565 42.509 29.8215 42.509 30.3837V33.6167C42.509 34.1795 42.069 34.6445 41.5072 34.6755L39.6007 34.7817C39.523 34.9935 39.4362 35.2025 39.3407 35.4072L40.6145 36.8315C40.9895 37.2507 40.9717 37.8907 40.5737 38.2885L38.288 40.5742C37.8905 40.972 37.2505 40.99 36.831 40.615L35.407 39.341C35.2025 39.4362 34.9935 39.523 34.7812 39.6007L34.6752 41.5077C34.645 42.0692 34.1797 42.5092 33.617 42.5092ZM28.5117 38.2435C28.5902 38.2435 28.6692 38.262 28.7422 38.3C29.0967 38.4842 29.47 38.6392 29.8515 38.761C30.0492 38.824 30.1875 39.0025 30.199 39.2095L30.324 41.4525C30.3257 41.4845 30.3522 41.5097 30.3845 41.5097H33.6172C33.6492 41.5097 33.676 41.4845 33.6777 41.4527L33.8027 39.2095C33.8142 39.0025 33.9525 38.824 34.1502 38.761C34.5317 38.6395 34.905 38.4845 35.2595 38.3C35.4437 38.2042 35.6685 38.2322 35.8235 38.371L37.499 39.8697C37.5227 39.891 37.5595 39.8902 37.5822 39.8672L39.8682 37.5812C39.891 37.5585 39.892 37.5222 39.8705 37.4982L38.3717 35.8225C38.2332 35.6677 38.205 35.4432 38.3007 35.2587C38.4855 34.903 38.6405 34.53 38.7617 34.1492C38.8247 33.9517 39.0032 33.8132 39.2102 33.8017L41.4532 33.6767C41.4855 33.675 41.5105 33.6485 41.5105 33.6165V30.3835C41.5105 30.3515 41.4852 30.325 41.4532 30.3232L39.2105 30.1985C39.0032 30.187 38.8247 30.0485 38.7617 29.851C38.6405 29.47 38.4855 29.0965 38.3007 28.7415C38.205 28.557 38.2332 28.3325 38.3717 28.1777L39.8705 26.5022C39.892 26.478 39.891 26.4417 39.8682 26.419L37.5825 24.133C37.5597 24.1102 37.5232 24.1095 37.4992 24.1307L35.8237 25.6292C35.669 25.768 35.4445 25.796 35.26 25.7005C34.9042 25.5157 34.5307 25.3607 34.1505 25.2392C33.9527 25.1762 33.8145 24.9977 33.803 24.7907L33.678 22.5477C33.6762 22.5157 33.6497 22.4905 33.6175 22.4905H30.3847C30.3527 22.4905 30.326 22.5157 30.3242 22.5477L30.1992 24.7907C30.1877 24.9977 30.0495 25.1762 29.8517 25.2392C29.6352 25.3082 29.4197 25.3887 29.2115 25.4782C29.0527 25.5462 28.8947 25.621 28.7422 25.7005C28.5575 25.7957 28.3332 25.768 28.1785 25.6292L26.503 24.1307C26.479 24.1097 26.4425 24.1102 26.4197 24.1332L24.134 26.419C24.1115 26.4417 24.1102 26.478 24.1317 26.502L25.6305 28.1777C25.769 28.3325 25.7972 28.557 25.7015 28.7415C25.517 29.0967 25.362 29.47 25.2405 29.851C25.1775 30.0485 24.999 30.187 24.7917 30.1985L22.5487 30.3232C22.517 30.325 22.4917 30.3515 22.4917 30.3835V33.6165C22.4917 33.6485 22.5167 33.675 22.5485 33.6767L24.7917 33.8017C24.999 33.8132 25.1772 33.9517 25.2402 34.1492C25.3615 34.5297 25.5165 34.903 25.7012 35.2587C25.797 35.4432 25.7687 35.6677 25.6302 35.8225L24.1315 37.498C24.11 37.5222 24.111 37.5585 24.1335 37.581L26.4195 39.8672C26.4422 39.89 26.479 39.8905 26.5027 39.8695L28.178 38.371C28.272 38.2867 28.3912 38.2435 28.5117 38.2435ZM32.0007 36.6507C29.4365 36.6507 27.3502 34.5645 27.3502 32.0002C27.3502 29.436 29.4365 27.3497 32.0007 27.3497C34.565 27.3497 36.6512 29.436 36.6512 32.0002C36.6512 34.5645 34.565 36.6507 32.0007 36.6507ZM32.0007 28.3497C29.9877 28.3497 28.3502 29.9872 28.3502 32.0002C28.3502 34.0132 29.9877 35.6507 32.0007 35.6507C34.0137 35.6507 35.6512 34.0132 35.6512 32.0002C35.6512 29.9872 34.0137 28.3497 32.0007 28.3497Z" fill="#15AED5"/>
<path d="M26.6877 32.0002C26.6877 34.9342 29.0662 37.3127 32.0002 37.3127C34.9342 37.3127 37.3127 34.9342 37.3127 32.0002C37.3127 29.0662 34.9342 26.6877 32.0002 26.6877C29.0662 26.6877 26.6877 29.0662 26.6877 32.0002ZM34.875 32.0002C34.875 33.5855 33.5855 34.875 32.0002 34.875C30.415 34.875 29.1255 33.5855 29.1255 32.0002C29.1255 30.415 30.415 29.1255 32.0002 29.1255C33.5855 29.1255 34.875 30.415 34.875 32.0002Z" fill="white"/>
<path d="M32.0002 37.8127C28.7952 37.8127 26.1877 35.2052 26.1877 32.0002C26.1877 28.7952 28.7952 26.1877 32.0002 26.1877C35.2052 26.1877 37.8127 28.7952 37.8127 32.0002C37.8127 35.2052 35.2052 37.8127 32.0002 37.8127ZM32.0002 27.1877C29.3465 27.1877 27.1877 29.3467 27.1877 32.0002C27.1877 34.6537 29.3467 36.8127 32.0002 36.8127C34.6537 36.8127 36.8127 34.6537 36.8127 32.0002C36.8127 29.3467 34.654 27.1877 32.0002 27.1877ZM32.0002 35.3752C30.1395 35.3752 28.6255 33.8612 28.6255 32.0002C28.6255 30.1395 30.1395 28.6255 32.0002 28.6255C33.861 28.6255 35.375 30.1395 35.375 32.0002C35.375 33.8612 33.861 35.3752 32.0002 35.3752ZM32.0002 29.6255C30.6907 29.6255 29.6255 30.691 29.6255 32.0002C29.6255 33.3097 30.6907 34.3752 32.0002 34.3752C33.3097 34.3752 34.375 33.3097 34.375 32.0002C34.375 30.691 33.3097 29.6255 32.0002 29.6255Z" fill="#15AED5"/>
</svg>
