<svg width="64" height="64" viewBox="0 0 64 64" fill="none" xmlns="http://www.w3.org/2000/svg">
<path d="M38.2498 57.9375H21.8748V53.0625" stroke="#15AED5" stroke-width="1.875" stroke-miterlimit="10" stroke-linecap="round" stroke-linejoin="round"/>
<path d="M38.1248 6.0625H21.8748V10.9375" stroke="#15AED5" stroke-width="1.875" stroke-miterlimit="10" stroke-linecap="round" stroke-linejoin="round"/>
<path d="M53.0623 35.75V39.8587L56.8123 43.6075V48.4188" stroke="#15AED5" stroke-width="1.875" stroke-miterlimit="10" stroke-linecap="round" stroke-linejoin="round"/>
<path d="M56.8123 15.5813V20.3925L53.0623 24.1413V28.25" stroke="#15AED5" stroke-width="1.875" stroke-miterlimit="10" stroke-linecap="round" stroke-linejoin="round"/>
<path d="M46.6872 32H42.9922" stroke="#15AED5" stroke-width="1.875" stroke-miterlimit="10" stroke-linecap="round" stroke-linejoin="round"/>
<path d="M63.0623 58.4049V59.5687C63.0623 61.4987 61.4985 63.0624 59.5685 63.0624H41.8685C39.9385 63.0624 38.3748 61.4987 38.3748 59.5687V52.1174C38.3748 50.1887 39.9385 48.6249 41.8685 48.6249H44.3835C44.8335 48.6249 45.1985 48.2599 45.1985 47.8087V45.6412C45.1985 44.5999 46.461 44.0824 47.1923 44.8237L50.5985 48.2774C50.8173 48.4999 51.116 48.6249 51.4273 48.6249H59.5685C61.4985 48.6249 63.0623 50.1887 63.0623 52.1174V54.0299" stroke="#15AED5" stroke-width="1.875" stroke-miterlimit="10" stroke-linecap="round" stroke-linejoin="round"/>
<path d="M52.5935 56.4685V55.2185C52.5935 54.183 51.754 53.3435 50.7185 53.3435C49.683 53.3435 48.8435 54.183 48.8435 55.2185V56.4685C48.8435 57.504 49.683 58.3435 50.7185 58.3435C51.754 58.3435 52.5935 57.504 52.5935 56.4685Z" stroke="#15AED5" stroke-width="1.875" stroke-miterlimit="10" stroke-linecap="round" stroke-linejoin="round"/>
<path d="M44.6248 53.3435H45.6248V58.3435" stroke="#15AED5" stroke-width="1.875" stroke-miterlimit="10" stroke-linecap="round" stroke-linejoin="round"/>
<path d="M55.8123 53.3435H56.8123V58.3435" stroke="#15AED5" stroke-width="1.875" stroke-miterlimit="10" stroke-linecap="round" stroke-linejoin="round"/>
<path d="M63.0623 10.3438V11.8825C63.0623 13.8112 61.4985 15.375 59.5685 15.375H51.4273C51.116 15.375 50.8173 15.5 50.5985 15.7225L47.1923 19.1763C46.461 19.9175 45.1985 19.4 45.1985 18.3587V16.1912C45.1985 15.74 44.8335 15.375 44.3835 15.375H41.8685C39.9385 15.375 38.3748 13.8112 38.3748 11.8825V4.43125C38.3748 2.50125 39.9385 0.9375 41.8685 0.9375H59.5685C61.4985 0.9375 63.0623 2.50125 63.0623 4.43125V5.96875" stroke="#15AED5" stroke-width="1.875" stroke-miterlimit="10" stroke-linecap="round" stroke-linejoin="round"/>
<path d="M42.8123 33.9154V30.0849C42.8123 29.2167 42.1994 28.4695 41.3481 28.2995L39.017 27.834C38.386 27.708 37.863 27.26 37.6563 26.6506C37.42 25.9544 37.1393 25.2789 36.8176 24.6272C36.5325 24.0495 36.5841 23.3625 36.9415 22.8264L38.261 20.847C38.7424 20.1249 38.6473 19.1634 38.0335 18.5498L35.325 15.8412C34.7114 15.2276 33.7498 15.1324 33.0276 15.6137L31.0484 16.9332C30.5123 17.2906 29.8253 17.3424 29.2475 17.0571C28.5959 16.7355 27.9203 16.4547 27.2241 16.2185C26.6148 16.0117 26.1669 15.4887 26.0408 14.8577L25.5753 12.5266C25.4053 11.6754 24.6579 11.0625 23.7899 11.0625H19.9594C19.0913 11.0625 18.344 11.6754 18.174 12.5266L17.7085 14.8577C17.5825 15.4887 17.1345 16.0117 16.5251 16.2185C15.8289 16.4547 15.1534 16.7355 14.5018 17.0571C13.924 17.3422 13.237 17.2906 12.7009 16.9332L10.7216 15.6137C9.99951 15.1324 9.03801 15.2275 8.42426 15.8412L5.71576 18.5498C5.10214 19.1634 5.00689 20.125 5.48826 20.847L6.80776 22.8264C7.16514 23.3625 7.21689 24.0495 6.93164 24.6272C6.61001 25.2789 6.32926 25.9544 6.09301 26.6506C5.88626 27.26 5.36326 27.7079 4.73226 27.834L2.40114 28.2995C1.54989 28.4695 0.937012 29.2169 0.937012 30.0849V33.9154C0.937012 34.7835 1.54989 35.5308 2.40114 35.7008L4.73226 36.1663C5.36326 36.2923 5.88626 36.7402 6.09301 37.3496C6.32926 38.0459 6.61001 38.7214 6.93164 39.373C7.21676 39.9508 7.16514 40.6378 6.80776 41.1739L5.48826 43.1531C5.00689 43.8753 5.10201 44.8367 5.71576 45.4504L8.42426 48.1589C9.03789 48.7725 9.99951 48.8678 10.7216 48.3864L12.7009 47.0669C13.237 46.7095 13.924 46.6578 14.5018 46.943C15.1534 47.2646 15.829 47.5454 16.5251 47.7816C17.1345 47.9884 17.5824 48.5114 17.7085 49.1424L18.174 51.4735C18.344 52.3247 19.0914 52.9376 19.9594 52.9376H23.7899C24.658 52.9376 25.4053 52.3247 25.5753 51.4735L26.0408 49.1424C26.1668 48.5114 26.6148 47.9884 27.2241 47.7816C27.9204 47.5454 28.5959 47.2646 29.2475 46.943C29.8253 46.6579 30.5123 46.7095 31.0484 47.0669L33.0276 48.3864C33.7498 48.8678 34.7113 48.7726 35.325 48.1589L38.0335 45.4504C38.6471 44.8367 38.7424 43.8751 38.261 43.1531L36.9415 41.1739C36.5841 40.6378 36.5324 39.9508 36.8176 39.373C37.1393 38.7214 37.42 38.0459 37.6563 37.3496C37.863 36.7402 38.386 36.2924 39.017 36.1663L41.3481 35.7008C42.1994 35.5308 42.8123 34.7834 42.8123 33.9154Z" stroke="#15AED5" stroke-width="1.875" stroke-miterlimit="10" stroke-linecap="round" stroke-linejoin="round"/>
<path d="M18.926 19.5287C19.8723 19.305 20.8598 19.1875 21.8748 19.1875C28.951 19.1875 34.6873 24.9237 34.6873 32C34.6873 39.0763 28.951 44.8125 21.8748 44.8125C14.7985 44.8125 9.06226 39.0763 9.06226 32C9.06226 27.495 11.3873 23.5325 14.9035 21.2488" stroke="#15AED5" stroke-width="1.875" stroke-miterlimit="10" stroke-linecap="round" stroke-linejoin="round"/>
<path d="M12.968 28.875V35.125" stroke="#15AED5" stroke-width="1.875" stroke-miterlimit="10" stroke-linecap="round" stroke-linejoin="round"/>
<path d="M17.343 28.875V35.125" stroke="#15AED5" stroke-width="1.875" stroke-miterlimit="10" stroke-linecap="round" stroke-linejoin="round"/>
<path d="M12.968 28.875L17.343 35.125" stroke="#15AED5" stroke-width="1.875" stroke-miterlimit="10" stroke-linecap="round" stroke-linejoin="round"/>
<path d="M27.0315 28.875V35.125" stroke="#15AED5" stroke-width="1.875" stroke-miterlimit="10" stroke-linecap="round" stroke-linejoin="round"/>
<path d="M27.0315 32.625H28.9065C29.942 32.625 30.7815 31.7855 30.7815 30.75C30.7815 29.7145 29.942 28.875 28.9065 28.875H27.0315" stroke="#15AED5" stroke-width="1.875" stroke-miterlimit="10" stroke-linecap="round" stroke-linejoin="round"/>
<path d="M21.093 28.875V35.1198C21.1621 35.1316 23.2815 35.1198 23.2815 35.1198" stroke="#15AED5" stroke-width="1.875" stroke-miterlimit="10" stroke-linecap="round" stroke-linejoin="round"/>
<path d="M55.5623 35.75H50.5623C48.4911 35.75 46.8123 34.0711 46.8123 32C46.8123 29.9289 48.4911 28.25 50.5623 28.25H55.5623C57.6334 28.25 59.3123 29.9289 59.3123 32C59.3123 34.0711 57.6334 35.75 55.5623 35.75Z" stroke="#15AED5" stroke-width="1.875" stroke-miterlimit="10" stroke-linecap="round" stroke-linejoin="round"/>
<circle cx="55.2498" cy="32" r="0.9375" fill="#15AED5"/>
<circle cx="50.8748" cy="32" r="0.9375" fill="#15AED5"/>
<path d="M45.4581 5.65649L42.1248 10.6565" stroke="#15AED5" stroke-width="1.875" stroke-miterlimit="10" stroke-linecap="round" stroke-linejoin="round"/>
<path d="M42.1248 5.65649L45.4581 10.6565" stroke="#15AED5" stroke-width="1.875" stroke-miterlimit="10" stroke-linecap="round" stroke-linejoin="round"/>
<path d="M55.9789 5.65649H59.3123L55.9789 10.6565H59.3123" stroke="#15AED5" stroke-width="1.875" stroke-miterlimit="10" stroke-linecap="round" stroke-linejoin="round"/>
<path d="M52.3851 5.65649L50.7185 8.15649V10.6565V8.15649L49.0519 5.65649" stroke="#15AED5" stroke-width="1.875" stroke-miterlimit="10" stroke-linecap="round" stroke-linejoin="round"/>
</svg>
