<svg width="64" height="64" viewBox="0 0 64 64" fill="none" xmlns="http://www.w3.org/2000/svg">
<path d="M63 22.219L60.584 21.616L61.865 19.482L60 17.616V1H32V17H29.644C29.87 16.029 30 15.027 30 14C30 6.832 24.168 1 17 1C9.832 1 4 6.832 4 14.029C4 15.14 4.153 16.226 4.422 17.274C2.435 17.945 1 19.822 1 22V46C1 48.757 3.243 51 6 51H19V53H15.236C14.092 53 13.064 53.636 12.552 54.658L11 57.764V63H39V57.764L37.447 54.659C36.936 53.636 35.907 53 34.764 53H31V51H44C46.757 51 49 48.757 49 46V39H53.781L54.384 36.585L56.52 37.865L61.866 32.518L60.586 30.383L63 29.781V22.219ZM34 3H58V15.615L56.52 14.134L54.384 15.415L53.781 13H46.219L45.616 15.416L43.48 14.135L40.616 17H34V3ZM38.616 19L38.135 19.481L39.561 21.857L37.736 22.987L31.998 23L32.002 25L45.055 24.972L45.292 24.311C46.138 21.954 48.562 20.607 51.048 21.105C52.949 21.487 54.491 23.018 54.887 24.913C55.203 26.432 54.837 27.976 53.882 29.151C52.927 30.326 51.512 31 50 31C47.884 31 45.989 29.661 45.285 27.667L45.049 27H35C33.346 27 32 28.346 32 30V36C32 36.552 31.552 37 31 37C30.448 37 30 36.552 30 36V34C30 32.346 28.654 31 27 31C25.346 31 24 32.346 24 34V36C24 36.552 23.552 37 23 37H19C18.448 37 18 36.552 18 36V34.91C20.833 34.432 23 31.968 23 29V26.414L26.192 23.222C27.42 21.993 28.372 20.562 29.018 19H38.616ZM13 27H21V29C21 31.206 19.206 33 17 33C14.794 33 13 31.206 13 29V27ZM14 15H12C10.897 15 10 14.103 10 13C10 11.897 10.897 11 12 11C13.103 11 14 11.897 14 13V15ZM18 25H16V17H18V25ZM17 3C23.065 3 28 7.935 28 14.029C28 16.967 26.855 19.729 24.778 21.807L21.586 25H20V17H22C24.206 17 26 15.206 26 13C26 10.794 24.206 9 22 9C19.794 9 18 10.794 18 13V15H16V13C16 10.794 14.206 9 12 9C9.794 9 8 10.794 8 13C8 15.206 9.794 17 12 17H14V25H12.414L9.222 21.808C7.145 19.729 6 16.967 6 14C6 7.935 10.935 3 17 3ZM20 15V13C20 11.897 20.897 11 22 11C23.103 11 24 11.897 24 13C24 14.103 23.103 15 22 15H20ZM15.236 55H19V57H13.618L14.342 55.553C14.512 55.212 14.854 55 15.236 55ZM13 61V59H37V61H13ZM34.764 55C35.146 55 35.489 55.212 35.659 55.553L36.382 57H31V55H34.764ZM29 57H21V51H29V57ZM44 49H6C4.346 49 3 47.654 3 46V43H15V44C15 45.654 16.346 47 18 47H32C33.654 47 35 45.654 35 44V43H47V46C47 47.654 45.654 49 44 49ZM33 43V44C33 44.552 32.552 45 32 45H29V43H33ZM27 45H23V43H27V45ZM21 45H18C17.448 45 17 44.552 17 44V43H21V45ZM47 41H3V22C3 20.692 3.863 19.564 5.057 19.163C5.7 20.658 6.622 22.036 7.807 23.222L11 26.414V29C11 31.967 13.167 34.431 16 34.91V36C16 37.654 17.346 39 19 39H23C24.654 39 26 37.654 26 36V34C26 33.448 26.448 33 27 33C27.552 33 28 33.448 28 34V36C28 37.654 29.346 39 31 39C32.654 39 34 37.654 34 36V30C34 29.449 34.448 29 35 29H37.716L39.561 30.142L38.135 32.518L43.481 37.865L45.617 36.585L46.219 39H47V41ZM61 28.219L59.051 28.706L58.517 28.908L58.052 30.05L59.348 32.21L56.209 35.349L54.05 34.053L52.831 34.549L52.219 37H47.781L47.295 35.051L47.093 34.517L45.95 34.052L43.791 35.348L40.652 32.209L41.948 30.049L41.517 29.002L41.514 29H43.673C44.82 31.419 47.279 33 49.999 33C52.116 33 54.097 32.057 55.434 30.413C56.77 28.769 57.284 26.616 56.844 24.505C56.288 21.837 54.117 19.682 51.442 19.144C48.208 18.493 45.058 20.088 43.684 22.975L41.474 22.98L41.549 22.92L41.947 21.95L40.651 19.792L43.79 16.654L45.949 17.95L47.169 17.447L47.781 15H52.219L52.83 17.446L54.05 17.949L56.209 16.653L59.348 19.791L58.052 21.949L58.548 23.169L61 23.781V28.219Z" fill="#15AED5"/>
<path d="M28 23H30V25H28V23Z" fill="white"/>
<path d="M36 5H38V7H36V5Z" fill="white"/>
<path d="M40 5H56V7H40V5Z" fill="white"/>
<path d="M36 9H56V11H36V9Z" fill="white"/>
<path d="M36 13H38V15H36V13Z" fill="white"/>
<path d="M40 13H42V15H40V13Z" fill="white"/>
<path d="M5 33H7V35H5V33Z" fill="white"/>
<path d="M5 29H7V31H5V29Z" fill="white"/>
<path d="M5 37H7V39H5V37Z" fill="white"/>
</svg>
