<svg width="23" height="22" viewBox="0 0 23 22" fill="none" xmlns="http://www.w3.org/2000/svg">
<path d="M12.3865 2.95782L13.9239 6.95506C14.1739 7.6051 14.2989 7.93011 14.4933 8.2035C14.6656 8.4458 14.8773 8.65749 15.1196 8.82978C15.393 9.02418 15.718 9.14918 16.368 9.39919L20.3653 10.9366L16.368 12.474C15.718 12.724 15.393 12.849 15.1196 13.0434C14.8773 13.2157 14.6656 13.4274 14.4933 13.6697C14.2989 13.9431 14.1739 14.2681 13.9239 14.9181L12.3865 18.9154L10.8491 14.9181C10.5991 14.2681 10.4741 13.9431 10.2797 13.6697C10.1074 13.4274 9.89568 13.2157 9.65338 13.0434C9.38 12.849 9.05498 12.724 8.40495 12.474L4.4077 10.9366L8.40495 9.39919C9.05498 9.14918 9.38 9.02418 9.65338 8.82978C9.89568 8.65749 10.1074 8.4458 10.2797 8.2035C10.4741 7.93011 10.5991 7.6051 10.8491 6.95506L12.3865 2.95782Z" fill="white"/>
</svg>
