<svg width="99" height="99" viewBox="0 0 99 99" fill="none" xmlns="http://www.w3.org/2000/svg">
<g clip-path="url(#clip0_1733_3719)">
<path d="M49.5 49.5C49.5 46.2179 50.8038 43.0703 53.1246 40.7496C55.4453 38.4288 58.5929 37.125 61.875 37.125C65.1571 37.125 68.3047 38.4288 70.6254 40.7496C72.9462 43.0703 74.25 46.2179 74.25 49.5C74.25 52.7821 72.9462 55.9297 70.6254 58.2504C68.3047 60.5712 65.1571 61.875 61.875 61.875C58.5929 61.875 55.4453 60.5712 53.1246 58.2504C50.8038 55.9297 49.5 52.7821 49.5 49.5V49.5Z" fill="#1ABCFE"/>
<path d="M24.75 74.25C24.75 70.9679 26.0538 67.8203 28.3746 65.4996C30.6953 63.1788 33.8429 61.875 37.125 61.875H49.5V74.25C49.5 77.532 48.1962 80.6797 45.8754 83.0004C43.5547 85.3212 40.4071 86.625 37.125 86.625C33.8429 86.625 30.6953 85.3212 28.3746 83.0004C26.0538 80.6797 24.75 77.532 24.75 74.25V74.25Z" fill="#0ACF83"/>
<path d="M49.5 12.375V37.125H61.875C65.1571 37.125 68.3047 35.8212 70.6254 33.5004C72.9462 31.1797 74.25 28.0321 74.25 24.75C74.25 21.4679 72.9462 18.3203 70.6254 15.9996C68.3047 13.6788 65.1571 12.375 61.875 12.375H49.5Z" fill="#FF7262"/>
<path d="M24.75 24.75C24.75 28.0321 26.0538 31.1797 28.3746 33.5004C30.6953 35.8212 33.8429 37.125 37.125 37.125H49.5V12.375H37.125C33.8429 12.375 30.6953 13.6788 28.3746 15.9996C26.0538 18.3203 24.75 21.4679 24.75 24.75V24.75Z" fill="#F24E1E"/>
<path d="M24.75 49.5C24.75 52.7821 26.0538 55.9297 28.3746 58.2504C30.6953 60.5712 33.8429 61.875 37.125 61.875H49.5V37.125H37.125C33.8429 37.125 30.6953 38.4288 28.3746 40.7496C26.0538 43.0703 24.75 46.2179 24.75 49.5V49.5Z" fill="#A259FF"/>
</g>
<defs>
<clipPath id="clip0_1733_3719">
<rect width="49.5" height="74.25" fill="white" transform="translate(24.75 12.375)"/>
</clipPath>
</defs>
</svg>
