<svg width="100" height="100" viewBox="0 0 100 100" fill="none" xmlns="http://www.w3.org/2000/svg">
<path d="M87.5 12.5H12.5V87.5H87.5V12.5Z" fill="#FF0066"/>
<path d="M42.268 32.2825C42.2911 34.655 40.3926 36.6002 38.0202 36.6349C36.8672 36.6477 35.7568 36.1996 34.9355 35.3902C34.1143 34.5808 33.6502 33.477 33.6462 32.3239C33.6465 29.9513 35.5639 28.0248 37.9365 28.0134C40.3092 28.002 42.245 29.91 42.268 32.2825Z" fill="white"/>
<path d="M28.5652 62.9509C28.5741 61.8609 28.7039 60.7753 28.9522 59.7139L32.2372 46.3129H27.1582L28.7002 40.6129H40.9162L36.0922 59.7499C35.8208 60.7085 35.6697 61.6971 35.6422 62.6929C35.6422 63.9229 36.2422 64.2799 37.1842 64.4929C37.7572 64.6219 42.3292 64.5319 44.8192 58.9999L47.9872 46.3279H42.8392L44.3842 40.6279H55.3792L53.9662 47.0959C55.8952 43.4929 59.7532 40.0699 63.5482 40.0699C67.6012 40.0699 70.9462 42.9559 70.9462 48.4879C70.9394 50.077 70.7009 51.6566 70.2382 53.1769L68.1772 60.5719C67.9917 61.2219 67.884 61.8916 67.8562 62.5669C67.8562 63.8539 68.3752 64.4959 69.3382 64.4959C70.3012 64.4959 71.5222 63.7879 72.9382 59.8639L75.7672 60.9589C74.0962 66.8119 71.0722 69.2539 67.2772 69.2539C62.8402 69.2539 60.7192 66.6139 60.7192 63.0139C60.7142 61.9259 60.8657 60.8428 61.1692 59.7979L63.2902 52.2109C63.5147 51.4598 63.6229 50.6788 63.6112 49.8949C63.6112 47.4499 62.1322 45.9709 59.7532 45.9709C56.7292 45.9709 54.7372 48.1399 53.7082 52.3219L49.5892 68.8219H42.3892L43.6822 63.6319C41.5672 67.1119 38.6242 69.2659 34.9972 69.2659C30.6232 69.2659 28.5652 66.7459 28.5652 62.9509Z" fill="white"/>
</svg>
