<svg width="48" height="48" viewBox="0 0 48 48" fill="none" xmlns="http://www.w3.org/2000/svg">
<path d="M23.8845 8.0835C15.761 8.0835 16.2682 11.6063 16.2682 11.6063L16.2773 15.256H24.0294V16.3517H13.1982C13.1982 16.3517 8 15.7622 8 23.9589C8 32.1556 12.5371 31.8649 12.5371 31.8649H15.2449V28.0613C15.2449 28.0613 15.0989 23.5242 19.7096 23.5242H27.3982C27.3982 23.5242 31.718 23.594 31.718 19.3493V12.3308C31.718 12.3308 32.3739 8.0835 23.8845 8.0835ZM19.61 10.5377C20.3812 10.5377 21.0046 11.1611 21.0046 11.9324C21.0046 12.7036 20.3812 13.327 19.61 13.327C18.8387 13.327 18.2153 12.7036 18.2153 11.9324C18.2153 11.1611 18.8387 10.5377 19.61 10.5377Z" fill="url(#paint0_linear_1637_6575)"/>
<path d="M24.1148 39.9165C32.2383 39.9165 31.731 36.3936 31.731 36.3936L31.722 32.744H23.9699V31.6482H34.8011C34.8011 31.6482 39.9993 32.2377 39.9993 24.0411C39.9993 15.8444 35.4622 16.1351 35.4622 16.1351H32.7544V19.9386C32.7544 19.9386 32.9003 24.4758 28.2897 24.4758H20.6011C20.6011 24.4758 16.2813 24.4059 16.2813 28.6506V35.6691C16.2813 35.6691 15.6254 39.9165 24.1148 39.9165ZM28.3893 37.4623C27.6181 37.4623 26.9947 36.8389 26.9947 36.0676C26.9947 35.2963 27.6181 34.673 28.3893 34.673C29.1606 34.673 29.784 35.2963 29.784 36.0676C29.784 36.8389 29.1606 37.4623 28.3893 37.4623Z" fill="url(#paint1_linear_1637_6575)"/>
<defs>
<linearGradient id="paint0_linear_1637_6575" x1="11.0752" y1="10.9468" x2="26.9331" y2="26.6464" gradientUnits="userSpaceOnUse">
<stop stop-color="#387EB8"/>
<stop offset="1" stop-color="#366994"/>
</linearGradient>
<linearGradient id="paint1_linear_1637_6575" x1="20.8084" y1="21.0281" x2="37.8381" y2="37.1267" gradientUnits="userSpaceOnUse">
<stop stop-color="#FFE052"/>
<stop offset="1" stop-color="#FFC331"/>
</linearGradient>
</defs>
</svg>
