<svg width="109" height="38" viewBox="0 0 109 38" fill="none" xmlns="http://www.w3.org/2000/svg">
<path fill-rule="evenodd" clip-rule="evenodd" d="M94.0628 33.0548V37.9957H102.989C104.818 37.9957 107.958 36.6581 108.067 32.9183V31.0074C108.067 27.8135 105.446 25.93 102.989 25.93H98.5397V23.6369H107.357V18.6687H98.8946C96.7107 18.6687 93.7898 20.4704 93.7898 23.828V25.5478C93.7898 28.9055 96.6834 30.6252 98.8946 30.6252C105.037 30.6525 97.4205 30.6252 103.098 30.6252V33.0275M46.2367 31.8536C46.2367 31.8536 51.0138 31.4442 51.0138 25.2748C51.0138 19.1055 45.2267 18.5322 45.2267 18.5322H34.7988V37.9957H40.04V33.3004L44.5715 37.9957H52.3242L46.2367 31.8536ZM44.2166 27.8681H40.04V23.4186H44.2439C44.2439 23.4186 45.4178 23.8553 45.4178 25.6297C45.4178 27.4041 44.2166 27.8681 44.2166 27.8681ZM63.9531 18.6687H58.63C54.8356 18.6687 53.5526 22.1083 53.5526 23.7461V37.9957H58.8757V34.5834H63.8712V37.9957H69.0305V23.7461C69.0305 19.5968 65.2634 18.6687 63.9531 18.6687ZM63.8712 29.0692H58.8484V24.3467C58.8484 24.3467 58.8484 23.2821 60.5136 23.2821H62.3425C63.8166 23.2821 63.8439 24.3467 63.8439 24.3467V29.0692H63.8712Z" fill="#CC0000"/>
<path d="M77.0103 18.6697H71.4688V37.9966H77.0103V18.6697Z" fill="#CC0000"/>
<path fill-rule="evenodd" clip-rule="evenodd" d="M84.7837 33.0011V18.6697H79.2695V33.0011V37.9966H84.7837H92.2361V33.0011H84.7837Z" fill="#CC0000"/>
<path fill-rule="evenodd" clip-rule="evenodd" d="M1.9082 37.9991H23.4736C23.4736 37.9991 19.3516 19.1908 33.0006 11.5747C35.9761 10.1279 45.4485 4.72289 60.9538 16.188C61.4452 15.7786 61.9092 15.451 61.9092 15.451C61.9092 15.451 47.7143 1.28334 31.9087 2.86663C23.965 3.57637 14.1923 10.8103 8.45973 20.3646C2.72714 29.9189 1.9082 37.9991 1.9082 37.9991Z" fill="#CC0000"/>
<path fill-rule="evenodd" clip-rule="evenodd" d="M1.9082 37.9991H23.4736C23.4736 37.9991 19.3516 19.1908 33.0006 11.5747C35.9761 10.1279 45.4485 4.72289 60.9538 16.188C61.4452 15.7786 61.9092 15.451 61.9092 15.451C61.9092 15.451 47.7143 1.28334 31.9087 2.86663C23.965 3.57637 14.1923 10.8103 8.45973 20.3646C2.72714 29.9189 1.9082 37.9991 1.9082 37.9991Z" fill="#CC0000"/>
<path fill-rule="evenodd" clip-rule="evenodd" d="M1.9082 37.9991H23.4736C23.4736 37.9991 19.3516 19.1907 33.0006 11.5746C35.9761 10.1278 45.4485 4.72281 60.9538 16.188C61.4452 15.7785 61.9092 15.4509 61.9092 15.4509C61.9092 15.4509 47.7143 1.28326 31.9087 2.86655C23.9377 3.57629 14.165 10.8103 8.43243 20.3646C2.69985 29.9188 1.9082 37.9991 1.9082 37.9991ZM46.8407 4.39523L46.9499 2.56627C46.7042 2.42978 46.0218 2.1022 44.302 1.61084L44.1928 3.41251C45.0937 3.71278 45.9672 4.04036 46.8407 4.39523Z" fill="#CC0000"/>
<path fill-rule="evenodd" clip-rule="evenodd" d="M44.2501 10.1821L44.1409 11.9019C45.0417 11.9292 45.9426 12.0384 46.8434 12.2295L46.9526 10.537C46.0245 10.3459 45.1236 10.2367 44.2501 10.1821ZM34.1498 1.66518H34.4228L33.8768 0C33.0306 0 32.1571 0.054596 31.2562 0.163788L31.7749 1.77437C32.5665 1.69247 33.3582 1.66518 34.1498 1.66518ZM35.4601 11.7108L36.088 13.5944C36.8796 13.2122 37.6713 12.8846 38.4629 12.639L37.8623 10.8373C36.9342 11.1103 36.1426 11.4106 35.4601 11.7108ZM23.0668 4.53146L21.8384 2.6479C21.156 3.00278 20.4462 3.38495 19.7092 3.82172L20.9649 5.73258C21.6746 5.29581 22.3571 4.88634 23.0668 4.53146ZM28.6629 16.8156L29.9732 18.781C30.4373 18.0986 30.9832 17.4707 31.5838 16.8429L30.3554 14.9866C29.7275 15.5598 29.1543 16.1877 28.6629 16.8156ZM24.7047 25.6055L26.9158 27.3526C27.025 26.288 27.2161 25.2233 27.4891 24.1587L25.5236 22.6027C25.1688 23.6128 24.9231 24.6228 24.7047 25.6055ZM12.7482 12.639L10.81 10.9465C10.1003 11.6289 9.41782 12.3114 8.78996 12.9938L10.8919 14.7955C11.4652 14.0585 12.093 13.3214 12.7482 12.639ZM4.50417 24.8412L1.3649 23.6946C0.846238 24.8685 0.27298 26.2334 0 26.9704L3.13927 28.1169C3.49415 27.1888 4.0674 25.8512 4.50417 24.8412ZM24.2952 32.5392C24.3498 33.986 24.4863 35.1598 24.6228 35.9787L27.8986 37.1526C27.6529 36.0879 27.4072 34.8868 27.2434 33.6038L24.2952 32.5392Z" fill="#CC0000"/>
</svg>
