<svg width="99" height="99" viewBox="0 0 99 99" fill="none" xmlns="http://www.w3.org/2000/svg">
<path fill-rule="evenodd" clip-rule="evenodd" d="M28.575 20.6579L49.4999 18.5625L70.4249 20.6579L86.6248 41.2565L49.4999 82.2051L12.375 41.2565L28.575 20.6579Z" fill="#FDB300"/>
<path d="M27.4123 41.2566L49.4997 82.2055L12.375 41.2566H27.4123ZM71.5877 41.2566L49.5003 82.2055L86.625 41.2566" fill="#EA6C00"/>
<path fill-rule="evenodd" clip-rule="evenodd" d="M27.4121 41.2566H71.587L49.4996 82.2055" fill="#FDAD00"/>
<path d="M49.4996 18.5625L28.5746 20.6575L27.4121 41.2563L49.4996 18.5625ZM49.4999 18.5625L70.4249 20.6575L71.5874 41.2563" fill="#FDD231"/>
<path d="M86.625 41.2562L70.4252 20.6575L71.5877 41.2562H86.625ZM12.375 41.2562L28.5748 20.6575L27.4123 41.2562" fill="#FDAD00"/>
<path fill-rule="evenodd" clip-rule="evenodd" d="M49.4996 18.5625L27.4121 41.2563H71.587" fill="#FEEEB7"/>
</svg>
