<svg width="119" height="49" viewBox="0 0 119 49" fill="none" xmlns="http://www.w3.org/2000/svg">
<path d="M14.7043 8.37942V12.8614H10.4499V8.50933C10.4499 5.06661 9.92631 3.7025 7.83187 3.7025C5.8029 3.7025 5.2793 5.39139 5.2793 8.96404V11.2375C5.2793 13.1862 5.86835 15.2649 6.85011 17.0188L12.1516 26.3077C13.788 29.1657 14.7043 31.8289 14.7043 35.0119V38.1948C14.7043 45.47 13.5262 48.523 7.63552 48.523C2.00674 48.523 0.763184 46.1196 0.763184 40.3384V35.1418H5.01748V40.2085C5.01748 43.7162 5.5411 45.0803 7.70097 45.0803C10.1881 45.0803 10.4499 43.1316 10.4499 38.8444V35.5965C10.4499 33.258 10.0572 31.3093 9.1409 29.6204L3.51212 19.682C1.81039 16.7589 1.09044 14.3555 1.09044 12.7315V10.0034C1.09044 3.24779 2.53036 0.259766 7.83187 0.259766C13.4607 0.259766 14.7043 2.53327 14.7043 8.37942ZM21.0785 0.974294H26.3146C32.1397 0.974294 34.5614 2.07856 34.5614 7.08027V20.5264C34.5614 25.5282 32.1397 26.6324 26.3146 26.6324H25.1365V47.7435H21.0785V0.974294ZM25.1365 4.41703V23.1896H26.2492C29.8489 23.1896 30.3071 21.8905 30.3071 17.8632V9.74352C30.3071 5.71617 29.8489 4.41703 26.2492 4.41703H25.1365ZM40.2049 0.974294H46.4228C52.248 0.974294 54.6042 2.07856 54.6042 7.08027V17.6683C54.6042 21.3708 53.4916 22.9298 49.499 23.2546C53.6879 23.5144 54.9315 25.0085 54.9315 28.841V47.7435H50.6116V30.27C50.6116 26.0478 49.8917 25.0085 45.7683 25.0085H44.263V47.7435H40.2049V0.974294ZM44.263 4.41703V21.5008H45.7029C49.7608 21.5008 50.3498 20.3315 50.3498 16.2393V9.74352C50.3498 5.65121 49.7608 4.41703 45.7029 4.41703H44.263ZM90.4257 0.974294H94.4838V44.041H101.814V47.7435H90.4257V0.974294ZM106.42 0.974294H117.678V4.67686H110.478V21.5008H117.351V25.2034H110.478V44.041H117.874V47.7435H106.42V0.974294Z" fill="#14AED5"/>
<path d="M62.6548 0.974121H66.9745V47.7433H62.6548V0.974121ZM71.7382 0.974121H85.5482V4.67668H80.7048V47.7433H76.5815V4.67668H71.7382V0.974121Z" fill="#76DC00"/>
</svg>
