<svg width="21" height="21" viewBox="0 0 21 21" fill="none" xmlns="http://www.w3.org/2000/svg">
<path d="M9.09902 15.4083L16.149 8.35835L14.749 6.95835L9.09902 12.6083L6.24902 9.75835L4.84902 11.1583L9.09902 15.4083ZM10.499 20.8083C9.11569 20.8083 7.81569 20.5458 6.59902 20.0208C5.38236 19.4958 4.32402 18.7833 3.42402 17.8834C2.52402 16.9834 1.81152 15.925 1.28652 14.7084C0.761523 13.4917 0.499023 12.1917 0.499023 10.8083C0.499023 9.42502 0.761523 8.12502 1.28652 6.90835C1.81152 5.69168 2.52402 4.63335 3.42402 3.73335C4.32402 2.83335 5.38236 2.12085 6.59902 1.59585C7.81569 1.07085 9.11569 0.80835 10.499 0.80835C11.8824 0.80835 13.1824 1.07085 14.399 1.59585C15.6157 2.12085 16.674 2.83335 17.574 3.73335C18.474 4.63335 19.1865 5.69168 19.7115 6.90835C20.2365 8.12502 20.499 9.42502 20.499 10.8083C20.499 12.1917 20.2365 13.4917 19.7115 14.7084C19.1865 15.925 18.474 16.9834 17.574 17.8834C16.674 18.7833 15.6157 19.4958 14.399 20.0208C13.1824 20.5458 11.8824 20.8083 10.499 20.8083Z" fill="white"/>
</svg>
