<svg width="330" height="404" viewBox="0 0 330 404" fill="none" xmlns="http://www.w3.org/2000/svg">
<path d="M103.831 111.657V98.0583H108.319C109.899 98.0583 111.207 98.3368 112.243 98.8936C113.279 99.4505 114.043 100.241 114.535 101.264C115.04 102.274 115.293 103.478 115.293 104.877C115.293 106.25 115.04 107.448 114.535 108.471C114.043 109.481 113.279 110.265 112.243 110.821C111.207 111.378 109.899 111.657 108.319 111.657H103.831ZM106.162 109.675H108.202C109.381 109.675 110.313 109.487 110.999 109.112C111.686 108.723 112.172 108.173 112.456 107.461C112.754 106.735 112.903 105.874 112.903 104.877C112.903 103.867 112.754 103.006 112.456 102.293C112.172 101.568 111.686 101.011 110.999 100.623C110.313 100.221 109.381 100.02 108.202 100.02H106.162V109.675ZM122.055 111.89C121.096 111.89 120.241 111.683 119.49 111.268C118.752 110.841 118.169 110.252 117.742 109.5C117.328 108.736 117.12 107.862 117.12 106.878C117.12 105.855 117.328 104.961 117.742 104.197C118.156 103.42 118.733 102.818 119.471 102.39C120.222 101.95 121.09 101.73 122.074 101.73C123.032 101.73 123.868 101.944 124.58 102.371C125.292 102.785 125.843 103.349 126.231 104.061C126.633 104.76 126.833 105.557 126.833 106.45C126.833 106.58 126.833 106.722 126.833 106.878C126.833 107.033 126.821 107.195 126.795 107.364H118.81V105.868H124.483C124.444 105.181 124.198 104.637 123.745 104.236C123.304 103.821 122.747 103.614 122.074 103.614C121.595 103.614 121.148 103.724 120.734 103.944C120.332 104.165 120.008 104.488 119.762 104.916C119.529 105.343 119.413 105.881 119.413 106.528V107.092C119.413 107.687 119.529 108.205 119.762 108.646C119.995 109.073 120.313 109.403 120.714 109.636C121.116 109.857 121.556 109.967 122.035 109.967C122.579 109.967 123.026 109.85 123.376 109.617C123.738 109.384 124.01 109.067 124.191 108.665H126.561C126.38 109.274 126.076 109.824 125.648 110.316C125.234 110.796 124.722 111.178 124.114 111.462C123.518 111.747 122.832 111.89 122.055 111.89ZM131.229 111.657L127.635 101.963H130.102L132.647 109.442L135.211 101.963H137.62L134.026 111.657H131.229ZM143.378 111.89C142.42 111.89 141.565 111.683 140.814 111.268C140.076 110.841 139.493 110.252 139.065 109.5C138.651 108.736 138.444 107.862 138.444 106.878C138.444 105.855 138.651 104.961 139.065 104.197C139.48 103.42 140.056 102.818 140.794 102.39C141.545 101.95 142.413 101.73 143.397 101.73C144.356 101.73 145.191 101.944 145.903 102.371C146.616 102.785 147.166 103.349 147.555 104.061C147.956 104.76 148.157 105.557 148.157 106.45C148.157 106.58 148.157 106.722 148.157 106.878C148.157 107.033 148.144 107.195 148.118 107.364H140.134V105.868H145.806C145.767 105.181 145.521 104.637 145.068 104.236C144.628 103.821 144.071 103.614 143.397 103.614C142.918 103.614 142.471 103.724 142.057 103.944C141.656 104.165 141.332 104.488 141.086 104.916C140.853 105.343 140.736 105.881 140.736 106.528V107.092C140.736 107.687 140.853 108.205 141.086 108.646C141.319 109.073 141.636 109.403 142.038 109.636C142.439 109.857 142.879 109.967 143.359 109.967C143.903 109.967 144.349 109.85 144.699 109.617C145.062 109.384 145.334 109.067 145.515 108.665H147.885C147.704 109.274 147.399 109.824 146.972 110.316C146.557 110.796 146.046 111.178 145.437 111.462C144.841 111.747 144.155 111.89 143.378 111.89ZM150.29 111.657V97.6698H152.621V111.657H150.29ZM159.749 111.89C158.83 111.89 157.994 111.676 157.243 111.249C156.505 110.821 155.922 110.226 155.495 109.462C155.067 108.697 154.854 107.817 154.854 106.82C154.854 105.796 155.067 104.903 155.495 104.139C155.935 103.375 156.524 102.785 157.263 102.371C158.014 101.944 158.849 101.73 159.769 101.73C160.701 101.73 161.536 101.944 162.275 102.371C163.026 102.785 163.615 103.375 164.042 104.139C164.47 104.903 164.683 105.796 164.683 106.82C164.683 107.817 164.463 108.697 164.023 109.462C163.596 110.226 163.006 110.821 162.255 111.249C161.517 111.676 160.682 111.89 159.749 111.89ZM159.749 109.889C160.215 109.889 160.643 109.772 161.031 109.539C161.42 109.306 161.731 108.963 161.964 108.51C162.197 108.043 162.313 107.474 162.313 106.8C162.313 106.114 162.197 105.544 161.964 105.091C161.731 104.637 161.42 104.301 161.031 104.08C160.656 103.847 160.241 103.731 159.788 103.731C159.335 103.731 158.914 103.847 158.525 104.08C158.137 104.301 157.826 104.644 157.593 105.11C157.36 105.563 157.243 106.127 157.243 106.8C157.243 107.474 157.36 108.043 157.593 108.51C157.826 108.963 158.13 109.306 158.506 109.539C158.894 109.772 159.309 109.889 159.749 109.889ZM166.927 115.931V101.963H169.006L169.239 103.362C169.446 103.077 169.699 102.811 169.997 102.565C170.295 102.306 170.651 102.105 171.065 101.963C171.48 101.808 171.965 101.73 172.522 101.73C173.442 101.73 174.251 101.95 174.95 102.39C175.663 102.831 176.22 103.433 176.621 104.197C177.036 104.961 177.243 105.835 177.243 106.82C177.243 107.791 177.036 108.665 176.621 109.442C176.22 110.206 175.663 110.808 174.95 111.249C174.238 111.676 173.429 111.89 172.522 111.89C171.784 111.89 171.136 111.754 170.58 111.482C170.023 111.197 169.582 110.796 169.259 110.277V115.931H166.927ZM172.037 109.87C172.593 109.87 173.086 109.74 173.513 109.481C173.94 109.222 174.271 108.866 174.504 108.413C174.75 107.946 174.873 107.415 174.873 106.82C174.873 106.211 174.75 105.68 174.504 105.227C174.271 104.76 173.94 104.398 173.513 104.139C173.086 103.88 172.593 103.75 172.037 103.75C171.48 103.75 170.988 103.88 170.56 104.139C170.133 104.398 169.796 104.76 169.55 105.227C169.317 105.68 169.2 106.204 169.2 106.8C169.2 107.409 169.317 107.946 169.55 108.413C169.796 108.866 170.133 109.222 170.56 109.481C170.988 109.74 171.48 109.87 172.037 109.87ZM179.505 111.657V101.963H181.564L181.739 103.284C182.05 102.792 182.464 102.41 182.983 102.138C183.501 101.866 184.09 101.73 184.75 101.73C185.242 101.73 185.683 101.795 186.071 101.924C186.473 102.041 186.829 102.228 187.14 102.488C187.451 102.747 187.703 103.07 187.897 103.459C188.26 102.915 188.733 102.494 189.316 102.196C189.911 101.885 190.552 101.73 191.239 101.73C192.055 101.73 192.747 101.892 193.317 102.216C193.9 102.539 194.34 103.025 194.638 103.673C194.936 104.32 195.085 105.123 195.085 106.081V111.657H192.773V106.295C192.773 105.453 192.605 104.812 192.268 104.372C191.932 103.919 191.426 103.692 190.753 103.692C190.3 103.692 189.898 103.809 189.549 104.042C189.212 104.262 188.946 104.586 188.752 105.013C188.558 105.44 188.461 105.958 188.461 106.567V111.657H186.13V106.295C186.13 105.453 185.961 104.812 185.625 104.372C185.288 103.919 184.776 103.692 184.09 103.692C183.662 103.692 183.274 103.809 182.924 104.042C182.588 104.262 182.322 104.586 182.128 105.013C181.933 105.44 181.836 105.958 181.836 106.567V111.657H179.505ZM202.112 111.89C201.154 111.89 200.299 111.683 199.548 111.268C198.81 110.841 198.227 110.252 197.8 109.5C197.385 108.736 197.178 107.862 197.178 106.878C197.178 105.855 197.385 104.961 197.8 104.197C198.214 103.42 198.79 102.818 199.529 102.39C200.28 101.95 201.147 101.73 202.132 101.73C203.09 101.73 203.925 101.944 204.638 102.371C205.35 102.785 205.9 103.349 206.289 104.061C206.69 104.76 206.891 105.557 206.891 106.45C206.891 106.58 206.891 106.722 206.891 106.878C206.891 107.033 206.878 107.195 206.852 107.364H198.868V105.868H204.541C204.502 105.181 204.256 104.637 203.802 104.236C203.362 103.821 202.805 103.614 202.132 103.614C201.653 103.614 201.206 103.724 200.791 103.944C200.39 104.165 200.066 104.488 199.82 104.916C199.587 105.343 199.47 105.881 199.47 106.528V107.092C199.47 107.687 199.587 108.205 199.82 108.646C200.053 109.073 200.37 109.403 200.772 109.636C201.173 109.857 201.614 109.967 202.093 109.967C202.637 109.967 203.084 109.85 203.433 109.617C203.796 109.384 204.068 109.067 204.249 108.665H206.619C206.438 109.274 206.134 109.824 205.706 110.316C205.292 110.796 204.78 111.178 204.171 111.462C203.576 111.747 202.889 111.89 202.112 111.89ZM209.024 111.657V101.963H211.083L211.239 103.595C211.55 103.025 211.983 102.572 212.54 102.235C213.11 101.898 213.771 101.73 214.522 101.73C215.325 101.73 216.005 101.892 216.562 102.216C217.118 102.539 217.546 103.025 217.844 103.673C218.142 104.32 218.29 105.123 218.29 106.081V111.657H215.959V106.295C215.959 105.453 215.778 104.812 215.415 104.372C215.066 103.919 214.528 103.692 213.803 103.692C213.337 103.692 212.916 103.809 212.54 104.042C212.165 104.262 211.873 104.586 211.666 105.013C211.459 105.44 211.355 105.958 211.355 106.567V111.657H209.024ZM224.945 111.657C224.284 111.657 223.708 111.553 223.216 111.346C222.737 111.139 222.361 110.796 222.089 110.316C221.83 109.837 221.701 109.19 221.701 108.374V103.906H220.03V101.963H221.701L221.973 99.3987H224.032V101.963H226.674V103.906H224.032V108.374C224.032 108.866 224.135 109.209 224.343 109.403C224.55 109.585 224.912 109.675 225.43 109.675H226.615V111.657H224.945Z" fill="#E2E2E2"/>
<path d="M241.733 298.047C271.911 298.047 296.376 273.583 296.376 243.405C296.376 213.226 271.911 188.762 241.733 188.762C211.554 188.762 187.09 213.226 187.09 243.405C187.09 273.583 211.554 298.047 241.733 298.047Z" fill="#E5F1FF"/>
<path d="M123.522 381.177C135.995 368.705 135.995 348.483 123.522 336.011C111.05 323.539 90.8283 323.539 78.356 336.011C65.8837 348.483 65.8837 368.705 78.356 381.177C90.8283 393.65 111.05 393.65 123.522 381.177Z" fill="#E5F1FF"/>
<path d="M100.514 206.978C84.3882 206.978 71.3164 220.051 71.3164 236.176C71.3164 252.302 84.3888 265.374 100.514 265.374C116.639 265.374 129.711 252.302 129.711 236.176C129.711 220.051 116.638 206.978 100.514 206.978ZM100.514 254.843C90.2039 254.843 81.8464 246.486 81.8464 236.176C81.8464 225.867 90.2039 217.509 100.514 217.509C110.823 217.509 119.181 225.867 119.181 236.176C119.181 246.486 110.823 254.843 100.514 254.843Z" fill="#A9CCEA"/>
<path d="M210.823 393.648C210.823 395.499 209.323 396.999 207.472 396.999H122.752C120.901 396.999 119.401 395.499 119.401 393.648C119.401 391.798 120.901 390.298 122.752 390.298H152.827L156.975 382.64H164.155H166.069H173.249L177.397 390.298H207.472C209.323 390.298 210.823 391.798 210.823 393.648Z" fill="#0F3157"/>
<path d="M171.35 375.7H157.469V379.769H171.35V375.7Z" fill="#FF4D6B"/>
<path d="M171.35 369.001H157.469V373.07H171.35V369.001Z" fill="#FF4D6B"/>
<path d="M274.932 355.23C272.518 356.157 269.896 356.664 267.155 356.664C255.167 356.664 245.448 346.946 245.448 334.957C245.448 322.969 255.166 313.25 267.155 313.25C279.143 313.25 288.861 322.969 288.861 334.957C288.861 338.17 288.164 341.219 286.912 343.962" stroke="#FF4D6B" stroke-width="1.1276" stroke-miterlimit="10" stroke-linecap="round" stroke-linejoin="round"/>
<path d="M213.638 233.053H210.173C209.453 229.973 208.242 227.085 206.62 224.475L209.07 222.025C210.127 220.968 210.127 219.256 209.07 218.199L203.626 212.755C202.57 211.699 200.857 211.699 199.801 212.755L197.351 215.205C194.742 213.583 191.853 212.372 188.774 211.653V208.188C188.774 206.694 187.563 205.483 186.069 205.483H178.371C176.877 205.483 175.666 206.694 175.666 208.188V211.653C172.587 212.372 169.698 213.584 167.088 215.205L164.638 212.755C163.582 211.699 161.869 211.699 160.813 212.755L155.369 218.199C154.313 219.256 154.313 220.968 155.369 222.025L157.819 224.475C156.198 227.084 154.987 229.973 154.267 233.053H150.801C149.308 233.053 148.097 234.264 148.097 235.757V243.456C148.097 244.95 149.308 246.161 150.801 246.161H154.267C154.986 249.24 156.198 252.129 157.819 254.738L155.369 257.188C154.313 258.245 154.313 259.958 155.369 261.014L160.813 266.458C161.869 267.514 163.582 267.514 164.638 266.458L167.088 264.008C169.697 265.63 172.586 266.841 175.666 267.561V271.026C175.666 272.52 176.877 273.731 178.371 273.731H186.069C187.563 273.731 188.774 272.52 188.774 271.026V267.561C191.853 266.841 194.742 265.63 197.352 264.008L199.802 266.458C200.858 267.514 202.571 267.514 203.627 266.458L209.071 261.014C210.127 259.958 210.127 258.245 209.071 257.188L206.621 254.738C208.243 252.129 209.454 249.24 210.173 246.161H213.639C215.133 246.161 216.344 244.95 216.344 243.456V235.757C216.343 234.263 215.132 233.053 213.638 233.053ZM182.22 253.339C174.636 253.339 168.488 247.191 168.488 239.606C168.488 232.022 174.636 225.874 182.22 225.874C189.804 225.874 195.953 232.022 195.953 239.606C195.953 247.191 189.805 253.339 182.22 253.339Z" fill="#289DF2"/>
<path d="M69.7475 367.174C65.7152 367.174 62.4463 363.905 62.4463 359.872V245.605C62.4463 241.572 65.7152 238.304 69.7481 238.304H260.475C264.507 238.304 267.777 241.572 267.777 245.605V359.872C267.777 363.904 264.508 367.173 260.475 367.173H69.7475V367.174Z" fill="#0F3775"/>
<path d="M98.5963 254.244H77.416V258.911H98.5963V254.244Z" fill="#284D89"/>
<path d="M124.086 254.244H102.906V258.911H124.086V254.244Z" fill="#284D89"/>
<path d="M188.7 254.244H167.52V258.911H188.7V254.244Z" fill="#284D89"/>
<path d="M253.322 254.244H232.142V258.911H253.322V254.244Z" fill="#284D89"/>
<path d="M164.83 254.244H126.957V258.911H164.83V254.244Z" fill="#FF4D6B"/>
<path d="M229.09 254.244H191.217V258.911H229.09V254.244Z" fill="#2889DB"/>
<path d="M81.2461 250.537H77.5366V252.81H81.2461V250.537Z" fill="#2889DB"/>
<path d="M116.248 262.742H77.5376V265.016H116.248V262.742Z" fill="white"/>
<path d="M89.0252 266.751H77.5376V269.024H89.0252V266.751Z" fill="white"/>
<path d="M118.522 350.812H82.6234C79.9466 350.812 77.7773 348.642 77.7773 345.966V280.989C77.7773 278.313 79.9473 276.143 82.6234 276.143H118.522C121.199 276.143 123.368 278.313 123.368 280.989V345.966C123.368 348.642 121.199 350.812 118.522 350.812Z" fill="#284D89"/>
<path d="M98.7755 287.092H83.5186V289.426H98.7755V287.092Z" fill="white"/>
<path d="M98.7755 292.298H83.5186V294.632H98.7755V292.298Z" fill="white"/>
<path d="M98.7755 297.505H83.5186V299.838H98.7755V297.505Z" fill="white"/>
<path d="M92.8561 319.22H83.5225V321.553H92.8561V319.22Z" fill="white"/>
<path d="M92.8561 324.426H83.5225V326.76H92.8561V324.426Z" fill="white"/>
<path d="M108.89 324.426H99.5566V326.76H108.89V324.426Z" fill="white"/>
<path d="M89.386 313.297H83.5225V315.631H89.386V313.297Z" fill="white"/>
<path d="M111.758 313.297H108.647V315.631H111.758V313.297Z" fill="white"/>
<path d="M107.454 313.297H91.4189V315.631H107.454V313.297Z" fill="#FF4D6B"/>
<path d="M85.7662 304.501H83.5225V306.834H85.7662V304.501Z" fill="#2889DB"/>
<path d="M85.7662 308.63H83.5225V310.963H85.7662V308.63Z" fill="#FF4D6B"/>
<path d="M95.9678 327.237H95.1299L97.1343 324.245H97.9722L95.9678 327.237Z" fill="white"/>
<path d="M118.165 331.245H83.5225V333.22H118.165V331.245Z" fill="#282E5C"/>
<path d="M118.165 335.732H83.5225V337.707H118.165V335.732Z" fill="#282E5C"/>
<path d="M284.793 307.013H189.542C187.162 307.013 185.234 305.084 185.234 302.705V276.858C185.234 274.478 187.162 272.55 189.542 272.55H284.793C287.173 272.55 289.101 274.478 289.101 276.858V302.705C289.101 305.084 287.172 307.013 284.793 307.013Z" fill="#289DF2"/>
<path d="M216.107 294.811C216.107 294.811 221.372 281.887 236.45 284.998C251.527 288.109 259.186 305.101 278.571 291.221" stroke="white" stroke-width="1.1276" stroke-miterlimit="10"/>
<path d="M264.928 295.527H262.774V297.681H264.928V295.527Z" fill="#289DF2" stroke="white" stroke-width="1.1276" stroke-miterlimit="10"/>
<path d="M218.737 284.398H246.02" stroke="white" stroke-width="0.5638" stroke-miterlimit="10"/>
<path d="M250.21 297.206H277.493" stroke="white" stroke-width="0.5638" stroke-miterlimit="10"/>
<path d="M232.382 283.324H230.228V285.478H232.382V283.324Z" fill="#289DF2" stroke="white" stroke-width="1.1276" stroke-miterlimit="10"/>
<path d="M203.422 315.867H182.84C181.122 315.867 179.729 314.474 179.729 312.756V281.883C179.729 280.165 181.122 278.772 182.84 278.772H203.422C205.14 278.772 206.533 280.165 206.533 281.883V312.756C206.533 314.474 205.14 315.867 203.422 315.867Z" fill="#284D89"/>
<path d="M199.177 284.038H183.92V286.142H199.177V284.038Z" fill="white"/>
<path d="M199.177 288.729H183.92V290.833H199.177V288.729Z" fill="white"/>
<path d="M189.664 293.424H183.92V295.527H189.664V293.424Z" fill="white"/>
<path d="M193.852 298.274H183.92V300.378H193.852V298.274Z" fill="#289DF2"/>
<path d="M190.621 302.969H183.92V305.072H190.621V302.969Z" fill="#289DF2"/>
<path d="M190.621 307.66H183.92V309.763H190.621V307.66Z" fill="white"/>
<path d="M272.347 267.885H283.117" stroke="#284D89" stroke-width="2.2552" stroke-miterlimit="10" stroke-linecap="round" stroke-linejoin="round"/>
<path d="M248.152 328.654L244.435 331.563L239.102 332.533C239.102 332.533 234.092 332.21 233.607 332.21C233.123 332.21 229.729 329.462 229.729 329.462L223.426 327.2L219.063 328.816L213.891 327.685L206.134 327.199L198.701 330.109L192.559 331.078L187.065 332.856L180.924 333.341L174.298 328.17L168.157 327.038L161.854 330.594L156.844 332.21L151.156 332.048L143.988 336.411H139.714L132.496 338.943" stroke="#FF5C66" stroke-width="1.0152" stroke-miterlimit="10"/>
<path d="M132.608 339.057H248.317" stroke="#F7F7F7" stroke-width="0.2538" stroke-miterlimit="10"/>
<path d="M132.662 337.601H131.477V340.51H132.662V337.601Z" fill="#F7F7F7"/>
<path d="M248.801 337.601H247.616V340.51H248.801V337.601Z" fill="#F7F7F7"/>
<path d="M248.207 339.051V329.3" stroke="#F7F7F7" stroke-width="0.2538" stroke-miterlimit="10"/>
<path d="M248.853 328.817C248.853 329.323 248.443 329.733 247.938 329.733C247.432 329.733 247.022 329.323 247.022 328.817C247.022 328.312 247.432 327.902 247.938 327.902C248.443 327.902 248.853 328.312 248.853 328.817Z" fill="#F7F7F7"/>
<path d="M135.471 348.801C135.211 348.801 134.987 348.763 134.797 348.687C134.613 348.606 134.456 348.506 134.326 348.387C134.201 348.267 134.099 348.151 134.017 348.037L133.961 348.703H133.343V342.855H134.026V345.105C134.155 344.851 134.348 344.659 134.602 344.529C134.857 344.399 135.141 344.334 135.455 344.334C135.845 344.334 136.186 344.428 136.478 344.618C136.771 344.807 136.998 345.07 137.161 345.406C137.323 345.736 137.404 346.118 137.404 346.551C137.404 346.979 137.323 347.363 137.161 347.704C136.998 348.045 136.771 348.313 136.478 348.508C136.191 348.703 135.856 348.801 135.471 348.801ZM135.382 348.208C135.636 348.208 135.861 348.143 136.056 348.013C136.256 347.878 136.413 347.688 136.527 347.444C136.646 347.195 136.706 346.903 136.706 346.567C136.706 346.232 136.646 345.942 136.527 345.698C136.413 345.449 136.256 345.26 136.056 345.13C135.861 344.994 135.636 344.927 135.382 344.927C135.111 344.927 134.876 344.994 134.675 345.13C134.475 345.26 134.321 345.449 134.212 345.698C134.104 345.942 134.05 346.232 134.05 346.567C134.05 346.903 134.104 347.195 134.212 347.444C134.321 347.688 134.475 347.878 134.675 348.013C134.876 348.143 135.111 348.208 135.382 348.208ZM140.166 348.801C139.787 348.801 139.452 348.709 139.159 348.525C138.867 348.341 138.637 348.081 138.469 347.745C138.306 347.409 138.225 347.017 138.225 346.567C138.225 346.118 138.306 345.725 138.469 345.39C138.637 345.054 138.867 344.794 139.159 344.61C139.457 344.426 139.798 344.334 140.183 344.334C140.594 344.334 140.938 344.426 141.214 344.61C141.49 344.794 141.699 345.04 141.839 345.349C141.98 345.658 142.051 345.996 142.051 346.364C142.051 346.418 142.051 346.472 142.051 346.527C142.051 346.581 142.048 346.646 142.042 346.722H138.737V346.194H141.385C141.374 345.777 141.252 345.46 141.019 345.243C140.792 345.021 140.507 344.91 140.166 344.91C139.939 344.91 139.728 344.967 139.533 345.081C139.343 345.189 139.189 345.352 139.07 345.568C138.951 345.785 138.891 346.056 138.891 346.38V346.608C138.891 346.965 138.951 347.266 139.07 347.509C139.189 347.748 139.343 347.926 139.533 348.045C139.728 348.165 139.939 348.224 140.166 348.224C140.47 348.224 140.708 348.167 140.881 348.054C141.054 347.934 141.182 347.767 141.263 347.55H141.937C141.872 347.788 141.758 348.002 141.596 348.192C141.439 348.381 141.238 348.53 140.995 348.638C140.757 348.747 140.48 348.801 140.166 348.801ZM144.518 348.703C144.274 348.703 144.063 348.665 143.885 348.59C143.706 348.514 143.568 348.387 143.47 348.208C143.378 348.024 143.332 347.777 143.332 347.469V345.008H142.585V344.431H143.332L143.422 343.367H144.015V344.431H145.225V345.008H144.015V347.469C144.015 347.723 144.066 347.897 144.169 347.989C144.272 348.075 144.453 348.119 144.713 348.119H145.208V348.703H144.518ZM147.493 348.801C147.168 348.801 146.897 348.741 146.681 348.622C146.464 348.498 146.302 348.335 146.193 348.135C146.085 347.929 146.031 347.71 146.031 347.477C146.031 347.195 146.101 346.957 146.242 346.762C146.388 346.562 146.591 346.41 146.851 346.307C147.111 346.204 147.414 346.153 147.761 346.153H148.825C148.825 345.877 148.792 345.647 148.727 345.463C148.662 345.279 148.557 345.14 148.411 345.048C148.264 344.956 148.069 344.91 147.826 344.91C147.582 344.91 147.374 344.973 147.2 345.097C147.027 345.216 146.919 345.395 146.876 345.633H146.177C146.21 345.352 146.304 345.116 146.461 344.927C146.618 344.732 146.816 344.585 147.054 344.488C147.298 344.385 147.555 344.334 147.826 344.334C148.21 344.334 148.527 344.404 148.776 344.545C149.025 344.68 149.209 344.872 149.328 345.122C149.447 345.365 149.507 345.655 149.507 345.991V348.703H148.898L148.857 347.972C148.803 348.086 148.733 348.194 148.646 348.297C148.565 348.395 148.467 348.481 148.354 348.557C148.24 348.633 148.11 348.692 147.964 348.736C147.823 348.779 147.666 348.801 147.493 348.801ZM147.59 348.224C147.769 348.224 147.934 348.184 148.086 348.102C148.237 348.021 148.367 347.913 148.476 347.777C148.589 347.637 148.676 347.48 148.735 347.306C148.795 347.133 148.825 346.952 148.825 346.762V346.681H147.818C147.563 346.681 147.355 346.713 147.192 346.778C147.035 346.843 146.922 346.935 146.851 347.055C146.781 347.168 146.746 347.298 146.746 347.444C146.746 347.601 146.778 347.739 146.843 347.859C146.908 347.972 147.003 348.062 147.127 348.127C147.257 348.192 147.412 348.224 147.59 348.224ZM135 359.703C134.756 359.703 134.545 359.665 134.367 359.59C134.188 359.514 134.05 359.387 133.952 359.208C133.86 359.024 133.814 358.777 133.814 358.469V356.008H133.067V355.431H133.814L133.904 354.367H134.497V355.431H135.707V356.008H134.497V358.469C134.497 358.723 134.548 358.897 134.651 358.989C134.754 359.075 134.935 359.119 135.195 359.119H135.691V359.703H135ZM138.302 359.801C137.923 359.801 137.588 359.709 137.295 359.525C137.003 359.341 136.773 359.081 136.605 358.745C136.442 358.409 136.361 358.017 136.361 357.567C136.361 357.118 136.442 356.725 136.605 356.39C136.773 356.054 137.003 355.794 137.295 355.61C137.593 355.426 137.934 355.334 138.319 355.334C138.73 355.334 139.074 355.426 139.35 355.61C139.626 355.794 139.835 356.04 139.976 356.349C140.116 356.658 140.187 356.996 140.187 357.364C140.187 357.418 140.187 357.472 140.187 357.527C140.187 357.581 140.184 357.646 140.179 357.722H136.873V357.194H139.521C139.51 356.777 139.388 356.46 139.155 356.243C138.928 356.021 138.644 355.91 138.302 355.91C138.075 355.91 137.864 355.967 137.669 356.081C137.479 356.189 137.325 356.352 137.206 356.568C137.087 356.785 137.027 357.056 137.027 357.38V357.608C137.027 357.965 137.087 358.266 137.206 358.509C137.325 358.748 137.479 358.926 137.669 359.045C137.864 359.165 138.075 359.224 138.302 359.224C138.606 359.224 138.844 359.167 139.017 359.054C139.19 358.934 139.318 358.767 139.399 358.55H140.073C140.008 358.788 139.894 359.002 139.732 359.192C139.575 359.381 139.374 359.53 139.131 359.638C138.893 359.747 138.616 359.801 138.302 359.801ZM142.675 359.801C142.291 359.801 141.971 359.744 141.717 359.63C141.468 359.511 141.278 359.349 141.148 359.143C141.018 358.932 140.94 358.688 140.913 358.412H141.611C141.633 358.558 141.682 358.693 141.758 358.818C141.839 358.937 141.955 359.035 142.107 359.11C142.258 359.186 142.451 359.224 142.683 359.224C142.868 359.224 143.025 359.197 143.155 359.143C143.284 359.083 143.382 359.002 143.447 358.899C143.517 358.796 143.552 358.677 143.552 358.542C143.552 358.363 143.512 358.225 143.431 358.128C143.355 358.025 143.241 357.949 143.09 357.9C142.943 357.846 142.759 357.805 142.537 357.778C142.299 357.746 142.088 357.7 141.904 357.64C141.72 357.581 141.563 357.502 141.433 357.405C141.308 357.307 141.213 357.185 141.148 357.039C141.083 356.893 141.051 356.72 141.051 356.519C141.051 356.287 141.113 356.081 141.238 355.902C141.362 355.724 141.538 355.585 141.766 355.488C141.998 355.385 142.272 355.334 142.586 355.334C143.046 355.334 143.409 355.439 143.674 355.65C143.945 355.862 144.105 356.162 144.154 356.552H143.479C143.452 356.352 143.36 356.195 143.203 356.081C143.046 355.967 142.838 355.91 142.578 355.91C142.302 355.91 142.093 355.962 141.952 356.065C141.812 356.168 141.741 356.303 141.741 356.471C141.741 356.595 141.771 356.709 141.831 356.812C141.896 356.909 142.004 356.993 142.156 357.064C142.307 357.129 142.51 357.177 142.765 357.21C143.084 357.248 143.355 357.31 143.577 357.397C143.799 357.478 143.967 357.605 144.08 357.778C144.2 357.952 144.256 358.187 144.251 358.485C144.251 358.767 144.183 359.005 144.048 359.2C143.918 359.395 143.734 359.544 143.496 359.646C143.263 359.749 142.989 359.801 142.675 359.801ZM146.739 359.703C146.495 359.703 146.284 359.665 146.105 359.59C145.927 359.514 145.789 359.387 145.691 359.208C145.599 359.024 145.553 358.777 145.553 358.469V356.008H144.806V355.431H145.553L145.643 354.367H146.235V355.431H147.446V356.008H146.235V358.469C146.235 358.723 146.287 358.897 146.39 358.989C146.493 359.075 146.674 359.119 146.934 359.119H147.429V359.703H146.739Z" fill="#F7F7F7"/>
<path d="M231.292 343.253H159.324V344.545H231.292V343.253Z" fill="#28385E"/>
<path d="M203.496 343.253H159.324V344.545H203.496V343.253Z" fill="#FF4D6B"/>
<path d="M194.716 345.732H159.324V347.025H194.716V345.732Z" fill="#28385E"/>
<path d="M136.884 349.581H141.247L141.814 348.369H133.006V350.389H136.076L136.884 349.581Z" fill="#FF4D6B"/>
<path d="M145.928 348.356H145.443V348.84H145.928V348.356Z" fill="#F7F7F7"/>
<path d="M148.939 348.356H148.454V348.84H148.939V348.356Z" fill="#F7F7F7"/>
<path d="M151.948 348.356H151.462V348.84H151.948V348.356Z" fill="#F7F7F7"/>
<path d="M245.05 328.511C244.671 328.511 244.341 328.443 244.059 328.308C243.783 328.172 243.564 327.991 243.401 327.763C243.244 327.531 243.147 327.265 243.109 326.967H243.775C243.834 327.249 243.972 327.479 244.189 327.658C244.411 327.837 244.701 327.926 245.058 327.926C245.323 327.926 245.548 327.866 245.732 327.747C245.922 327.623 246.068 327.455 246.171 327.244C246.274 327.027 246.325 326.786 246.325 326.521C246.325 326.255 246.274 326.023 246.171 325.822C246.073 325.617 245.933 325.457 245.748 325.343C245.564 325.224 245.348 325.164 245.099 325.164C244.801 325.164 244.546 325.224 244.335 325.343C244.129 325.462 243.97 325.608 243.856 325.782H243.182L243.612 322.728H246.666V323.321H244.14L243.848 325.099C243.983 324.948 244.162 324.826 244.384 324.734C244.611 324.636 244.874 324.588 245.172 324.588C245.448 324.588 245.697 324.636 245.919 324.734C246.141 324.831 246.33 324.969 246.488 325.148C246.65 325.321 246.772 325.524 246.853 325.757C246.94 325.99 246.983 326.242 246.983 326.513C246.983 326.783 246.937 327.041 246.845 327.284C246.758 327.522 246.631 327.734 246.463 327.918C246.301 328.102 246.1 328.248 245.862 328.356C245.624 328.459 245.353 328.511 245.05 328.511ZM245.22 339.511C244.749 339.511 244.343 339.389 244.002 339.145C243.666 338.896 243.407 338.552 243.222 338.114C243.038 337.67 242.946 337.155 242.946 336.571C242.946 335.986 243.038 335.474 243.222 335.035C243.407 334.591 243.666 334.248 244.002 334.004C244.343 333.755 244.749 333.63 245.22 333.63C245.692 333.63 246.095 333.755 246.431 334.004C246.766 334.248 247.024 334.591 247.202 335.035C247.386 335.474 247.478 335.986 247.478 336.571C247.478 337.155 247.386 337.67 247.202 338.114C247.024 338.552 246.766 338.896 246.431 339.145C246.095 339.389 245.692 339.511 245.22 339.511ZM245.22 338.91C245.518 338.91 245.784 338.818 246.016 338.633C246.249 338.444 246.433 338.176 246.569 337.829C246.71 337.477 246.78 337.058 246.78 336.571C246.78 336.078 246.71 335.658 246.569 335.312C246.433 334.965 246.249 334.7 246.016 334.516C245.784 334.332 245.518 334.239 245.22 334.239C244.917 334.239 244.647 334.332 244.408 334.516C244.17 334.7 243.983 334.965 243.848 335.312C243.712 335.658 243.645 336.078 243.645 336.571C243.645 337.058 243.712 337.477 243.848 337.829C243.983 338.176 244.17 338.444 244.408 338.633C244.647 338.818 244.917 338.91 245.22 338.91ZM245.22 350.511C244.749 350.511 244.343 350.389 244.002 350.145C243.666 349.896 243.407 349.552 243.222 349.114C243.038 348.67 242.946 348.155 242.946 347.571C242.946 346.986 243.038 346.474 243.222 346.035C243.407 345.591 243.666 345.248 244.002 345.004C244.343 344.755 244.749 344.63 245.22 344.63C245.692 344.63 246.095 344.755 246.431 345.004C246.766 345.248 247.024 345.591 247.202 346.035C247.386 346.474 247.478 346.986 247.478 347.571C247.478 348.155 247.386 348.67 247.202 349.114C247.024 349.552 246.766 349.896 246.431 350.145C246.095 350.389 245.692 350.511 245.22 350.511ZM245.22 349.91C245.518 349.91 245.784 349.818 246.016 349.633C246.249 349.444 246.433 349.176 246.569 348.829C246.71 348.477 246.78 348.058 246.78 347.571C246.78 347.078 246.71 346.658 246.569 346.312C246.433 345.965 246.249 345.7 246.016 345.516C245.784 345.332 245.518 345.239 245.22 345.239C244.917 345.239 244.647 345.332 244.408 345.516C244.17 345.7 243.983 345.965 243.848 346.312C243.712 346.658 243.645 347.078 243.645 347.571C243.645 348.058 243.712 348.477 243.848 348.829C243.983 349.176 244.17 349.444 244.408 349.633C244.647 349.818 244.917 349.91 245.22 349.91Z" fill="#F7F7F7"/>
<path d="M236.463 347.13H235.385L233.662 343.252H234.739L236.463 347.13Z" fill="#28385E"/>
<path d="M239.263 347.13H238.186L236.462 343.252H237.54L239.263 347.13Z" fill="#28385E"/>
<path d="M242.067 347.13H240.99L239.266 343.252H240.343L242.067 347.13Z" fill="#28385E"/>
<path d="M244.868 347.13H243.791L242.067 343.252H243.144L244.868 347.13Z" fill="#28385E"/>
<path d="M247.612 347.13H246.534L244.811 343.252H245.888L247.612 347.13Z" fill="#28385E"/>
<path d="M242.939 213.601H225.421V216.738H242.939V213.601Z" fill="#A9CCEA"/>
<path d="M251.835 219.215H225.421V222.352H251.835V219.215Z" fill="#A9CCEA"/>
<path d="M257.994 224.83H225.421V227.968H257.994V224.83Z" fill="#A9CCEA"/>
<path d="M237.876 230.441H225.421V233.579H237.876V230.441Z" fill="#A9CCEA"/>
<path d="M59.1307 251.405H41.6128V254.542H59.1307V251.405Z" fill="#2889DB"/>
<path d="M68.0263 257.019H41.6128V260.156H68.0263V257.019Z" fill="#A9CCEA"/>
<path d="M74.1852 262.634H41.6128V265.772H74.1852V262.634Z" fill="#A9CCEA"/>
<path d="M54.0669 268.245H41.6128V271.383H54.0669V268.245Z" fill="#A9CCEA"/>
<path d="M159.988 361.58H85.3193V371.273H159.988V361.58Z" stroke="#289DF2" stroke-width="1.1276" stroke-miterlimit="10"/>
<path d="M124.922 285.234H121.332V307.252H124.922V285.234Z" stroke="#289DF2" stroke-width="1.1276" stroke-miterlimit="10"/>
<path d="M269.108 347.175C275.853 346.087 280.44 339.736 279.352 332.99C278.264 326.244 271.914 321.657 265.168 322.745C258.422 323.833 253.836 330.184 254.923 336.93C256.011 343.676 262.362 348.263 269.108 347.175Z" fill="#FF4D6B"/>
<path d="M266.258 333.806L261.344 335.607L266.258 337.393V339.238L259.233 336.567V334.648L266.258 331.977V333.806Z" fill="#F9FBFC"/>
<path d="M267.863 331.977L274.888 334.648V336.567L267.863 339.238V337.393L272.777 335.607L267.863 333.806V331.977Z" fill="#F9FBFC"/>
<path d="M287.783 345.07C287.783 345.962 287.06 346.685 286.168 346.685C285.276 346.685 284.553 345.962 284.553 345.07C284.553 344.178 285.276 343.455 286.168 343.455C287.06 343.455 287.783 344.178 287.783 345.07Z" stroke="#FF4D6B" stroke-width="1.1276" stroke-miterlimit="10"/>
<path d="M139.882 228.038H81.3677V234.141H139.882V228.038Z" stroke="#289DF2" stroke-width="1.1276" stroke-miterlimit="10"/>
<path d="M120.138 230.016H83.8804V231.81H120.138V230.016Z" fill="#289DF2"/>
<path d="M173.986 275.665H131.147V277.819H173.986V275.665Z" fill="#284D89"/>
<path d="M150.563 275.665H131.147V277.819H150.563V275.665Z" fill="#2889DB"/>
<path d="M173.986 281.231H131.147V283.385H173.986V281.231Z" fill="#284D89"/>
<path d="M160.973 281.231H131.147V283.385H160.973V281.231Z" fill="#FF4D6B"/>
<path d="M173.986 286.793H131.147V288.947H173.986V286.793Z" fill="#284D89"/>
<path d="M139.883 286.793H131.147V288.947H139.883V286.793Z" fill="#1AE5FF"/>
<path d="M132.163 271.892H131.325V272.73H132.163V271.892Z" fill="#284D89"/>
<path d="M135.037 271.892H134.199V272.73H135.037V271.892Z" fill="#284D89"/>
<path d="M137.905 271.892H137.067V272.73H137.905V271.892Z" fill="#284D89"/>
<path d="M212.433 301.232H211.037V302.628H212.433V301.232Z" fill="white"/>
<path d="M217.222 301.232H215.825V302.628H217.222V301.232Z" fill="white"/>
<path d="M222.006 301.232H220.61V302.628H222.006V301.232Z" fill="white"/>
<path d="M233.811 245.758H231.193V248.376H233.811V245.758Z" fill="white"/>
<path d="M242.785 245.758H240.167V248.376H242.785V245.758Z" fill="white"/>
<path d="M251.759 245.758H249.141V248.376H251.759V245.758Z" fill="white"/>
<path d="M196.715 353.928H194.097V356.546H196.715V353.928Z" fill="white"/>
<path d="M205.689 353.928H203.071V356.546H205.689V353.928Z" fill="white"/>
<path d="M214.662 353.928H212.045V356.546H214.662V353.928Z" fill="white"/>
<path d="M85.6755 281.447H84.2798V282.843H85.6755V281.447Z" fill="white"/>
<path d="M90.4608 281.447H89.0645V282.843H90.4608V281.447Z" fill="white"/>
<path d="M95.2489 281.447H93.8525V282.843H95.2489V281.447Z" fill="white"/>
<path d="M280.011 279.732H256.796V282.006H280.011V279.732Z" fill="white"/>
<path d="M263.685 283.74H256.796V286.014H263.685V283.74Z" fill="#287DD1"/>
<path d="M69.5191 284.401H64.4935V279.376H59.8264V284.401H54.8008V289.068H59.8264V294.094H64.4935V289.068H69.5191V284.401Z" fill="#1AE5FF"/>
<path d="M56.0699 298.401H53.0054V295.336H50.1599V298.401H47.0947V301.246H50.1599V304.31H53.0054V301.246H56.0699V298.401Z" fill="#2889DB"/>
<path d="M139.948 295.724C135.608 295.724 132.089 299.244 132.089 303.584C132.089 307.925 135.608 311.444 139.948 311.444C144.29 311.444 147.808 307.925 147.808 303.584C147.808 299.244 144.289 295.724 139.948 295.724ZM139.948 307.68C137.686 307.68 135.853 305.846 135.853 303.584C135.853 301.322 137.687 299.488 139.948 299.488C142.211 299.488 144.044 301.322 144.044 303.584C144.044 305.846 142.21 307.68 139.948 307.68Z" fill="#284D89"/>
<path d="M134.596 302.809C135.326 302.809 135.966 302.375 136.298 301.724C136.975 300.397 138.354 299.488 139.946 299.488C141.539 299.488 142.917 300.397 143.595 301.724C143.926 302.375 144.567 302.809 145.297 302.809C146.672 302.809 147.613 301.368 147.009 300.132C145.731 297.522 143.049 295.724 139.947 295.724C136.845 295.724 134.163 297.522 132.885 300.133C132.279 301.368 133.22 302.809 134.596 302.809Z" fill="#289DF2"/>
<path d="M153.15 303.584C153.15 307.925 156.669 311.444 161.01 311.444C165.351 311.444 168.869 307.925 168.869 303.584C168.869 299.243 165.35 295.724 161.01 295.724C156.669 295.724 153.15 299.244 153.15 303.584ZM165.106 303.584C165.106 305.846 163.272 307.679 161.01 307.679C158.747 307.679 156.914 305.846 156.914 303.584C156.914 301.322 158.747 299.488 161.01 299.488C163.272 299.488 165.106 301.322 165.106 303.584Z" fill="#284D89"/>
<path d="M160.235 308.933C160.235 308.203 159.801 307.563 159.15 307.23C157.823 306.554 156.914 305.175 156.914 303.583C156.914 301.99 157.823 300.612 159.15 299.934C159.801 299.603 160.235 298.962 160.235 298.232C160.235 296.856 158.794 295.915 157.559 296.52C154.948 297.798 153.15 300.48 153.15 303.583C153.15 306.685 154.948 309.367 157.559 310.645C158.794 311.249 160.235 310.309 160.235 308.933Z" fill="#FF4D6B"/>
<path d="M117.506 272.553H103.147V307.016H117.506V272.553Z" stroke="#289DF2" stroke-width="1.1276" stroke-miterlimit="10"/>
<path d="M109.37 279.193H105.182V280.431H109.37V279.193Z" fill="#1AE5FF"/>
<path d="M109.37 281.954H105.182V283.192H109.37V281.954Z" fill="#1AE5FF"/>
<path d="M109.37 284.718H105.182V285.955H109.37V284.718Z" fill="#1AE5FF"/>
<path d="M109.37 299.075H105.182V300.313H109.37V299.075Z" fill="#1AE5FF"/>
<path d="M111.285 288.769H105.182V290.007H111.285V288.769Z" fill="#1AE5FF"/>
<path d="M111.285 291.529H105.182V292.767H111.285V291.529Z" fill="white"/>
<path d="M111.285 294.293H105.182V295.531H111.285V294.293Z" fill="white"/>
<path d="M69.8803 315.629H51.6919V333.818H69.8803V315.629Z" fill="#289DF2"/>
<path d="M60.3041 319.939H42.1157V338.127H60.3041V319.939Z" stroke="#289DF2" stroke-width="1.1276" stroke-miterlimit="10"/>
<path d="M275.696 368.282H268.037V375.94H275.696V368.282Z" stroke="#289DF2" stroke-width="1.1276" stroke-miterlimit="10"/>
<path d="M176.144 356.198H182.606L186.195 359.788H223.53L229.274 354.044H249.377" stroke="white" stroke-width="1.1276" stroke-miterlimit="10"/>
<path d="M174.257 358.171C175.298 358.171 176.142 357.327 176.142 356.287C176.142 355.246 175.298 354.402 174.257 354.402C173.216 354.402 172.373 355.246 172.373 356.287C172.373 357.327 173.216 358.171 174.257 358.171Z" stroke="white" stroke-width="1.1276" stroke-miterlimit="10"/>
<path d="M251.322 355.839C252.363 355.839 253.207 354.995 253.207 353.954C253.207 352.914 252.363 352.07 251.322 352.07C250.281 352.07 249.438 352.914 249.438 353.954C249.438 354.995 250.281 355.839 251.322 355.839Z" stroke="white" stroke-width="1.1276" stroke-miterlimit="10"/>
<path d="M276.655 254.844C276.655 256.166 275.583 257.237 274.262 257.237C272.94 257.237 271.868 256.166 271.868 254.844C271.868 253.522 272.94 252.45 274.262 252.45C275.583 252.45 276.655 253.522 276.655 254.844Z" fill="#289DF2"/>
<path d="M55.5188 348.177C55.5188 349.499 54.4472 350.57 53.1253 350.57C51.8035 350.57 50.7319 349.499 50.7319 348.177C50.7319 346.855 51.8035 345.784 53.1253 345.784C54.4478 345.784 55.5188 346.855 55.5188 348.177Z" fill="#FF4D6B"/>
<path d="M66.5265 357.035C66.5265 359.348 64.6514 361.224 62.3382 361.224C60.025 361.224 58.1499 359.348 58.1499 357.035C58.1499 354.722 60.025 352.847 62.3382 352.847C64.6514 352.847 66.5265 354.722 66.5265 357.035Z" fill="#FF4D6B"/>
<path d="M209.164 371.152H192.412V374.981H209.164V371.152Z" stroke="#289DF2" stroke-width="1.1276" stroke-miterlimit="10"/>
<path d="M229.148 378.333H192.412V382.162H229.148V378.333Z" stroke="#289DF2" stroke-width="1.1276" stroke-miterlimit="10"/>
<path d="M89.783 374.819L85.7227 378.879" stroke="#289DF2" stroke-width="1.1276" stroke-miterlimit="10" stroke-linecap="round" stroke-linejoin="round"/>
<path d="M93.6878 374.819L89.6274 378.879" stroke="#289DF2" stroke-width="1.1276" stroke-miterlimit="10" stroke-linecap="round" stroke-linejoin="round"/>
<path d="M97.5891 374.819L93.5288 378.879" stroke="#289DF2" stroke-width="1.1276" stroke-miterlimit="10" stroke-linecap="round" stroke-linejoin="round"/>
<path d="M101.497 374.819L97.437 378.879" stroke="#289DF2" stroke-width="1.1276" stroke-miterlimit="10" stroke-linecap="round" stroke-linejoin="round"/>
<path d="M105.402 374.819L101.342 378.879" stroke="#289DF2" stroke-width="1.1276" stroke-miterlimit="10" stroke-linecap="round" stroke-linejoin="round"/>
<path d="M180.783 57V44.8585H152.048V39.5972L177.222 0.33988H187.502V38.8688H195.92V44.8585H187.502V57H180.783ZM159.576 38.8688H181.107V5.03458H180.783L159.576 38.8688Z" fill="#E2E2E2"/>
</svg>
