<svg width="330" height="366" viewBox="0 0 330 366" fill="none" xmlns="http://www.w3.org/2000/svg">
<path d="M69.3039 112.656V99.0578H74.6462C75.5916 99.0578 76.3816 99.2068 77.0162 99.5046C77.6637 99.8025 78.1494 100.217 78.4731 100.748C78.7969 101.266 78.9588 101.868 78.9588 102.555C78.9588 103.241 78.8099 103.817 78.512 104.284C78.2141 104.75 77.8191 105.106 77.327 105.352C76.8478 105.598 76.3233 105.747 75.7535 105.799L76.0448 105.585C76.6535 105.598 77.204 105.76 77.6961 106.071C78.1882 106.382 78.5703 106.789 78.8422 107.295C79.1272 107.787 79.2696 108.337 79.2696 108.946C79.2696 109.658 79.0948 110.299 78.7451 110.869C78.4084 111.426 77.9098 111.866 77.2493 112.19C76.5888 112.501 75.7794 112.656 74.821 112.656H69.3039ZM71.6351 110.752H74.4713C75.2484 110.752 75.8441 110.571 76.2585 110.209C76.6859 109.846 76.8996 109.341 76.8996 108.693C76.8996 108.046 76.6794 107.534 76.2391 107.159C75.8117 106.77 75.2095 106.576 74.4325 106.576H71.6351V110.752ZM71.6351 104.808H74.3159C75.0541 104.808 75.6175 104.64 76.006 104.303C76.3945 103.953 76.5888 103.474 76.5888 102.865C76.5888 102.27 76.3945 101.803 76.006 101.467C75.6175 101.117 75.0412 100.942 74.2771 100.942H71.6351V104.808ZM81.425 112.656V102.963H83.5036L83.7173 104.769C83.9375 104.342 84.2224 103.979 84.5721 103.681C84.9218 103.37 85.3232 103.137 85.7765 102.982C86.2428 102.814 86.7543 102.729 87.3112 102.729V105.177H86.5924C86.191 105.177 85.8154 105.229 85.4657 105.333C85.116 105.423 84.8117 105.579 84.5527 105.799C84.2937 106.006 84.0929 106.297 83.9505 106.673C83.8209 107.049 83.7562 107.521 83.7562 108.091V112.656H81.425ZM92.315 112.889C91.512 112.889 90.8451 112.76 90.3141 112.501C89.7831 112.229 89.3881 111.873 89.1291 111.432C88.8701 110.979 88.7406 110.481 88.7406 109.937C88.7406 109.328 88.896 108.797 89.2068 108.344C89.5306 107.89 90.0033 107.541 90.6249 107.295C91.2466 107.036 92.0107 106.906 92.9172 106.906H95.3844C95.3844 106.401 95.3131 105.98 95.1707 105.643C95.0282 105.307 94.8016 105.054 94.4908 104.886C94.1929 104.717 93.8108 104.633 93.3446 104.633C92.8136 104.633 92.3539 104.756 91.9653 105.002C91.5898 105.248 91.3566 105.617 91.266 106.11H88.9737C89.0514 105.41 89.2845 104.808 89.673 104.303C90.0745 103.798 90.599 103.409 91.2466 103.137C91.8941 102.865 92.5999 102.729 93.364 102.729C94.2706 102.729 95.0476 102.885 95.6952 103.196C96.3557 103.506 96.8543 103.96 97.191 104.555C97.5407 105.138 97.7155 105.844 97.7155 106.673V112.656H95.734L95.5009 111.102C95.3714 111.348 95.2031 111.581 94.9958 111.801C94.8016 112.022 94.5749 112.216 94.3159 112.384C94.0569 112.54 93.759 112.663 93.4223 112.753C93.0985 112.844 92.7294 112.889 92.315 112.889ZM92.8395 111.044C93.2151 111.044 93.5518 110.979 93.8497 110.85C94.1476 110.707 94.4001 110.513 94.6073 110.267C94.8145 110.021 94.9764 109.742 95.093 109.431C95.2225 109.121 95.3002 108.79 95.3261 108.441V108.421H93.1698C92.7035 108.421 92.3215 108.48 92.0236 108.596C91.7387 108.7 91.525 108.855 91.3825 109.062C91.253 109.27 91.1883 109.503 91.1883 109.762C91.1883 110.034 91.253 110.267 91.3825 110.461C91.525 110.655 91.7193 110.804 91.9653 110.908C92.2114 110.999 92.5028 111.044 92.8395 111.044ZM100.168 112.656V102.963H102.228L102.383 104.594C102.694 104.024 103.128 103.571 103.685 103.234C104.254 102.898 104.915 102.729 105.666 102.729C106.469 102.729 107.149 102.891 107.706 103.215C108.263 103.539 108.69 104.024 108.988 104.672C109.286 105.32 109.435 106.123 109.435 107.081V112.656H107.104V107.295C107.104 106.453 106.922 105.812 106.56 105.371C106.21 104.918 105.673 104.691 104.947 104.691C104.481 104.691 104.06 104.808 103.685 105.041C103.309 105.261 103.018 105.585 102.81 106.012C102.603 106.44 102.5 106.958 102.5 107.567V112.656H100.168ZM116.244 112.889C115.338 112.889 114.528 112.669 113.816 112.229C113.104 111.789 112.54 111.186 112.126 110.422C111.725 109.645 111.524 108.771 111.524 107.8C111.524 106.815 111.725 105.941 112.126 105.177C112.54 104.413 113.104 103.817 113.816 103.39C114.541 102.95 115.364 102.729 116.283 102.729C117.009 102.729 117.65 102.872 118.207 103.157C118.763 103.429 119.204 103.817 119.527 104.322V98.6693H121.859V112.656H119.78L119.527 111.238C119.32 111.523 119.068 111.795 118.77 112.054C118.472 112.3 118.116 112.501 117.701 112.656C117.287 112.812 116.801 112.889 116.244 112.889ZM116.73 110.869C117.287 110.869 117.779 110.74 118.207 110.481C118.634 110.209 118.964 109.846 119.197 109.393C119.43 108.926 119.547 108.395 119.547 107.8C119.547 107.191 119.43 106.66 119.197 106.207C118.964 105.753 118.634 105.397 118.207 105.138C117.779 104.879 117.287 104.75 116.73 104.75C116.186 104.75 115.701 104.879 115.273 105.138C114.846 105.397 114.509 105.76 114.263 106.226C114.03 106.679 113.913 107.204 113.913 107.8C113.913 108.395 114.03 108.926 114.263 109.393C114.509 109.846 114.846 110.209 115.273 110.481C115.701 110.74 116.186 110.869 116.73 110.869ZM124.548 112.656V102.963H126.88V112.656H124.548ZM125.714 101.37C125.287 101.37 124.93 101.24 124.646 100.981C124.374 100.709 124.238 100.379 124.238 99.9903C124.238 99.5888 124.374 99.265 124.646 99.019C124.93 98.7599 125.287 98.6304 125.714 98.6304C126.141 98.6304 126.491 98.7599 126.763 99.019C127.048 99.265 127.19 99.5888 127.19 99.9903C127.19 100.379 127.048 100.709 126.763 100.981C126.491 101.24 126.141 101.37 125.714 101.37ZM129.555 112.656V102.963H131.614L131.769 104.594C132.08 104.024 132.514 103.571 133.071 103.234C133.641 102.898 134.301 102.729 135.052 102.729C135.855 102.729 136.535 102.891 137.092 103.215C137.649 103.539 138.076 104.024 138.374 104.672C138.672 105.32 138.821 106.123 138.821 107.081V112.656H136.49V107.295C136.49 106.453 136.308 105.812 135.946 105.371C135.596 104.918 135.059 104.691 134.333 104.691C133.867 104.691 133.446 104.808 133.071 105.041C132.695 105.261 132.404 105.585 132.196 106.012C131.989 106.44 131.886 106.958 131.886 107.567V112.656H129.555ZM145.359 117.163C144.439 117.163 143.636 117.047 142.95 116.813C142.263 116.593 141.726 116.25 141.337 115.784C140.962 115.331 140.774 114.761 140.774 114.074C140.774 113.673 140.871 113.278 141.065 112.889C141.273 112.514 141.577 112.164 141.978 111.84C142.393 111.517 142.917 111.232 143.552 110.986L144.562 112.093C143.953 112.313 143.526 112.579 143.28 112.889C143.034 113.213 142.911 113.53 142.911 113.841C142.911 114.178 143.014 114.456 143.222 114.677C143.442 114.91 143.733 115.085 144.096 115.201C144.471 115.318 144.886 115.376 145.339 115.376C145.792 115.376 146.181 115.311 146.505 115.182C146.841 115.065 147.1 114.897 147.282 114.677C147.476 114.456 147.573 114.191 147.573 113.88C147.573 113.505 147.437 113.194 147.165 112.948C146.893 112.715 146.369 112.572 145.592 112.52C144.892 112.468 144.284 112.397 143.766 112.307C143.261 112.203 142.82 112.086 142.445 111.957C142.082 111.827 141.771 111.678 141.512 111.51C141.253 111.342 141.039 111.173 140.871 111.005V110.558L142.891 108.421L144.62 109.004L142.348 111.219L142.95 110.131C143.079 110.221 143.209 110.306 143.338 110.383C143.481 110.448 143.656 110.513 143.863 110.578C144.083 110.629 144.361 110.681 144.698 110.733C145.048 110.785 145.501 110.837 146.058 110.888C146.926 110.953 147.625 111.109 148.156 111.355C148.7 111.601 149.095 111.931 149.341 112.345C149.6 112.76 149.73 113.252 149.73 113.822C149.73 114.392 149.574 114.929 149.263 115.434C148.952 115.939 148.473 116.354 147.826 116.677C147.178 117.001 146.356 117.163 145.359 117.163ZM145.359 109.742C144.543 109.742 143.843 109.587 143.261 109.276C142.678 108.952 142.224 108.525 141.901 107.994C141.59 107.463 141.434 106.874 141.434 106.226C141.434 105.579 141.59 104.996 141.901 104.478C142.224 103.947 142.678 103.526 143.261 103.215C143.843 102.891 144.543 102.729 145.359 102.729C146.174 102.729 146.874 102.891 147.457 103.215C148.039 103.526 148.486 103.947 148.797 104.478C149.108 104.996 149.263 105.579 149.263 106.226C149.263 106.874 149.108 107.463 148.797 107.994C148.486 108.525 148.039 108.952 147.457 109.276C146.874 109.587 146.174 109.742 145.359 109.742ZM145.359 107.936C145.903 107.936 146.343 107.793 146.68 107.508C147.029 107.21 147.204 106.789 147.204 106.246C147.204 105.702 147.029 105.287 146.68 105.002C146.343 104.704 145.903 104.555 145.359 104.555C144.802 104.555 144.348 104.704 143.999 105.002C143.662 105.287 143.494 105.702 143.494 106.246C143.494 106.789 143.662 107.21 143.999 107.508C144.348 107.793 144.802 107.936 145.359 107.936ZM146.952 104.672L146.505 102.963H150.526V104.419L146.952 104.672ZM167.76 112.656L160.3 105.216C159.691 104.62 159.264 104.083 159.018 103.604C158.772 103.111 158.649 102.587 158.649 102.03C158.649 101.421 158.798 100.877 159.095 100.398C159.393 99.9061 159.827 99.5241 160.397 99.2521C160.967 98.9672 161.653 98.8247 162.456 98.8247C163.259 98.8247 163.939 98.9736 164.496 99.2715C165.053 99.5694 165.48 99.9644 165.778 100.457C166.076 100.949 166.212 101.506 166.186 102.127H163.952C163.965 101.622 163.816 101.247 163.505 101C163.207 100.754 162.851 100.631 162.437 100.631C161.971 100.631 161.595 100.761 161.31 101.02C161.025 101.266 160.883 101.596 160.883 102.011C160.883 102.36 160.986 102.71 161.193 103.06C161.401 103.409 161.712 103.804 162.126 104.245L170.557 112.656H167.76ZM161.66 112.889C160.688 112.889 159.834 112.721 159.095 112.384C158.37 112.035 157.807 111.549 157.405 110.927C157.004 110.293 156.803 109.561 156.803 108.732C156.803 108.072 156.939 107.463 157.211 106.906C157.483 106.349 157.891 105.857 158.435 105.43C158.979 104.989 159.652 104.64 160.455 104.381L161.349 104.089L162.417 105.546L161.543 105.838C160.714 106.123 160.099 106.498 159.698 106.964C159.296 107.431 159.095 107.975 159.095 108.596C159.095 109.036 159.199 109.438 159.406 109.801C159.626 110.163 159.937 110.448 160.339 110.655C160.74 110.85 161.213 110.947 161.757 110.947C162.482 110.947 163.13 110.791 163.699 110.481C164.282 110.157 164.846 109.645 165.39 108.946C165.636 108.635 165.882 108.279 166.128 107.877C166.387 107.463 166.646 107.003 166.905 106.498L167.371 105.604H169.76L169.042 106.984C168.705 107.657 168.362 108.272 168.012 108.829C167.675 109.373 167.326 109.865 166.963 110.306C166.212 111.212 165.409 111.873 164.554 112.287C163.699 112.689 162.735 112.889 161.66 112.889ZM182.189 112.889C181.205 112.889 180.311 112.695 179.508 112.307C178.718 111.918 178.083 111.322 177.604 110.519C177.138 109.716 176.905 108.706 176.905 107.489V99.0578H179.236V107.508C179.236 108.246 179.359 108.855 179.605 109.334C179.851 109.814 180.194 110.176 180.635 110.422C181.088 110.655 181.619 110.772 182.228 110.772C182.849 110.772 183.38 110.655 183.821 110.422C184.274 110.176 184.617 109.814 184.85 109.334C185.096 108.855 185.219 108.246 185.219 107.508V99.0578H187.55V107.489C187.55 108.706 187.311 109.716 186.832 110.519C186.352 111.322 185.705 111.918 184.889 112.307C184.073 112.695 183.173 112.889 182.189 112.889ZM190.149 112.656V99.0578H192.48V112.656H190.149ZM199.919 112.656V99.0578H204.407C205.987 99.0578 207.295 99.3363 208.331 99.8932C209.367 100.45 210.131 101.24 210.623 102.263C211.128 103.273 211.381 104.478 211.381 105.876C211.381 107.249 211.128 108.447 210.623 109.47C210.131 110.481 209.367 111.264 208.331 111.821C207.295 112.378 205.987 112.656 204.407 112.656H199.919ZM202.251 110.675H204.29C205.469 110.675 206.401 110.487 207.088 110.111C207.774 109.723 208.26 109.172 208.545 108.46C208.843 107.735 208.992 106.874 208.992 105.876C208.992 104.866 208.843 104.005 208.545 103.293C208.26 102.568 207.774 102.011 207.088 101.622C206.401 101.221 205.469 101.02 204.29 101.02H202.251V110.675ZM218.143 112.889C217.184 112.889 216.33 112.682 215.579 112.268C214.84 111.84 214.258 111.251 213.83 110.5C213.416 109.736 213.209 108.862 213.209 107.877C213.209 106.854 213.416 105.961 213.83 105.197C214.245 104.419 214.821 103.817 215.559 103.39C216.31 102.95 217.178 102.729 218.162 102.729C219.121 102.729 219.956 102.943 220.668 103.37C221.381 103.785 221.931 104.348 222.319 105.061C222.721 105.76 222.922 106.556 222.922 107.45C222.922 107.58 222.922 107.722 222.922 107.877C222.922 108.033 222.909 108.195 222.883 108.363H214.899V106.867H220.571C220.532 106.181 220.286 105.637 219.833 105.235C219.393 104.821 218.836 104.614 218.162 104.614C217.683 104.614 217.236 104.724 216.822 104.944C216.42 105.164 216.097 105.488 215.85 105.915C215.617 106.343 215.501 106.88 215.501 107.528V108.091C215.501 108.687 215.617 109.205 215.85 109.645C216.084 110.073 216.401 110.403 216.802 110.636C217.204 110.856 217.644 110.966 218.123 110.966C218.667 110.966 219.114 110.85 219.464 110.616C219.826 110.383 220.098 110.066 220.28 109.665H222.65C222.468 110.273 222.164 110.824 221.737 111.316C221.322 111.795 220.811 112.177 220.202 112.462C219.606 112.747 218.92 112.889 218.143 112.889ZM228.959 112.889C228.118 112.889 227.373 112.753 226.725 112.481C226.078 112.196 225.566 111.808 225.191 111.316C224.815 110.811 224.588 110.234 224.511 109.587H226.861C226.926 109.859 227.043 110.111 227.211 110.345C227.392 110.565 227.625 110.74 227.91 110.869C228.208 110.999 228.551 111.063 228.94 111.063C229.315 111.063 229.626 111.011 229.872 110.908C230.118 110.791 230.3 110.642 230.416 110.461C230.533 110.28 230.591 110.092 230.591 109.898C230.591 109.587 230.507 109.354 230.339 109.198C230.183 109.043 229.944 108.913 229.62 108.81C229.296 108.706 228.914 108.609 228.474 108.518C228.046 108.428 227.612 108.318 227.172 108.188C226.745 108.059 226.356 107.89 226.007 107.683C225.657 107.476 225.378 107.217 225.171 106.906C224.964 106.582 224.86 106.187 224.86 105.721C224.86 105.151 225.009 104.64 225.307 104.186C225.618 103.733 226.058 103.377 226.628 103.118C227.211 102.859 227.897 102.729 228.687 102.729C229.814 102.729 230.714 102.988 231.388 103.506C232.074 104.024 232.476 104.756 232.592 105.702H230.377C230.313 105.339 230.131 105.061 229.834 104.866C229.549 104.659 229.167 104.555 228.687 104.555C228.182 104.555 227.794 104.653 227.522 104.847C227.263 105.028 227.133 105.268 227.133 105.566C227.133 105.773 227.217 105.954 227.386 106.11C227.554 106.265 227.794 106.394 228.105 106.498C228.428 106.602 228.804 106.705 229.231 106.809C229.931 106.951 230.559 107.12 231.116 107.314C231.673 107.508 232.113 107.793 232.437 108.169C232.773 108.531 232.942 109.056 232.942 109.742C232.955 110.364 232.793 110.914 232.456 111.394C232.132 111.86 231.673 112.229 231.077 112.501C230.481 112.76 229.775 112.889 228.959 112.889ZM235.301 112.656V102.963H237.632V112.656H235.301ZM236.467 101.37C236.039 101.37 235.683 101.24 235.398 100.981C235.126 100.709 234.99 100.379 234.99 99.9903C234.99 99.5888 235.126 99.265 235.398 99.019C235.683 98.7599 236.039 98.6304 236.467 98.6304C236.894 98.6304 237.244 98.7599 237.516 99.019C237.801 99.265 237.943 99.5888 237.943 99.9903C237.943 100.379 237.801 100.709 237.516 100.981C237.244 101.24 236.894 101.37 236.467 101.37ZM244.406 117.163C243.487 117.163 242.684 117.047 241.997 116.813C241.311 116.593 240.774 116.25 240.385 115.784C240.009 115.331 239.822 114.761 239.822 114.074C239.822 113.673 239.919 113.278 240.113 112.889C240.32 112.514 240.625 112.164 241.026 111.84C241.441 111.517 241.965 111.232 242.6 110.986L243.61 112.093C243.001 112.313 242.574 112.579 242.328 112.889C242.082 113.213 241.959 113.53 241.959 113.841C241.959 114.178 242.062 114.456 242.269 114.677C242.49 114.91 242.781 115.085 243.144 115.201C243.519 115.318 243.934 115.376 244.387 115.376C244.84 115.376 245.229 115.311 245.552 115.182C245.889 115.065 246.148 114.897 246.329 114.677C246.524 114.456 246.621 114.191 246.621 113.88C246.621 113.505 246.485 113.194 246.213 112.948C245.941 112.715 245.416 112.572 244.639 112.52C243.94 112.468 243.331 112.397 242.813 112.307C242.308 112.203 241.868 112.086 241.492 111.957C241.13 111.827 240.819 111.678 240.56 111.51C240.301 111.342 240.087 111.173 239.919 111.005V110.558L241.939 108.421L243.668 109.004L241.395 111.219L241.997 110.131C242.127 110.221 242.256 110.306 242.386 110.383C242.528 110.448 242.703 110.513 242.91 110.578C243.131 110.629 243.409 110.681 243.746 110.733C244.095 110.785 244.549 110.837 245.106 110.888C245.973 110.953 246.673 111.109 247.204 111.355C247.748 111.601 248.143 111.931 248.389 112.345C248.648 112.76 248.777 113.252 248.777 113.822C248.777 114.392 248.622 114.929 248.311 115.434C248 115.939 247.521 116.354 246.873 116.677C246.226 117.001 245.404 117.163 244.406 117.163ZM244.406 109.742C243.59 109.742 242.891 109.587 242.308 109.276C241.725 108.952 241.272 108.525 240.948 107.994C240.638 107.463 240.482 106.874 240.482 106.226C240.482 105.579 240.638 104.996 240.948 104.478C241.272 103.947 241.725 103.526 242.308 103.215C242.891 102.891 243.59 102.729 244.406 102.729C245.222 102.729 245.922 102.891 246.504 103.215C247.087 103.526 247.534 103.947 247.845 104.478C248.156 104.996 248.311 105.579 248.311 106.226C248.311 106.874 248.156 107.463 247.845 107.994C247.534 108.525 247.087 108.952 246.504 109.276C245.922 109.587 245.222 109.742 244.406 109.742ZM244.406 107.936C244.95 107.936 245.391 107.793 245.727 107.508C246.077 107.21 246.252 106.789 246.252 106.246C246.252 105.702 246.077 105.287 245.727 105.002C245.391 104.704 244.95 104.555 244.406 104.555C243.849 104.555 243.396 104.704 243.046 105.002C242.71 105.287 242.541 105.702 242.541 106.246C242.541 106.789 242.71 107.21 243.046 107.508C243.396 107.793 243.849 107.936 244.406 107.936ZM245.999 104.672L245.552 102.963H249.574V104.419L245.999 104.672ZM251.652 112.656V102.963H253.711L253.867 104.594C254.177 104.024 254.611 103.571 255.168 103.234C255.738 102.898 256.398 102.729 257.15 102.729C257.953 102.729 258.633 102.891 259.189 103.215C259.746 103.539 260.174 104.024 260.472 104.672C260.769 105.32 260.918 106.123 260.918 107.081V112.656H258.587V107.295C258.587 106.453 258.406 105.812 258.043 105.371C257.694 104.918 257.156 104.691 256.431 104.691C255.965 104.691 255.544 104.808 255.168 105.041C254.793 105.261 254.501 105.585 254.294 106.012C254.087 106.44 253.983 106.958 253.983 107.567V112.656H251.652Z" fill="#E2E2E2"/>
<path d="M64.327 361.43L64.3354 361.022L238.298 364.583L238.289 364.99L64.327 361.43Z" fill="#000A3D" stroke="white"/>
<path d="M128.137 316.665C102.534 316.248 83.9839 308.748 72.7253 297.246C61.4766 285.755 57.4485 270.212 60.9879 253.559C67.6269 222.334 100.752 188.037 156.651 175.542C178.812 170.591 195.338 171.16 207.733 175.654C220.112 180.143 228.425 188.566 234.131 199.444C239.844 210.336 242.94 223.684 244.862 237.99C246.382 249.302 247.164 261.18 247.936 272.889C248.14 275.99 248.343 279.078 248.56 282.14C250.62 311.325 246.287 332.249 236.198 345.433C226.134 358.584 210.255 364.14 188.938 362.396C178.314 361.526 172.513 358.321 168.931 354.065C165.681 350.204 164.212 345.439 162.698 340.525C162.529 339.978 162.36 339.429 162.188 338.879C160.48 333.43 158.474 327.943 153.598 323.79C148.717 319.633 141.043 316.876 128.137 316.665Z" fill="#EAF4FE" stroke="white"/>
<path d="M94.7225 325.935C102.717 324.176 114.548 322.649 125.58 323.431C136.649 324.215 146.733 327.31 151.472 334.614C153.888 338.339 155.034 341.399 155.17 343.763C155.304 346.093 154.461 347.736 152.858 348.749C151.216 349.787 148.704 350.209 145.435 349.879C142.178 349.55 138.229 348.48 133.772 346.607C129.26 344.711 123.173 342.715 116.951 340.717C116.229 340.484 115.504 340.252 114.78 340.02C109.257 338.251 103.752 336.488 99.226 334.79C96.6663 333.829 94.4337 332.895 92.696 331.999C90.9364 331.091 89.7599 330.258 89.2298 329.529C88.9734 329.176 88.905 328.898 88.9352 328.674C88.9654 328.45 89.1093 328.174 89.5022 327.856C90.3094 327.203 91.9564 326.544 94.7225 325.935ZM94.7225 325.935L94.6151 325.446L94.7225 325.935Z" fill="#EAF4FE" stroke="white"/>
<path d="M252.063 348.458C247.284 357.236 239.617 362.181 231.158 363.177C222.693 364.174 213.387 361.22 205.348 354.096C189.249 339.825 184.455 314.355 194.051 296.743C198.838 287.959 206.392 282.914 214.731 281.817C223.075 280.719 232.262 283.569 240.305 290.693C256.419 304.966 261.65 330.853 252.063 348.458Z" fill="#000A3D" stroke="white"/>
<path d="M254.082 347.162C249.421 355.767 242.058 360.71 233.934 361.786C225.804 362.862 216.853 360.073 209.021 353.095C193.328 339.109 188.241 313.748 197.577 296.496C202.235 287.889 209.596 282.946 217.719 281.871C225.847 280.795 234.798 283.585 242.63 290.563C258.322 304.546 263.425 329.914 254.082 347.162Z" fill="#1D3557" stroke="white"/>
<path d="M249.637 343.226C245.67 350.57 239.409 354.784 232.504 355.701C225.594 356.619 217.98 354.243 211.314 348.285C197.949 336.335 193.608 314.68 201.561 299.956C205.528 292.613 211.79 288.397 218.694 287.479C225.604 286.56 233.218 288.936 239.884 294.9C253.246 306.853 257.591 328.499 249.637 343.226Z" fill="#EAF4FE" stroke="white"/>
<path d="M213.71 343.896L213.71 343.896C202.564 333.913 198.945 315.801 205.577 303.499C208.883 297.367 214.092 293.855 219.834 293.091C225.582 292.326 231.923 294.307 237.489 299.284C248.647 309.263 252.254 327.373 245.621 339.678C242.316 345.811 237.102 349.325 231.358 350.09C225.609 350.855 219.268 348.874 213.71 343.896Z" fill="#1D3557" stroke="white"/>
<path d="M241.61 336.22C238.969 341.088 234.804 343.872 230.218 344.478C225.627 345.084 220.556 343.514 216.106 339.555C207.175 331.608 204.276 317.208 209.582 307.431C212.225 302.561 216.39 299.776 220.976 299.17C225.567 298.563 230.638 300.133 235.09 304.093C244.02 312.036 246.913 326.445 241.61 336.22Z" fill="#EAF4FE" stroke="white"/>
<path d="M237.64 332.294C235.698 335.906 232.637 337.96 229.27 338.405C225.898 338.851 222.16 337.691 218.871 334.754C212.266 328.853 210.116 318.163 214.034 310.899C215.983 307.286 219.049 305.232 222.417 304.787C225.792 304.341 229.53 305.501 232.818 308.438C239.423 314.335 241.544 325.028 237.64 332.294Z" fill="#1D3557" stroke="white"/>
<path d="M221.248 330.413L221.248 330.412C216.854 326.549 215.453 319.558 218.04 314.828C219.322 312.481 221.336 311.154 223.545 310.866C225.759 310.578 228.226 311.328 230.408 313.249C234.799 317.115 236.206 324.104 233.617 328.833C232.332 331.18 230.318 332.506 228.108 332.793C225.893 333.081 223.427 332.331 221.248 330.413Z" fill="#EAF4FE" stroke="white"/>
<path d="M229.163 325.286C228.568 326.422 227.651 327.041 226.667 327.175C225.678 327.31 224.551 326.965 223.534 326.03C221.47 324.117 220.817 320.676 222.028 318.364C222.623 317.228 223.539 316.609 224.522 316.475C225.511 316.34 226.638 316.685 227.655 317.621C229.717 319.518 230.375 322.973 229.163 325.286Z" fill="#1D3557" stroke="white"/>
<path d="M259.656 290.614L260.24 291.271L226.373 321.456C226.286 321.534 226.171 321.574 226.054 321.567C225.938 321.561 225.829 321.508 225.751 321.422C225.674 321.334 225.635 321.22 225.641 321.103C225.648 320.987 225.7 320.877 225.787 320.799C225.787 320.799 225.787 320.799 225.788 320.799L259.656 290.614Z" fill="#000A3D" stroke="white"/>
<path d="M254.887 287.147L263.088 279.898L262.602 288.256L262.573 288.756L263.072 288.784L271.487 289.27L263.298 296.513L252.075 298.592L251.514 297.968L254.887 287.147Z" fill="#000A3D" stroke="white"/>
<path d="M208.481 354.058L121.296 352.274L124.492 196.136L211.677 197.92L208.481 354.058Z" fill="#EAF4FE" stroke="white"/>
<path d="M184.307 198.18L202.671 198.657M184.307 198.18L213.62 210.115C213.653 208.643 213.397 207.18 212.864 205.808C212.332 204.436 211.535 203.182 210.518 202.118C209.501 201.054 208.285 200.201 206.939 199.607C205.592 199.013 204.142 198.69 202.671 198.657M184.307 198.18L158.544 197.601M184.307 198.18L158.68 190.993M202.671 198.657L202.684 198.157L202.683 198.157L205.734 362.916L205.733 362.916C207.138 362.948 208.536 362.702 209.846 362.194C211.157 361.685 212.355 360.923 213.372 359.952C214.389 358.98 215.204 357.817 215.771 356.531C216.339 355.244 216.647 353.858 216.679 352.452L220.015 203.188C220.047 201.782 219.801 200.384 219.292 199.073C218.783 197.762 218.021 196.564 217.049 195.548C216.077 194.532 214.914 193.717 213.627 193.15C212.341 192.583 210.956 192.276 209.551 192.244L209.552 192.244L209.56 191.744L209.549 192.244L159.169 191.5M202.671 198.657L202.682 198.157L184.32 197.68L184.318 197.68L159.054 197.112M159.054 197.112L159.169 191.5M159.054 197.112L158.555 197.101L158.544 197.601M159.054 197.112L159.044 197.611L158.544 197.601M159.169 191.5L159.179 191.003L158.68 190.993M159.169 191.5L158.672 191.493L158.68 190.993M158.68 190.993L158.544 197.601M155.366 361.411L155.658 348.533L205.731 362.916L155.366 361.411Z" fill="#000A3D" stroke="white"/>
<path d="M212.745 352.368L215.825 203.11C215.888 200.267 214.871 197.507 212.979 195.386C211.087 193.266 208.462 191.944 205.633 191.688M212.745 352.368L212.245 352.357M212.745 352.368L212.245 352.358L212.245 352.357M212.745 352.368C212.682 355.207 211.545 357.916 209.565 359.948C207.584 361.98 204.907 363.184 202.075 363.317C201.821 363.336 201.565 363.331 201.312 363.326L123.157 361.726C121.235 361.686 119.408 360.884 118.078 359.495C116.747 358.107 116.022 356.246 116.061 354.322L126.713 190.049L204.859 191.648C205.122 191.653 205.381 191.668 205.633 191.688M212.245 352.357L215.325 203.099L215.325 203.099C215.385 200.383 214.414 197.745 212.606 195.719C210.799 193.694 208.292 192.432 205.591 192.186M212.245 352.357C212.185 355.069 211.099 357.657 209.207 359.599C207.315 361.54 204.757 362.69 202.051 362.818L202.044 362.818L202.037 362.818C201.811 362.836 201.579 362.831 201.322 362.826L123.167 361.226C121.378 361.189 119.678 360.442 118.439 359.149C117.2 357.857 116.525 356.124 116.561 354.333L119.808 197.175L119.808 197.174C119.826 196.286 120.018 195.409 120.374 194.595C120.73 193.781 121.243 193.045 121.884 192.43C122.524 191.815 123.279 191.332 124.106 191.009C124.933 190.686 125.815 190.53 126.703 190.548L126.703 190.548L204.849 192.148C205.099 192.153 205.347 192.167 205.591 192.186M205.591 192.186C205.591 192.187 205.592 192.187 205.593 192.187L205.633 191.688M205.591 192.186C205.59 192.186 205.589 192.186 205.588 192.186L205.633 191.688M198.819 349.35L198.82 349.35L125.911 204.363L125.411 204.352L125.411 204.353C125.411 204.353 125.411 204.353 125.411 204.353L122.61 340.025L122.61 340.025C122.569 342.082 123.344 344.071 124.767 345.556C126.189 347.041 128.142 347.9 130.197 347.945L130.198 347.945L198.819 349.35Z" fill="url(#paint0_linear_2156_9458)" stroke="white"/>
<path d="M173.599 358.506L173.598 358.506L155.017 358.1C155.016 358.1 155.016 358.1 155.016 358.1C154.642 358.092 154.272 358.007 153.929 357.85C153.585 357.692 153.273 357.466 153.012 357.182L152.658 357.507L153.012 357.182C152.75 356.898 152.544 356.562 152.406 356.193C152.269 355.823 152.202 355.429 152.211 355.032C152.22 354.635 152.304 354.243 152.458 353.88C152.612 353.517 152.833 353.19 153.107 352.918C153.381 352.646 153.703 352.433 154.054 352.291C154.405 352.149 154.778 352.081 155.153 352.089C155.153 352.089 155.153 352.089 155.153 352.089L173.734 352.511C173.734 352.511 173.734 352.511 173.734 352.511C174.487 352.528 175.206 352.855 175.734 353.425L176.096 353.09L175.734 353.425C176.261 353.996 176.553 354.764 176.54 355.564C176.531 355.962 176.448 356.353 176.294 356.716C176.14 357.079 175.919 357.406 175.645 357.678L175.997 358.033L175.645 357.678C175.371 357.95 175.049 358.163 174.698 358.305C174.347 358.446 173.974 358.514 173.599 358.506Z" fill="#000A3D" stroke="white"/>
<path d="M206.445 198.75L206.446 198.75C206.761 198.756 207.072 198.823 207.361 198.948L207.559 198.49L207.361 198.948C207.65 199.073 207.911 199.253 208.128 199.477C208.346 199.701 208.517 199.965 208.631 200.253C208.744 200.542 208.8 200.849 208.793 201.158L208.793 201.159L208.66 207.649L126.166 205.961L126.299 199.471C126.312 198.847 126.575 198.252 127.033 197.818C127.49 197.384 128.106 197.146 128.743 197.159L206.445 198.75Z" fill="#000A3D" stroke="white"/>
<path d="M142.203 202.097C142.206 201.937 142.264 201.773 142.383 201.627C142.503 201.479 142.681 201.355 142.9 201.282C143.12 201.209 143.364 201.193 143.599 201.238C143.834 201.283 144.039 201.385 144.193 201.522C144.345 201.659 144.437 201.821 144.471 201.982C144.505 202.143 144.483 202.309 144.404 202.464C144.325 202.62 144.186 202.765 143.993 202.871C143.8 202.976 143.567 203.033 143.326 203.028C143 203.021 142.703 202.904 142.496 202.719C142.292 202.537 142.198 202.311 142.203 202.097Z" fill="#0D4AB5" stroke="white"/>
<path d="M136.572 201.981C136.575 201.802 136.632 201.627 136.735 201.48C136.838 201.333 136.982 201.22 137.149 201.154C137.316 201.089 137.499 201.075 137.674 201.114C137.849 201.152 138.009 201.242 138.134 201.371C138.258 201.501 138.341 201.664 138.372 201.841C138.404 202.018 138.382 202.2 138.31 202.364L138.768 202.565L138.31 202.364C138.238 202.529 138.119 202.668 137.968 202.765C137.816 202.861 137.64 202.911 137.46 202.907C137.22 202.902 136.991 202.802 136.824 202.628C136.658 202.455 136.567 202.222 136.572 201.981Z" fill="#EAF4FE" stroke="white"/>
<path d="M130.474 201.857C130.477 201.696 130.535 201.532 130.654 201.386C130.774 201.238 130.952 201.115 131.171 201.042C131.391 200.969 131.635 200.953 131.87 200.998C132.105 201.043 132.31 201.145 132.464 201.282C132.616 201.418 132.708 201.58 132.742 201.742C132.776 201.902 132.754 202.068 132.675 202.223C132.596 202.38 132.457 202.525 132.264 202.63C132.071 202.736 131.838 202.793 131.597 202.788C131.271 202.781 130.974 202.663 130.767 202.479C130.563 202.296 130.469 202.071 130.474 201.857Z" fill="#B3AEA5" stroke="white"/>
<path d="M203.98 202.943L204.746 202.207L204.811 202.275L204.045 203.011L203.685 203.357L204.031 203.718L204.766 204.483L204.699 204.547L203.962 203.782L203.617 203.423L203.256 203.768L202.49 204.501L202.428 204.436L203.194 203.7L203.555 203.354L203.208 202.994L202.472 202.227L202.538 202.163L203.273 202.928L203.619 203.289L203.98 202.943Z" fill="white" stroke="white"/>
<mask id="mask0_2156_9458" style="mask-type:luminance" maskUnits="userSpaceOnUse" x="123" y="197" width="87" height="152">
<path d="M208.705 205.849L208.705 205.85L205.907 341.68C205.869 343.475 205.121 345.181 203.827 346.425C202.532 347.669 200.797 348.349 199.003 348.315L130.216 346.907C129.327 346.889 128.45 346.695 127.636 346.338C126.822 345.981 126.086 345.466 125.471 344.824C124.856 344.182 124.373 343.426 124.05 342.597L123.585 342.778L124.05 342.597C123.727 341.769 123.571 340.885 123.59 339.996L123.59 339.995L126.398 204.156L126.398 204.155C126.414 203.266 126.606 202.389 126.962 201.574C127.318 200.759 127.831 200.023 128.472 199.406C129.113 198.79 129.869 198.306 130.697 197.982C131.525 197.658 132.409 197.5 133.298 197.518C133.298 197.518 133.298 197.518 133.298 197.518L202.082 198.926C202.972 198.945 203.849 199.139 204.663 199.497C205.478 199.856 206.214 200.371 206.829 201.014C207.444 201.657 207.927 202.415 208.248 203.245C208.57 204.074 208.726 204.959 208.705 205.849Z" fill="white" stroke="white"/>
</mask>
<g mask="url(#mask0_2156_9458)">
<path d="M152.863 269.105L153.409 242.425L180.73 242.985L180.184 269.664L152.863 269.105Z" fill="#1D3557" stroke="white"/>
<path d="M180.762 269.679L181.309 242.99L189.318 243.154L188.772 269.843L180.762 269.679Z" fill="#1D3557" stroke="white"/>
<path d="M169.831 258.318C170.649 258.803 171.393 259.402 172.04 260.099C172.937 261.2 173.736 262.379 174.426 263.622L174.429 263.629L174.434 263.636L176.56 267.194L172.436 267.11L169.485 262.51C168.79 261.357 168.022 260.249 167.186 259.195L167.18 259.187L167.174 259.18C166.766 258.703 166.249 258.332 165.667 258.097L165.644 258.088L165.62 258.081C164.853 257.859 164.058 257.754 163.26 257.771L162.372 257.753L161.872 257.743L161.862 258.243L161.685 266.888L158.263 266.809L158.691 245.895L167.503 246.075C169.834 246.123 171.456 246.354 172.422 246.735C173.37 247.11 174.165 247.792 174.679 248.673L174.679 248.673L174.681 248.677C175.258 249.646 175.541 250.762 175.497 251.89L175.496 251.903L175.496 251.917C175.517 253.283 175.016 254.605 174.095 255.614C173.211 256.552 171.877 257.162 170.025 257.392L168.573 257.572L169.831 258.318ZM161.934 254.731L161.924 255.231L162.424 255.241L165.697 255.308C166.764 255.33 167.638 255.325 168.317 255.293C168.976 255.262 169.497 255.204 169.831 255.099C170.444 254.919 170.979 254.54 171.351 254.021L171.356 254.014L171.36 254.008C171.737 253.446 171.935 252.783 171.928 252.107C171.975 251.344 171.74 250.59 171.268 249.988L171.259 249.978L171.25 249.967C170.747 249.394 170.056 249.019 169.302 248.907C168.898 248.844 167.78 248.798 166.008 248.762L162.555 248.691L162.054 248.681L162.044 249.181L161.934 254.731Z" fill="#EAF4FE" stroke="white"/>
<path d="M150.425 324.443L150.971 297.764L178.293 298.323L177.747 325.002L150.425 324.443Z" fill="url(#paint1_linear_2156_9458)" stroke="white"/>
<path d="M178.322 325.014L178.869 298.328L186.881 298.492L186.335 325.178L178.322 325.014Z" fill="url(#paint2_linear_2156_9458)" stroke="white"/>
<path d="M169.496 315.148L169.785 301.015L172.896 301.079L172.468 321.992L168.809 321.917L160.411 307.686L159.516 306.17L159.48 307.93L159.198 321.72L156.088 321.657L156.516 300.744L160.039 300.816L168.565 315.391L169.46 316.921L169.496 315.148Z" fill="url(#paint3_linear_2156_9458)" stroke="white"/>
<path d="M143.095 296.6L143.641 269.92L170.963 270.479L170.416 297.159L143.095 296.6Z" fill="url(#paint4_linear_2156_9458)" stroke="white"/>
<path d="M170.992 297.171L171.538 270.485L179.551 270.649L179.005 297.335L170.992 297.171Z" fill="#000A3D" stroke="white"/>
<path d="M161.601 289.107L161.484 288.784L161.141 288.777L152.382 288.598L152.032 288.591L151.905 288.918L150.121 293.529L146.511 293.455L155.082 272.712L159.081 272.794L167.027 293.875L163.295 293.799L161.601 289.107ZM159.778 286.056L160.497 286.071L160.26 285.392L157.407 277.198L156.959 275.912L156.469 277.182L153.35 285.254L153.093 285.92L153.806 285.934L159.778 286.056Z" fill="#EAF4FE" stroke="white"/>
<path d="M149.926 241.351L150.472 214.671L177.793 215.23L177.247 241.91L149.926 241.351Z" fill="url(#paint5_linear_2156_9458)" stroke="white"/>
<path d="M177.825 241.925L178.371 215.236L186.384 215.4L185.838 242.089L177.825 241.925Z" fill="url(#paint6_linear_2156_9458)" stroke="white"/>
<path d="M165.963 220.768L166.028 220.272C165.555 220.21 164.261 220.159 162.194 220.117L159.652 220.065L159.152 220.055L159.142 220.555L159.038 225.622L159.028 226.122L159.528 226.132L162.428 226.191C164.124 226.226 165.226 226.224 165.689 226.179C166.469 226.137 167.21 225.829 167.79 225.307L167.799 225.299L167.807 225.29C168.079 225.021 168.294 224.699 168.437 224.344C168.578 223.996 168.647 223.623 168.642 223.248C168.683 222.528 168.455 221.819 168.002 221.258L167.991 221.244L167.979 221.231C167.463 220.677 166.76 220.334 166.006 220.27L165.963 220.768ZM165.963 220.768C166.594 220.822 167.182 221.109 167.613 221.572L165.652 225.681C165.233 225.723 164.162 225.727 162.438 225.691L160.038 225.642L159.538 225.632L159.548 225.132L159.631 221.065L159.641 220.565L160.141 220.575L162.184 220.617C164.264 220.66 165.524 220.71 165.963 220.768ZM162.311 238.406L155.355 238.264L155.783 217.339L164.039 217.508L164.039 217.508L164.05 217.508C165.32 217.506 166.587 217.603 167.842 217.797C168.584 217.937 169.287 218.237 169.902 218.674C170.521 219.122 171.032 219.704 171.398 220.375L171.398 220.375L171.4 220.379C171.793 221.085 171.985 221.886 171.957 222.693L171.957 222.693L171.957 222.704C171.945 223.609 171.667 224.491 171.158 225.239L171.156 225.242C170.647 225.998 169.929 226.589 169.088 226.942L167.761 227.5L169.149 227.885C170.25 228.19 171.222 228.846 171.919 229.752C172.551 230.623 172.872 231.682 172.828 232.758L172.828 232.758L172.827 232.766C172.805 233.698 172.567 234.613 172.132 235.437L172.132 235.437L172.127 235.445C171.717 236.26 171.107 236.958 170.354 237.473C169.53 237.998 168.586 238.306 167.61 238.366L167.603 238.367L167.595 238.368C166.89 238.433 165.141 238.448 162.311 238.406ZM159.477 228.778L158.974 228.764L158.963 229.268L158.843 235.126L158.833 235.626L159.333 235.637L163.42 235.72C164.456 235.775 165.494 235.75 166.526 235.646L166.534 235.645L166.542 235.644C167.274 235.546 167.952 235.202 168.462 234.668L168.472 234.658L168.48 234.648C168.999 234.046 169.273 233.272 169.251 232.477C169.281 231.788 169.098 231.105 168.726 230.523L168.722 230.516L168.717 230.51C168.328 229.94 167.764 229.512 167.11 229.29C166.744 229.156 166.217 229.066 165.561 229.002C164.892 228.937 164.05 228.896 163.038 228.876C163.037 228.876 163.037 228.876 163.036 228.876L159.477 228.778Z" fill="url(#paint7_linear_2156_9458)" stroke="white"/>
<path d="M145.565 352.041L146.111 325.361L173.432 325.92L172.886 352.6L145.565 352.041Z" fill="#1D3557" stroke="white"/>
<path d="M173.459 352.617L174.005 325.928L182.015 326.092L181.469 352.781L173.459 352.617Z" fill="#1D3557" stroke="white"/>
<path d="M151.788 349.185L159.613 349.345L159.621 349.345L159.629 349.346C160.898 349.411 162.17 349.287 163.403 348.98C164.489 348.69 165.492 348.153 166.335 347.409C167.374 346.402 168.159 345.163 168.628 343.794L151.788 349.185ZM151.788 349.185L152.217 328.26L159.803 328.415C161.623 328.453 162.952 328.62 163.822 328.896L163.822 328.896L163.825 328.897C164.994 329.26 166.043 329.931 166.864 330.838C167.74 331.819 168.393 332.979 168.777 334.237C169.247 335.876 169.447 337.58 169.369 339.283L169.369 339.294L169.369 339.305C169.369 340.832 169.118 342.348 168.628 343.793L151.788 349.185ZM156.085 331.045L155.587 331.036L155.577 331.534L155.28 346.048L155.269 346.548L155.769 346.558L159.061 346.626C159.993 346.676 160.926 346.623 161.846 346.466L161.855 346.464L161.864 346.462C162.61 346.306 163.306 345.966 163.888 345.474L163.888 345.474L163.894 345.469C164.473 344.964 164.912 344.172 165.242 343.156L165.245 343.146L165.248 343.137C165.626 341.79 165.811 340.396 165.798 338.997C165.833 337.294 165.711 335.934 165.409 334.947C165.169 334.064 164.713 333.254 164.081 332.591L164.073 332.582L164.064 332.574C163.435 331.976 162.654 331.562 161.806 331.377C161.132 331.21 159.869 331.116 158.073 331.079L158.072 331.079L156.085 331.045Z" fill="#EAF4FE" stroke="white"/>
</g>
<path d="M104.758 352.541C104.769 352.544 104.78 352.547 104.79 352.549C104.791 352.561 104.792 352.574 104.793 352.588C104.803 352.707 104.801 352.874 104.787 353.084C104.759 353.502 104.685 354.033 104.593 354.585C104.502 355.134 104.397 355.691 104.307 356.158C104.3 356.196 104.293 356.234 104.285 356.272C104.226 356.582 104.173 356.857 104.141 357.048C104.094 357.058 104.025 357.067 103.932 357.071C103.612 357.086 103.16 357.039 102.668 356.947C102.183 356.857 101.689 356.73 101.296 356.602C101.099 356.537 100.936 356.475 100.815 356.419C100.75 356.389 100.709 356.367 100.687 356.354C100.682 356.34 100.676 356.32 100.669 356.292C100.647 356.199 100.627 356.066 100.613 355.895C100.585 355.555 100.585 355.119 100.603 354.656C100.632 353.899 100.707 353.118 100.772 352.652C100.863 352.633 100.98 352.613 101.12 352.593C101.53 352.534 102.084 352.484 102.654 352.458C103.226 352.432 103.796 352.431 104.239 352.466C104.463 352.484 104.637 352.51 104.758 352.541ZM104.867 352.577C104.869 352.578 104.87 352.579 104.87 352.579C104.87 352.579 104.869 352.578 104.867 352.577Z" fill="#FFD2D4" stroke="white"/>
<path d="M99.623 360.537C99.5441 360.532 99.474 360.528 99.4135 360.524C98.9354 359.559 99.0723 358.486 99.3891 357.572C99.5505 357.106 99.7521 356.702 99.919 356.407C100.972 357.298 102.16 357.457 103.106 357.374C103.646 357.327 104.112 357.201 104.443 357.088C104.609 357.032 104.743 356.977 104.837 356.937C104.85 356.931 104.863 356.925 104.874 356.92C106.858 356.948 108.838 357.088 110.806 357.339C111.95 357.502 112.525 358.379 112.819 359.367C112.964 359.854 113.028 360.336 113.056 360.699C113.06 360.754 113.063 360.805 113.065 360.854C111.29 361.01 108.043 360.941 105.098 360.822C103.504 360.757 102.015 360.678 100.923 360.615C100.378 360.584 99.9322 360.557 99.623 360.537Z" fill="#000A3D" stroke="white"/>
<path d="M78.9118 357.035C78.8843 357.035 78.8527 357.034 78.8167 357.032C78.5398 357.013 78.1391 356.918 77.6938 356.772C77.2563 356.629 76.8078 356.448 76.4461 356.278C76.2652 356.192 76.1114 356.112 75.9944 356.043C75.9359 356.009 75.8904 355.98 75.8571 355.956C75.8477 355.949 75.8401 355.943 75.834 355.939C75.8288 355.925 75.8206 355.901 75.8112 355.863C75.7875 355.767 75.7671 355.632 75.7526 355.457C75.724 355.11 75.7234 354.664 75.7413 354.192C75.771 353.411 75.8495 352.604 75.9163 352.13C75.9908 352.113 76.0842 352.095 76.1957 352.077C76.5556 352.018 77.0453 351.968 77.5511 351.942C78.0583 351.916 78.5634 351.916 78.9577 351.951C79.1563 351.969 79.3099 351.995 79.4152 352.025C79.4261 352.028 79.4358 352.031 79.4445 352.034C79.4478 352.055 79.4511 352.081 79.454 352.111C79.4673 352.249 79.4698 352.439 79.4608 352.676C79.4429 353.146 79.3821 353.744 79.3045 354.36C79.2272 354.974 79.1347 355.596 79.0553 356.111C79.0294 356.279 79.0047 356.437 78.9822 356.58C78.9543 356.758 78.9301 356.913 78.9118 357.035ZM79.4289 351.96C79.4282 351.959 79.4279 351.958 79.4279 351.958C79.4279 351.958 79.4283 351.959 79.4289 351.96Z" fill="#FFD2D4" stroke="white"/>
<path d="M101.301 312.182L101.301 312.181C101.189 310.327 100.443 307.655 99.4739 304.75C98.6896 302.4 97.7445 299.857 96.8365 297.414C96.6168 296.823 96.3993 296.238 96.1868 295.663C95.2612 293.143 94.4801 289.979 94.0274 287.339C93.8009 286.02 93.659 284.844 93.6201 283.956C93.6006 283.51 93.6079 283.151 93.6389 282.888C93.6544 282.757 93.6745 282.662 93.6947 282.598C93.7051 282.565 93.7134 282.547 93.7169 282.54C94.1077 282.124 95.2608 281.184 96.8574 280.111C98.4575 279.035 100.464 277.852 102.514 276.962C104.575 276.068 106.63 275.494 108.344 275.581C109.194 275.624 109.943 275.829 110.569 276.222C111.191 276.613 111.719 277.208 112.106 278.079L112.106 278.079C113.847 282.001 114.864 288.123 115.414 294.566C115.964 300.993 116.045 307.679 115.942 312.69C115.841 317.643 114.062 325.724 111.841 333.861C109.678 341.781 107.112 349.7 105.321 354.724L99.9231 354.1L99.9273 353.894L99.9634 352.149C99.9935 350.703 100.034 348.77 100.076 346.823C100.118 344.877 100.161 342.917 100.196 341.415C100.213 340.665 100.229 340.029 100.241 339.568C100.247 339.337 100.253 339.151 100.257 339.015C100.259 338.948 100.261 338.894 100.263 338.854C100.265 338.815 100.266 338.798 100.266 338.794C100.936 332.184 101.699 318.84 101.301 312.182Z" fill="url(#paint8_linear_2156_9458)" stroke="white"/>
<path d="M102.92 303.199C103.444 304.148 104.021 305.058 104.579 305.939C104.923 306.483 105.261 307.015 105.575 307.54C106.415 308.941 107.142 310.363 107.581 312.02C109.316 318.566 107.686 325.36 105.947 331.901C105.88 332.153 105.812 332.405 105.744 332.658C104.707 336.516 103.647 340.457 103.317 344.5L103.317 344.503C103.3 344.728 103.28 344.978 103.259 345.249C103.167 346.444 103.043 348.041 102.96 349.633C102.874 351.276 102.83 352.95 102.916 354.187L100.037 353.858C100.022 353.595 100.002 353.216 99.9792 352.743C99.9331 351.78 99.8768 350.428 99.8361 348.87C99.7545 345.751 99.7356 341.823 99.9829 338.551C100.085 337.196 100.226 335.554 100.381 333.742C100.977 326.792 101.786 317.349 101.464 312.077L101.464 312.077C101.405 311.128 101.087 309.772 100.628 308.211C100.165 306.64 99.5477 304.824 98.8699 302.941C97.9803 300.47 96.9805 297.866 96.0865 295.537C95.6455 294.388 95.2303 293.306 94.8667 292.341C95.0128 291.863 95.0829 291.301 95.1286 290.739C95.1548 290.416 95.1738 290.081 95.1923 289.749L95.1939 289.722C95.212 289.397 95.23 289.076 95.2543 288.762C95.3048 288.109 95.3808 287.521 95.5266 287.046C95.6726 286.57 95.8676 286.278 96.1057 286.127C96.1143 286.124 96.1735 286.109 96.3294 286.156C96.5177 286.214 96.7668 286.342 97.0686 286.546C97.6683 286.951 98.3809 287.593 99.0866 288.328C99.789 289.06 100.468 289.865 101.001 290.585C101.547 291.323 101.899 291.916 102.001 292.235L102.001 292.235L102.002 292.238C102.164 292.736 102.092 293.337 101.92 294.047C101.868 294.26 101.814 294.462 101.758 294.669C101.719 294.811 101.68 294.955 101.641 295.107C101.549 295.462 101.465 295.831 101.431 296.189L101.431 296.189L101.43 296.193C101.215 298.621 101.734 301.056 102.92 303.199ZM102.92 303.199L103.357 302.957M102.92 303.199C102.92 303.199 102.92 303.199 102.92 303.199L103.357 302.957M103.357 302.957C102.219 300.901 101.722 298.565 101.928 296.238L106.43 332.03C108.165 325.504 109.838 318.585 108.064 311.892C107.432 309.505 106.229 307.608 104.986 305.647C104.436 304.779 103.877 303.898 103.357 302.957Z" fill="#000A3D" stroke="white"/>
<path d="M84.5808 275.598L84.5789 275.597C83.5126 275.443 82.9857 275.68 82.7896 275.996L82.7891 275.997C81.7304 277.696 80.7925 279.47 79.9825 281.306C77.6402 286.646 77.3724 290.952 77.6479 295.718C77.7302 297.141 77.8623 298.614 78.0019 300.172C78.329 303.82 78.6976 307.931 78.5644 312.948L78.5644 312.95C78.5476 313.77 78.5302 314.621 78.4826 315.464M84.5808 275.598L77.9833 315.438M84.5808 275.598C85.9296 275.787 88.1491 276.373 90.477 277.49C92.7536 278.583 95.1037 280.17 96.8467 282.36C96.8454 282.382 96.8441 282.406 96.8428 282.432C96.8339 282.604 96.8234 282.858 96.8166 283.188C96.7225 285.201 96.0753 290.323 95.1914 296.903C94.8465 299.471 94.4661 302.257 94.0697 305.16C93.4518 309.687 92.7951 314.497 92.174 319.203C91.5251 324.108 89.2495 330.563 86.736 337.015C85.9847 338.944 85.2119 340.872 84.4574 342.756C82.7698 346.968 81.1732 350.953 80.1108 354.202L75.5058 353.601M84.5808 275.598L75.5058 353.601M78.4826 315.464C78.4826 315.464 78.4825 315.465 78.4825 315.466L77.9833 315.438M78.4826 315.464C78.4827 315.463 78.4827 315.462 78.4827 315.461L77.9833 315.438M78.4826 315.464C78.3931 317.437 78.4938 319.555 78.5985 321.759C78.6489 322.819 78.7002 323.898 78.7318 324.991C78.8283 328.327 78.7369 331.746 77.8185 334.885M77.9833 315.438C77.8924 317.435 77.9949 319.594 78.1003 321.813C78.3058 326.141 78.5223 330.699 77.3386 334.744M77.8185 334.885L77.3386 334.744M77.8185 334.885C76.0753 340.847 75.512 345.632 75.3831 348.918C75.3186 350.562 75.3627 351.831 75.4223 352.685C75.4499 353.081 75.4808 353.387 75.5058 353.601M77.8185 334.885C77.8185 334.885 77.8185 334.885 77.8185 334.885L77.3386 334.744M77.3386 334.744C73.8278 346.752 75.0614 354.048 75.0614 354.048L75.5058 353.601" fill="url(#paint9_linear_2156_9458)" stroke="white"/>
<path d="M82.8993 292.114L82.8993 292.115C83.1311 293.983 83.507 295.814 83.8781 297.621C83.9516 297.979 84.0249 298.336 84.0969 298.692C84.5342 300.856 84.9244 303.002 85.0332 305.214C85.4111 313.385 83.3452 320.879 80.3214 328.479C78.4201 333.234 76.8544 338.003 76.1785 343.12C75.7752 346.173 75.5992 350.441 75.5541 353.633L75.1708 353.588C75.1446 353.45 75.1135 353.264 75.0819 353.025C74.9967 352.382 74.908 351.357 74.9017 349.856C74.8892 346.853 75.2067 341.952 76.5388 334.403L76.0464 334.316L76.5388 334.403C77.6556 328.073 78.0133 321.344 78.2749 315.456C78.3238 314.613 78.3412 313.762 78.358 312.943L78.358 312.94C78.4897 307.949 78.1061 303.809 77.764 300.118C77.6158 298.519 77.4753 297.003 77.388 295.539C77.0984 290.686 77.3762 286.295 79.8092 280.959L79.8521 280.865L79.8542 280.761C79.8609 280.432 80.0668 280.089 80.5123 279.757C80.9523 279.43 81.559 279.169 82.1875 279.007C82.818 278.844 83.4214 278.793 83.8431 278.846C84.0574 278.873 84.1822 278.922 84.2398 278.96C84.2433 278.962 84.2463 278.964 84.2487 278.966C84.219 280.527 84.0481 282.082 83.738 283.614L83.738 283.614L83.7369 283.62C83.6741 283.951 83.6087 284.283 83.5431 284.616C83.0691 287.026 82.5792 289.517 82.8993 292.114Z" fill="#000A3D" stroke="white"/>
<path d="M74.5336 357.066C74.7027 356.592 74.9149 356.182 75.0886 355.886C76.1522 356.776 77.2856 356.895 78.1839 356.757C78.6888 356.68 79.1156 356.522 79.4153 356.386C79.5593 356.32 79.6758 356.258 79.7598 356.21L79.7722 356.211C79.8811 356.218 80.0403 356.229 80.2406 356.243C80.6413 356.271 81.2064 356.313 81.8637 356.367C83.1797 356.476 84.8584 356.635 86.324 356.836C87.5216 357.001 88.1148 357.888 88.4166 358.87C88.5661 359.356 88.6325 359.837 88.6609 360.2C88.6651 360.253 88.6684 360.304 88.6711 360.351C86.8401 360.508 83.4818 360.437 80.4388 360.315C78.7947 360.249 77.2585 360.169 76.1331 360.106C75.5704 360.075 75.1107 360.047 74.7917 360.027C74.7047 360.022 74.6282 360.017 74.5629 360.013C74.0678 359.05 74.2076 357.98 74.5336 357.066Z" fill="#000A3D" stroke="white"/>
<path d="M108.31 236.28C108.476 236.443 108.666 236.634 108.877 236.855C109.727 237.745 110.918 239.12 112.267 241.042C114.912 244.81 118.168 250.688 120.654 259.163L107.798 261.774L108.005 245.009L108.31 236.28Z" fill="#1D3557" stroke="white"/>
<path d="M80.0625 282.728L80.0607 282.727C79.4629 282.603 78.9967 282.462 78.6692 282.314C78.3252 282.158 78.2293 282.038 78.2145 282.009C78.2133 282.006 78.2086 281.991 78.2027 281.962C78.1951 281.924 78.1878 281.872 78.1818 281.804C78.1698 281.666 78.1654 281.485 78.1695 281.258C78.1776 280.804 78.2189 280.205 78.2852 279.482C78.3932 278.304 78.5648 276.829 78.7572 275.174C78.8009 274.798 78.8457 274.413 78.8911 274.019C79.3795 269.788 79.9331 264.659 79.895 260.541C79.8819 258.964 79.8844 257.365 79.9164 255.801L79.9164 255.798C79.9775 251.705 80.1902 247.76 80.6199 244.673C80.8349 243.128 81.1021 241.814 81.4253 240.811C81.7576 239.78 82.1183 239.178 82.4527 238.932L82.4527 238.932L82.4588 238.928C82.8717 238.615 83.3541 238.29 83.8979 237.94L83.898 237.94L83.9032 237.936C84.3641 237.631 84.8556 237.327 85.4023 237.028L85.4024 237.028L85.4108 237.023C85.817 236.791 86.243 236.562 86.6891 236.343L86.6891 236.343L86.6928 236.342C88.5159 235.427 90.4407 234.732 92.4271 234.269L92.4271 234.269L92.4316 234.268C96.1491 233.367 100.031 233.386 103.739 234.325L103.742 234.325C104.797 234.584 105.832 234.916 106.84 235.318L106.84 235.318L106.849 235.322C107.093 235.413 107.333 235.514 107.592 235.63L107.592 235.63L107.6 235.633C108.341 235.948 108.898 236.601 109.299 237.582C109.701 238.568 109.924 239.843 110.017 241.312C110.201 244.251 109.853 247.832 109.49 251.143L109.49 251.145C109.451 251.522 109.411 251.896 109.371 252.265C109.091 254.876 108.837 257.25 108.892 258.829L108.892 258.829L108.893 258.837C108.923 259.441 108.987 260.043 109.083 260.639C109.455 263.121 110.734 267.75 111.973 272.159C112.072 272.513 112.171 272.865 112.27 273.215C113.347 277.046 114.336 280.561 114.645 282.284C114.632 282.291 114.618 282.298 114.604 282.306C114.421 282.401 114.148 282.52 113.788 282.657C113.072 282.931 112.057 283.261 110.84 283.605C108.407 284.291 105.197 285.022 102.007 285.451C98.3862 285.932 93.6751 285.421 89.4563 284.697C86.3095 284.156 83.4813 283.506 81.6111 283.076C80.9761 282.93 80.4516 282.81 80.0625 282.728Z" fill="#1D3557" stroke="white"/>
<path d="M96.5302 232.5L96.6188 228.173L100.354 229.7L100.29 232.838L100.287 232.974L100.353 233.093L100.353 233.093L100.354 233.093L100.354 233.093L100.354 233.093L100.354 233.094L100.359 233.103C100.364 233.112 100.371 233.126 100.38 233.144C100.399 233.18 100.426 233.233 100.455 233.297C100.515 233.429 100.582 233.595 100.623 233.755C100.658 233.891 100.664 233.983 100.66 234.034C99.8575 234.159 98.8104 233.791 97.8858 233.315C97.4365 233.084 97.0441 232.842 96.7638 232.658C96.6732 232.598 96.5948 232.545 96.5302 232.5Z" fill="#FFD2D4" stroke="white"/>
<path d="M104.057 226.556L104.057 226.556C104.152 226.957 104.061 227.46 103.765 227.976C103.473 228.487 102.998 228.974 102.401 229.321C101.228 230.005 99.5877 230.151 97.9283 228.863C96.2225 227.539 95.4568 225.705 95.1208 224.168C94.9533 223.402 94.8949 222.72 94.8785 222.231C94.8735 222.081 94.8725 221.95 94.8734 221.841L101.536 220.595C101.577 220.666 101.625 220.749 101.678 220.843C101.875 221.19 102.145 221.687 102.439 222.28C103.028 223.472 103.698 225.034 104.057 226.556Z" fill="#FFD2D4" stroke="white"/>
<path d="M92.7224 225.349L92.94 224.952L92.5652 224.696C92.4032 224.586 92.2686 224.437 92.1733 224.262L91.7357 224.5L92.1733 224.262C92.0779 224.087 92.0248 223.89 92.0187 223.689C92.0127 223.488 92.054 223.288 92.1388 223.107C92.2236 222.926 92.3492 222.768 92.5047 222.648L92.8639 222.369L92.62 221.985C92.4708 221.75 92.4141 221.465 92.4627 221.187C92.5114 220.91 92.6612 220.663 92.8794 220.496L93.1329 220.302L93.0637 219.991C92.9802 219.615 93.109 219.192 93.3565 218.892C93.6159 218.576 93.8712 218.532 94.0141 218.586L94.4408 218.747L94.6403 218.337C94.7643 218.082 94.9657 217.877 95.2124 217.751L95.2125 217.752L95.2226 217.746C95.3513 217.677 95.4965 217.649 95.6399 217.665L96.2257 217.729L96.1939 217.141C96.1895 217.06 96.2024 216.98 96.2313 216.906C96.2603 216.831 96.3045 216.765 96.3604 216.71L96.3662 216.705L96.3718 216.699C96.5137 216.551 96.6863 216.497 96.9244 216.514C97.1814 216.534 97.4811 216.638 97.7989 216.789L98.2713 217.014L98.4742 216.532C98.618 216.19 98.9597 215.939 99.3972 215.846C99.8378 215.752 100.285 215.839 100.575 216.064L100.74 216.192L100.948 216.165C101.802 216.051 102.542 216.273 102.939 216.673C103.294 217.031 103.483 217.643 103.006 218.62L103.006 218.62C102.479 219.7 101.38 220.422 99.9809 220.917C98.5879 221.409 96.9836 221.646 95.5627 221.817L94.9757 221.888L95.1427 222.455C95.2509 222.822 95.3645 223.233 95.4598 223.58C95.4819 223.661 95.5032 223.739 95.5232 223.812C95.5882 224.05 95.6406 224.242 95.6671 224.33L95.6671 224.33L95.6686 224.335C95.7688 224.656 95.9111 224.998 96.0457 225.321C96.0853 225.415 96.1242 225.509 96.1612 225.599C96.3318 226.018 96.4734 226.408 96.5359 226.781L96.568 226.972L96.7202 227.092C97.2307 227.493 97.8188 227.781 98.4467 227.936L98.4467 227.936L98.453 227.938C99.0875 228.087 99.6119 228.069 100.089 227.848C100.532 227.642 100.875 227.286 101.205 226.903C101.221 226.891 101.239 226.886 101.257 226.885C101.278 226.885 101.299 226.891 101.317 226.905C101.635 227.206 102.036 227.267 102.363 227.265C102.625 227.263 102.912 227.218 103.149 227.181C103.202 227.173 103.254 227.165 103.302 227.158C103.6 227.114 103.786 227.105 103.906 227.135C103.954 227.147 103.974 227.161 103.984 227.171C103.994 227.18 104.02 227.209 104.044 227.289L104.045 227.29C104.131 227.575 104.049 228.117 103.747 228.704C103.452 229.279 103.023 229.742 102.61 229.923C100.333 230.913 98.4125 229.876 96.701 228.433L96.3948 228.175L96.076 228.418C95.833 228.602 95.6524 228.648 95.535 228.649C95.4228 228.649 95.3161 228.608 95.2107 228.512C94.9799 228.303 94.795 227.856 94.8058 227.331L94.8099 227.129L94.6721 226.981C94.628 226.933 94.5902 226.88 94.5601 226.821L94.4417 226.593L94.1869 226.556C93.642 226.478 93.1426 226.283 92.8601 226.038C92.7244 225.921 92.6632 225.814 92.6426 225.725C92.6239 225.646 92.6254 225.527 92.7224 225.349Z" fill="url(#paint10_linear_2156_9458)" stroke="white"/>
<path d="M107.59 266.826L108.081 261.042C108.158 260.974 108.264 260.881 108.395 260.767C108.691 260.51 109.115 260.145 109.629 259.718C110.656 258.862 112.035 257.759 113.447 256.761C114.869 255.757 116.29 254.884 117.41 254.462C117.976 254.249 118.405 254.175 118.695 254.212C118.831 254.229 118.92 254.268 118.981 254.315C119.041 254.361 119.101 254.433 119.148 254.563L119.148 254.564C119.928 256.708 120.626 258.703 120.969 260.539C121.31 262.371 121.286 263.991 120.673 265.403C120.553 265.68 120.298 265.943 119.872 266.182C119.448 266.42 118.887 266.613 118.22 266.762C116.886 267.06 115.212 267.165 113.555 267.168C111.903 267.17 110.292 267.071 109.092 266.971C108.492 266.921 107.997 266.871 107.651 266.833C107.63 266.831 107.61 266.829 107.59 266.826Z" fill="#1D3557" stroke="white"/>
<path d="M100.862 260.029L100.859 260.033C100.686 260.226 100.569 260.495 100.482 260.752C100.39 261.023 100.311 261.342 100.239 261.681C100.14 262.153 100.048 262.696 99.9562 263.239C99.9168 263.472 99.8775 263.705 99.8376 263.932C99.7015 264.706 99.5581 265.416 99.3799 265.931C99.2901 266.19 99.2027 266.367 99.1251 266.471C99.0935 266.513 99.0718 266.534 99.0605 266.542C95.8031 266.744 93.3954 265.066 91.6835 263.349C90.9618 262.625 90.378 261.909 89.9054 261.33C89.8158 261.22 89.7302 261.115 89.6484 261.015C89.4017 260.716 89.1677 260.442 88.9651 260.267C88.8684 260.184 88.7307 260.08 88.5643 260.031C88.4734 260.004 88.3571 259.989 88.2296 260.018C88.0993 260.047 87.9921 260.114 87.9113 260.198C87.8059 260.306 87.7461 260.439 87.711 260.53C87.6711 260.633 87.639 260.749 87.6123 260.864C87.5588 261.093 87.5165 261.366 87.4816 261.631C87.4533 261.845 87.4285 262.063 87.4063 262.259C87.4009 262.306 87.3957 262.352 87.3906 262.397C87.3633 262.635 87.3416 262.807 87.3226 262.9L87.3226 262.9L87.3218 262.904C86.6546 266.318 85.7888 269.689 84.729 273L84.7289 273L84.7258 273.01C84.6244 273.353 84.5051 273.689 84.3685 274.019L84.3068 274.168L84.3437 274.325C84.3526 274.363 84.3531 274.511 84.2557 274.821C84.1655 275.108 84.0146 275.464 83.8135 275.875C83.412 276.696 82.8369 277.681 82.2306 278.67C81.8342 279.317 81.4304 279.956 81.0565 280.547C80.8581 280.861 80.6681 281.162 80.4921 281.443C80.2403 281.846 80.0172 282.209 79.8442 282.509C79.778 282.623 79.7156 282.734 79.6603 282.838C79.247 282.737 78.9131 282.626 78.6615 282.511C78.3196 282.355 78.2244 282.234 78.2096 282.206C78.2084 282.202 78.2036 282.187 78.1975 282.157C78.19 282.118 78.1826 282.066 78.1767 281.997C78.1647 281.859 78.1604 281.677 78.1645 281.449C78.1727 280.993 78.2139 280.391 78.28 279.665C78.3877 278.482 78.5587 277.001 78.7505 275.339C78.7941 274.961 78.8388 274.574 78.884 274.18C79.3708 269.93 79.9226 264.781 79.8855 260.646C79.8727 259.063 79.8755 257.457 79.9076 255.887L79.9077 255.884C79.9692 251.776 80.1777 248.324 80.5464 245.54C80.9162 242.748 81.4428 240.664 82.1212 239.271L82.1218 239.27C82.1383 239.235 82.1974 239.154 82.3338 239.028C82.4616 238.91 82.6259 238.781 82.8101 238.649C83.0802 238.455 83.3668 238.272 83.6139 238.115C83.7085 238.271 83.8131 238.485 83.9359 238.735C83.9424 238.748 83.9491 238.762 83.9558 238.775C84.0957 239.061 84.2624 239.398 84.4385 239.642C84.5243 239.76 84.6452 239.905 84.8055 240C84.9766 240.102 85.2125 240.155 85.451 240.052C87.2057 239.562 88.6226 240.014 90.0366 240.875C90.7582 241.314 91.4653 241.852 92.2154 242.423L92.2312 242.435C92.9694 242.998 93.7464 243.59 94.5828 244.112C95.3836 244.613 96.452 245.572 97.6252 246.768C98.7901 247.956 100.031 249.348 101.172 250.688C102.312 252.028 103.349 253.312 104.107 254.281C104.486 254.766 104.793 255.171 105.008 255.463C105.116 255.61 105.198 255.725 105.254 255.807C105.276 255.839 105.292 255.863 105.303 255.881C105.429 256.347 105.352 256.68 105.171 256.963C104.967 257.284 104.605 257.58 104.106 257.89C103.808 258.076 103.507 258.241 103.19 258.415C102.958 258.542 102.717 258.675 102.461 258.824C101.893 259.154 101.312 259.538 100.862 260.029ZM99.0515 266.548C99.0515 266.548 99.0526 266.547 99.0549 266.546C99.0526 266.548 99.0515 266.548 99.0515 266.548ZM105.32 255.91C105.32 255.91 105.318 255.907 105.316 255.903C105.319 255.908 105.32 255.91 105.32 255.91Z" fill="#1D3557" stroke="white"/>
<path d="M114.374 231.071L115.349 231.236C115.325 231.308 115.266 231.389 115.17 231.435C115.085 231.476 115.016 231.467 114.992 231.462C114.979 231.46 114.973 231.457 114.973 231.458C114.973 231.458 115.002 231.472 115.047 231.527C115.16 231.664 115.318 232.007 115.202 232.617L115.199 232.631L115.197 232.645C115.131 233.152 115.076 233.444 115 233.663C114.931 233.86 114.838 234.013 114.659 234.22C114.585 234.303 114.501 234.374 114.41 234.43L114.073 234.638L114.198 235.014L114.361 235.502L114.219 236.31L112.782 237.047L112.014 236.523C111.913 236.151 111.826 235.776 111.754 235.397C111.761 235.367 111.768 235.334 111.775 235.3C111.796 235.204 111.82 235.085 111.843 234.972L111.903 234.679L111.672 234.488C111.475 234.324 111.298 234.178 111.156 234.06C111.124 234.034 111.094 234.009 111.065 233.986C111.012 233.942 110.966 233.904 110.929 233.873L111.247 233.809C111.332 233.792 111.418 233.78 111.504 233.773L112.17 233.722L111.933 233.097C111.482 231.908 111.551 230.435 111.862 229.116C111.942 228.785 112.077 228.259 112.25 227.778C112.302 227.633 112.356 227.497 112.412 227.374C112.307 227.692 112.209 228.066 112.135 228.433C112.03 228.952 111.956 229.532 112.009 229.948L112.998 229.969C113.021 229.834 113.058 229.787 113.069 229.777C113.077 229.775 113.099 229.772 113.144 229.785C113.218 229.806 113.31 229.859 113.389 229.94C113.468 230.022 113.506 230.104 113.517 230.162L113.717 231.309L114.255 230.583C114.32 230.688 114.378 230.853 114.374 231.071ZM110.673 233.473L110.736 233.667C110.662 233.547 110.621 233.408 110.605 233.235C110.625 233.315 110.648 233.395 110.673 233.473ZM113.072 229.774C113.072 229.774 113.072 229.775 113.07 229.775C113.072 229.774 113.072 229.774 113.072 229.774ZM113.068 229.777C113.067 229.778 113.066 229.778 113.066 229.778L113.068 229.777Z" fill="#FFD2D4" stroke="white"/>
<path d="M104.897 257.329C105.244 257.451 105.57 257.356 105.825 257.177C106.064 257.01 106.267 256.755 106.442 256.474C106.797 255.907 107.133 255.076 107.453 254.101C108.095 252.139 108.712 249.453 109.254 246.753C109.797 244.048 110.27 241.31 110.624 239.239C110.653 239.073 110.68 238.911 110.707 238.753C110.847 237.93 110.966 237.236 111.059 236.719C111.106 236.461 111.145 236.251 111.178 236.094L114.925 235.863C114.945 236.068 114.969 236.337 114.997 236.663C115.067 237.479 115.156 238.647 115.234 240.056C115.388 242.874 115.496 246.648 115.309 250.478C115.121 254.315 114.638 258.175 113.628 261.182C112.608 264.219 111.113 266.212 109.016 266.642L109.016 266.642C104.934 267.482 101.936 267.71 99.2567 266.989C96.5879 266.272 94.1652 264.594 91.2834 261.471C86.0383 255.786 82.1673 247.966 81.3861 242.521C81.2049 241.24 81.4497 240.01 82.0272 239.118C82.5952 238.24 83.4905 237.675 84.694 237.681L84.694 237.681L84.697 237.681C86.6399 237.679 89.0013 237.995 91.2888 239.519L91.2893 239.52C92.4086 240.264 93.7373 241.69 95.1362 243.468C96.5261 245.234 97.9525 247.305 99.271 249.299C100.024 250.438 100.723 251.522 101.363 252.515C101.859 253.284 102.32 253.999 102.743 254.641C103.216 255.36 103.63 255.969 103.963 256.414C104.129 256.635 104.282 256.825 104.417 256.97C104.485 257.043 104.555 257.111 104.625 257.169C104.689 257.221 104.782 257.288 104.897 257.329ZM104.897 257.329C104.897 257.329 104.898 257.329 104.898 257.329L105.063 256.857L104.896 257.328C104.896 257.328 104.897 257.328 104.897 257.329Z" fill="#1D3557" stroke="white"/>
<path d="M103.642 267.351L103.643 267.862C103.586 267.885 103.524 267.901 103.458 267.906C103.339 267.915 103.222 267.891 103.122 267.839C103.023 267.786 102.949 267.711 102.904 267.628C102.86 267.545 102.846 267.456 102.859 267.37L102.861 267.356L102.862 267.342C102.865 267.309 102.875 267.258 102.894 267.201C102.913 267.143 102.937 267.092 102.962 267.054C102.966 267.047 102.971 267.041 102.975 267.036L103.642 267.351ZM104.185 265.961L104.919 267.096L104.907 267.674C104.869 267.742 104.837 267.793 104.802 267.832C104.79 267.846 104.781 267.855 104.774 267.861C104.733 267.853 104.694 267.84 104.659 267.822C104.605 267.796 104.561 267.761 104.529 267.721L103.687 266.705L103.62 266.437C103.586 266.301 103.578 266.162 103.597 266.024L103.597 266.024L103.598 266.015C103.605 265.951 103.624 265.871 103.655 265.793C103.686 265.713 103.723 265.654 103.755 265.617C103.766 265.604 103.774 265.597 103.78 265.592C103.787 265.594 103.797 265.598 103.81 265.604C103.966 265.697 104.094 265.82 104.185 265.961ZM107.953 267.315C107.815 267.218 107.688 267.109 107.574 266.989L106.83 266.206L106.931 265.372C106.945 265.259 106.966 265.14 106.997 265.03C107.029 264.918 107.064 264.836 107.098 264.786C107.104 264.777 107.109 264.77 107.113 264.765C107.124 264.768 107.139 264.773 107.158 264.782C107.238 264.82 107.34 264.909 107.463 265.065C107.554 265.179 107.63 265.294 107.711 265.416C107.742 265.463 107.773 265.511 107.807 265.56C107.943 265.763 108.116 266.059 108.248 266.346C108.314 266.489 108.365 266.621 108.398 266.732C108.414 266.786 108.424 266.831 108.43 266.865C108.435 266.898 108.434 266.914 108.434 266.915C108.434 266.915 108.434 266.915 108.434 266.915L108.434 266.915L108.433 266.926C108.423 267.088 108.334 267.247 108.23 267.325C108.184 267.359 108.145 267.371 108.115 267.372C108.087 267.373 108.034 267.368 107.953 267.315ZM107.128 264.749C107.128 264.749 107.128 264.749 107.127 264.749L107.128 264.749ZM107.094 264.76C107.092 264.76 107.09 264.76 107.09 264.76C107.09 264.76 107.091 264.76 107.094 264.76ZM103.789 265.586C103.789 265.586 103.789 265.586 103.788 265.586L103.789 265.586ZM103.772 265.59C103.77 265.59 103.769 265.59 103.769 265.59C103.769 265.59 103.77 265.59 103.772 265.59Z" fill="#FFD2D4" stroke="white"/>
<path d="M172.444 58.9713C168.829 58.9713 165.537 58.3238 162.569 57.0287C159.655 55.6796 157.335 53.683 155.608 51.0389C153.881 48.3948 152.964 45.1031 152.856 41.1639H159.736C159.79 43.3223 160.303 45.3189 161.274 47.1536C162.299 48.9344 163.756 50.3644 165.645 51.4436C167.534 52.5229 169.8 53.0625 172.444 53.0625C175.088 53.0625 177.301 52.5498 179.081 51.5246C180.862 50.4993 182.211 49.1502 183.129 47.4774C184.046 45.7506 184.505 43.835 184.505 41.7305C184.505 39.0863 183.857 36.9278 182.562 35.255C181.321 33.5822 179.621 32.3411 177.463 31.5316C175.358 30.7222 173.038 30.3175 170.502 30.3175H166.292V24.5705H170.502C174.171 24.5705 177.031 23.7341 179.081 22.0613C181.186 20.3345 182.238 17.9872 182.238 15.0193C182.238 12.483 181.429 10.4055 179.81 8.78664C178.191 7.11381 175.736 6.2774 172.444 6.2774C169.314 6.2774 166.805 7.19476 164.916 9.02947C163.082 10.8642 162.029 13.2115 161.76 16.0715H154.88C155.041 12.9957 155.851 10.2706 157.308 7.89627C158.819 5.52194 160.869 3.68723 163.459 2.39214C166.05 1.04309 169.045 0.368566 172.444 0.368566C176.114 0.368566 179.162 1.01611 181.591 2.3112C184.073 3.60629 185.935 5.33307 187.176 7.49155C188.471 9.65003 189.118 12.0244 189.118 14.6145C189.118 16.5032 188.768 18.3109 188.066 20.0377C187.365 21.7105 186.312 23.1945 184.909 24.4896C183.56 25.7307 181.834 26.6211 179.729 27.1607C181.941 27.5924 183.911 28.4558 185.638 29.7509C187.419 30.992 188.822 32.6379 189.847 34.6884C190.872 36.685 191.385 39.0324 191.385 41.7305C191.385 44.8063 190.656 47.6663 189.199 50.3104C187.796 52.9006 185.692 55.0051 182.886 56.624C180.08 58.1889 176.599 58.9713 172.444 58.9713Z" fill="#E2E2E2"/>
<defs>
<linearGradient id="paint0_linear_2156_9458" x1="114.206" y1="305.787" x2="258.27" y2="222.774" gradientUnits="userSpaceOnUse">
<stop stop-color="#DAE5F9"/>
<stop offset="1" stop-color="#075CC9"/>
</linearGradient>
<linearGradient id="paint1_linear_2156_9458" x1="182.574" y1="302.686" x2="146.14" y2="320.08" gradientUnits="userSpaceOnUse">
<stop stop-color="#D1E7FF"/>
<stop offset="1" stop-color="#A5CDFE"/>
</linearGradient>
<linearGradient id="paint2_linear_2156_9458" x1="178.096" y1="311.662" x2="187.108" y2="311.847" gradientUnits="userSpaceOnUse">
<stop stop-color="#A3CDFF"/>
<stop offset="1" stop-color="#5F9BE1"/>
</linearGradient>
<linearGradient id="paint3_linear_2156_9458" x1="155.802" y1="311.19" x2="173.182" y2="311.546" gradientUnits="userSpaceOnUse">
<stop stop-color="#0045AD"/>
<stop offset="1" stop-color="#010630"/>
</linearGradient>
<linearGradient id="paint4_linear_2156_9458" x1="179.726" y1="273.222" x2="123.404" y2="298.822" gradientUnits="userSpaceOnUse">
<stop stop-color="#0045AD"/>
<stop offset="1" stop-color="#010630"/>
</linearGradient>
<linearGradient id="paint5_linear_2156_9458" x1="183.013" y1="219.014" x2="141.426" y2="239.155" gradientUnits="userSpaceOnUse">
<stop stop-color="#D1E7FF"/>
<stop offset="1" stop-color="#A5CDFE"/>
</linearGradient>
<linearGradient id="paint6_linear_2156_9458" x1="177.598" y1="228.57" x2="186.611" y2="228.755" gradientUnits="userSpaceOnUse">
<stop stop-color="#A3CDFF"/>
<stop offset="1" stop-color="#5F9BE1"/>
</linearGradient>
<linearGradient id="paint7_linear_2156_9458" x1="155.07" y1="227.785" x2="173.422" y2="228.16" gradientUnits="userSpaceOnUse">
<stop stop-color="#0045AD"/>
<stop offset="1" stop-color="#010630"/>
</linearGradient>
<linearGradient id="paint8_linear_2156_9458" x1="76.7472" y1="337.113" x2="130.633" y2="292.9" gradientUnits="userSpaceOnUse">
<stop stop-color="#0045AD"/>
<stop offset="1" stop-color="#010630"/>
</linearGradient>
<linearGradient id="paint9_linear_2156_9458" x1="68.3317" y1="326.05" x2="121.904" y2="283.189" gradientUnits="userSpaceOnUse">
<stop stop-color="#0045AD"/>
<stop offset="1" stop-color="#010630"/>
</linearGradient>
<linearGradient id="paint10_linear_2156_9458" x1="91.53" y1="222.881" x2="104.671" y2="223.15" gradientUnits="userSpaceOnUse">
<stop stop-color="#0045AD"/>
<stop offset="1" stop-color="#010630"/>
</linearGradient>
</defs>
</svg>
