<svg width="330" height="334" viewBox="0 0 330 334" fill="none" xmlns="http://www.w3.org/2000/svg">
<path d="M60.5945 113.156L56.9812 99.5578H59.4677L61.9932 110.495L64.9654 99.5578H67.5297L70.4048 110.514L72.969 99.5578H75.475L71.7646 113.156H69.0061L66.2087 102.86L63.3336 113.156H60.5945ZM77.339 113.156V103.463H79.6702V113.156H77.339ZM78.5046 101.87C78.0772 101.87 77.7211 101.74 77.4362 101.481C77.1642 101.209 77.0282 100.879 77.0282 100.49C77.0282 100.089 77.1642 99.765 77.4362 99.519C77.7211 99.2599 78.0772 99.1304 78.5046 99.1304C78.932 99.1304 79.2817 99.2599 79.5537 99.519C79.8386 99.765 79.981 100.089 79.981 100.49C79.981 100.879 79.8386 101.209 79.5537 101.481C79.2817 101.74 78.932 101.87 78.5046 101.87ZM82.3451 113.156V103.463H84.4237L84.6374 105.269C84.8576 104.842 85.1425 104.479 85.4922 104.181C85.8419 103.87 86.2433 103.637 86.6966 103.482C87.1628 103.314 87.6744 103.229 88.2313 103.229V105.677H87.5125C87.111 105.677 86.7355 105.729 86.3858 105.833C86.0361 105.923 85.7318 106.079 85.4728 106.299C85.2137 106.506 85.013 106.797 84.8705 107.173C84.741 107.549 84.6763 108.021 84.6763 108.591V113.156H82.3451ZM94.3474 113.389C93.389 113.389 92.5343 113.182 91.7831 112.768C91.0449 112.34 90.4621 111.751 90.0348 111C89.6203 110.236 89.4131 109.362 89.4131 108.377C89.4131 107.354 89.6203 106.461 90.0348 105.697C90.4492 104.919 91.0255 104.317 91.7637 103.89C92.5149 103.45 93.3826 103.229 94.3668 103.229C95.3252 103.229 96.1605 103.443 96.8728 103.87C97.5851 104.285 98.1355 104.848 98.5241 105.561C98.9255 106.26 99.1263 107.056 99.1263 107.95C99.1263 108.08 99.1263 108.222 99.1263 108.377C99.1263 108.533 99.1133 108.695 99.0874 108.863H91.1032V107.367H96.7757C96.7368 106.681 96.4908 106.137 96.0375 105.735C95.5972 105.321 95.0403 105.114 94.3668 105.114C93.8876 105.114 93.4408 105.224 93.0264 105.444C92.6249 105.664 92.3012 105.988 92.0551 106.415C91.822 106.843 91.7054 107.38 91.7054 108.028V108.591C91.7054 109.187 91.822 109.705 92.0551 110.145C92.2882 110.573 92.6055 110.903 93.007 111.136C93.4085 111.356 93.8488 111.466 94.328 111.466C94.8719 111.466 95.3187 111.35 95.6684 111.116C96.031 110.883 96.303 110.566 96.4843 110.165H98.8543C98.673 110.773 98.3687 111.324 97.9413 111.816C97.5268 112.295 97.0153 112.677 96.4066 112.962C95.8109 113.247 95.1245 113.389 94.3474 113.389ZM101.706 113.156V102.297C101.706 101.546 101.836 100.944 102.095 100.49C102.354 100.024 102.723 99.6873 103.202 99.4801C103.681 99.2729 104.244 99.1693 104.892 99.1693H105.999V101.151H105.261C104.821 101.151 104.503 101.241 104.309 101.423C104.128 101.591 104.037 101.889 104.037 102.316V113.156H101.706ZM100.346 105.405V103.463H106.213V105.405H100.346ZM108.222 113.156V103.463H110.3L110.514 105.269C110.734 104.842 111.019 104.479 111.369 104.181C111.718 103.87 112.12 103.637 112.573 103.482C113.039 103.314 113.551 103.229 114.108 103.229V105.677H113.389C112.988 105.677 112.612 105.729 112.262 105.833C111.913 105.923 111.608 106.079 111.349 106.299C111.09 106.506 110.889 106.797 110.747 107.173C110.618 107.549 110.553 108.021 110.553 108.591V113.156H108.222ZM119.112 113.389C118.309 113.389 117.642 113.26 117.111 113.001C116.58 112.729 116.185 112.373 115.926 111.932C115.667 111.479 115.537 110.981 115.537 110.437C115.537 109.828 115.693 109.297 116.003 108.844C116.327 108.39 116.8 108.041 117.421 107.795C118.043 107.536 118.807 107.406 119.714 107.406H122.181C122.181 106.901 122.11 106.48 121.967 106.143C121.825 105.807 121.598 105.554 121.287 105.386C120.989 105.217 120.607 105.133 120.141 105.133C119.61 105.133 119.15 105.256 118.762 105.502C118.386 105.748 118.153 106.117 118.063 106.61H115.77C115.848 105.91 116.081 105.308 116.47 104.803C116.871 104.298 117.396 103.909 118.043 103.637C118.691 103.365 119.396 103.229 120.161 103.229C121.067 103.229 121.844 103.385 122.492 103.696C123.152 104.006 123.651 104.46 123.988 105.055C124.337 105.638 124.512 106.344 124.512 107.173V113.156H122.531L122.297 111.602C122.168 111.848 122 112.081 121.792 112.301C121.598 112.522 121.372 112.716 121.112 112.884C120.853 113.04 120.556 113.163 120.219 113.253C119.895 113.344 119.526 113.389 119.112 113.389ZM119.636 111.544C120.012 111.544 120.348 111.479 120.646 111.35C120.944 111.207 121.197 111.013 121.404 110.767C121.611 110.521 121.773 110.242 121.89 109.931C122.019 109.621 122.097 109.29 122.123 108.941V108.921H119.966C119.5 108.921 119.118 108.98 118.82 109.096C118.535 109.2 118.322 109.355 118.179 109.562C118.05 109.77 117.985 110.003 117.985 110.262C117.985 110.534 118.05 110.767 118.179 110.961C118.322 111.155 118.516 111.304 118.762 111.408C119.008 111.499 119.299 111.544 119.636 111.544ZM126.965 113.156V103.463H129.024L129.199 104.784C129.51 104.291 129.924 103.909 130.442 103.637C130.96 103.365 131.55 103.229 132.21 103.229C132.702 103.229 133.143 103.294 133.531 103.424C133.933 103.54 134.289 103.728 134.6 103.987C134.91 104.246 135.163 104.57 135.357 104.958C135.72 104.414 136.192 103.993 136.775 103.696C137.371 103.385 138.012 103.229 138.698 103.229C139.514 103.229 140.207 103.391 140.777 103.715C141.36 104.039 141.8 104.524 142.098 105.172C142.396 105.82 142.545 106.623 142.545 107.581V113.156H140.233V107.795C140.233 106.953 140.065 106.312 139.728 105.871C139.391 105.418 138.886 105.191 138.213 105.191C137.76 105.191 137.358 105.308 137.008 105.541C136.672 105.761 136.406 106.085 136.212 106.512C136.018 106.94 135.92 107.458 135.92 108.067V113.156H133.589V107.795C133.589 106.953 133.421 106.312 133.084 105.871C132.748 105.418 132.236 105.191 131.55 105.191C131.122 105.191 130.734 105.308 130.384 105.541C130.047 105.761 129.782 106.085 129.588 106.512C129.393 106.94 129.296 107.458 129.296 108.067V113.156H126.965ZM149.572 113.389C148.614 113.389 147.759 113.182 147.008 112.768C146.27 112.34 145.687 111.751 145.259 111C144.845 110.236 144.638 109.362 144.638 108.377C144.638 107.354 144.845 106.461 145.259 105.697C145.674 104.919 146.25 104.317 146.988 103.89C147.74 103.45 148.607 103.229 149.591 103.229C150.55 103.229 151.385 103.443 152.097 103.87C152.81 104.285 153.36 104.848 153.749 105.561C154.15 106.26 154.351 107.056 154.351 107.95C154.351 108.08 154.351 108.222 154.351 108.377C154.351 108.533 154.338 108.695 154.312 108.863H146.328V107.367H152C151.961 106.681 151.715 106.137 151.262 105.735C150.822 105.321 150.265 105.114 149.591 105.114C149.112 105.114 148.665 105.224 148.251 105.444C147.85 105.664 147.526 105.988 147.28 106.415C147.047 106.843 146.93 107.38 146.93 108.028V108.591C146.93 109.187 147.047 109.705 147.28 110.145C147.513 110.573 147.83 110.903 148.232 111.136C148.633 111.356 149.073 111.466 149.553 111.466C150.097 111.466 150.543 111.35 150.893 111.116C151.256 110.883 151.528 110.566 151.709 110.165H154.079C153.898 110.773 153.593 111.324 153.166 111.816C152.752 112.295 152.24 112.677 151.631 112.962C151.036 113.247 150.349 113.389 149.572 113.389ZM171.639 113.156L164.179 105.716C163.571 105.12 163.143 104.583 162.897 104.104C162.651 103.611 162.528 103.087 162.528 102.53C162.528 101.921 162.677 101.377 162.975 100.898C163.273 100.406 163.707 100.024 164.277 99.7521C164.846 99.4672 165.533 99.3247 166.336 99.3247C167.139 99.3247 167.819 99.4736 168.376 99.7715C168.932 100.069 169.36 100.464 169.658 100.957C169.956 101.449 170.092 102.006 170.066 102.627H167.832C167.845 102.122 167.696 101.747 167.385 101.5C167.087 101.254 166.731 101.131 166.316 101.131C165.85 101.131 165.475 101.261 165.19 101.52C164.905 101.766 164.762 102.096 164.762 102.511C164.762 102.86 164.866 103.21 165.073 103.56C165.28 103.909 165.591 104.304 166.006 104.745L174.437 113.156H171.639ZM165.539 113.389C164.568 113.389 163.713 113.221 162.975 112.884C162.25 112.535 161.686 112.049 161.285 111.427C160.883 110.793 160.683 110.061 160.683 109.232C160.683 108.572 160.819 107.963 161.091 107.406C161.363 106.849 161.771 106.357 162.315 105.93C162.858 105.489 163.532 105.14 164.335 104.881L165.228 104.589L166.297 106.046L165.423 106.338C164.594 106.623 163.979 106.998 163.577 107.464C163.176 107.931 162.975 108.475 162.975 109.096C162.975 109.536 163.079 109.938 163.286 110.301C163.506 110.663 163.817 110.948 164.218 111.155C164.62 111.35 165.092 111.447 165.636 111.447C166.362 111.447 167.009 111.291 167.579 110.981C168.162 110.657 168.725 110.145 169.269 109.446C169.515 109.135 169.761 108.779 170.007 108.377C170.266 107.963 170.525 107.503 170.784 106.998L171.251 106.104H173.64L172.921 107.484C172.585 108.157 172.241 108.772 171.892 109.329C171.555 109.873 171.205 110.365 170.843 110.806C170.092 111.712 169.289 112.373 168.434 112.787C167.579 113.189 166.614 113.389 165.539 113.389ZM186.068 113.389C185.084 113.389 184.19 113.195 183.388 112.807C182.598 112.418 181.963 111.822 181.484 111.019C181.018 110.216 180.784 109.206 180.784 107.989V99.5578H183.116V108.008C183.116 108.746 183.239 109.355 183.485 109.834C183.731 110.314 184.074 110.676 184.514 110.922C184.968 111.155 185.499 111.272 186.107 111.272C186.729 111.272 187.26 111.155 187.7 110.922C188.153 110.676 188.497 110.314 188.73 109.834C188.976 109.355 189.099 108.746 189.099 108.008V99.5578H191.43V107.989C191.43 109.206 191.19 110.216 190.711 111.019C190.232 111.822 189.585 112.418 188.769 112.807C187.953 113.195 187.053 113.389 186.068 113.389ZM193.349 113.156L197.584 106.279L193.291 99.5578H195.991L199.08 104.434L201.935 99.5578H204.577L200.342 106.376L204.655 113.156H201.974L198.847 108.222L195.991 113.156H193.349ZM211.387 113.156V99.5578H215.875C217.455 99.5578 218.763 99.8363 219.799 100.393C220.835 100.95 221.599 101.74 222.091 102.763C222.596 103.773 222.849 104.978 222.849 106.376C222.849 107.749 222.596 108.947 222.091 109.97C221.599 110.981 220.835 111.764 219.799 112.321C218.763 112.878 217.455 113.156 215.875 113.156H211.387ZM213.719 111.175H215.758C216.937 111.175 217.869 110.987 218.556 110.611C219.242 110.223 219.728 109.672 220.013 108.96C220.311 108.235 220.459 107.374 220.459 106.376C220.459 105.366 220.311 104.505 220.013 103.793C219.728 103.068 219.242 102.511 218.556 102.122C217.869 101.721 216.937 101.52 215.758 101.52H213.719V111.175ZM229.611 113.389C228.652 113.389 227.798 113.182 227.047 112.768C226.308 112.34 225.726 111.751 225.298 111C224.884 110.236 224.676 109.362 224.676 108.377C224.676 107.354 224.884 106.461 225.298 105.697C225.713 104.919 226.289 104.317 227.027 103.89C227.778 103.45 228.646 103.229 229.63 103.229C230.589 103.229 231.424 103.443 232.136 103.87C232.849 104.285 233.399 104.848 233.787 105.561C234.189 106.26 234.39 107.056 234.39 107.95C234.39 108.08 234.39 108.222 234.39 108.377C234.39 108.533 234.377 108.695 234.351 108.863H226.367V107.367H232.039C232 106.681 231.754 106.137 231.301 105.735C230.861 105.321 230.304 105.114 229.63 105.114C229.151 105.114 228.704 105.224 228.29 105.444C227.888 105.664 227.565 105.988 227.318 106.415C227.085 106.843 226.969 107.38 226.969 108.028V108.591C226.969 109.187 227.085 109.705 227.318 110.145C227.552 110.573 227.869 110.903 228.27 111.136C228.672 111.356 229.112 111.466 229.591 111.466C230.135 111.466 230.582 111.35 230.932 111.116C231.294 110.883 231.566 110.566 231.748 110.165H234.118C233.936 110.773 233.632 111.324 233.205 111.816C232.79 112.295 232.279 112.677 231.67 112.962C231.074 113.247 230.388 113.389 229.611 113.389ZM240.427 113.389C239.585 113.389 238.841 113.253 238.193 112.981C237.546 112.696 237.034 112.308 236.659 111.816C236.283 111.311 236.056 110.734 235.979 110.087H238.329C238.394 110.359 238.511 110.611 238.679 110.845C238.86 111.065 239.093 111.24 239.378 111.369C239.676 111.499 240.019 111.563 240.408 111.563C240.783 111.563 241.094 111.511 241.34 111.408C241.586 111.291 241.768 111.142 241.884 110.961C242.001 110.78 242.059 110.592 242.059 110.398C242.059 110.087 241.975 109.854 241.807 109.698C241.651 109.543 241.412 109.413 241.088 109.31C240.764 109.206 240.382 109.109 239.942 109.018C239.514 108.928 239.08 108.818 238.64 108.688C238.213 108.559 237.824 108.39 237.474 108.183C237.125 107.976 236.846 107.717 236.639 107.406C236.432 107.082 236.328 106.687 236.328 106.221C236.328 105.651 236.477 105.14 236.775 104.686C237.086 104.233 237.526 103.877 238.096 103.618C238.679 103.359 239.365 103.229 240.155 103.229C241.282 103.229 242.182 103.488 242.856 104.006C243.542 104.524 243.943 105.256 244.06 106.202H241.845C241.781 105.839 241.599 105.561 241.301 105.366C241.017 105.159 240.635 105.055 240.155 105.055C239.65 105.055 239.262 105.153 238.99 105.347C238.731 105.528 238.601 105.768 238.601 106.066C238.601 106.273 238.685 106.454 238.854 106.61C239.022 106.765 239.262 106.894 239.573 106.998C239.896 107.102 240.272 107.205 240.699 107.309C241.399 107.451 242.027 107.62 242.584 107.814C243.141 108.008 243.581 108.293 243.905 108.669C244.241 109.031 244.41 109.556 244.41 110.242C244.423 110.864 244.261 111.414 243.924 111.894C243.6 112.36 243.141 112.729 242.545 113.001C241.949 113.26 241.243 113.389 240.427 113.389ZM246.769 113.156V103.463H249.1V113.156H246.769ZM247.935 101.87C247.507 101.87 247.151 101.74 246.866 101.481C246.594 101.209 246.458 100.879 246.458 100.49C246.458 100.089 246.594 99.765 246.866 99.519C247.151 99.2599 247.507 99.1304 247.935 99.1304C248.362 99.1304 248.712 99.2599 248.984 99.519C249.269 99.765 249.411 100.089 249.411 100.49C249.411 100.879 249.269 101.209 248.984 101.481C248.712 101.74 248.362 101.87 247.935 101.87ZM255.874 117.663C254.955 117.663 254.152 117.547 253.465 117.313C252.779 117.093 252.242 116.75 251.853 116.284C251.477 115.831 251.29 115.261 251.29 114.574C251.29 114.173 251.387 113.778 251.581 113.389C251.788 113.014 252.093 112.664 252.494 112.34C252.909 112.017 253.433 111.732 254.068 111.486L255.078 112.593C254.469 112.813 254.042 113.079 253.796 113.389C253.55 113.713 253.427 114.03 253.427 114.341C253.427 114.678 253.53 114.956 253.737 115.177C253.958 115.41 254.249 115.585 254.612 115.701C254.987 115.818 255.402 115.876 255.855 115.876C256.308 115.876 256.697 115.811 257.02 115.682C257.357 115.565 257.616 115.397 257.797 115.177C257.992 114.956 258.089 114.691 258.089 114.38C258.089 114.005 257.953 113.694 257.681 113.448C257.409 113.215 256.884 113.072 256.107 113.02C255.408 112.968 254.799 112.897 254.281 112.807C253.776 112.703 253.336 112.586 252.96 112.457C252.598 112.327 252.287 112.178 252.028 112.01C251.769 111.842 251.555 111.673 251.387 111.505V111.058L253.407 108.921L255.136 109.504L252.863 111.719L253.465 110.631C253.595 110.721 253.724 110.806 253.854 110.883C253.996 110.948 254.171 111.013 254.378 111.078C254.599 111.129 254.877 111.181 255.214 111.233C255.563 111.285 256.017 111.337 256.574 111.388C257.441 111.453 258.141 111.609 258.672 111.855C259.216 112.101 259.611 112.431 259.857 112.845C260.116 113.26 260.245 113.752 260.245 114.322C260.245 114.892 260.09 115.429 259.779 115.934C259.468 116.439 258.989 116.854 258.341 117.177C257.694 117.501 256.871 117.663 255.874 117.663ZM255.874 110.242C255.058 110.242 254.359 110.087 253.776 109.776C253.193 109.452 252.74 109.025 252.416 108.494C252.106 107.963 251.95 107.374 251.95 106.726C251.95 106.079 252.106 105.496 252.416 104.978C252.74 104.447 253.193 104.026 253.776 103.715C254.359 103.391 255.058 103.229 255.874 103.229C256.69 103.229 257.39 103.391 257.972 103.715C258.555 104.026 259.002 104.447 259.313 104.978C259.624 105.496 259.779 106.079 259.779 106.726C259.779 107.374 259.624 107.963 259.313 108.494C259.002 109.025 258.555 109.452 257.972 109.776C257.39 110.087 256.69 110.242 255.874 110.242ZM255.874 108.436C256.418 108.436 256.859 108.293 257.195 108.008C257.545 107.71 257.72 107.289 257.72 106.746C257.72 106.202 257.545 105.787 257.195 105.502C256.859 105.204 256.418 105.055 255.874 105.055C255.317 105.055 254.864 105.204 254.514 105.502C254.178 105.787 254.009 106.202 254.009 106.746C254.009 107.289 254.178 107.71 254.514 108.008C254.864 108.293 255.317 108.436 255.874 108.436ZM257.467 105.172L257.02 103.463H261.042V104.919L257.467 105.172ZM263.12 113.156V103.463H265.179L265.335 105.094C265.645 104.524 266.079 104.071 266.636 103.734C267.206 103.398 267.866 103.229 268.618 103.229C269.421 103.229 270.101 103.391 270.657 103.715C271.214 104.039 271.642 104.524 271.94 105.172C272.237 105.82 272.386 106.623 272.386 107.581V113.156H270.055V107.795C270.055 106.953 269.874 106.312 269.511 105.871C269.162 105.418 268.624 105.191 267.899 105.191C267.433 105.191 267.012 105.308 266.636 105.541C266.261 105.761 265.969 106.085 265.762 106.512C265.555 106.94 265.451 107.458 265.451 108.067V113.156H263.12Z" fill="#E2E2E2"/>
<g clip-path="url(#clip0_2156_9241)">
<path d="M259.279 274.46H181.918C181.253 274.459 180.616 274.194 180.146 273.722C179.675 273.251 179.411 272.613 179.41 271.946V159.014C179.411 158.347 179.675 157.709 180.146 157.237C180.616 156.766 181.253 156.501 181.918 156.5H259.279C259.944 156.501 260.581 156.766 261.051 157.237C261.521 157.709 261.786 158.347 261.787 159.014V271.946C261.786 272.613 261.521 273.251 261.051 273.722C260.581 274.194 259.944 274.459 259.279 274.46ZM181.918 156.607C181.281 156.608 180.671 156.862 180.221 157.313C179.771 157.764 179.518 158.376 179.517 159.014V271.946C179.518 272.584 179.771 273.196 180.221 273.647C180.671 274.098 181.281 274.352 181.918 274.353H259.279C259.916 274.353 260.526 274.099 260.977 273.648C261.427 273.197 261.68 272.585 261.68 271.946V159.014C261.68 158.375 261.427 157.763 260.977 157.312C260.526 156.861 259.916 156.607 259.279 156.607H181.918Z" fill="#E0E0E0"/>
<path d="M170.07 274.46H92.7135C92.048 274.46 91.4096 274.195 90.9385 273.724C90.4675 273.253 90.2023 272.613 90.2012 271.946V159.014C90.2023 158.347 90.4675 157.707 90.9385 157.236C91.4096 156.765 92.048 156.5 92.7135 156.5H170.07C170.735 156.5 171.373 156.765 171.844 157.236C172.314 157.708 172.578 158.347 172.578 159.014V271.946C172.578 272.613 172.314 273.252 171.844 273.724C171.373 274.195 170.735 274.46 170.07 274.46ZM92.7135 156.607C92.0763 156.607 91.4652 156.861 91.0142 157.312C90.5632 157.763 90.3093 158.375 90.3082 159.014V271.946C90.3059 272.264 90.3665 272.58 90.4863 272.874C90.6062 273.169 90.783 273.436 91.0066 273.662C91.2302 273.888 91.4961 274.067 91.7891 274.189C92.082 274.311 92.3962 274.374 92.7135 274.374H170.07C170.386 274.374 170.698 274.312 170.989 274.191C171.28 274.07 171.545 273.893 171.768 273.669C171.991 273.446 172.168 273.181 172.289 272.889C172.409 272.597 172.471 272.284 172.471 271.968V159.014C172.471 158.698 172.409 158.385 172.289 158.093C172.168 157.801 171.991 157.536 171.768 157.312C171.545 157.089 171.28 156.911 170.989 156.79C170.698 156.669 170.386 156.607 170.07 156.607H92.7135Z" fill="#E0E0E0"/>
<path d="M283.281 300.656H69.2808V300.763H283.281V300.656Z" fill="#E0E0E0"/>
<path d="M98.2692 306.772H91.3955V306.88H98.2692V306.772Z" fill="#E0E0E0"/>
<path d="M165.101 305.61H142.19V305.717H165.101V305.61Z" fill="#E0E0E0"/>
<path d="M114.212 310.757H98.6973V310.865H114.212V310.757Z" fill="#E0E0E0"/>
<path d="M249.7 305.554H231.214V305.661H249.7V305.554Z" fill="#E0E0E0"/>
<path d="M256.222 305.554H253.513V305.661H256.222V305.554Z" fill="#E0E0E0"/>
<path d="M227.684 308.227H204.619V308.334H227.684V308.227Z" fill="#E0E0E0"/>
<path d="M150.361 285.351C150.098 284.089 149.6 282.889 148.893 281.812L150.177 280.281L147.476 277.57L145.948 278.857C144.873 278.147 143.673 277.647 142.413 277.381L142.229 275.408H138.403L138.189 277.377C136.929 277.641 135.731 278.142 134.658 278.852L133.13 277.566L130.425 280.276L131.709 281.808C131.002 282.884 130.504 284.085 130.241 285.347L128.272 285.535V289.387L130.241 289.572C130.504 290.835 131.002 292.036 131.709 293.115L130.425 294.646L133.13 297.357L134.658 296.07C135.732 296.778 136.93 297.276 138.189 297.537L138.373 299.51H142.199L142.383 297.537C143.643 297.273 144.842 296.774 145.918 296.066L147.446 297.353L150.147 294.642L148.863 293.111C149.57 292.032 150.068 290.83 150.331 289.567L152.313 289.387V285.527L150.361 285.351ZM145.465 287.453C145.466 288.479 145.163 289.483 144.594 290.337C144.025 291.192 143.217 291.857 142.271 292.251C141.325 292.644 140.283 292.748 139.278 292.548C138.273 292.348 137.35 291.854 136.625 291.129C135.901 290.403 135.407 289.478 135.207 288.471C135.007 287.464 135.109 286.42 135.501 285.472C135.893 284.523 136.557 283.712 137.408 283.142C138.26 282.571 139.261 282.267 140.286 282.267C141.659 282.267 142.975 282.813 143.946 283.785C144.917 284.758 145.464 286.077 145.465 287.453Z" fill="#E0E0E0"/>
<path d="M121.184 242.165C121.003 241.291 120.657 240.46 120.166 239.715L121.022 238.656L119.147 236.777L118.09 237.656C117.347 237.164 116.518 236.817 115.646 236.636L115.518 235.271H112.868L112.74 236.636C111.867 236.818 111.036 237.165 110.292 237.656L109.235 236.777L107.373 238.656L108.229 239.715C107.74 240.461 107.396 241.292 107.214 242.165L105.849 242.293V244.948L107.214 245.077C107.396 245.95 107.74 246.781 108.229 247.526L107.373 248.59L109.243 250.465L110.3 249.585C111.045 250.077 111.876 250.424 112.748 250.606L112.877 251.975H115.526L115.655 250.606C116.526 250.424 117.356 250.078 118.098 249.585L119.156 250.465L121.03 248.59L120.174 247.526C120.666 246.782 121.011 245.951 121.193 245.077L122.554 244.948V242.293L121.184 242.165ZM117.799 243.623C117.799 244.334 117.589 245.029 117.194 245.62C116.8 246.211 116.24 246.672 115.585 246.944C114.929 247.216 114.208 247.287 113.513 247.149C112.817 247.01 112.178 246.668 111.676 246.165C111.175 245.662 110.833 245.022 110.695 244.324C110.556 243.627 110.627 242.904 110.899 242.247C111.17 241.591 111.63 241.029 112.22 240.634C112.809 240.239 113.503 240.028 114.212 240.028C115.163 240.028 116.076 240.407 116.748 241.081C117.421 241.755 117.799 242.67 117.799 243.623Z" fill="#E0E0E0"/>
<path d="M190.443 172.448C190.133 170.928 189.539 169.48 188.693 168.18L190.217 166.331L186.955 163.063L185.115 164.59C183.812 163.736 182.36 163.135 180.835 162.818L180.612 160.438H175.994L175.772 162.818C174.247 163.135 172.795 163.736 171.492 164.59L169.651 163.063L166.39 166.331L167.913 168.18C167.06 169.478 166.458 170.926 166.142 172.448L163.766 172.676V177.295L166.142 177.523C166.456 179.052 167.057 180.508 167.913 181.812L166.39 183.661L169.651 186.929L171.492 185.398C172.793 186.256 174.246 186.858 175.772 187.174L175.994 189.555H180.608L180.83 187.174C182.356 186.858 183.808 186.255 185.11 185.398L186.951 186.929L190.212 183.661L188.693 181.791C189.549 180.486 190.151 179.031 190.465 177.501L192.84 177.274V172.676L190.443 172.448ZM184.546 174.983C184.546 176.221 184.179 177.431 183.493 178.46C182.807 179.489 181.832 180.292 180.691 180.765C179.55 181.239 178.294 181.363 177.083 181.121C175.871 180.88 174.759 180.284 173.885 179.409C173.012 178.533 172.417 177.418 172.176 176.204C171.936 174.99 172.059 173.732 172.532 172.588C173.004 171.445 173.805 170.467 174.832 169.78C175.859 169.092 177.066 168.725 178.301 168.725C179.121 168.725 179.933 168.887 180.691 169.201C181.448 169.516 182.137 169.977 182.717 170.558C183.296 171.139 183.756 171.829 184.07 172.588C184.384 173.348 184.546 174.161 184.546 174.983Z" fill="#F0F0F0"/>
<path d="M204.704 162.299C204.556 161.601 204.28 160.937 203.891 160.339L204.589 159.481L203.091 157.98L202.235 158.683C201.64 158.29 200.977 158.013 200.279 157.868L200.176 156.774H198.036L197.933 157.868C197.236 158.013 196.572 158.29 195.977 158.683L195.121 157.98L193.623 159.481L194.321 160.339C193.93 160.936 193.654 161.601 193.508 162.299L192.417 162.402V164.547L193.508 164.65C193.654 165.349 193.93 166.013 194.321 166.61L193.623 167.468L195.121 168.969L195.977 168.266C196.572 168.66 197.236 168.936 197.933 169.081L198.066 170.14H200.206L200.309 169.047C201.007 168.902 201.67 168.625 202.265 168.232L203.121 168.935L204.619 167.434L203.921 166.576C204.31 165.978 204.586 165.314 204.734 164.616L205.826 164.513V162.419L204.704 162.299ZM201.995 163.466C201.996 164.035 201.828 164.592 201.513 165.066C201.198 165.54 200.75 165.91 200.225 166.128C199.701 166.347 199.123 166.404 198.566 166.294C198.008 166.183 197.496 165.909 197.094 165.507C196.692 165.105 196.418 164.592 196.307 164.033C196.196 163.475 196.252 162.896 196.47 162.37C196.687 161.844 197.055 161.394 197.527 161.077C198 160.761 198.555 160.592 199.123 160.592C199.5 160.591 199.874 160.665 200.222 160.81C200.57 160.954 200.887 161.165 201.154 161.432C201.42 161.699 201.632 162.016 201.776 162.365C201.921 162.714 201.995 163.088 201.995 163.466Z" fill="#F0F0F0"/>
<path d="M231.326 192.446V182.824H237.206V192.261C237.206 194.934 238.229 195.933 239.873 195.933C241.516 195.933 242.539 194.934 242.539 192.261V182.824H248.326V192.446C248.326 197.692 245.184 200.716 239.826 200.716C234.467 200.716 231.326 197.687 231.326 192.446Z" fill="#F0F0F0"/>
<path d="M251.018 182.824H256.899V200.313H251.018V182.824Z" fill="#F0F0F0"/>
<path d="M94.7427 173.975V160.592H102.93V173.735C102.93 177.454 104.351 178.844 106.641 178.844C108.931 178.844 110.369 177.454 110.369 173.735V160.592H118.415V173.975C118.415 181.267 114.045 185.484 106.585 185.484C99.1254 185.484 94.7427 181.293 94.7427 173.975Z" fill="#F0F0F0"/>
<path d="M137.17 184.93L132.976 178.428L128.88 184.93H119.549L128.345 172.654L119.862 160.592H129.055L133.181 166.709L137.209 160.592H146.017L137.59 172.341L146.539 184.93H137.17Z" fill="#F0F0F0"/>
<path d="M233.808 212.932C233.351 210.752 232.49 208.677 231.27 206.815L233.457 204.173L228.783 199.493L226.147 201.681C224.291 200.456 222.22 199.595 220.044 199.142L219.727 195.71H213.119L212.802 199.142C210.626 199.595 208.555 200.456 206.699 201.681L204.062 199.493L199.393 204.173L201.576 206.815C200.356 208.677 199.495 210.752 199.037 212.932L195.639 213.254V219.872L199.037 220.194C199.494 222.373 200.355 224.447 201.576 226.307L199.393 228.949L204.062 233.624L206.699 231.433C208.554 232.66 210.625 233.523 212.802 233.976L213.119 237.382H219.727L220.044 233.976C222.221 233.523 224.292 232.66 226.147 231.433L228.783 233.624L233.457 228.94L231.27 226.298C232.491 224.438 233.352 222.364 233.808 220.186L237.207 219.864V213.254L233.808 212.932ZM225.364 216.561C225.364 218.333 224.839 220.066 223.857 221.539C222.874 223.013 221.478 224.161 219.844 224.84C218.211 225.518 216.413 225.695 214.679 225.349C212.944 225.004 211.351 224.15 210.101 222.897C208.85 221.644 207.999 220.047 207.654 218.309C207.309 216.571 207.486 214.769 208.162 213.132C208.839 211.495 209.985 210.095 211.456 209.11C212.926 208.126 214.654 207.6 216.423 207.6C217.597 207.6 218.76 207.832 219.844 208.282C220.929 208.733 221.915 209.393 222.745 210.225C223.575 211.057 224.234 212.045 224.683 213.132C225.132 214.219 225.364 215.384 225.364 216.561Z" fill="#263238"/>
<path opacity="0.7" d="M233.808 212.932C233.351 210.752 232.49 208.677 231.27 206.815L233.457 204.173L228.783 199.493L226.147 201.681C224.291 200.456 222.22 199.595 220.044 199.142L219.727 195.71H213.119L212.802 199.142C210.626 199.595 208.555 200.456 206.699 201.681L204.062 199.493L199.393 204.173L201.576 206.815C200.356 208.677 199.495 210.752 199.037 212.932L195.639 213.254V219.872L199.037 220.194C199.494 222.373 200.355 224.447 201.576 226.307L199.393 228.949L204.062 233.624L206.699 231.433C208.554 232.66 210.625 233.523 212.802 233.976L213.119 237.382H219.727L220.044 233.976C222.221 233.523 224.292 232.66 226.147 231.433L228.783 233.624L233.457 228.94L231.27 226.298C232.491 224.438 233.352 222.364 233.808 220.186L237.207 219.864V213.254L233.808 212.932ZM225.364 216.561C225.364 218.333 224.839 220.066 223.857 221.539C222.874 223.013 221.478 224.161 219.844 224.84C218.211 225.518 216.413 225.695 214.679 225.349C212.944 225.004 211.351 224.15 210.101 222.897C208.85 221.644 207.999 220.047 207.654 218.309C207.309 216.571 207.486 214.769 208.162 213.132C208.839 211.495 209.985 210.095 211.456 209.11C212.926 208.126 214.654 207.6 216.423 207.6C217.597 207.6 218.76 207.832 219.844 208.282C220.929 208.733 221.915 209.393 222.745 210.225C223.575 211.057 224.234 212.045 224.683 213.132C225.132 214.219 225.364 215.384 225.364 216.561Z" fill="white"/>
<path d="M262.917 220.057C262.69 218.987 262.266 217.968 261.667 217.054L262.745 215.767L260.443 213.464L259.159 214.541C258.247 213.938 257.231 213.513 256.163 213.288L256.004 211.611H252.752L252.593 213.288C251.525 213.513 250.508 213.938 249.597 214.541L248.313 213.464L246.011 215.767L247.089 217.054C246.489 217.968 246.066 218.987 245.839 220.057L244.162 220.215V223.48L245.839 223.638C246.066 224.709 246.489 225.727 247.089 226.641L246.011 227.928L248.313 230.231L249.597 229.155C250.508 229.757 251.525 230.182 252.593 230.407L252.752 232.084H256.004L256.163 230.407C257.231 230.182 258.247 229.757 259.159 229.155L260.443 230.231L262.745 227.928L261.667 226.641C262.266 225.727 262.69 224.709 262.917 223.638L264.594 223.48V220.215L262.917 220.057ZM258.756 221.85C258.756 222.723 258.497 223.576 258.012 224.301C257.528 225.026 256.84 225.591 256.035 225.925C255.23 226.258 254.345 226.345 253.49 226.174C252.636 226.003 251.852 225.582 251.237 224.965C250.621 224.348 250.202 223.561 250.032 222.705C249.863 221.849 249.95 220.962 250.284 220.155C250.617 219.349 251.182 218.66 251.906 218.175C252.63 217.69 253.481 217.432 254.352 217.432C254.931 217.432 255.504 217.546 256.039 217.768C256.573 217.99 257.059 218.316 257.468 218.726C257.877 219.136 258.201 219.623 258.422 220.159C258.643 220.695 258.757 221.27 258.756 221.85Z" fill="#263238"/>
<path opacity="0.8" d="M262.917 220.057C262.69 218.987 262.266 217.968 261.667 217.054L262.745 215.767L260.443 213.464L259.159 214.541C258.247 213.938 257.231 213.513 256.163 213.288L256.004 211.611H252.752L252.593 213.288C251.525 213.513 250.508 213.938 249.597 214.541L248.313 213.464L246.011 215.767L247.089 217.054C246.489 217.968 246.066 218.987 245.839 220.057L244.162 220.215V223.48L245.839 223.638C246.066 224.709 246.489 225.727 247.089 226.641L246.011 227.928L248.313 230.231L249.597 229.155C250.508 229.757 251.525 230.182 252.593 230.407L252.752 232.084H256.004L256.163 230.407C257.231 230.182 258.247 229.757 259.159 229.155L260.443 230.231L262.745 227.928L261.667 226.641C262.266 225.727 262.69 224.709 262.917 223.638L264.594 223.48V220.215L262.917 220.057ZM258.756 221.85C258.756 222.723 258.497 223.576 258.012 224.301C257.528 225.026 256.84 225.591 256.035 225.925C255.23 226.258 254.345 226.345 253.49 226.174C252.636 226.003 251.852 225.582 251.237 224.965C250.621 224.348 250.202 223.561 250.032 222.705C249.863 221.849 249.95 220.962 250.284 220.155C250.617 219.349 251.182 218.66 251.906 218.175C252.63 217.69 253.481 217.432 254.352 217.432C254.931 217.432 255.504 217.546 256.039 217.768C256.573 217.99 257.059 218.316 257.468 218.726C257.877 219.136 258.201 219.623 258.422 220.159C258.643 220.695 258.757 221.27 258.756 221.85Z" fill="white"/>
<path d="M149.71 186.775C149.454 185.55 148.967 184.386 148.277 183.343L149.513 181.846L146.873 179.204L145.383 180.435C144.333 179.745 143.163 179.258 141.934 178.998L141.754 177.072H138.022L137.838 178.998C136.61 179.257 135.441 179.744 134.392 180.435L132.903 179.2L130.262 181.842L131.495 183.339C130.808 184.384 130.321 185.547 130.061 186.771L128.139 186.955V190.696L130.061 190.876C130.32 192.108 130.806 193.28 131.495 194.333L130.262 195.826L132.903 198.472L134.392 197.233C135.44 197.925 136.609 198.413 137.838 198.67L138.022 200.596H141.754L141.934 198.67C143.164 198.414 144.335 197.926 145.383 197.233L146.873 198.472L149.513 195.826L148.277 194.333C148.969 193.282 149.455 192.109 149.71 190.876L151.632 190.696V186.955L149.71 186.775ZM144.938 188.83C144.938 189.832 144.641 190.812 144.085 191.646C143.529 192.479 142.738 193.129 141.814 193.512C140.889 193.894 139.872 193.994 138.891 193.797C137.91 193.6 137.009 193.116 136.303 192.406C135.597 191.695 135.117 190.791 134.924 189.807C134.731 188.824 134.833 187.804 135.218 186.879C135.604 185.954 136.254 185.164 137.088 184.609C137.921 184.055 138.9 183.76 139.901 183.764C141.239 183.767 142.521 184.303 143.465 185.252C144.409 186.202 144.939 187.489 144.938 188.83Z" fill="#263238"/>
<path opacity="0.8" d="M149.71 186.775C149.454 185.55 148.967 184.386 148.277 183.343L149.513 181.846L146.873 179.204L145.383 180.435C144.333 179.745 143.163 179.258 141.934 178.998L141.754 177.072H138.022L137.838 178.998C136.61 179.257 135.441 179.744 134.392 180.435L132.903 179.2L130.262 181.842L131.495 183.339C130.808 184.384 130.321 185.547 130.061 186.771L128.139 186.955V190.696L130.061 190.876C130.32 192.108 130.806 193.28 131.495 194.333L130.262 195.826L132.903 198.472L134.392 197.233C135.44 197.925 136.609 198.413 137.838 198.67L138.022 200.596H141.754L141.934 198.67C143.164 198.414 144.335 197.926 145.383 197.233L146.873 198.472L149.513 195.826L148.277 194.333C148.969 193.282 149.455 192.109 149.71 190.876L151.632 190.696V186.955L149.71 186.775ZM144.938 188.83C144.938 189.832 144.641 190.812 144.085 191.646C143.529 192.479 142.738 193.129 141.814 193.512C140.889 193.894 139.872 193.994 138.891 193.797C137.91 193.6 137.009 193.116 136.303 192.406C135.597 191.695 135.117 190.791 134.924 189.807C134.731 188.824 134.833 187.804 135.218 186.879C135.604 185.954 136.254 185.164 137.088 184.609C137.921 184.055 138.9 183.76 139.901 183.764C141.239 183.767 142.521 184.303 143.465 185.252C144.409 186.202 144.939 187.489 144.938 188.83Z" fill="white"/>
<path d="M227.388 182.61C227.228 181.845 226.924 181.117 226.494 180.465L227.264 179.534L225.621 177.887L224.692 178.655C224.04 178.227 223.314 177.924 222.552 177.763L222.436 176.562H220.108L219.997 177.763C219.235 177.925 218.509 178.228 217.857 178.655L216.941 177.883L215.302 179.53L216.068 180.461C215.637 181.112 215.335 181.84 215.177 182.606L213.979 182.717V185.046L215.177 185.162C215.335 185.928 215.637 186.656 216.068 187.307L215.302 188.238L216.941 189.885L217.87 189.117C218.522 189.544 219.247 189.847 220.01 190.009L220.121 191.21H222.445L222.56 190.009C223.323 189.848 224.049 189.545 224.7 189.117L225.629 189.885L227.273 188.238L226.502 187.307C226.933 186.655 227.236 185.927 227.397 185.162L228.591 185.046V182.717L227.388 182.61ZM224.418 183.897C224.418 184.52 224.233 185.13 223.888 185.648C223.542 186.167 223.051 186.571 222.476 186.809C221.901 187.048 221.269 187.111 220.658 186.989C220.048 186.867 219.488 186.567 219.048 186.126C218.608 185.685 218.308 185.123 218.187 184.512C218.065 183.9 218.128 183.266 218.366 182.69C218.604 182.114 219.007 181.622 219.524 181.275C220.042 180.929 220.65 180.744 221.272 180.744C222.105 180.744 222.904 181.075 223.494 181.664C224.083 182.254 224.416 183.053 224.418 183.888V183.897Z" fill="#263238"/>
<path opacity="0.8" d="M227.388 182.61C227.228 181.845 226.924 181.117 226.494 180.465L227.264 179.534L225.621 177.887L224.692 178.655C224.04 178.227 223.314 177.924 222.552 177.763L222.436 176.562H220.108L219.997 177.763C219.235 177.925 218.509 178.228 217.857 178.655L216.941 177.883L215.302 179.53L216.068 180.461C215.637 181.112 215.335 181.84 215.177 182.606L213.979 182.717V185.046L215.177 185.162C215.335 185.928 215.637 186.656 216.068 187.307L215.302 188.238L216.941 189.885L217.87 189.117C218.522 189.544 219.247 189.847 220.01 190.009L220.121 191.21H222.445L222.56 190.009C223.323 189.848 224.049 189.545 224.7 189.117L225.629 189.885L227.273 188.238L226.502 187.307C226.933 186.655 227.236 185.927 227.397 185.162L228.591 185.046V182.717L227.388 182.61ZM224.418 183.897C224.418 184.52 224.233 185.13 223.888 185.648C223.542 186.167 223.051 186.571 222.476 186.809C221.901 187.048 221.269 187.111 220.658 186.989C220.048 186.867 219.488 186.567 219.048 186.126C218.608 185.685 218.308 185.123 218.187 184.512C218.065 183.9 218.128 183.266 218.366 182.69C218.604 182.114 219.007 181.622 219.524 181.275C220.042 180.929 220.65 180.744 221.272 180.744C222.105 180.744 222.904 181.075 223.494 181.664C224.083 182.254 224.416 183.053 224.418 183.888V183.897Z" fill="white"/>
<path d="M269.841 326.277C269.841 329.648 229.815 332.385 180.441 332.385C131.067 332.385 91.0444 329.631 91.0444 326.277C91.0444 322.922 131.067 320.168 180.441 320.168C229.815 320.168 269.841 322.888 269.841 326.277Z" fill="#F5F5F5"/>
<path d="M258.037 255.513H249.156C247.081 255.513 245.398 257.2 245.398 259.28V268.18C245.398 270.26 247.081 271.946 249.156 271.946H258.037C260.113 271.946 261.795 270.26 261.795 268.18V259.28C261.795 257.2 260.113 255.513 258.037 255.513Z" fill="#407BFF"/>
<path opacity="0.5" d="M258.037 255.513H249.156C247.081 255.513 245.398 257.2 245.398 259.28V268.18C245.398 270.26 247.081 271.946 249.156 271.946H258.037C260.113 271.946 261.795 270.26 261.795 268.18V259.28C261.795 257.2 260.113 255.513 258.037 255.513Z" fill="white"/>
<path d="M252.148 265.088H249.794L249.366 266.169H247.226L249.931 259.962H252.037L254.746 266.169H252.606L252.148 265.088ZM251.575 263.578L250.971 262.021L250.368 263.578H251.575Z" fill="#407BFF"/>
<path d="M259.784 263.561V266.168H257.926V265.529C257.799 265.776 257.6 265.978 257.355 266.109C257.11 266.239 256.832 266.291 256.556 266.259C255.371 266.259 254.759 265.585 254.759 264.749C254.759 263.809 255.465 263.286 256.972 263.286H257.776C257.716 262.913 257.43 262.72 256.865 262.72C256.423 262.718 255.992 262.851 255.628 263.102L254.99 261.78C255.654 261.41 256.404 261.219 257.164 261.227C258.829 261.227 259.784 261.935 259.784 263.561ZM257.785 264.59V264.255H257.288C256.86 264.255 256.681 264.397 256.681 264.663C256.681 264.929 256.856 265.053 257.156 265.053C257.297 265.058 257.436 265.014 257.55 264.93C257.664 264.846 257.747 264.727 257.785 264.59Z" fill="#407BFF"/>
<path d="M246.798 236.996H231.874C230.68 236.996 229.712 237.966 229.712 239.162V251.649C229.712 252.845 230.68 253.815 231.874 253.815H246.798C247.992 253.815 248.96 252.845 248.96 251.649V239.162C248.96 237.966 247.992 236.996 246.798 236.996Z" fill="#407BFF"/>
<path opacity="0.6" d="M246.798 236.996H231.874C230.68 236.996 229.712 237.966 229.712 239.162V251.649C229.712 252.845 230.68 253.815 231.874 253.815H246.798C247.992 253.815 248.96 252.845 248.96 251.649V239.162C248.96 237.966 247.992 236.996 246.798 236.996Z" fill="white"/>
<path d="M244.448 244.841L239.916 248.397L237.113 246.729C236.859 246.577 236.566 246.508 236.272 246.529C235.978 246.551 235.698 246.662 235.469 246.849L229.734 251.499C229.728 251.801 229.783 252.101 229.894 252.382C230.005 252.663 230.171 252.919 230.383 253.135C230.594 253.351 230.846 253.523 231.124 253.64C231.402 253.758 231.7 253.819 232.002 253.819L246.678 253.841C247.285 253.835 247.865 253.589 248.293 253.157C248.72 252.725 248.96 252.141 248.96 251.533V246.343L246.092 244.717C245.836 244.574 245.544 244.509 245.252 244.531C244.959 244.553 244.68 244.661 244.448 244.841Z" fill="#407BFF"/>
<path d="M242.295 242.143C242.286 242.544 242.159 242.933 241.93 243.262C241.701 243.591 241.381 243.845 241.008 243.992C240.636 244.139 240.229 244.172 239.838 244.089C239.447 244.005 239.089 243.807 238.809 243.52C238.529 243.233 238.34 242.87 238.266 242.477C238.191 242.083 238.234 241.675 238.389 241.306C238.544 240.936 238.805 240.621 239.138 240.399C239.471 240.177 239.862 240.059 240.262 240.059C240.533 240.061 240.8 240.118 241.048 240.224C241.296 240.33 241.522 240.485 241.71 240.678C241.899 240.872 242.048 241.101 242.149 241.352C242.249 241.604 242.299 241.873 242.295 242.143Z" fill="#407BFF"/>
<path d="M241.392 257.036H236.239V262.201H241.392V257.036Z" fill="#407BFF"/>
<path d="M241.392 263.397H236.239V268.562H241.392V263.397Z" fill="#263238"/>
<path d="M256.929 241.041H251.776V246.205H256.929V241.041Z" fill="#407BFF"/>
<path opacity="0.8" d="M256.929 241.041H251.776V246.205H256.929V241.041Z" fill="white"/>
<path d="M116.789 173.902C117.831 172.737 119.171 171.879 120.664 171.422C122.158 170.965 123.747 170.926 125.261 171.31C126.775 171.693 128.155 172.484 129.253 173.598C130.35 174.711 131.123 176.103 131.487 177.625C131.852 179.147 131.794 180.739 131.32 182.231C130.846 183.722 129.974 185.054 128.799 186.085C127.624 187.115 126.19 187.803 124.652 188.075C123.115 188.348 121.532 188.193 120.076 187.628L117.79 188.804L117.533 186.097C117.499 186.067 117.461 186.041 117.426 186.007C115.742 184.486 114.729 182.356 114.609 180.087C114.49 177.817 115.273 175.593 116.789 173.902Z" fill="#407BFF"/>
<g opacity="0.3">
<path d="M116.789 173.902C117.831 172.737 119.171 171.879 120.664 171.422C122.158 170.965 123.747 170.926 125.261 171.31C126.775 171.693 128.155 172.484 129.253 173.598C130.35 174.711 131.123 176.103 131.487 177.625C131.852 179.147 131.794 180.739 131.32 182.231C130.846 183.722 129.974 185.054 128.799 186.085C127.624 187.115 126.19 187.803 124.652 188.075C123.115 188.348 121.532 188.193 120.076 187.628L117.79 188.804L117.533 186.097C117.499 186.067 117.461 186.041 117.426 186.007C115.742 184.486 114.729 182.356 114.609 180.087C114.49 177.817 115.273 175.593 116.789 173.902Z" fill="white"/>
</g>
<path d="M117.645 171.625C116.433 172.317 115.411 173.299 114.67 174.483C113.929 175.667 113.49 177.016 113.395 178.41" stroke="#407BFF" stroke-width="0.5" stroke-linecap="round" stroke-linejoin="round"/>
<path d="M113.365 179.689C113.309 180.111 113.339 180.54 113.455 180.95" stroke="#407BFF" stroke-width="0.5" stroke-linecap="round" stroke-linejoin="round"/>
<path d="M122.84 183.073L119.232 179.775L120.379 178.513L122.802 180.727L126.821 176.789L128.011 178.012L122.84 183.073Z" fill="white"/>
<path d="M145.653 217.779C145.348 217.159 145.269 216.452 145.43 215.78C145.751 214.845 145.756 214.017 146.038 213.335C146.321 212.653 146.629 213.601 146.693 214.137C146.757 214.673 146.83 215.278 147.224 215.167C147.618 215.055 150.074 212.533 150.648 212.443C151.221 212.353 150.939 212.872 150.939 212.872C150.939 212.872 151.555 212.276 151.855 212.443C151.932 212.49 152.039 212.726 151.803 213.043C151.268 213.751 150.091 215.188 150.091 215.188C150.16 215.102 151.761 213.442 152.034 213.224C152.39 212.941 152.702 212.988 152.861 213.224C153.083 213.524 151.149 215.651 151.149 215.797C151.149 215.797 152.21 214.536 152.685 214.635C153.16 214.734 152.535 215.561 151.829 216.188C151.123 216.814 150.117 218.062 149.402 218.581C148.546 219.229 147.819 219.465 146.933 218.976C146.41 218.695 145.969 218.282 145.653 217.779Z" fill="#E9B376"/>
<path opacity="0.3" d="M150.836 212.945C150.357 213.434 149.901 213.944 149.467 214.476" stroke="black" stroke-width="0.25" stroke-linecap="round" stroke-linejoin="round"/>
<path opacity="0.3" d="M150.729 216.299C150.275 215.53 149.607 214.91 148.808 214.515" stroke="black" stroke-width="0.25" stroke-linecap="round" stroke-linejoin="round"/>
<path opacity="0.3" d="M147.297 215.609C147.516 215.901 147.626 216.26 147.609 216.625C147.591 216.99 147.448 217.337 147.203 217.608" stroke="black" stroke-width="0.25" stroke-linecap="round" stroke-linejoin="round"/>
<path d="M126.089 212.301C126.089 212.301 127.925 211.984 130.994 215.347C134.872 219.594 138.009 222.772 138.009 222.772L146.244 216.947L148.281 218.967C148.281 218.967 140.603 228.528 138.677 229.039C136.751 229.549 135.916 228.897 134.671 227.876C133.425 226.856 125.683 219.032 125.845 219.087C126.008 219.143 126.089 212.301 126.089 212.301Z" fill="#EBB373"/>
<path d="M128.623 317.698C128.593 317.449 127.694 312.203 127.694 312.203L122.683 313.344L124.095 318.714L127.519 319.293L128.623 317.698Z" fill="#EBB373"/>
<path d="M88.0231 217.324C88.2756 217.479 97.1908 225.226 97.2935 225.174C97.3963 225.123 106.62 217.843 107.185 217.586C107.75 217.329 110.707 222.472 110.442 222.472C110.176 222.472 101.381 230.261 97.6916 230.467C94.0022 230.673 86.2212 218.667 86.2212 218.667L88.0231 217.324Z" fill="#EBB373"/>
<path d="M165.307 307.36L162.26 310.02L155.288 303.946L158.335 301.282L165.307 307.36Z" fill="#EBB373"/>
<path d="M159.507 308.977L160.637 307.836C160.765 307.71 160.92 307.616 161.09 307.562C161.26 307.507 161.441 307.494 161.617 307.523C163.167 307.755 163.329 306.923 163.184 305.378C163.582 304.872 164.224 305.267 164.404 305.378L168.35 307.605C168.508 307.694 168.625 307.842 168.675 308.017C168.726 308.192 168.706 308.379 168.62 308.54C168.587 308.6 168.545 308.655 168.495 308.703L164.763 312.473L159.537 317.753C158.112 319.195 156.37 318.054 156.824 317.324C158.874 314.073 159.961 311.409 160 309.814C160.017 309.505 159.76 309.548 159.507 308.977Z" fill="#263238"/>
<path d="M158.403 311.13C158.905 311.052 159.397 310.921 159.872 310.74C159.892 310.729 159.908 310.71 159.915 310.688C159.922 310.665 159.921 310.641 159.91 310.62C159.904 310.609 159.895 310.599 159.885 310.592C159.874 310.585 159.863 310.58 159.85 310.577C159.61 310.496 157.496 309.822 157.047 310.242C157.004 310.278 156.972 310.326 156.956 310.379C156.939 310.432 156.938 310.489 156.953 310.543C156.967 310.644 157.005 310.741 157.064 310.825C157.123 310.91 157.2 310.979 157.291 311.027C157.641 311.179 158.031 311.215 158.403 311.13ZM159.542 310.663C158.968 310.847 157.898 311.139 157.402 310.86C157.338 310.822 157.282 310.771 157.239 310.709C157.196 310.648 157.167 310.578 157.154 310.504C157.146 310.482 157.145 310.459 157.151 310.436C157.157 310.414 157.17 310.394 157.188 310.38C157.449 310.148 158.669 310.405 159.542 310.663Z" fill="#407BFF"/>
<path d="M159.85 310.749C159.871 310.755 159.893 310.755 159.914 310.749C159.922 310.734 159.927 310.718 159.927 310.702C159.927 310.685 159.922 310.669 159.914 310.654C159.914 310.569 159.178 308.668 158.104 308.939C157.838 309.012 157.778 309.153 157.778 309.265C157.778 309.792 159.161 310.612 159.794 310.783L159.85 310.749ZM158.245 309.067C158.938 308.977 159.486 310.071 159.683 310.513C158.985 310.256 157.971 309.556 157.971 309.226C157.971 309.2 157.971 309.127 158.155 309.08L158.245 309.067Z" fill="#407BFF"/>
<path d="M159.589 310.646C159.812 310.477 160.069 310.358 160.342 310.297C160.616 310.237 160.899 310.236 161.172 310.294" stroke="#407BFF" stroke-width="0.5" stroke-linecap="round" stroke-linejoin="round"/>
<path d="M159.431 311.885C159.654 311.717 159.911 311.598 160.184 311.538C160.458 311.477 160.741 311.476 161.014 311.534" stroke="#407BFF" stroke-width="0.5" stroke-linecap="round" stroke-linejoin="round"/>
<path d="M159.002 313.215C159.227 313.046 159.484 312.928 159.758 312.867C160.032 312.806 160.316 312.805 160.59 312.863" stroke="#407BFF" stroke-width="0.5" stroke-linecap="round" stroke-linejoin="round"/>
<path d="M106.754 322.644C110.109 322.214 112.426 318.7 111.928 314.794C111.43 310.889 108.307 308.071 104.951 308.5C101.596 308.93 99.2795 312.444 99.7774 316.35C100.275 320.255 103.399 323.073 106.754 322.644Z" fill="#407BFF"/>
<path opacity="0.4" d="M106.754 322.644C110.109 322.214 112.426 318.7 111.928 314.794C111.43 310.889 108.307 308.071 104.951 308.5C101.596 308.93 99.2795 312.444 99.7774 316.35C100.275 320.255 103.399 323.073 106.754 322.644Z" fill="black"/>
<path d="M86.1226 209.316L90.1928 196.092L98.2649 207.763L111.85 314.296L99.7073 315.853L86.1226 209.316Z" fill="#407BFF"/>
<path d="M92.3284 199.167C91.9425 199.628 91.3989 199.927 90.8043 200.006C90.2096 200.085 89.6068 199.939 89.1142 199.596L86.1182 209.325C86.1182 209.325 87.5134 211.933 89.1398 209.127C89.1398 209.127 90.9931 211.452 92.5981 208.698C92.5981 208.698 94.34 210.517 95.6198 208.312C95.6198 208.312 97.122 209.745 98.2562 207.789L92.3284 199.167Z" fill="#B97964"/>
<path opacity="0.3" d="M92.6538 208.681L106.945 315.077L109.77 314.712C110.185 314.524 95.6712 208.317 95.6712 208.317C94.3915 210.5 92.6538 208.681 92.6538 208.681Z" fill="white"/>
<path opacity="0.3" d="M89.1615 209.175C88.267 210.723 87.4495 210.62 86.876 210.221L101.051 315.853L103.876 315.489C104.304 315.309 91.1517 218.997 89.8934 209.779C89.62 209.616 89.3731 209.413 89.1615 209.175Z" fill="white"/>
<path d="M99.5691 317.221L112.429 315.575L112.164 313.494L99.3039 315.141L99.5691 317.221Z" fill="#263238"/>
<path d="M87.7148 218.654C87.7148 218.654 90.086 217.423 90.2828 216.711C90.4797 215.999 89.4268 216.231 89.4268 216.231C89.4268 216.231 90.5396 215.905 90.4669 215.416C90.377 214.824 89.3027 215.073 89.3027 215.073C89.3027 215.073 90.2015 214.768 90.1074 214.335C90.0132 213.902 88.7763 214.082 88.7763 214.082C88.7763 214.082 89.3669 213.747 89.1315 213.485C88.8961 213.224 86.2768 213.58 85.5962 214.206C84.9157 214.832 85.4807 218.191 85.776 218.886C85.8616 219.087 86.0628 219.405 87.06 219.542C87.1597 219.552 87.2598 219.527 87.3427 219.47C87.4256 219.414 87.4861 219.33 87.5137 219.233L87.6335 218.693L87.7148 218.654Z" fill="#EBB373"/>
<path opacity="0.2" d="M89.4312 216.179L87.5181 216.84C87.5039 216.844 87.4921 216.854 87.4852 216.868C87.4784 216.881 87.4771 216.896 87.4817 216.91C87.4862 216.925 87.4962 216.937 87.5095 216.943C87.5227 216.95 87.5381 216.951 87.5523 216.947L89.4655 216.286C89.4781 216.281 89.4881 216.271 89.4936 216.258C89.4992 216.245 89.4998 216.231 89.4954 216.218C89.4946 216.211 89.4922 216.204 89.4882 216.197C89.4843 216.191 89.4791 216.186 89.4728 216.183C89.4666 216.179 89.4596 216.177 89.4524 216.176C89.4452 216.175 89.4379 216.176 89.4312 216.179Z" fill="black"/>
<path opacity="0.2" d="M89.2511 215.03L87.3636 215.519C87.3572 215.521 87.3511 215.524 87.3459 215.528C87.3407 215.532 87.3364 215.538 87.3332 215.544C87.33 215.55 87.328 215.556 87.3274 215.563C87.3267 215.57 87.3274 215.576 87.3294 215.583C87.3325 215.597 87.3409 215.609 87.3529 215.617C87.3648 215.625 87.3794 215.628 87.3936 215.626L89.2768 215.141C89.2902 215.136 89.3012 215.126 89.3076 215.114C89.3139 215.101 89.3152 215.086 89.311 215.073C89.31 215.066 89.3076 215.059 89.304 215.053C89.3004 215.047 89.2957 215.042 89.2901 215.038C89.2845 215.034 89.2782 215.032 89.2715 215.03C89.2648 215.029 89.2579 215.028 89.2511 215.03Z" fill="black"/>
<path opacity="0.2" d="M88.7165 214.043L87.3041 214.365C87.2976 214.367 87.2916 214.37 87.2864 214.374C87.2811 214.378 87.2768 214.384 87.2736 214.39C87.2704 214.396 87.2685 214.402 87.2678 214.409C87.2672 214.416 87.2679 214.423 87.2698 214.429C87.2709 214.436 87.2732 214.442 87.2768 214.448C87.2804 214.454 87.2852 214.459 87.2908 214.463C87.2963 214.467 87.3027 214.47 87.3094 214.471C87.3161 214.473 87.323 214.473 87.3297 214.472L88.7422 214.15C88.7545 214.145 88.7646 214.136 88.7707 214.124C88.7768 214.112 88.7785 214.098 88.7754 214.085C88.7722 214.072 88.7646 214.061 88.7538 214.053C88.743 214.045 88.7297 214.042 88.7165 214.043Z" fill="black"/>
<path d="M123.47 317.269H125.079C125.258 317.271 125.433 317.315 125.592 317.398C125.75 317.48 125.887 317.599 125.991 317.745C126.92 319.01 127.613 318.534 128.623 317.341C129.261 317.269 129.432 318.002 129.479 318.199L130.678 322.579C130.704 322.666 130.712 322.758 130.703 322.848C130.693 322.939 130.666 323.027 130.622 323.107C130.578 323.187 130.519 323.257 130.447 323.314C130.376 323.37 130.294 323.412 130.207 323.437C130.141 323.454 130.074 323.463 130.006 323.463H117.294C115.27 323.463 114.85 321.421 115.685 321.232C119.434 320.4 122.105 319.293 123.243 318.204C123.457 317.989 123.239 317.848 123.47 317.269Z" fill="#263238"/>
<path d="M121.171 317.985C121.579 318.289 122.018 318.548 122.481 318.757C122.504 318.763 122.528 318.76 122.548 318.749C122.569 318.737 122.585 318.719 122.592 318.697C122.598 318.686 122.6 318.673 122.6 318.661C122.6 318.648 122.598 318.635 122.592 318.624C122.481 318.397 121.467 316.424 120.85 316.394C120.795 316.39 120.74 316.401 120.691 316.427C120.642 316.453 120.601 316.492 120.572 316.539C120.511 316.622 120.47 316.718 120.452 316.819C120.434 316.92 120.44 317.024 120.469 317.123C120.605 317.478 120.851 317.78 121.171 317.985ZM122.306 318.465C121.771 318.191 120.808 317.633 120.658 317.08C120.639 317.007 120.635 316.931 120.649 316.857C120.662 316.783 120.691 316.712 120.735 316.651C120.746 316.63 120.762 316.613 120.783 316.601C120.804 316.59 120.827 316.585 120.85 316.587C121.189 316.608 121.869 317.663 122.306 318.465Z" fill="#407BFF"/>
<path d="M122.46 318.748C122.473 318.766 122.491 318.779 122.511 318.787C122.528 318.785 122.544 318.778 122.558 318.768C122.572 318.757 122.582 318.743 122.588 318.727C122.639 318.663 123.478 316.805 122.528 316.231C122.293 316.089 122.147 316.145 122.074 316.231C121.698 316.604 122.074 318.165 122.413 318.736L122.46 318.748ZM122.52 316.424C123.072 316.853 122.682 318.011 122.52 318.461C122.216 317.783 121.993 316.569 122.237 316.351C122.237 316.329 122.297 316.273 122.473 316.381L122.52 316.424Z" fill="#407BFF"/>
<path d="M122.353 318.495C122.63 318.536 122.895 318.635 123.131 318.787C123.366 318.939 123.566 319.139 123.718 319.375" stroke="#407BFF" stroke-width="0.5" stroke-linecap="round" stroke-linejoin="round"/>
<path d="M121.36 319.25C121.637 319.289 121.902 319.388 122.137 319.539C122.372 319.691 122.572 319.893 122.721 320.13" stroke="#407BFF" stroke-width="0.5" stroke-linecap="round" stroke-linejoin="round"/>
<path d="M120.119 319.881C120.395 319.921 120.66 320.02 120.895 320.172C121.13 320.324 121.329 320.524 121.48 320.76" stroke="#407BFF" stroke-width="0.5" stroke-linecap="round" stroke-linejoin="round"/>
<path d="M111.375 215.424C111.375 215.424 108.537 221.773 108.888 224.265C109.359 227.593 112.214 231.754 114.987 238.081L130.54 235.666C128.653 229.361 127.219 225.835 126.102 211.855C124.203 211.809 122.305 212.008 120.457 212.447C118.03 212.937 115.642 213.6 113.309 214.429C110.309 215.54 111.375 215.424 111.375 215.424Z" fill="#263238"/>
<path d="M125.173 212.074C125.173 212.074 126.175 211.474 127.741 212.259C129.308 213.044 133.947 217.629 133.947 217.629C133.947 217.629 128.43 224.492 128.349 224.492C128.268 224.492 125.319 220.481 125.319 220.481L125.173 212.074Z" fill="#263238"/>
<path d="M109.145 222.948L105.374 218.53C105.374 218.53 109.996 215.428 111.31 214.927C111.946 214.654 112.621 214.486 113.309 214.429L109.145 222.948Z" fill="#263238"/>
<path d="M114.987 238.081C112.312 247.248 113.01 268.373 115.415 283.614C117.153 297.383 121.322 314.772 121.322 314.772L129.689 313.46C129.689 313.46 126.89 290.91 126.218 281.289C125.306 268.043 125.251 236.477 125.251 236.477L114.165 236.198L114.987 238.081Z" fill="#407BFF"/>
<path opacity="0.4" d="M114.987 238.081C112.312 247.248 113.01 268.373 115.415 283.614C117.153 297.383 121.322 314.772 121.322 314.772L129.689 313.46C129.689 313.46 126.89 290.91 126.218 281.289C125.306 268.043 125.251 236.477 125.251 236.477L114.165 236.198L114.987 238.081Z" fill="black"/>
<path opacity="0.2" d="M125.439 248.208C124.339 245.274 123.594 243.722 123.397 246.643C122.969 252.82 123.906 259.884 125.503 263.372C125.516 258.143 125.349 252.751 125.439 248.208Z" fill="black"/>
<path d="M114.247 236.198C118.105 240.618 121.339 245.549 123.859 250.851C128.105 259.859 130.964 271.702 134.097 278.99C139.058 290.524 157.209 306.644 157.209 306.644L161.489 303.079C161.489 303.079 148.529 284.708 145.101 276.884C134.114 251.833 137.397 241.221 130.549 235.628L129.907 233.483L114.247 236.198Z" fill="#407BFF"/>
<path opacity="0.4" d="M114.247 236.198C118.105 240.618 121.339 245.549 123.859 250.851C128.105 259.859 130.964 271.702 134.097 278.99C139.058 290.524 157.209 306.644 157.209 306.644L161.489 303.079C161.489 303.079 148.529 284.708 145.101 276.884C134.114 251.833 137.397 241.221 130.549 235.628L129.907 233.483L114.247 236.198Z" fill="black"/>
<path d="M108.755 199.176C108.781 199.167 108.803 199.15 108.82 199.129C108.834 199.101 108.836 199.069 108.828 199.04C108.819 199.01 108.799 198.985 108.772 198.97C108.191 198.553 107.783 197.936 107.625 197.237C107.467 196.538 107.571 195.805 107.916 195.178C109.119 192.84 112.141 193.668 112.171 193.672C112.185 193.68 112.2 193.684 112.216 193.685C112.231 193.686 112.247 193.684 112.262 193.679C112.277 193.673 112.29 193.665 112.302 193.655C112.313 193.644 112.323 193.631 112.329 193.617C112.341 193.588 112.342 193.556 112.332 193.526C112.322 193.497 112.301 193.473 112.274 193.458H112.235C112.209 193.458 108.995 192.57 107.702 195.079C107.346 195.762 107.247 196.549 107.422 197.299C107.597 198.049 108.035 198.71 108.657 199.163C108.687 199.179 108.722 199.183 108.755 199.176Z" fill="#263238"/>
<path d="M108.978 199.261C108.996 199.255 109.013 199.245 109.027 199.232C109.041 199.218 109.052 199.202 109.059 199.184C109.069 199.155 109.066 199.124 109.053 199.096C109.039 199.069 109.015 199.048 108.986 199.038C108.986 199.038 107.565 198.567 107.129 197.524C107.024 197.255 106.982 196.966 107.003 196.678C107.024 196.39 107.11 196.111 107.253 195.86C107.261 195.847 107.265 195.832 107.267 195.817C107.269 195.802 107.268 195.786 107.264 195.772C107.26 195.757 107.254 195.743 107.244 195.731C107.235 195.719 107.223 195.709 107.21 195.701C107.182 195.687 107.15 195.684 107.119 195.693C107.089 195.701 107.064 195.721 107.047 195.748C106.889 196.03 106.796 196.342 106.773 196.664C106.75 196.986 106.798 197.309 106.915 197.61C107.398 198.751 108.849 199.231 108.918 199.253C108.937 199.261 108.957 199.264 108.978 199.261Z" fill="#263238"/>
<path d="M122.43 207.377C122.863 207.292 123.271 207.106 123.62 206.835C123.969 206.564 124.25 206.215 124.441 205.816C124.449 205.802 124.454 205.788 124.455 205.772C124.457 205.757 124.456 205.741 124.451 205.727C124.447 205.712 124.439 205.698 124.43 205.686C124.42 205.674 124.408 205.664 124.394 205.657C124.382 205.649 124.368 205.643 124.353 205.641C124.338 205.638 124.323 205.638 124.309 205.642C124.294 205.646 124.281 205.652 124.269 205.662C124.257 205.671 124.247 205.682 124.24 205.696C123.44 207.729 119.417 207.347 119.378 207.347C119.363 207.345 119.347 207.346 119.332 207.349C119.316 207.353 119.302 207.36 119.29 207.37C119.277 207.38 119.267 207.392 119.259 207.406C119.252 207.419 119.247 207.434 119.245 207.45C119.244 207.465 119.245 207.48 119.249 207.494C119.253 207.508 119.26 207.521 119.269 207.533C119.278 207.545 119.289 207.554 119.302 207.561C119.315 207.568 119.329 207.573 119.344 207.575C120.376 207.681 121.419 207.614 122.43 207.377Z" fill="#263238"/>
<path d="M138.617 200.647C137.823 201.05 136.938 201.238 136.049 201.192C136.64 200.651 137.061 199.949 137.26 199.172C137.458 198.394 137.426 197.576 137.166 196.817C136.118 197.576 134.874 198.015 133.582 198.081C132.291 198.146 131.008 197.835 129.89 197.185C128.259 196.199 127.061 194.505 125.259 193.878C123.692 193.338 120.448 193.449 120.024 195.761L120.726 197.477C121.925 196.945 123.791 198.764 124.446 199.918C125.1 201.072 125.19 202.419 125.323 203.727C125.456 205.035 125.683 206.416 126.539 207.411C127.322 208.248 128.393 208.754 129.535 208.827C130.675 208.884 131.817 208.739 132.907 208.398C133.371 208.312 133.802 208.1 134.153 207.785C134.326 207.621 134.433 207.399 134.453 207.162C134.472 206.924 134.404 206.688 134.26 206.498C133.462 206.619 132.646 206.468 131.944 206.069C133.617 206.264 135.305 205.871 136.721 204.958C138.065 204.027 138.946 202.281 138.617 200.647Z" fill="#263238"/>
<path d="M108.597 200.081C108.161 199.021 108.124 197.839 108.495 196.754C108.865 195.669 109.616 194.757 110.609 194.187C111.965 193.329 113.78 193.196 115.522 193.389C117.363 193.606 119.07 194.463 120.345 195.811C121.62 197.159 122.382 198.913 122.499 200.767C122.704 203.903 121.822 207.304 117.418 208.192C108.721 209.942 108.597 200.081 108.597 200.081Z" fill="#263238"/>
<path d="M121.069 212.357C121.069 212.357 119.712 213.674 117.983 215.549C117.622 215.939 117.218 216.287 116.78 216.587C115.603 217.397 114.503 217.908 114.122 217.337C114.04 217.208 113.969 217.072 113.913 216.93C113.536 215.943 113.485 214.502 114.225 213.756C115.081 212.898 115.441 212.233 115.158 211.255C114.986 210.677 114.743 210.122 114.435 209.604L115.428 208.84L118.792 204.551C118.633 206.97 118.929 211.195 121.069 212.357Z" fill="#EBB373"/>
<path opacity="0.2" d="M115.222 211.474C116.198 210.732 117.221 209.522 116.934 208.304C116.842 207.86 116.698 207.428 116.506 207.017L114.705 210.075C114.923 210.523 115.097 210.991 115.222 211.474Z" fill="black"/>
<path d="M119.04 200.167C119.13 204.121 119.25 205.786 117.469 208.068C114.79 211.499 110.009 210.993 108.764 207.21C107.647 203.778 107.689 197.906 111.332 195.826C112.099 195.349 112.98 195.088 113.883 195.069C114.785 195.05 115.677 195.274 116.464 195.717C117.251 196.16 117.905 196.807 118.358 197.589C118.811 198.372 119.047 199.262 119.04 200.167Z" fill="#EBB373"/>
<path d="M113.925 202.028C113.955 202.457 113.767 202.809 113.497 202.843C113.228 202.877 113.01 202.569 112.984 202.153C112.958 201.736 113.138 201.372 113.412 201.338C113.686 201.303 113.9 201.612 113.925 202.028Z" fill="#263238"/>
<path d="M109.941 202.461C109.966 202.865 109.782 203.221 109.513 203.255C109.243 203.289 109.029 202.989 109.003 202.586C108.978 202.183 109.162 201.827 109.431 201.792C109.701 201.758 109.941 202.058 109.941 202.461Z" fill="#263238"/>
<path d="M114.782 200.463C114.757 200.468 114.731 200.467 114.706 200.462C114.681 200.457 114.657 200.447 114.636 200.433C114.45 200.291 114.231 200.197 114 200.159C113.768 200.122 113.531 200.142 113.309 200.218C113.287 200.228 113.263 200.234 113.238 200.234C113.214 200.235 113.189 200.23 113.167 200.22C113.144 200.21 113.124 200.196 113.107 200.178C113.09 200.16 113.078 200.139 113.07 200.115C113.054 200.066 113.057 200.012 113.078 199.964C113.099 199.917 113.138 199.879 113.185 199.858C113.464 199.755 113.764 199.723 114.058 199.767C114.352 199.81 114.63 199.927 114.867 200.107C114.907 200.139 114.933 200.186 114.939 200.237C114.945 200.288 114.932 200.34 114.902 200.381C114.873 200.422 114.83 200.451 114.782 200.463Z" fill="#263238"/>
<path d="M108.76 200.596C108.739 200.591 108.72 200.582 108.703 200.569C108.686 200.557 108.672 200.541 108.661 200.523C108.641 200.477 108.637 200.426 108.65 200.378C108.662 200.33 108.69 200.287 108.73 200.257C108.945 200.078 109.203 199.958 109.478 199.908C109.753 199.859 110.036 199.881 110.3 199.974C110.321 199.985 110.34 200 110.354 200.019C110.369 200.037 110.38 200.058 110.387 200.081C110.393 200.104 110.395 200.128 110.392 200.152C110.389 200.175 110.381 200.198 110.369 200.218C110.352 200.262 110.318 200.298 110.275 200.318C110.232 200.338 110.183 200.341 110.138 200.325C109.928 200.255 109.703 200.24 109.486 200.282C109.268 200.324 109.065 200.422 108.896 200.566C108.877 200.58 108.855 200.589 108.831 200.595C108.808 200.6 108.783 200.6 108.76 200.596Z" fill="#263238"/>
<path d="M111.306 202.114C111.05 202.989 110.704 203.836 110.275 204.641C110.255 204.681 110.244 204.725 110.243 204.77C110.242 204.815 110.252 204.86 110.27 204.901C110.288 204.942 110.316 204.978 110.35 205.007C110.384 205.036 110.424 205.058 110.467 205.069C110.82 205.131 111.182 205.096 111.516 204.967L111.306 202.114Z" fill="#E4873E"/>
<path d="M113.562 201.338L112.642 201.23C112.642 201.23 113.207 201.844 113.562 201.338Z" fill="#263238"/>
<path d="M109.585 201.792L108.657 201.681C108.657 201.681 109.23 202.311 109.585 201.792Z" fill="#263238"/>
<path d="M116.476 200.999C116.476 200.999 114.662 198.425 115.774 196.25C115.774 196.25 108.361 195.028 108.143 202.166C108.143 202.166 106.658 195.646 113.206 194.26C119.755 192.875 121.531 202.522 118.668 206.026C118.668 206.035 117.932 202.775 116.476 200.999Z" fill="#263238"/>
<path d="M120.585 203.199C120.427 203.584 120.194 203.934 119.9 204.229C119.606 204.523 119.257 204.756 118.873 204.915C117.872 205.293 117.161 203.688 117.379 202.612C117.494 202.126 117.776 201.697 118.177 201.401C118.578 201.105 119.07 200.961 119.567 200.995C120.564 201.063 121.009 202.221 120.585 203.199Z" fill="#EBB373"/>
<path opacity="0.2" d="M118.377 203.238C118.361 202.86 118.495 202.492 118.749 202.212C119.003 201.933 119.357 201.765 119.733 201.745" stroke="black" stroke-width="0.5" stroke-linecap="round" stroke-linejoin="round"/>
<path d="M111.392 206.271C111.683 206.653 111.949 207.054 112.188 207.472L112.432 207.403C113.51 206.974 113.87 206.442 113.955 205.979C113.999 205.606 113.911 205.23 113.707 204.915C113.158 205.468 112.495 205.892 111.764 206.159C111.533 206.219 111.392 206.271 111.392 206.271Z" fill="#263238"/>
<path d="M111.751 206.125L112 206.472C113.01 206.082 113.673 205.67 113.87 205.245C113.831 205.116 113.773 204.993 113.699 204.881C113.146 205.43 112.482 205.855 111.751 206.125Z" fill="white"/>
<path d="M112.428 207.381C113.502 206.953 113.866 206.425 113.947 205.962C113.541 206.125 113.167 206.361 112.843 206.657C112.633 206.849 112.488 207.103 112.428 207.381Z" fill="#C15854"/>
<path opacity="0.2" d="M108.922 222.948L109.872 219.516C109.872 219.516 107.6 221.897 108.229 224.188L108.841 223.703L108.922 222.948Z" fill="black"/>
<path opacity="0.2" d="M127.403 223.287C127.403 223.287 125.52 220.769 125.52 220.756L127.938 226.182L127.403 223.287Z" fill="black"/>
<path d="M152.368 174.49H200.193C203.395 174.49 206.466 175.765 208.731 178.034C210.995 180.303 212.267 183.381 212.267 186.591V311.632C212.267 314.078 211.297 316.424 209.572 318.154C207.846 319.883 205.505 320.855 203.065 320.855H148.131C146.053 320.855 144.059 320.027 142.59 318.554C141.12 317.081 140.294 315.084 140.294 313.001V186.591C140.294 183.381 141.566 180.303 143.831 178.034C146.095 175.765 149.166 174.49 152.368 174.49Z" fill="#407BFF"/>
<path d="M200.51 177.93H152.052C147.163 177.93 143.201 181.902 143.201 186.801V308.54C143.201 313.439 147.163 317.41 152.052 317.41H200.51C205.398 317.41 209.361 313.439 209.361 308.54V186.801C209.361 181.902 205.398 177.93 200.51 177.93Z" fill="white"/>
<path d="M188.855 184.437H161.634V186.144H188.855V184.437Z" stroke="#407BFF" stroke-miterlimit="10"/>
<path d="M199.123 183.438C199.121 183.566 199.082 183.691 199.009 183.798C198.937 183.904 198.834 183.986 198.715 184.034C198.596 184.082 198.466 184.094 198.34 184.068C198.215 184.041 198.099 183.979 198.009 183.887C197.919 183.796 197.858 183.679 197.834 183.553C197.809 183.427 197.823 183.296 197.872 183.178C197.922 183.059 198.005 182.958 198.112 182.886C198.219 182.815 198.344 182.777 198.472 182.777C198.558 182.778 198.643 182.795 198.723 182.829C198.802 182.862 198.874 182.911 198.934 182.972C198.994 183.034 199.042 183.106 199.075 183.186C199.107 183.266 199.123 183.351 199.123 183.438Z" fill="#407BFF"/>
<path d="M199.123 185.102C199.122 185.231 199.083 185.356 199.011 185.463C198.939 185.57 198.837 185.653 198.718 185.701C198.599 185.75 198.469 185.762 198.343 185.737C198.217 185.711 198.101 185.649 198.011 185.557C197.92 185.466 197.859 185.35 197.834 185.223C197.809 185.097 197.822 184.966 197.872 184.847C197.921 184.728 198.004 184.627 198.111 184.555C198.218 184.484 198.344 184.446 198.472 184.446C198.645 184.447 198.811 184.517 198.933 184.64C199.054 184.762 199.123 184.929 199.123 185.102Z" fill="#407BFF"/>
<path d="M199.123 186.784C199.121 186.912 199.082 187.037 199.009 187.143C198.937 187.25 198.834 187.332 198.715 187.38C198.596 187.428 198.466 187.44 198.34 187.413C198.215 187.387 198.099 187.325 198.009 187.233C197.919 187.142 197.858 187.025 197.834 186.899C197.809 186.773 197.823 186.642 197.872 186.524C197.922 186.405 198.005 186.304 198.112 186.232C198.219 186.161 198.344 186.123 198.472 186.123C198.558 186.123 198.644 186.14 198.723 186.173C198.803 186.207 198.875 186.256 198.935 186.317C198.996 186.378 199.044 186.451 199.076 186.531C199.108 186.612 199.124 186.697 199.123 186.784Z" fill="#407BFF"/>
<path d="M154.093 183.888L152.843 185.089L154.093 186.32" stroke="#407BFF" stroke-linecap="round" stroke-linejoin="round"/>
<path d="M204.032 196.709H148.734V206.502H204.032V196.709Z" stroke="#407BFF" stroke-miterlimit="10"/>
<path d="M143.179 191.768H209.665" stroke="#407BFF" stroke-miterlimit="10"/>
<path d="M204.032 211.203H148.734V239.218H204.032V211.203Z" stroke="#407BFF" stroke-miterlimit="10"/>
<path d="M148.734 239.222L166.145 225.148C166.448 224.903 166.818 224.758 167.206 224.734C167.594 224.709 167.98 224.806 168.311 225.011L177.376 230.587L189.219 221.417C189.555 221.155 189.964 221.004 190.389 220.984C190.814 220.964 191.235 221.076 191.594 221.305L204.032 229.21" stroke="#407BFF" stroke-miterlimit="10"/>
<path d="M177.03 222.944C178.942 222.944 180.492 221.375 180.492 219.439C180.492 217.504 178.942 215.935 177.03 215.935C175.118 215.935 173.567 217.504 173.567 219.439C173.567 221.375 175.118 222.944 177.03 222.944Z" stroke="#407BFF" stroke-miterlimit="10"/>
<path d="M161.027 243.443H148.734V246.291H161.027V243.443Z" stroke="#407BFF" stroke-miterlimit="10"/>
<path d="M204.032 249.615H148.734V251.516H204.032V249.615Z" stroke="#407BFF" stroke-miterlimit="10"/>
<path d="M204.032 253.888H148.734V255.788H204.032V253.888Z" stroke="#407BFF" stroke-miterlimit="10"/>
<path d="M173.383 258.16H148.734V260.06H173.383V258.16Z" stroke="#407BFF" stroke-miterlimit="10"/>
<path d="M204.032 292.939H148.734V294.839H204.032V292.939Z" stroke="#407BFF" stroke-miterlimit="10"/>
<path d="M204.032 297.211H148.734V299.111H204.032V297.211Z" stroke="#407BFF" stroke-miterlimit="10"/>
<path d="M173.383 301.484H148.734V303.384H173.383V301.484Z" stroke="#407BFF" stroke-miterlimit="10"/>
<path d="M172.078 264.384H148.722V288.032H172.078V264.384Z" stroke="#407BFF" stroke-miterlimit="10"/>
<path d="M148.722 288.032L172.078 264.384" stroke="#407BFF" stroke-miterlimit="10"/>
<path d="M172 288.032L148.645 264.384" stroke="#407BFF" stroke-miterlimit="10"/>
<path d="M202.919 264.599H179.563V288.246H202.919V264.599Z" stroke="#407BFF" stroke-miterlimit="10"/>
<path d="M179.563 288.246L202.919 264.599" stroke="#407BFF" stroke-miterlimit="10"/>
<path d="M202.842 288.246L179.486 264.599" stroke="#407BFF" stroke-miterlimit="10"/>
<path d="M218.032 304.958C218.032 304.958 256.449 297.126 258.029 305.147C260.284 316.591 232.533 323.424 217.882 322.523C203.232 321.623 218.032 304.958 218.032 304.958Z" fill="#263238"/>
<path opacity="0.2" d="M218.032 304.958C218.032 304.958 256.449 297.126 258.029 305.147C260.284 316.591 232.533 323.424 217.882 322.523C203.232 321.623 218.032 304.958 218.032 304.958Z" fill="black"/>
<path opacity="0.2" d="M245.437 307.231L227.187 318.127L229.477 321.605C229.477 321.605 228.163 323.437 225.933 317.62L237.237 310.603C237.237 310.603 233.774 310.152 233.877 309.612C234.052 308.724 241.726 307.248 245.223 306.588C245.266 306.574 245.311 306.568 245.357 306.572C245.402 306.575 245.446 306.588 245.486 306.608C245.526 306.629 245.562 306.657 245.592 306.691C245.621 306.726 245.643 306.766 245.657 306.809C245.672 306.852 245.677 306.897 245.674 306.943C245.67 306.988 245.658 307.032 245.637 307.072C245.617 307.113 245.589 307.149 245.554 307.178C245.52 307.208 245.48 307.23 245.437 307.244V307.231Z" fill="black"/>
<path opacity="0.2" d="M226.575 316.81L229.532 321.957C225.675 322.515 221.775 322.708 217.882 322.532C216.605 322.486 215.345 322.219 214.158 321.743L213.127 319.71L215.618 315.038L226.575 316.81Z" fill="black"/>
<path d="M232.563 314.978L224.448 319.808L225.762 323.729L235.242 319.791L232.563 314.978Z" fill="#895555"/>
<path d="M220.022 320.975L220.72 323.789C220.896 323.838 221.057 323.931 221.188 324.06C221.319 324.188 221.416 324.347 221.469 324.522C221.483 324.94 221.423 325.356 221.294 325.753L223.164 333.5C223.42 333.441 223.667 333.35 223.9 333.23C224.131 333.079 224.342 332.901 224.529 332.698C225.116 332.059 225.206 331.111 225.248 330.407C225.317 329.232 226.104 325.809 226.104 325.809C226.361 325.153 226.795 324.581 227.358 324.158C227.578 324.011 227.76 323.815 227.892 323.586C228.023 323.357 228.1 323.1 228.116 322.837C228.039 322.129 227.542 321.85 226.883 321.91L226.121 321.983C225.859 321.781 225.681 321.487 225.622 321.161C225.563 320.834 225.629 320.497 225.805 320.216C225.805 320.216 226.305 318.556 225.595 318.817C225.193 318.963 223.408 319.701 221.983 320.237L221.062 320.585L220.022 320.975Z" fill="#263238"/>
<path d="M225.749 327.636C225.76 327.614 225.763 327.59 225.759 327.566C225.754 327.542 225.742 327.52 225.723 327.503C225.56 327.345 225.358 327.232 225.137 327.177C225.017 327.152 224.957 327.345 225.077 327.37C225.272 327.418 225.451 327.517 225.595 327.658C225.605 327.669 225.617 327.678 225.631 327.683C225.646 327.689 225.661 327.69 225.676 327.688C225.691 327.686 225.705 327.68 225.717 327.671C225.729 327.662 225.738 327.65 225.745 327.636H225.749Z" fill="#407BFF"/>
<path d="M225.929 326.959C225.939 326.938 225.943 326.914 225.939 326.891C225.935 326.868 225.924 326.846 225.907 326.83C225.744 326.669 225.54 326.556 225.317 326.504C225.197 326.474 225.137 326.667 225.257 326.697C225.453 326.743 225.633 326.841 225.779 326.98C225.788 326.992 225.799 327.001 225.812 327.007C225.825 327.014 225.839 327.017 225.854 327.017C225.868 327.017 225.883 327.014 225.896 327.007C225.909 327.001 225.92 326.992 225.929 326.98V326.959Z" fill="#407BFF"/>
<path d="M226.074 326.277C226.088 326.257 226.095 326.234 226.095 326.21C226.095 326.186 226.088 326.163 226.074 326.144C225.91 325.984 225.706 325.872 225.484 325.818C225.364 325.792 225.304 325.985 225.424 326.011C225.612 326.055 225.786 326.146 225.929 326.277C225.939 326.288 225.951 326.297 225.965 326.302C225.979 326.307 225.995 326.309 226.01 326.307C226.024 326.305 226.039 326.299 226.051 326.29C226.063 326.281 226.072 326.269 226.079 326.255L226.074 326.277Z" fill="#407BFF"/>
<path opacity="0.2" d="M221.054 320.584L220.022 320.975L220.72 323.789C220.896 323.838 221.057 323.931 221.188 324.059C221.319 324.188 221.416 324.347 221.469 324.522C221.483 324.94 221.423 325.356 221.294 325.753L223.164 333.5C223.42 333.441 223.667 333.35 223.9 333.23C224.012 333.156 224.119 333.076 224.221 332.989L221.225 320.55L221.054 320.584Z" fill="white"/>
<path d="M225.967 326.221C226.228 326.126 226.495 326.053 226.768 326.002C227.042 325.955 227.324 325.98 227.585 326.075C227.648 326.092 227.705 326.124 227.751 326.169C227.797 326.214 227.832 326.27 227.85 326.332C227.853 326.4 227.836 326.467 227.803 326.526C227.77 326.585 227.721 326.634 227.662 326.667C227.551 326.736 227.428 326.781 227.299 326.801C227.171 326.821 227.039 326.815 226.913 326.783C226.571 326.645 226.252 326.456 225.967 326.221Z" stroke="#407BFF" stroke-width="0.25" stroke-miterlimit="10"/>
<path d="M225.958 326.186C226.186 326.029 226.398 325.851 226.592 325.655C226.796 325.458 226.944 325.211 227.02 324.938C227.04 324.877 227.045 324.812 227.034 324.749C227.024 324.685 226.998 324.625 226.96 324.574C226.906 324.532 226.84 324.507 226.772 324.501C226.704 324.495 226.636 324.508 226.575 324.539C226.456 324.592 226.348 324.667 226.259 324.761C226.169 324.856 226.099 324.967 226.053 325.088C225.971 325.448 225.945 325.819 225.976 326.186" stroke="#407BFF" stroke-width="0.25" stroke-miterlimit="10"/>
<path d="M234.51 281.096C234.51 281.096 235.537 293.57 235.893 294.247C237.083 296.538 245.309 300.651 245.309 300.651L249.589 299.884L252.559 302.526L250.505 304.044L248.185 303.084C246.891 303.273 245.584 303.349 244.277 303.311C242.082 303.242 231.133 300.501 229.451 297.486C227.769 294.47 227.795 280.482 227.795 280.482L234.51 281.096Z" fill="#895555"/>
<path d="M227.448 285.775C227.448 285.775 224.499 274.76 228.664 271.852C232.828 268.944 235.623 284.047 235.623 284.047L227.448 285.775Z" fill="#407BFF"/>
<path opacity="0.5" d="M227.448 285.775C227.448 285.775 224.499 274.76 228.664 271.852C232.828 268.944 235.623 284.047 235.623 284.047L227.448 285.775Z" fill="white"/>
<path d="M229.438 305.824L229.836 291.352L230.106 271.526L221.649 269.42L215.708 269.364L205.672 272.5L205.329 277.355C205.329 277.355 205.637 299.708 205.565 300.381C205.475 301.2 202.924 306.309 202.924 306.309C213.517 309.063 229.588 306.566 229.438 305.824Z" fill="#407BFF"/>
<path opacity="0.2" d="M229.892 285.261L230.038 276.626L231.553 284.909L229.892 285.261Z" fill="black"/>
<path opacity="0.2" d="M211.805 286.084C212.07 286.042 213.149 285.724 213.149 285.724L210.696 277.312L214.488 286.552L212.019 287.453L211.805 286.084Z" fill="black"/>
<path d="M210.85 279.213C210.85 279.213 212.515 293.076 213.671 294.402C215.627 296.641 225.462 302.723 225.462 302.723L230.508 301.115C230.682 301.063 230.865 301.054 231.042 301.089C231.219 301.123 231.386 301.2 231.527 301.312L234.865 304.027L234.532 304.293C234.459 304.349 234.372 304.383 234.281 304.39C234.19 304.398 234.099 304.379 234.018 304.336L233.496 304.057L234.074 304.658L233.881 304.808C233.785 304.883 233.673 304.935 233.553 304.958C233.433 304.981 233.309 304.975 233.192 304.941L231.677 304.486L233.055 305.464C232.894 305.592 232.704 305.678 232.501 305.714C232.299 305.751 232.091 305.737 231.895 305.674L229.678 304.971C228.143 305.275 226.586 305.452 225.021 305.498C222.385 305.584 210.093 300.866 207.872 297.614C205.65 294.363 203.673 281.066 203.673 281.066L210.85 279.213Z" fill="#895555"/>
<path d="M203.972 288.199C203.972 288.199 201.242 275.601 205.406 272.688C209.57 269.776 213.136 285.724 213.136 285.724L203.972 288.199Z" fill="#407BFF"/>
<path opacity="0.5" d="M203.972 288.199C203.972 288.199 201.242 275.601 205.406 272.688C209.57 269.776 213.136 285.724 213.136 285.724L203.972 288.199Z" fill="white"/>
<path d="M236.838 305.087L229.156 304.859L221.002 304.615C221.002 305.22 221.649 305.73 222.479 305.751L230.611 305.992L235.272 306.129H235.293L248.257 306.511C249.079 306.532 249.755 306.06 249.768 305.46L236.838 305.087Z" fill="#263238"/>
<path d="M248.51 306.464L234.044 306.035C233.938 306.035 233.836 305.997 233.757 305.926C233.678 305.856 233.627 305.758 233.616 305.653C233.62 305.616 233.628 305.58 233.641 305.546L240.511 290.961C240.627 290.743 240.804 290.562 241.021 290.442C241.237 290.322 241.484 290.267 241.731 290.284L256.206 290.713C256.309 290.712 256.41 290.749 256.489 290.816C256.568 290.884 256.619 290.979 256.634 291.082C256.63 291.123 256.62 291.164 256.604 291.202L249.734 305.786C249.617 306.005 249.44 306.186 249.222 306.306C249.005 306.427 248.758 306.481 248.51 306.464Z" fill="#263238"/>
<path opacity="0.7" d="M256.197 290.704L241.722 290.275C241.475 290.258 241.229 290.313 241.012 290.434C240.796 290.554 240.619 290.734 240.502 290.953L233.894 304.997L229.156 304.859L221.002 304.615C221.002 305.22 221.649 305.73 222.479 305.752L230.611 305.992L235.272 306.129H235.293L248.257 306.511C248.503 306.519 248.747 306.478 248.977 306.391C249.136 306.348 249.284 306.271 249.412 306.166C249.54 306.061 249.644 305.93 249.717 305.782L256.586 291.197C256.603 291.159 256.613 291.119 256.616 291.077C256.603 290.975 256.553 290.881 256.476 290.812C256.399 290.744 256.3 290.705 256.197 290.704Z" fill="white"/>
<path d="M247.273 298.318C246.939 299.017 246.289 299.485 245.822 299.373C245.356 299.262 245.244 298.61 245.57 297.906C245.895 297.203 246.545 296.748 247.016 296.86C247.487 296.971 247.607 297.597 247.273 298.318Z" fill="white"/>
<g opacity="0.3">
<path d="M240.502 290.953L233.894 304.997L234.561 305.018L241.722 290.275C241.475 290.258 241.228 290.313 241.012 290.434C240.796 290.554 240.618 290.734 240.502 290.953Z" fill="black"/>
</g>
<path d="M240.348 321.601L249.623 323.381L251.232 319.572L241.529 316.222L240.348 321.601Z" fill="#895555"/>
<path d="M253.71 325.444L255.046 322.871C254.946 322.717 254.887 322.54 254.873 322.357C254.86 322.174 254.892 321.991 254.969 321.824C255.234 321.502 255.554 321.229 255.914 321.018L259.642 313.979C259.412 313.851 259.166 313.753 258.91 313.687C258.637 313.655 258.362 313.655 258.089 313.687C257.233 313.777 256.531 314.425 256.034 314.922C255.204 315.759 252.358 317.805 252.358 317.805C251.73 318.123 251.026 318.262 250.325 318.208C250.063 318.172 249.797 318.197 249.547 318.281C249.297 318.365 249.069 318.506 248.882 318.693C248.476 319.272 248.664 319.812 249.195 320.203L249.811 320.657C249.875 320.983 249.815 321.32 249.643 321.603C249.471 321.887 249.2 322.095 248.882 322.189C248.882 322.189 247.41 323.102 248.112 323.377C248.514 323.531 250.333 324.166 251.754 324.711L252.679 325.063L253.71 325.444Z" fill="#263238"/>
<path d="M253.826 316.655C253.804 316.664 253.786 316.68 253.773 316.7C253.761 316.72 253.755 316.743 253.757 316.767C253.774 316.994 253.851 317.214 253.98 317.402C254.052 317.505 254.224 317.402 254.155 317.299C254.038 317.133 253.968 316.939 253.954 316.737C253.954 316.722 253.95 316.708 253.943 316.695C253.936 316.682 253.926 316.671 253.913 316.663C253.901 316.655 253.887 316.65 253.873 316.649C253.858 316.647 253.843 316.65 253.83 316.655H253.826Z" fill="#407BFF"/>
<path d="M253.248 317.041C253.225 317.05 253.206 317.066 253.193 317.087C253.181 317.108 253.176 317.133 253.179 317.157C253.194 317.385 253.271 317.605 253.402 317.792C253.475 317.891 253.646 317.792 253.573 317.685C253.457 317.521 253.389 317.328 253.376 317.127C253.376 317.112 253.372 317.097 253.365 317.084C253.357 317.071 253.347 317.059 253.334 317.051C253.322 317.042 253.307 317.037 253.292 317.035C253.277 317.034 253.262 317.036 253.248 317.041Z" fill="#407BFF"/>
<path d="M252.679 317.458C252.657 317.467 252.638 317.484 252.626 317.504C252.614 317.525 252.608 317.549 252.61 317.573C252.627 317.801 252.704 318.02 252.833 318.208C252.906 318.307 253.077 318.208 253.008 318.101C252.892 317.937 252.822 317.744 252.807 317.543C252.807 317.529 252.803 317.514 252.796 317.502C252.789 317.489 252.779 317.478 252.767 317.469C252.754 317.461 252.741 317.456 252.726 317.454C252.712 317.452 252.697 317.453 252.683 317.458H252.679Z" fill="#407BFF"/>
<path opacity="0.2" d="M254.969 321.828C255.234 321.506 255.554 321.233 255.915 321.022L259.642 313.983C259.412 313.855 259.166 313.757 258.911 313.691C258.769 313.691 258.641 313.666 258.513 313.661L252.521 324.994L252.675 325.05L253.706 325.445L255.041 322.871C254.943 322.717 254.885 322.541 254.872 322.359C254.86 322.177 254.893 321.994 254.969 321.828Z" fill="white"/>
<path d="M252.726 317.569C252.469 317.465 252.22 317.342 251.981 317.2C251.743 317.055 251.548 316.849 251.416 316.604C251.382 316.549 251.361 316.487 251.357 316.423C251.352 316.358 251.364 316.294 251.39 316.235C251.432 316.182 251.488 316.142 251.552 316.119C251.615 316.096 251.684 316.092 251.75 316.106C251.88 316.131 252.004 316.181 252.115 316.255C252.225 316.329 252.319 316.424 252.392 316.535C252.554 316.867 252.667 317.221 252.726 317.586" stroke="#407BFF" stroke-width="0.25" stroke-miterlimit="10"/>
<path d="M252.709 317.599C252.434 317.573 252.157 317.573 251.883 317.599C251.605 317.617 251.336 317.707 251.104 317.861C251.048 317.893 251.001 317.939 250.967 317.993C250.932 318.048 250.912 318.11 250.907 318.174C250.92 318.241 250.951 318.303 250.997 318.353C251.043 318.403 251.102 318.439 251.168 318.457C251.292 318.497 251.423 318.511 251.553 318.5C251.683 318.489 251.81 318.453 251.925 318.393C252.224 318.177 252.488 317.916 252.709 317.621" stroke="#407BFF" stroke-width="0.25" stroke-miterlimit="10"/>
<path d="M205.462 316.308C203.549 313.044 199.26 304.216 208.53 302.796C217.801 301.376 248.159 316.951 248.159 316.951L246.019 322.785L217.493 317.41C217.493 317.41 221.259 322.772 216.508 322.39C209.622 321.502 208.013 319.791 205.462 316.308Z" fill="#263238"/>
<path opacity="0.2" d="M218.182 317.586L210.388 314.875C210.388 314.875 216.868 319.113 219.273 319.667L218.182 317.586Z" fill="black"/>
<path d="M214.021 270.78C216.114 268.768 215.695 263.307 215.139 260.485L221.734 265.581C221.601 265.91 221.491 266.248 221.404 266.593C221.229 267.212 221.212 267.866 221.357 268.493C221.503 269.008 222.166 270.428 222.166 270.428C222.166 270.428 222.594 272.036 218.314 272.208C216.427 272.491 214.021 270.78 214.021 270.78Z" fill="#895555"/>
<path opacity="0.2" d="M216.431 263.316C216.243 266.653 219.654 268.069 221.362 268.502C221.215 267.876 221.231 267.223 221.409 266.606L216.431 263.316Z" fill="black"/>
<path d="M213.919 258.074C214.921 261.935 215.404 264.152 217.827 265.765C221.469 268.189 225.993 265.521 226.203 261.416C226.391 257.718 224.722 252.005 220.48 251.224C219.554 251.035 218.595 251.084 217.692 251.367C216.79 251.649 215.973 252.156 215.318 252.839C214.664 253.523 214.192 254.361 213.947 255.276C213.703 256.192 213.693 257.154 213.919 258.074Z" fill="#895555"/>
<path d="M212.232 252.798C212.382 250.379 218.319 249.238 220.206 250.104C220.489 250.237 217.3 252.618 217.497 252.502L215.948 253.36C215.682 253.36 215.237 253.738 215.126 254.557C215.126 254.557 216.547 260.944 215.036 263.157C213.397 262.728 212.819 260.198 212.04 258.769C210.91 256.654 209.425 253.506 212.232 252.798Z" fill="#263238"/>
<path d="M212.956 261.639C213.203 262.078 213.534 262.464 213.931 262.774C214.328 263.084 214.782 263.312 215.267 263.445C216.581 263.801 216.782 262.437 216.431 261.223C216.115 260.133 215.52 258.842 214.193 259.018C213.906 259.053 213.634 259.161 213.4 259.33C213.166 259.5 212.978 259.726 212.855 259.987C212.731 260.249 212.676 260.537 212.694 260.826C212.711 261.115 212.802 261.394 212.956 261.639Z" fill="#895555"/>
<path d="M219.389 257.954C219.466 258.357 219.748 258.636 220.014 258.585C220.279 258.533 220.442 258.156 220.365 257.761C220.288 257.366 220.005 257.079 219.736 257.13C219.466 257.182 219.312 257.555 219.389 257.954Z" fill="#263238"/>
<path d="M223.459 257.482C223.536 257.886 223.815 258.169 224.084 258.113C224.354 258.057 224.512 257.684 224.435 257.289C224.358 256.895 224.076 256.607 223.806 256.659C223.536 256.71 223.382 257.083 223.459 257.482Z" fill="#263238"/>
<path d="M222.599 257.465C222.599 257.465 224.289 259.215 224.863 259.949C224.388 260.558 223.352 260.511 223.352 260.511L222.599 257.465Z" fill="#6D3939"/>
<path d="M218.528 256.419C218.562 256.425 218.597 256.423 218.63 256.413C218.663 256.402 218.693 256.384 218.717 256.358C218.877 256.171 219.078 256.024 219.305 255.926C219.531 255.829 219.776 255.785 220.022 255.797C220.074 255.804 220.126 255.791 220.168 255.761C220.211 255.731 220.24 255.685 220.249 255.634C220.255 255.583 220.241 255.532 220.21 255.492C220.178 255.452 220.132 255.426 220.082 255.419C219.771 255.398 219.46 255.449 219.173 255.569C218.885 255.688 218.629 255.874 218.426 256.11C218.408 256.127 218.394 256.148 218.384 256.17C218.374 256.193 218.369 256.218 218.369 256.243C218.369 256.268 218.374 256.292 218.384 256.315C218.394 256.338 218.408 256.358 218.426 256.376C218.454 256.401 218.49 256.416 218.528 256.419Z" fill="#263238"/>
<path opacity="0.2" d="M213.667 260.382C213.737 260.253 213.843 260.146 213.972 260.075C214.101 260.005 214.247 259.973 214.394 259.983C214.689 260.012 214.965 260.141 215.177 260.348C215.434 260.581 215.625 260.876 215.734 261.206" stroke="black" stroke-width="0.5" stroke-linecap="round" stroke-linejoin="round"/>
<path d="M225.415 255.41C225.45 255.395 225.481 255.372 225.505 255.342C225.519 255.321 225.529 255.297 225.534 255.272C225.539 255.247 225.539 255.222 225.534 255.197C225.528 255.172 225.518 255.149 225.504 255.128C225.489 255.107 225.471 255.089 225.449 255.076C225.194 254.902 224.901 254.791 224.594 254.752C224.288 254.713 223.977 254.748 223.686 254.853C223.662 254.862 223.641 254.876 223.622 254.894C223.604 254.912 223.59 254.933 223.58 254.957C223.57 254.98 223.565 255.006 223.564 255.031C223.564 255.057 223.569 255.082 223.579 255.106C223.601 255.153 223.639 255.189 223.687 255.208C223.735 255.226 223.789 255.225 223.836 255.205C224.067 255.122 224.314 255.097 224.557 255.13C224.8 255.164 225.031 255.256 225.231 255.398C225.259 255.414 225.29 255.424 225.322 255.426C225.354 255.429 225.386 255.423 225.415 255.41Z" fill="#263238"/>
<path d="M223.28 261.862C222.967 262.316 222.689 262.794 222.449 263.29L222.171 263.205C220.913 262.806 220.459 262.205 220.343 261.66C220.293 261.391 220.304 261.114 220.378 260.85C220.417 260.699 220.476 260.555 220.553 260.421C221.097 261.034 222.235 261.493 222.856 261.707C223.125 261.802 223.28 261.862 223.28 261.862Z" fill="#263238"/>
<path d="M222.868 261.712L222.612 262.141C221.43 261.763 220.651 261.343 220.395 260.854C220.432 260.703 220.491 260.558 220.57 260.425C221.114 261.034 222.248 261.506 222.868 261.712Z" fill="white"/>
<path d="M222.184 263.196C220.925 262.797 220.472 262.196 220.356 261.652C220.825 261.811 221.262 262.052 221.649 262.364C221.91 262.577 222.098 262.869 222.184 263.196Z" fill="#C15854"/>
<path d="M214.146 252.129C214.146 252.129 215.965 246.154 221.422 246.295C220.931 246.495 220.483 246.787 220.099 247.153C220.099 247.153 224.615 245.905 226.639 248.869L225.663 248.522C225.663 248.522 227.32 250.975 226.276 252.996L225.848 252.138C225.848 252.138 224.397 254.819 221.469 254.673L222.346 253.999C222.346 253.999 217.493 254.741 216.093 253.733C215.387 253.272 214.734 252.734 214.146 252.129Z" fill="#263238"/>
</g>
<path d="M152.047 58.5V53.7244C155.878 50.7025 159.493 47.6536 162.893 44.5778C166.346 41.502 169.395 38.4531 172.039 35.4312C174.738 32.3554 176.842 29.3605 178.353 26.4466C179.918 23.5326 180.7 20.7266 180.7 18.0285C180.7 16.0319 180.35 14.1972 179.648 12.5244C179.001 10.7976 177.921 9.39456 176.41 8.31532C174.899 7.23608 172.849 6.69646 170.259 6.69646C167.776 6.69646 165.699 7.26306 164.026 8.39627C162.353 9.47551 161.085 10.9325 160.222 12.7672C159.412 14.5479 159.008 16.5176 159.008 18.676H152.451C152.505 14.9527 153.288 11.7689 154.799 9.12475C156.363 6.42665 158.495 4.3761 161.193 2.97308C163.891 1.57007 166.94 0.868566 170.34 0.868566C173.685 0.868566 176.653 1.51611 179.243 2.8112C181.834 4.05232 183.857 5.91401 185.314 8.39627C186.771 10.8785 187.5 14.0083 187.5 17.7857C187.5 20.4298 186.96 23.0739 185.881 25.7181C184.801 28.3622 183.344 30.9524 181.51 33.4886C179.675 35.9709 177.652 38.3722 175.439 40.6925C173.227 43.0129 170.96 45.1984 168.64 47.2489C166.319 49.2995 164.134 51.1612 162.083 52.834H189.442V58.5H152.047Z" fill="#E2E2E2"/>
<defs>
<clipPath id="clip0_2156_9241">
<rect width="214" height="177" fill="white" transform="translate(69.2808 156.5)"/>
</clipPath>
</defs>
</svg>
