<svg width="330" height="363" viewBox="0 0 330 363" fill="none" xmlns="http://www.w3.org/2000/svg">
<path d="M42.2276 111.89C40.8936 111.89 39.7216 111.598 38.7114 111.016C37.7012 110.42 36.9112 109.597 36.3414 108.548C35.7715 107.486 35.4866 106.256 35.4866 104.857C35.4866 103.472 35.7715 102.254 36.3414 101.205C36.9112 100.143 37.7012 99.3145 38.7114 98.7187C39.7216 98.123 40.8936 97.8251 42.2276 97.8251C43.5615 97.8251 44.7336 98.123 45.7437 98.7187C46.7668 99.3145 47.5569 100.143 48.1137 101.205C48.6836 102.254 48.9685 103.472 48.9685 104.857C48.9685 106.256 48.6836 107.486 48.1137 108.548C47.5569 109.597 46.7668 110.42 45.7437 111.016C44.7336 111.598 43.5615 111.89 42.2276 111.89ZM42.2276 109.792C43.1082 109.792 43.8723 109.597 44.5199 109.209C45.1804 108.807 45.6919 108.238 46.0546 107.499C46.4172 106.761 46.5985 105.881 46.5985 104.857C46.5985 103.834 46.4172 102.954 46.0546 102.215C45.6919 101.477 45.1804 100.914 44.5199 100.525C43.8723 100.124 43.1082 99.9232 42.2276 99.9232C41.3469 99.9232 40.5763 100.124 39.9158 100.525C39.2683 100.914 38.7632 101.477 38.4006 102.215C38.038 102.954 37.8566 103.834 37.8566 104.857C37.8566 105.881 38.038 106.761 38.4006 107.499C38.7632 108.238 39.2683 108.807 39.9158 109.209C40.5763 109.597 41.3469 109.792 42.2276 109.792ZM51.2245 111.657V98.0582H53.5557L60.1024 107.888V98.0582H62.4335V111.657H60.1024L53.5557 101.846V111.657H51.2245ZM65.1303 111.657V98.0582H70.4725C71.4179 98.0582 72.208 98.2072 72.8425 98.5051C73.4901 98.8029 73.9757 99.2174 74.2995 99.7483C74.6233 100.266 74.7852 100.869 74.7852 101.555C74.7852 102.241 74.6362 102.818 74.3384 103.284C74.0405 103.75 73.6455 104.106 73.1534 104.352C72.6742 104.598 72.1497 104.747 71.5798 104.799L71.8712 104.585C72.4799 104.598 73.0303 104.76 73.5225 105.071C74.0146 105.382 74.3967 105.79 74.6686 106.295C74.9535 106.787 75.096 107.338 75.096 107.946C75.096 108.659 74.9212 109.3 74.5715 109.869C74.2348 110.426 73.7362 110.867 73.0757 111.19C72.4152 111.501 71.6057 111.657 70.6474 111.657H65.1303ZM67.4615 109.753H70.2977C71.0747 109.753 71.6705 109.572 72.0849 109.209C72.5123 108.846 72.726 108.341 72.726 107.694C72.726 107.046 72.5058 106.535 72.0655 106.159C71.6381 105.77 71.0359 105.576 70.2588 105.576H67.4615V109.753ZM67.4615 103.808H70.1423C70.8805 103.808 71.4439 103.64 71.8324 103.303C72.2209 102.954 72.4152 102.474 72.4152 101.866C72.4152 101.27 72.2209 100.804 71.8324 100.467C71.4439 100.117 70.8675 99.9426 70.1034 99.9426H67.4615V103.808ZM83.5844 111.89C82.2504 111.89 81.0784 111.598 80.0682 111.016C79.0581 110.42 78.2681 109.597 77.6982 108.548C77.1284 107.486 76.8435 106.256 76.8435 104.857C76.8435 103.472 77.1284 102.254 77.6982 101.205C78.2681 100.143 79.0581 99.3145 80.0682 98.7187C81.0784 98.123 82.2504 97.8251 83.5844 97.8251C84.9183 97.8251 86.0904 98.123 87.1006 98.7187C88.1237 99.3145 88.9137 100.143 89.4706 101.205C90.0404 102.254 90.3253 103.472 90.3253 104.857C90.3253 106.256 90.0404 107.486 89.4706 108.548C88.9137 109.597 88.1237 110.42 87.1006 111.016C86.0904 111.598 84.9183 111.89 83.5844 111.89ZM83.5844 109.792C84.4651 109.792 85.2292 109.597 85.8767 109.209C86.5372 108.807 87.0488 108.238 87.4114 107.499C87.774 106.761 87.9553 105.881 87.9553 104.857C87.9553 103.834 87.774 102.954 87.4114 102.215C87.0488 101.477 86.5372 100.914 85.8767 100.525C85.2292 100.124 84.4651 99.9232 83.5844 99.9232C82.7037 99.9232 81.9332 100.124 81.2727 100.525C80.6251 100.914 80.12 101.477 79.7574 102.215C79.3948 102.954 79.2135 103.834 79.2135 104.857C79.2135 105.881 79.3948 106.761 79.7574 107.499C80.12 108.238 80.6251 108.807 81.2727 109.209C81.9332 109.597 82.7037 109.792 83.5844 109.792ZM90.7961 111.657L95.7887 98.0582H98.3918L103.365 111.657H100.898L97.0708 100.778L93.2438 111.657H90.7961ZM93.0301 108.451L93.6518 106.606H100.354L100.976 108.451H93.0301ZM105.197 111.657V98.0582H110.073C111.161 98.0582 112.055 98.246 112.754 98.6216C113.453 98.9842 113.971 99.4764 114.308 100.098C114.658 100.707 114.833 101.4 114.833 102.177C114.833 102.902 114.664 103.575 114.327 104.197C113.991 104.819 113.466 105.317 112.754 105.693C112.055 106.068 111.148 106.256 110.034 106.256H107.528V111.657H105.197ZM112.288 111.657L109.432 105.654H111.977L114.969 111.657H112.288ZM107.528 104.527H109.918C110.785 104.527 111.42 104.32 111.821 103.906C112.236 103.478 112.443 102.921 112.443 102.235C112.443 101.561 112.242 101.024 111.841 100.623C111.439 100.208 110.798 100.001 109.918 100.001H107.528V104.527ZM117.225 111.657V98.0582H121.712C123.292 98.0582 124.6 98.3367 125.636 98.8936C126.672 99.4505 127.436 100.24 127.929 101.264C128.434 102.274 128.686 103.478 128.686 104.877C128.686 106.25 128.434 107.448 127.929 108.471C127.436 109.481 126.672 110.264 125.636 110.821C124.6 111.378 123.292 111.657 121.712 111.657H117.225ZM119.556 109.675H121.596C122.774 109.675 123.707 109.487 124.393 109.112C125.079 108.723 125.565 108.173 125.85 107.461C126.148 106.735 126.297 105.874 126.297 104.877C126.297 103.867 126.148 103.005 125.85 102.293C125.565 101.568 125.079 101.011 124.393 100.623C123.707 100.221 122.774 100.02 121.596 100.02H119.556V109.675ZM130.922 111.657V98.0582H133.253V111.657H130.922ZM135.949 111.657V98.0582H138.28L144.827 107.888V98.0582H147.158V111.657H144.827L138.28 101.846V111.657H135.949ZM155.78 111.89C154.498 111.89 153.378 111.598 152.419 111.016C151.461 110.433 150.716 109.623 150.185 108.587C149.654 107.538 149.389 106.314 149.389 104.916C149.389 103.53 149.661 102.306 150.205 101.244C150.748 100.169 151.526 99.3339 152.536 98.7382C153.546 98.1295 154.75 97.8251 156.149 97.8251C157.729 97.8251 159.044 98.2072 160.093 98.9713C161.142 99.7224 161.815 100.771 162.113 102.118H159.49C159.296 101.445 158.914 100.92 158.344 100.545C157.774 100.169 157.043 99.9815 156.149 99.9815C155.229 99.9815 154.439 100.182 153.779 100.584C153.118 100.972 152.613 101.542 152.264 102.293C151.927 103.031 151.759 103.912 151.759 104.935C151.759 105.958 151.927 106.839 152.264 107.577C152.613 108.315 153.106 108.879 153.74 109.267C154.388 109.643 155.132 109.831 155.974 109.831C157.243 109.831 158.202 109.474 158.849 108.762C159.51 108.05 159.898 107.124 160.015 105.984H156.499V104.216H162.365V111.657H160.209L160.034 109.792C159.736 110.232 159.387 110.614 158.985 110.938C158.597 111.249 158.137 111.488 157.606 111.657C157.088 111.812 156.479 111.89 155.78 111.89ZM179.939 111.657L172.479 104.216C171.871 103.621 171.443 103.083 171.197 102.604C170.951 102.112 170.828 101.587 170.828 101.03C170.828 100.422 170.977 99.8778 171.275 99.3987C171.573 98.9065 172.007 98.5245 172.576 98.2525C173.146 97.9676 173.833 97.8251 174.636 97.8251C175.439 97.8251 176.118 97.9741 176.675 98.2719C177.232 98.5698 177.66 98.9648 177.957 99.4569C178.255 99.9491 178.391 100.506 178.365 101.128H176.131C176.144 100.623 175.995 100.247 175.685 100.001C175.387 99.7548 175.031 99.6318 174.616 99.6318C174.15 99.6318 173.774 99.7613 173.489 100.02C173.205 100.266 173.062 100.597 173.062 101.011C173.062 101.361 173.166 101.71 173.373 102.06C173.58 102.41 173.891 102.805 174.305 103.245L182.736 111.657H179.939ZM173.839 111.89C172.868 111.89 172.013 111.721 171.275 111.385C170.55 111.035 169.986 110.549 169.585 109.928C169.183 109.293 168.983 108.561 168.983 107.733C168.983 107.072 169.119 106.463 169.39 105.906C169.662 105.35 170.07 104.857 170.614 104.43C171.158 103.99 171.832 103.64 172.635 103.381L173.528 103.09L174.597 104.547L173.723 104.838C172.894 105.123 172.279 105.499 171.877 105.965C171.476 106.431 171.275 106.975 171.275 107.597C171.275 108.037 171.378 108.438 171.586 108.801C171.806 109.164 172.117 109.449 172.518 109.656C172.92 109.85 173.392 109.947 173.936 109.947C174.661 109.947 175.309 109.792 175.879 109.481C176.462 109.157 177.025 108.646 177.569 107.946C177.815 107.635 178.061 107.279 178.307 106.878C178.566 106.463 178.825 106.004 179.084 105.499L179.55 104.605H181.94L181.221 105.984C180.884 106.658 180.541 107.273 180.192 107.83C179.855 108.374 179.505 108.866 179.142 109.306C178.391 110.213 177.588 110.873 176.734 111.288C175.879 111.689 174.914 111.89 173.839 111.89ZM189.201 111.657V98.0582H193.688C195.268 98.0582 196.576 98.3367 197.612 98.8936C198.648 99.4505 199.413 100.24 199.905 101.264C200.41 102.274 200.662 103.478 200.662 104.877C200.662 106.25 200.41 107.448 199.905 108.471C199.413 109.481 198.648 110.264 197.612 110.821C196.576 111.378 195.268 111.657 193.688 111.657H189.201ZM191.532 109.675H193.572C194.75 109.675 195.683 109.487 196.369 109.112C197.055 108.723 197.541 108.173 197.826 107.461C198.124 106.735 198.273 105.874 198.273 104.877C198.273 103.867 198.124 103.005 197.826 102.293C197.541 101.568 197.055 101.011 196.369 100.623C195.683 100.221 194.75 100.02 193.572 100.02H191.532V109.675ZM202.898 111.657V98.0582H205.229V111.657H202.898ZM212.51 111.89C211.513 111.89 210.632 111.715 209.868 111.365C209.117 111.016 208.521 110.517 208.081 109.869C207.653 109.222 207.433 108.451 207.42 107.558H209.887C209.9 108.011 210.01 108.419 210.217 108.782C210.425 109.131 210.716 109.41 211.092 109.617C211.48 109.824 211.946 109.928 212.49 109.928C212.957 109.928 213.358 109.857 213.695 109.714C214.044 109.559 214.31 109.345 214.491 109.073C214.686 108.788 214.783 108.458 214.783 108.082C214.783 107.655 214.679 107.299 214.472 107.014C214.278 106.729 213.999 106.496 213.637 106.314C213.287 106.12 212.885 105.952 212.432 105.809C211.979 105.654 211.5 105.492 210.995 105.324C209.933 104.961 209.13 104.501 208.586 103.944C208.042 103.375 207.77 102.617 207.77 101.672C207.77 100.882 207.958 100.202 208.333 99.6318C208.709 99.0619 209.24 98.6216 209.926 98.3108C210.612 97.987 211.396 97.8251 212.277 97.8251C213.183 97.8251 213.973 97.987 214.647 98.3108C215.333 98.6346 215.871 99.0878 216.259 99.6706C216.661 100.24 216.868 100.927 216.881 101.73H214.394C214.381 101.393 214.291 101.082 214.122 100.797C213.954 100.499 213.708 100.26 213.384 100.079C213.073 99.8843 212.691 99.7872 212.238 99.7872C211.862 99.7742 211.519 99.839 211.208 99.9815C210.897 100.111 210.651 100.305 210.47 100.564C210.302 100.81 210.217 101.121 210.217 101.497C210.217 101.859 210.302 102.164 210.47 102.41C210.638 102.643 210.872 102.844 211.169 103.012C211.48 103.167 211.843 103.316 212.257 103.459C212.672 103.601 213.125 103.757 213.617 103.925C214.291 104.145 214.899 104.417 215.443 104.741C216 105.052 216.44 105.46 216.764 105.965C217.088 106.47 217.25 107.124 217.25 107.927C217.25 108.626 217.069 109.28 216.706 109.889C216.343 110.485 215.812 110.97 215.113 111.346C214.414 111.708 213.546 111.89 212.51 111.89ZM225.559 111.89C224.199 111.89 223.027 111.598 222.043 111.016C221.071 110.42 220.32 109.597 219.789 108.548C219.271 107.486 219.012 106.263 219.012 104.877C219.012 103.478 219.271 102.254 219.789 101.205C220.32 100.143 221.071 99.3145 222.043 98.7187C223.027 98.123 224.199 97.8251 225.559 97.8251C227.178 97.8251 228.499 98.2266 229.522 99.0296C230.558 99.8196 231.206 100.94 231.465 102.39H228.9C228.732 101.626 228.363 101.024 227.793 100.584C227.236 100.143 226.485 99.9232 225.54 99.9232C224.685 99.9232 223.947 100.124 223.325 100.525C222.703 100.914 222.224 101.484 221.887 102.235C221.551 102.973 221.382 103.854 221.382 104.877C221.382 105.9 221.551 106.781 221.887 107.519C222.224 108.244 222.703 108.807 223.325 109.209C223.947 109.597 224.685 109.792 225.54 109.792C226.485 109.792 227.236 109.591 227.793 109.19C228.35 108.775 228.719 108.205 228.9 107.48H231.465C231.206 108.853 230.558 109.934 229.522 110.724C228.499 111.501 227.178 111.89 225.559 111.89ZM240 111.89C238.667 111.89 237.494 111.598 236.484 111.016C235.474 110.42 234.684 109.597 234.114 108.548C233.544 107.486 233.26 106.256 233.26 104.857C233.26 103.472 233.544 102.254 234.114 101.205C234.684 100.143 235.474 99.3145 236.484 98.7187C237.494 98.123 238.667 97.8251 240 97.8251C241.334 97.8251 242.506 98.123 243.517 98.7187C244.54 99.3145 245.33 100.143 245.887 101.205C246.456 102.254 246.741 103.472 246.741 104.857C246.741 106.256 246.456 107.486 245.887 108.548C245.33 109.597 244.54 110.42 243.517 111.016C242.506 111.598 241.334 111.89 240 111.89ZM240 109.792C240.881 109.792 241.645 109.597 242.293 109.209C242.953 108.807 243.465 108.238 243.827 107.499C244.19 106.761 244.371 105.881 244.371 104.857C244.371 103.834 244.19 102.954 243.827 102.215C243.465 101.477 242.953 100.914 242.293 100.525C241.645 100.124 240.881 99.9232 240 99.9232C239.12 99.9232 238.349 100.124 237.689 100.525C237.041 100.914 236.536 101.477 236.173 102.215C235.811 102.954 235.63 103.834 235.63 104.857C235.63 105.881 235.811 106.761 236.173 107.499C236.536 108.238 237.041 108.807 237.689 109.209C238.349 109.597 239.12 109.792 240 109.792ZM252.486 111.657L247.494 98.0582H250L253.904 109.267L257.848 98.0582H260.315L255.322 111.657H252.486ZM262.012 111.657V98.0582H270.792V99.9426H264.343V103.847H270.209V105.693H264.343V109.772H270.792V111.657H262.012ZM273.223 111.657V98.0582H278.099C279.187 98.0582 280.081 98.246 280.78 98.6216C281.48 98.9842 281.998 99.4764 282.334 100.098C282.684 100.707 282.859 101.4 282.859 102.177C282.859 102.902 282.691 103.575 282.354 104.197C282.017 104.819 281.493 105.317 280.78 105.693C280.081 106.068 279.174 106.256 278.061 106.256H275.555V111.657H273.223ZM280.314 111.657L277.458 105.654H280.003L282.995 111.657H280.314ZM275.555 104.527H277.944C278.812 104.527 279.446 104.32 279.848 103.906C280.262 103.478 280.469 102.921 280.469 102.235C280.469 101.561 280.269 101.024 279.867 100.623C279.466 100.208 278.825 100.001 277.944 100.001H275.555V104.527ZM288.235 111.657V106.761L283.689 98.0582H286.331L289.731 105.071H289.109L292.49 98.0582H295.093L290.566 106.761V111.657H288.235Z" fill="#E2E2E2"/>
<g clip-path="url(#clip0_2156_10281)">
<path d="M265.851 326.189H102.531C101.359 326.187 100.235 325.714 99.4061 324.875C98.5776 324.036 98.1125 322.898 98.1128 321.713V222.28C98.1128 221.095 98.578 219.957 99.4063 219.118C100.235 218.278 101.358 217.805 102.531 217.802H265.851C267.025 217.802 268.152 218.274 268.982 219.114C269.813 219.954 270.28 221.093 270.281 222.28V321.713C270.28 322.301 270.166 322.883 269.943 323.426C269.72 323.969 269.394 324.463 268.982 324.878C268.571 325.294 268.083 325.624 267.545 325.849C267.008 326.073 266.432 326.189 265.851 326.189Z" fill="#25495F"/>
<path d="M258.421 321.259H109.965C109.436 321.259 108.913 321.154 108.424 320.949C107.935 320.745 107.491 320.445 107.118 320.067C106.744 319.688 106.447 319.24 106.245 318.746C106.042 318.251 105.938 317.722 105.938 317.187V226.805C105.938 225.725 106.363 224.689 107.118 223.926C107.873 223.162 108.897 222.733 109.965 222.733H258.421C259.489 222.733 260.513 223.162 261.268 223.926C262.023 224.689 262.447 225.725 262.447 226.805V317.187C262.448 317.722 262.344 318.251 262.141 318.746C261.939 319.24 261.642 319.688 261.268 320.067C260.895 320.445 260.451 320.745 259.962 320.949C259.473 321.154 258.95 321.259 258.421 321.259Z" fill="#3C6C8A"/>
<path d="M258.421 321.259H109.965C109.436 321.259 108.913 321.154 108.424 320.949C107.935 320.745 107.491 320.445 107.118 320.067C106.744 319.688 106.447 319.24 106.245 318.746C106.042 318.251 105.938 317.722 105.938 317.187V226.805C105.938 225.725 106.363 224.689 107.118 223.926C107.873 223.162 108.897 222.733 109.965 222.733H258.421C259.489 222.733 260.513 223.162 261.268 223.926C262.023 224.689 262.447 225.725 262.447 226.805V317.187C262.448 317.722 262.344 318.251 262.141 318.746C261.939 319.24 261.642 319.688 261.268 320.067C260.895 320.445 260.451 320.745 259.962 320.949C259.473 321.154 258.95 321.259 258.421 321.259Z" fill="url(#paint0_linear_2156_10281)"/>
<path d="M265.975 326.189H102.415C101.274 326.189 100.18 325.73 99.3729 324.914C98.5661 324.099 98.1128 322.992 98.1128 321.838V296.685H270.281V321.837C270.281 322.409 270.169 322.975 269.953 323.503C269.737 324.031 269.42 324.511 269.02 324.915C268.62 325.319 268.145 325.64 267.623 325.858C267.1 326.077 266.54 326.189 265.975 326.189Z" fill="#19425D"/>
<path d="M189.927 311.942C189.927 313.089 189.59 314.21 188.96 315.163C188.33 316.117 187.435 316.86 186.387 317.299C185.339 317.737 184.187 317.852 183.074 317.628C181.962 317.405 180.941 316.853 180.139 316.042C179.337 315.231 178.791 314.198 178.57 313.073C178.348 311.949 178.462 310.783 178.896 309.724C179.33 308.665 180.065 307.759 181.008 307.122C181.95 306.485 183.059 306.145 184.193 306.145C185.714 306.145 187.172 306.756 188.247 307.843C189.322 308.93 189.927 310.405 189.927 311.942Z" fill="#000F2B"/>
<path d="M202.138 326.188H166.247V350.008H202.138V326.188Z" fill="#02253D"/>
<path d="M219.244 346.532H149.142V355.11H219.244V346.532Z" fill="#1F4C69"/>
<path d="M190.453 297.164H197.081C195.603 296.083 194.502 294.556 193.935 292.803C193.369 291.05 193.366 289.16 193.928 287.406C194.49 285.651 195.587 284.121 197.062 283.037C198.538 281.952 200.315 281.367 202.139 281.367C203.963 281.367 205.74 281.952 207.215 283.037C208.69 284.121 209.787 285.651 210.349 287.406C210.911 289.16 210.908 291.05 210.342 292.803C209.776 294.556 208.674 296.083 207.197 297.164H213.824C214.601 295.855 215.155 294.425 215.465 292.931H219.039V287.288H215.47C215.122 285.612 214.467 284.017 213.538 282.585L216.063 280.03L212.114 276.03L209.586 278.583C208.17 277.645 206.592 276.983 204.935 276.632V273.022H199.354V276.632C197.694 276.982 196.114 277.644 194.696 278.583L192.166 276.03L188.226 280.028L190.751 282.583C189.823 284.015 189.168 285.61 188.82 287.285H185.252V292.929H188.82C189.129 294.422 189.681 295.853 190.453 297.164Z" fill="url(#paint1_linear_2156_10281)"/>
<path d="M198.842 297.164H205.435C207.023 296.406 208.308 295.125 209.079 293.53C209.851 291.935 210.062 290.122 209.678 288.39C209.294 286.658 208.338 285.109 206.968 284C205.597 282.89 203.894 282.286 202.138 282.286C200.382 282.286 198.679 282.89 197.309 284C195.938 285.109 194.982 286.658 194.599 288.39C194.215 290.122 194.426 291.935 195.197 293.53C195.968 295.125 197.253 296.406 198.841 297.164H198.842ZM202.139 283.913C203.35 283.913 204.534 284.276 205.541 284.957C206.549 285.637 207.334 286.604 207.798 287.735C208.261 288.867 208.383 290.112 208.147 291.313C207.91 292.515 207.327 293.618 206.471 294.484C205.614 295.35 204.523 295.94 203.335 296.179C202.147 296.418 200.916 296.296 199.796 295.827C198.677 295.358 197.721 294.565 197.048 293.546C196.375 292.528 196.016 291.331 196.016 290.106C196.016 288.464 196.661 286.889 197.809 285.728C198.957 284.566 200.515 283.914 202.139 283.913Z" fill="url(#paint2_linear_2156_10281)"/>
<path d="M180.298 254.262V247.523H176.03C175.617 245.518 174.834 243.61 173.723 241.897L176.747 238.846L172.032 234.081L169.009 237.131C167.314 236.008 165.427 235.216 163.444 234.797V230.483H156.779V234.797C154.795 235.217 152.908 236.008 151.213 237.131L148.198 234.081L143.484 238.846L146.501 241.897C145.391 243.61 144.609 245.518 144.197 247.523H139.929V254.262H144.197C144.609 256.268 145.391 258.178 146.501 259.891L143.484 262.941L148.198 267.708L151.214 264.658C152.909 265.78 154.797 266.57 156.78 266.988V271.303H163.445V266.988C165.428 266.57 167.315 265.78 169.01 264.658L172.033 267.708L176.748 262.941L173.725 259.891C174.836 258.178 175.618 256.268 176.032 254.262H180.298ZM160.112 261.316C158.073 261.316 156.08 260.705 154.385 259.56C152.69 258.414 151.368 256.786 150.588 254.882C149.808 252.977 149.604 250.881 150.001 248.859C150.399 246.837 151.381 244.98 152.822 243.522C154.264 242.064 156.101 241.071 158.1 240.669C160.1 240.267 162.173 240.473 164.057 241.262C165.94 242.051 167.55 243.386 168.683 245.1C169.816 246.815 170.421 248.83 170.421 250.891C170.421 253.656 169.335 256.308 167.402 258.263C165.469 260.218 162.847 261.317 160.112 261.318V261.316Z" fill="url(#paint3_linear_2156_10281)"/>
<path d="M160.112 241.561C158.287 241.561 156.502 242.108 154.984 243.134C153.466 244.159 152.283 245.617 151.585 247.322C150.886 249.028 150.704 250.904 151.06 252.715C151.416 254.525 152.295 256.188 153.586 257.493C154.877 258.799 156.522 259.687 158.312 260.047C160.103 260.407 161.959 260.222 163.645 259.516C165.332 258.809 166.773 257.613 167.787 256.078C168.801 254.543 169.342 252.738 169.342 250.892C169.342 248.417 168.369 246.044 166.638 244.294C164.907 242.544 162.56 241.561 160.112 241.561ZM160.112 258.291C158.665 258.291 157.251 257.857 156.048 257.045C154.845 256.232 153.907 255.077 153.353 253.725C152.799 252.373 152.655 250.886 152.937 249.451C153.219 248.016 153.916 246.698 154.939 245.663C155.962 244.629 157.265 243.924 158.684 243.638C160.103 243.353 161.574 243.499 162.911 244.059C164.248 244.619 165.391 245.567 166.195 246.783C166.999 247.999 167.428 249.429 167.428 250.892C167.428 251.864 167.239 252.826 166.872 253.724C166.504 254.621 165.965 255.437 165.286 256.124C164.607 256.811 163.8 257.356 162.912 257.728C162.025 258.1 161.073 258.291 160.112 258.291Z" fill="url(#paint4_linear_2156_10281)"/>
<path d="M152.165 296.684L152.593 295.795L147.136 293.111C147.84 290.285 148.013 287.351 147.646 284.46L153.387 282.461L150.291 273.396L144.552 275.394C143.077 272.891 141.15 270.69 138.871 268.906L141.528 263.387L132.999 259.189L130.343 264.707C127.549 263.993 124.647 263.817 121.789 264.187L119.812 258.383L110.845 261.513L112.822 267.316C110.346 268.807 108.169 270.756 106.406 273.061L105.934 272.825V296.681L152.165 296.684ZM138.629 280.363C139.009 280.23 139.419 280.215 139.807 280.318C140.195 280.421 140.545 280.638 140.811 280.942C141.077 281.246 141.248 281.623 141.303 282.025C141.357 282.427 141.292 282.837 141.117 283.202C140.941 283.567 140.662 283.871 140.315 284.076C139.968 284.281 139.569 284.377 139.169 284.352C138.768 284.328 138.383 284.184 138.063 283.938C137.744 283.693 137.503 283.357 137.372 282.973C137.197 282.458 137.231 281.894 137.466 281.405C137.702 280.915 138.12 280.541 138.629 280.363ZM136.754 293.332C136.929 292.967 137.208 292.663 137.554 292.457C137.901 292.252 138.3 292.156 138.701 292.18C139.102 292.205 139.487 292.349 139.807 292.594C140.126 292.839 140.367 293.175 140.498 293.559C140.63 293.943 140.645 294.357 140.543 294.75C140.441 295.143 140.227 295.496 139.926 295.766C139.625 296.035 139.253 296.208 138.855 296.263C138.457 296.318 138.052 296.253 137.691 296.075C137.451 295.957 137.236 295.793 137.06 295.591C136.883 295.39 136.747 295.155 136.66 294.9C136.573 294.645 136.536 294.376 136.552 294.107C136.568 293.838 136.637 293.574 136.754 293.332ZM129.629 272.462C129.805 272.097 130.084 271.792 130.43 271.587C130.777 271.382 131.176 271.286 131.577 271.31C131.978 271.335 132.362 271.479 132.682 271.724C133.002 271.969 133.243 272.305 133.374 272.689C133.505 273.073 133.521 273.487 133.419 273.88C133.317 274.273 133.102 274.626 132.802 274.896C132.501 275.165 132.128 275.338 131.731 275.393C131.333 275.448 130.928 275.383 130.567 275.205C130.083 274.967 129.712 274.544 129.536 274.03C129.361 273.515 129.394 272.951 129.629 272.462ZM126.776 283.085C127.62 283.5 128.323 284.16 128.797 284.98C129.27 285.8 129.492 286.743 129.436 287.691C129.379 288.638 129.045 289.548 128.477 290.304C127.909 291.06 127.133 291.629 126.245 291.938C125.357 292.248 124.399 292.284 123.491 292.043C122.583 291.802 121.765 291.294 121.143 290.583C120.52 289.872 120.12 288.991 119.993 288.05C119.866 287.11 120.017 286.152 120.428 285.298C120.701 284.732 121.082 284.225 121.549 283.806C122.015 283.388 122.559 283.067 123.149 282.862C123.738 282.656 124.362 282.57 124.984 282.608C125.607 282.646 126.215 282.808 126.776 283.085ZM118.998 270.702C119.378 270.57 119.788 270.554 120.176 270.657C120.564 270.76 120.914 270.978 121.18 271.281C121.446 271.585 121.617 271.962 121.672 272.364C121.726 272.767 121.661 273.176 121.486 273.541C121.31 273.906 121.031 274.21 120.684 274.415C120.338 274.62 119.939 274.716 119.538 274.692C119.137 274.667 118.753 274.523 118.433 274.278C118.113 274.033 117.873 273.697 117.741 273.313C117.654 273.058 117.617 272.788 117.632 272.518C117.648 272.249 117.716 271.985 117.833 271.742C117.95 271.499 118.113 271.282 118.313 271.103C118.513 270.924 118.746 270.786 118.998 270.699V270.702ZM108.989 279.668C109.165 279.303 109.444 278.998 109.791 278.793C110.138 278.588 110.537 278.492 110.938 278.516C111.339 278.54 111.724 278.684 112.044 278.93C112.364 279.175 112.605 279.511 112.736 279.895C112.867 280.279 112.883 280.694 112.781 281.087C112.679 281.48 112.464 281.833 112.164 282.103C111.863 282.373 111.49 282.546 111.092 282.601C110.694 282.656 110.289 282.591 109.928 282.413C109.687 282.295 109.472 282.131 109.295 281.929C109.118 281.726 108.982 281.491 108.895 281.236C108.807 280.98 108.771 280.71 108.787 280.441C108.803 280.171 108.872 279.907 108.989 279.664V279.668ZM109.439 290.553C109.819 290.42 110.229 290.404 110.618 290.506C111.007 290.609 111.357 290.826 111.624 291.13C111.891 291.434 112.062 291.812 112.117 292.214C112.171 292.617 112.107 293.027 111.931 293.392C111.755 293.758 111.476 294.062 111.129 294.267C110.782 294.472 110.382 294.568 109.981 294.544C109.58 294.519 109.195 294.374 108.875 294.128C108.555 293.882 108.314 293.546 108.184 293.162C108.007 292.647 108.041 292.082 108.276 291.592C108.512 291.103 108.93 290.727 109.439 290.549V290.553Z" fill="url(#paint5_linear_2156_10281)"/>
<path d="M251.412 273.444L254.596 266.829L250.41 264.771C250.951 262.603 251.085 260.352 250.805 258.135L255.208 256.598L252.834 249.644L248.43 251.181C247.299 249.261 245.821 247.574 244.075 246.205L246.113 241.972L239.57 238.753L237.533 242.986C235.39 242.439 233.164 242.304 230.972 242.587L229.453 238.135L222.575 240.536L224.095 244.992C222.196 246.136 220.526 247.63 219.173 249.398L214.987 247.337L211.801 253.95L215.987 256.01C215.446 258.178 215.313 260.429 215.593 262.646L211.188 264.182L213.564 271.136L217.966 269.6C219.097 271.521 220.576 273.209 222.324 274.576L220.287 278.809L226.83 282.026L228.868 277.794C231.011 278.34 233.237 278.475 235.43 278.191L236.948 282.643L243.826 280.243L242.305 275.795C244.204 274.652 245.873 273.157 247.225 271.389L251.412 273.444ZM239.065 248.206C239.342 248.342 239.573 248.558 239.728 248.827C239.884 249.096 239.957 249.405 239.938 249.716C239.92 250.027 239.81 250.325 239.624 250.573C239.438 250.821 239.183 251.008 238.892 251.11C238.601 251.211 238.287 251.223 237.989 251.144C237.691 251.065 237.423 250.899 237.219 250.666C237.015 250.433 236.883 250.144 236.842 249.835C236.8 249.527 236.849 249.213 236.984 248.933C237.074 248.747 237.198 248.58 237.351 248.443C237.504 248.306 237.683 248.2 237.876 248.133C238.069 248.065 238.274 248.037 238.478 248.05C238.682 248.062 238.882 248.115 239.065 248.206ZM221.87 256.561C221.593 256.424 221.363 256.207 221.208 255.938C221.053 255.669 220.98 255.36 220.999 255.049C221.018 254.739 221.128 254.441 221.314 254.193C221.501 253.945 221.755 253.759 222.046 253.658C222.337 253.556 222.652 253.545 222.949 253.624C223.247 253.703 223.515 253.87 223.719 254.103C223.923 254.336 224.054 254.625 224.096 254.933C224.138 255.241 224.088 255.555 223.953 255.835C223.863 256.021 223.738 256.187 223.585 256.325C223.432 256.462 223.253 256.567 223.06 256.634C222.866 256.702 222.662 256.73 222.457 256.717C222.253 256.705 222.053 256.651 221.87 256.561ZM222.514 265.782C222.223 265.883 221.908 265.896 221.61 265.817C221.312 265.738 221.044 265.571 220.84 265.338C220.635 265.105 220.504 264.815 220.462 264.507C220.421 264.198 220.471 263.884 220.606 263.604C220.741 263.324 220.955 263.091 221.221 262.934C221.487 262.777 221.793 262.703 222.101 262.723C222.408 262.742 222.703 262.853 222.948 263.041C223.193 263.23 223.378 263.488 223.478 263.783C223.611 264.177 223.585 264.609 223.404 264.984C223.224 265.359 222.903 265.645 222.514 265.782ZM229.839 250.557C229.548 250.66 229.233 250.672 228.934 250.593C228.636 250.514 228.368 250.347 228.163 250.114C227.958 249.881 227.827 249.591 227.785 249.282C227.743 248.973 227.793 248.659 227.928 248.378C228.064 248.098 228.278 247.865 228.544 247.708C228.811 247.551 229.118 247.477 229.425 247.496C229.733 247.516 230.028 247.627 230.274 247.816C230.519 248.005 230.703 248.264 230.803 248.559C230.937 248.952 230.911 249.384 230.731 249.758C230.551 250.133 230.232 250.42 229.844 250.557H229.839ZM227.33 272.569C227.053 272.433 226.823 272.216 226.667 271.947C226.512 271.679 226.439 271.369 226.458 271.059C226.477 270.748 226.586 270.45 226.772 270.202C226.959 269.954 227.213 269.767 227.504 269.666C227.795 269.564 228.11 269.552 228.407 269.631C228.705 269.71 228.973 269.877 229.177 270.11C229.381 270.343 229.513 270.632 229.555 270.94C229.596 271.248 229.547 271.562 229.412 271.842C229.231 272.217 228.911 272.503 228.522 272.64C228.132 272.776 227.705 272.75 227.334 272.569H227.33ZM231.601 263.697C230.953 263.378 230.413 262.872 230.05 262.244C229.687 261.615 229.516 260.891 229.56 260.164C229.603 259.437 229.859 258.74 230.294 258.16C230.73 257.579 231.326 257.143 232.007 256.905C232.688 256.668 233.423 256.64 234.119 256.825C234.816 257.01 235.443 257.399 235.921 257.944C236.398 258.49 236.705 259.166 236.803 259.887C236.901 260.609 236.784 261.343 236.469 261.998C236.046 262.875 235.297 263.546 234.385 263.865C233.473 264.184 232.473 264.123 231.605 263.697H231.601ZM237.567 273.195C237.275 273.296 236.961 273.308 236.663 273.229C236.365 273.15 236.097 272.983 235.893 272.75C235.689 272.516 235.558 272.227 235.516 271.918C235.475 271.61 235.525 271.296 235.66 271.016C235.795 270.736 236.009 270.503 236.276 270.346C236.542 270.189 236.848 270.116 237.155 270.135C237.463 270.154 237.758 270.265 238.003 270.454C238.248 270.643 238.432 270.901 238.532 271.196C238.666 271.59 238.64 272.021 238.46 272.396C238.28 272.771 237.961 273.058 237.571 273.195H237.567ZM244.892 257.968C244.601 258.07 244.286 258.082 243.988 258.003C243.69 257.924 243.422 257.757 243.218 257.524C243.014 257.291 242.882 257.002 242.841 256.693C242.799 256.384 242.849 256.07 242.984 255.79C243.119 255.51 243.333 255.277 243.599 255.12C243.865 254.963 244.172 254.89 244.479 254.909C244.787 254.928 245.082 255.039 245.327 255.228C245.572 255.416 245.756 255.675 245.856 255.969C245.991 256.362 245.966 256.793 245.787 257.167C245.609 257.542 245.29 257.83 244.903 257.968H244.892ZM243.148 267.046C242.871 266.909 242.641 266.693 242.486 266.424C242.331 266.155 242.258 265.846 242.277 265.535C242.295 265.225 242.405 264.927 242.591 264.679C242.777 264.431 243.032 264.244 243.322 264.143C243.613 264.041 243.927 264.029 244.225 264.108C244.523 264.187 244.791 264.353 244.995 264.586C245.199 264.818 245.331 265.107 245.373 265.416C245.415 265.724 245.366 266.038 245.232 266.318C245.051 266.689 244.732 266.974 244.345 267.11C243.959 267.246 243.534 267.223 243.164 267.046H243.148Z" fill="url(#paint6_linear_2156_10281)"/>
<path d="M239.749 273.72C239.011 273.718 238.276 273.797 237.555 273.955C236.59 272.873 235.411 272.008 234.094 271.416C232.777 270.825 231.352 270.52 229.911 270.522C229.626 270.522 229.345 270.537 229.066 270.56C228.134 268.857 226.748 267.452 225.067 266.505C223.385 265.558 221.475 265.106 219.553 265.2C217.63 265.295 215.772 265.933 214.19 267.041C212.607 268.149 211.364 269.683 210.6 271.47C208.713 270.664 206.652 270.364 204.617 270.601C202.582 270.837 200.642 271.601 198.985 272.818C197.158 271.33 194.882 270.519 192.537 270.522C192.29 270.522 192.046 270.535 191.803 270.553V221.641H178.709V266.002C176.34 267.008 174.426 268.87 173.342 271.226C172.055 270.759 170.698 270.521 169.331 270.521C169.208 270.521 169.086 270.521 168.964 270.529C168.842 270.537 168.718 270.521 168.592 270.521C167.226 270.521 165.871 270.76 164.585 271.226C163.786 269.482 162.524 267.995 160.94 266.931C159.356 265.867 157.511 265.267 155.611 265.199C153.71 265.13 151.828 265.595 150.173 266.542C148.517 267.489 147.154 268.881 146.233 270.563C145.955 270.541 145.675 270.526 145.389 270.526C143.948 270.524 142.523 270.829 141.206 271.42C139.889 272.012 138.71 272.876 137.745 273.959C136.332 273.647 134.87 273.639 133.454 273.936C132.038 274.233 130.7 274.829 129.526 275.683C128.353 276.538 127.371 277.633 126.644 278.897C125.916 280.161 125.46 281.566 125.306 283.02C125.151 284.474 125.301 285.944 125.745 287.336C126.19 288.728 126.919 290.009 127.886 291.097C128.853 292.184 130.035 293.054 131.356 293.649C132.677 294.244 134.107 294.551 135.553 294.55H202.378C202.963 294.549 203.546 294.498 204.122 294.398C204.611 294.476 205.105 294.524 205.6 294.541V294.55H239.75C241.112 294.565 242.463 294.306 243.726 293.789C244.988 293.273 246.136 292.508 247.105 291.539C248.073 290.571 248.841 289.417 249.366 288.147C249.89 286.876 250.16 285.512 250.16 284.135C250.16 282.758 249.89 281.395 249.366 280.124C248.841 278.853 248.073 277.7 247.105 276.731C246.136 275.763 244.988 274.998 243.726 274.481C242.463 273.964 241.112 273.705 239.75 273.72H239.749Z" fill="url(#paint7_linear_2156_10281)"/>
<path d="M167.232 203.34L152.274 220.71L157.971 242.096C158.328 243.436 160.26 243.272 160.388 241.888L161.853 226.056L168.663 224.735L167.232 203.34Z" fill="#DE3A25"/>
<path d="M161.79 225.635C161.215 226.004 160.723 226.492 160.346 227.067C159.97 227.642 159.717 228.29 159.605 228.97C159.361 230.49 159.757 232.252 159.761 233.791C159.761 235.611 159.772 237.753 158.939 239.418C158.666 240.005 158.197 240.476 157.615 240.748L157.974 242.095C158.331 243.435 160.262 243.27 160.39 241.887L161.855 226.054L164.983 225.447C163.956 224.992 162.865 224.967 161.79 225.635Z" fill="#C0321E"/>
<path d="M165.117 225.423L168.666 224.735L167.232 203.337L162.92 208.344C162.663 214.061 163.565 219.871 165.117 225.423Z" fill="#95230F"/>
<path d="M155.828 217.962C155.007 218.69 154.149 219.476 153.832 220.533C153.509 221.614 153.816 222.767 154.151 223.85C154.939 226.387 155.882 228.873 156.973 231.292C156.557 228.122 156.14 224.953 155.724 221.784C155.663 221.314 155.602 220.814 155.768 220.366C155.971 219.824 156.466 219.46 156.859 219.041C158.46 217.354 157.567 216.422 155.828 217.962Z" fill="#F15D4C"/>
<path d="M201.366 203.34L216.325 220.71L210.627 242.096C210.268 243.436 208.335 243.272 208.209 241.888L206.745 226.056L199.936 224.735L201.366 203.34Z" fill="#DE3A25"/>
<path d="M206.802 225.635C207.378 226.004 207.87 226.492 208.246 227.067C208.623 227.642 208.875 228.29 208.987 228.97C209.231 230.49 208.836 232.252 208.831 233.791C208.831 235.611 208.82 237.753 209.652 239.418C209.926 240.005 210.395 240.476 210.978 240.748L210.621 242.095C210.261 243.435 208.329 243.27 208.202 241.887L206.738 226.054L203.609 225.447C204.637 224.992 205.727 224.967 206.802 225.635Z" fill="#C0321E"/>
<path d="M203.477 225.423L199.93 224.735L201.362 203.337L205.674 208.344C205.928 214.061 205.028 219.871 203.477 225.423Z" fill="#95230F"/>
<path d="M212.76 217.962C213.584 218.69 214.441 219.476 214.758 220.533C215.079 221.614 214.772 222.767 214.438 223.85C213.651 226.387 212.709 228.873 211.617 231.292C212.034 228.122 212.451 224.953 212.867 221.784C212.928 221.314 212.984 220.814 212.821 220.366C212.619 219.824 212.123 219.46 211.729 219.041C210.136 217.354 211.024 216.422 212.76 217.962Z" fill="#F15D4C"/>
<path d="M191.293 169.544C191.066 169.242 190.835 168.943 190.595 168.643L184.618 161.001L178.638 168.643C178.406 168.943 178.173 169.242 177.941 169.544C168.755 181.715 164.821 197.132 166.696 212.328L169.726 236.9H199.492L202.523 212.328C204.411 197.132 200.483 181.715 191.293 169.544Z" fill="#DE3A25"/>
<path d="M184.758 213.688C178.349 206.179 176.309 196.07 176.59 186.36C176.74 181.215 177.464 175.714 179.277 170.878C180.309 168.122 181.835 165.566 183.114 162.919L178.636 168.643C178.403 168.943 178.171 169.242 177.938 169.544C168.753 181.715 164.819 197.132 166.693 212.328L169.723 236.9H199.49L201.206 222.986C194.88 222.118 189.005 218.666 184.758 213.688Z" fill="#C0321E"/>
<path d="M196.376 187.485C196.474 187.762 196.821 188.006 197.074 187.859C197.599 186.052 196.281 181.489 195.568 179.747C194.068 176.088 194.063 174.896 185.984 165.302C186.715 167.865 192.433 176.161 196.376 187.485Z" fill="#F15D4C"/>
<path d="M195.759 247.93H173.481L177.398 238.913H192.305L195.759 247.93Z" fill="#10224C"/>
<path d="M197.754 242.412H170.837L175.571 235.415H193.581L197.754 242.412Z" fill="#28437A"/>
<path d="M194.431 200.61C194.431 202.572 193.855 204.49 192.777 206.121C191.699 207.752 190.167 209.023 188.375 209.774C186.582 210.525 184.609 210.721 182.706 210.338C180.803 209.956 179.055 209.011 177.683 207.623C176.312 206.236 175.377 204.468 174.999 202.544C174.621 200.62 174.815 198.625 175.558 196.813C176.3 195 177.558 193.451 179.171 192.361C180.785 191.272 182.682 190.69 184.622 190.69C187.223 190.691 189.718 191.736 191.558 193.596C193.397 195.456 194.431 197.979 194.431 200.61Z" fill="#FBC4A7"/>
<path d="M191.988 200.61C191.988 202.083 191.556 203.523 190.746 204.748C189.937 205.973 188.786 206.928 187.44 207.492C186.093 208.056 184.612 208.203 183.183 207.916C181.754 207.628 180.441 206.919 179.411 205.877C178.381 204.835 177.679 203.507 177.395 202.062C177.111 200.617 177.257 199.119 177.815 197.758C178.372 196.397 179.317 195.234 180.528 194.415C181.74 193.597 183.165 193.16 184.622 193.16C186.575 193.161 188.449 193.946 189.83 195.343C191.212 196.74 191.988 198.634 191.988 200.61Z" fill="#0A1C45"/>
<path d="M185.335 193.197C185.102 193.175 184.862 193.16 184.622 193.16C183.918 193.162 183.219 193.264 182.544 193.466C184.61 195.667 186.938 197.636 189.172 199.641C190.054 200.432 190.954 201.202 191.862 201.964C191.943 201.517 191.985 201.064 191.987 200.61C191.986 199.874 191.88 199.143 191.669 198.439C189.548 196.704 187.444 194.945 185.335 193.197Z" fill="#28437A"/>
<path d="M187.296 201.544C184.854 199.352 182.296 197.204 180.087 194.744C179.041 195.574 178.234 196.673 177.75 197.926C178.272 198.457 178.796 198.984 179.324 199.509C180.72 200.91 182.115 202.317 183.534 203.696C184.845 204.972 186.178 206.226 187.531 207.458C188.896 206.862 190.052 205.863 190.847 204.592C189.645 203.592 188.459 202.587 187.296 201.544Z" fill="#28437A"/>
<path d="M168.84 229.629L169.735 236.896H199.505L200.403 229.629H168.84Z" fill="#0A1C45"/>
<path d="M88.3108 326.87L78.8379 357.264L84.6191 325.937L88.3108 326.87Z" fill="#00002A"/>
<path d="M100.89 321.626L91.4155 352.014L97.1979 320.691L100.89 321.626Z" fill="#00002A"/>
<path d="M111.666 325.937L117.445 357.264L107.972 326.87L111.666 325.937Z" fill="#00002A"/>
<path d="M115.534 316.43L121.315 347.753L111.842 317.363L115.534 316.43Z" fill="#00002A"/>
<path d="M73.4092 271.815H80.1694L102.116 268.445L92.2167 268.916L73.4092 271.815Z" fill="#0078A2"/>
<path d="M80.1694 271.815H73.4092L78.8381 322.819H85.5983L80.1694 271.815Z" fill="#00B2F0"/>
<path d="M80.1694 271.815L101.106 268.445L101.57 322.819H85.5983L80.1694 271.815Z" fill="#008DBE"/>
<path d="M111.833 327.578H83.5447C82.2981 327.575 81.1034 327.073 80.2215 326.182C79.3396 325.292 78.8422 324.084 78.8379 322.824C78.8416 321.563 79.3386 320.354 80.2206 319.462C81.1025 318.571 82.2975 318.068 83.5447 318.064H111.833C113.08 318.069 114.274 318.572 115.155 319.464C116.035 320.356 116.532 321.563 116.536 322.824C116.531 324.083 116.034 325.29 115.154 326.181C114.273 327.072 113.079 327.574 111.833 327.578Z" fill="#00B2F0"/>
<path d="M100.36 303.189C116.714 306.481 134.419 310.658 138.137 312.998C141.549 315.146 136.12 320.865 136.12 320.865C136.12 320.865 104.352 319.622 99.0701 319.588C96.1365 319.57 97.2295 302.561 100.36 303.189Z" fill="#31456D"/>
<path d="M130.14 348.747C130.109 341.467 132.062 311.924 132.062 311.924C132.062 311.924 139.347 311.056 140.258 316.114C140.734 318.756 136.217 341.422 134.414 348.987L130.14 348.747Z" fill="#31456D"/>
<path d="M90.983 304.22C106.772 309.636 122.163 317.233 125.546 320.047C128.652 322.627 122.531 327.578 122.531 327.578C122.531 327.578 95.3306 321.817 90.4912 319.676C81.8136 315.829 87.9599 303.189 90.983 304.22Z" fill="#3A507B"/>
<path d="M115.787 354.471C115.975 347.234 118.831 318.061 118.831 318.061C118.831 318.061 126.156 317.881 126.916 322.999C127.314 325.67 122.098 347.77 120.062 355.117L115.787 354.471Z" fill="#3A507B"/>
<path d="M69.6256 282.893C69.257 282.69 67.6059 281.114 68.4512 279.52C73.7429 269.54 76.7405 267.47 80.2706 263.765C85.0809 258.717 91.7644 255.247 93.6283 259.366C95.2748 263 86.1681 265.569 79.5881 273.434C78.5195 274.714 75.4022 278.744 71.2418 282.283C71.0632 282.536 70.8139 282.729 70.526 282.838C70.238 282.946 69.9245 282.966 69.6256 282.893Z" fill="#EAB1B8"/>
<path d="M72.3987 282.766C74.9568 280.399 85.3285 268.318 86.3913 267.499C92.5899 262.725 95.3445 262.613 93.698 258.978C91.8376 254.863 84.496 258.789 79.3113 263.2C74.8021 267.035 72.0848 270.798 67.5489 277.973C66.5256 280.185 69.8046 283.193 72.3987 282.766Z" fill="#B2DBF1"/>
<path d="M100.135 234.002C98.7199 233.767 97.3513 234.128 96.0885 234.77C95.5702 235.055 95.0218 235.28 94.4537 235.44C92.3108 236.02 91.8294 239.259 91.9968 241.126C92.0887 242.152 92.5003 243.167 92.7852 244.145C93.5305 246.722 95.6118 249.331 98.5117 249.201C100.361 249.12 102.26 248.091 103.401 246.627C106.252 242.965 105.495 234.903 100.135 234.002Z" fill="#4865A2"/>
<path d="M123.919 285.349C123.611 284.451 123.125 281.676 124.232 280.831C125.162 280.125 125.694 280.338 125.692 280.338C131.925 281.702 137.492 283.404 141.901 285.159C146.238 286.884 142.028 288.333 142.028 288.333C136.841 287.925 131.917 287.963 123.919 285.349Z" fill="#EAB1B8"/>
<path d="M125.99 282.026C123.056 273.026 121.075 272.684 118.513 268.656C114.761 262.759 106.653 257.747 105.527 262.131C104.973 264.273 120.089 281.628 122.448 285.046C123.693 284.565 124.598 282.839 125.99 282.026Z" fill="#EAB1B8"/>
<path d="M122.133 286.319C120.076 283.497 111.609 272.21 110.721 271.197C105.556 265.3 103.118 262.828 105.43 259.583C108.048 255.91 114.458 262.075 118.75 267.377C121.583 270.878 122.922 272.785 126.699 279.951C127.277 282.323 124.595 287.247 122.133 286.319Z" fill="#B2DBF1"/>
<path d="M144.342 285.516C143.283 285.469 142.415 285.516 141.469 286.089L141.451 286.179C141.568 286.208 141.671 286.238 141.782 286.265C141.782 286.265 141.441 286.284 141.911 286.3C141.943 286.31 141.976 286.319 142.008 286.326C141.618 286.462 141.327 286.711 141.285 287.149C141.145 288.592 143.218 288.861 144.214 289.091C145.021 289.276 145.869 289.31 146.698 289.312C147.641 289.312 148.156 288.714 148.825 288.067C148.91 287.777 149.359 285.939 148.57 286.003C148.435 286.015 148.105 286.575 147.906 286.659C147.084 286.995 146.359 286.541 145.57 286.471C146.022 286.291 146.776 286.388 147.06 285.903C147.333 285.436 145.058 285.469 144.342 285.516Z" fill="#EAB1B8"/>
<path d="M140.991 284.731C136.71 283.085 131.393 280.915 125.518 279.63C123.991 280.426 125.158 280.119 124.232 280.828C123.125 281.674 121.92 285.498 122.226 286.394C129.462 288.757 135.628 288.106 140.302 288.433L140.991 284.731Z" fill="#B2DBF1"/>
<path d="M138.401 288.348C139.058 288.367 139.694 288.393 140.302 288.435L140.991 284.733C140.399 284.505 139.78 284.272 139.137 284.043L138.401 288.348Z" fill="white"/>
<path d="M94.7629 245.835C95.2571 246.921 97.2489 248.052 97.4303 246.979C97.5466 246.32 97.4559 244.953 96.9652 243.866C96.4745 242.78 96.6257 242.588 95.6478 243.043C94.6699 243.498 94.2758 244.749 94.7629 245.835Z" fill="#EAB1B8"/>
<path d="M97.3968 247.911C97.5747 245.547 104.428 249.941 104.428 249.941L103.695 258.96C103.695 258.96 103.623 258.599 100.253 258.678C98.1991 258.727 96.9201 259.383 97.0212 257.441C97.0852 256.242 97.3352 248.728 97.3968 247.911Z" fill="#EAB1B8"/>
<path d="M97.2989 250.191C98.2687 253.365 101.053 255.642 103.967 255.407L104.432 249.941C104.432 249.941 97.5792 245.547 97.4013 247.911C97.3815 248.16 97.4245 247.422 97.3234 248.455C97.3582 248.507 97.2699 250.117 97.2989 250.191Z" fill="#E5958A"/>
<path d="M105.965 251.233C104.015 252.819 100.166 252.379 98.4744 250.628C97.4958 249.641 96.8539 248.364 96.6419 246.983C96.3803 245.398 96.5036 243.902 96.2536 242.305C96.127 241.62 96.0721 240.922 96.0896 240.225C96.1545 239.092 96.5466 238.004 97.2175 237.094C97.8779 236.198 98.9174 235.742 99.8418 235.165C100.627 234.676 101.503 234.073 102.43 233.909C103.067 233.792 103.499 234.182 104.025 234.514C106.892 236.315 108.335 240.416 108.415 243.703C108.475 246.146 107.975 249.599 105.965 251.233Z" fill="#EAB1B8"/>
<path d="M107 293.419C107.528 282.747 109.581 267.048 108.251 265.528C105.908 262.857 109.225 264.867 107.534 262.725C104.999 259.522 97.1187 256.178 93.9525 260.815C92.8805 262.392 93.8107 265.802 93.5595 266.977C92.9979 269.585 92.7851 282.579 92.1479 293.048L107 293.419Z" fill="#EAB1B8"/>
<path d="M105.671 257.084C105.046 256.868 104.405 256.702 103.754 256.588C102.114 258.087 98.8709 257.721 97.243 256.442C97.1989 256.406 97.1573 256.366 97.1186 256.324C96.507 256.357 95.8838 256.402 95.2524 256.457C93.5989 256.649 91.6618 257.14 90.6014 257.801C86.2527 260.515 86.941 266.28 87.034 267.83C87.2782 271.945 87.6654 304.55 86.9282 309L113.481 305.972C113.927 305.579 112.743 272.541 112.434 267.3C112.006 260.295 109.058 258.287 105.671 257.084Z" fill="#B2DBF1"/>
<path d="M103.719 284.787C103.719 284.787 101.198 292.255 100.438 292.287C99.5431 292.327 97.4688 284.787 97.4688 284.787L99.5722 259.688H101.619L103.719 284.787Z" fill="#EB5161"/>
<path d="M102.509 258.49C102.509 259.619 101.695 260.532 100.699 260.532C99.7024 260.532 98.8896 259.619 98.8896 258.49C98.8896 257.361 99.778 256.21 100.78 256.21C101.783 256.21 102.509 257.362 102.509 258.49Z" fill="#EB5161"/>
<path d="M101.02 259.641C99.9943 259.273 99.2885 258.491 99.0897 257.56C98.9656 257.854 98.8996 258.17 98.8955 258.49C98.8955 259.619 99.7094 260.532 100.705 260.532C100.995 260.527 101.28 260.45 101.533 260.306C101.786 260.162 102 259.957 102.156 259.709C101.779 259.805 101.383 259.781 101.02 259.641Z" fill="#CC4554"/>
<path d="M97.3678 253.822L100.781 256.21L98.2073 260.188L94.3237 256.526C94.3237 256.526 95.5842 253.981 97.3678 253.822Z" fill="white"/>
<path d="M100.78 256.21L102.562 260.188L106.445 257.375C106.445 257.375 105.71 254.989 104.084 254.723L100.78 256.21Z" fill="white"/>
<path d="M108.596 232.342C108.513 231.192 107.825 231.179 106.852 231.329C105.899 231.474 104.957 231.762 103.977 231.805C102.888 231.853 101.938 231.634 100.886 231.466C99.0687 231.175 97.1886 231.646 95.5374 232.524C93.0561 233.836 91.5469 238.184 91.9957 241.04C92.1434 241.981 92.5073 241.762 93.2201 242.39C93.5457 242.678 93.9735 243.038 94.3828 243.185C94.7456 243.316 95.2456 243.141 95.6258 243.103C95.7805 242.887 96.2072 243.279 96.3421 243.456C96.5537 243.75 96.6839 244.332 97.1734 244.185C97.613 244.052 97.7641 243.485 97.8095 243.09C97.9048 242.246 97.7885 241.402 97.8188 240.557C97.8769 238.821 99.4536 238.821 100.809 238.57C103.135 238.135 105.265 237.804 107.205 236.247C108.273 235.386 108.694 233.673 108.596 232.342Z" fill="#4865A2"/>
<path d="M71.2905 281.86C71.4208 280.951 72.2265 278.344 73.5498 278.116C74.659 277.927 75.023 278.351 75.023 278.351C79.7786 282.331 83.8134 286.301 86.8296 289.8C89.7958 293.239 85.5366 292.593 85.5366 292.593C81.2623 289.896 77.0124 287.706 71.2905 281.86Z" fill="#EAB1B8"/>
<path d="M88.5841 293.637C88.4516 292.607 88.269 291.777 87.5667 290.961H87.4807C87.4714 291.07 87.4609 291.179 87.4528 291.291C87.4528 291.291 87.3795 290.965 87.4412 291.42C87.4412 291.453 87.4412 291.487 87.433 291.521C87.2377 291.169 86.9586 290.925 86.5377 290.957C85.2703 291.054 85.1215 292.956 85.1645 293.907C85.2203 295.12 85.6296 296.314 85.7656 297.552C85.8924 298.727 85.8528 300.383 86.3807 301.441C87.869 301.668 88.0086 298.082 87.8237 295.015C87.7388 293.956 88.2888 296.269 88.669 296.324C89.1527 296.51 88.7446 294.32 88.5841 293.637Z" fill="#EAB1B8"/>
<path d="M86.1855 289.071C82.2357 284.4 77.9535 280.026 73.3731 275.986C73.3731 275.986 71.0964 275.243 69.8209 275.428C68.2988 275.649 66.3245 279.607 67.0849 280.538C72.8615 286.747 79.1915 289.45 83.5588 292.295L86.1855 289.071Z" fill="#B2DBF1"/>
<path d="M81.7578 291.182C82.3869 291.556 82.9903 291.924 83.5589 292.294L86.1856 289.071C85.7321 288.529 85.2554 287.97 84.7519 287.399L81.7578 291.182Z" fill="white"/>
<path d="M128.976 357.313C127.918 357.158 127.588 357.305 126.534 357.131C125.483 356.943 124.464 356.6 123.511 356.113C122.574 355.642 121.211 354.681 120.407 354.031C120.309 353.953 120.206 353.882 120.098 353.819C118.667 354.487 117.848 354.442 116.316 353.786C116.191 353.739 116.086 353.648 116.022 353.53C115.978 353.564 115.939 353.603 115.906 353.647C115.66 353.965 115.616 354.403 115.557 354.788C115.449 355.505 115.115 358.485 115.26 359.191C115.466 360.188 120.841 361.378 122.602 361.489C124.976 361.639 126.788 361.74 129.132 361.355C131.414 360.986 130.766 357.579 128.976 357.313Z" fill="#374D7E"/>
<path d="M143.472 351.098C142.413 350.944 142.085 351.091 141.03 350.916C139.978 350.729 138.96 350.385 138.007 349.897C137.07 349.426 135.708 348.467 134.904 347.816C134.805 347.738 134.702 347.667 134.594 347.603C133.164 348.274 132.344 348.227 130.812 347.571C130.687 347.525 130.582 347.434 130.519 347.315C130.476 347.35 130.437 347.389 130.403 347.432C130.157 347.751 130.113 348.188 130.054 348.573C129.946 349.291 129.613 352.27 129.757 352.976C129.963 353.974 135.339 355.164 137.099 355.277C139.472 355.424 141.285 355.526 143.628 355.14C145.91 354.771 145.261 351.365 143.472 351.098Z" fill="#374D7E"/>
<path d="M69.844 302.82H67.0952V363H69.844V302.82Z" fill="#ADAFB2"/>
<path d="M69.8442 363L71.1488 360.463V302.82H69.8442V363Z" fill="#888A8C"/>
<path d="M151.435 302.82H148.686V363H151.435V302.82Z" fill="#ADAFB2"/>
<path d="M151.436 363L152.737 360.463V302.82H151.436V363Z" fill="#888A8C"/>
<path d="M169.351 299.402H50.2808V303.97H169.351V299.402Z" fill="#ADAFB2"/>
<path d="M175.202 296.772L56.5154 296.823L50.2808 299.402H169.351L175.202 296.772Z" fill="#7D7E81"/>
<path d="M169.352 299.402V303.97L175.203 300.543V296.772L169.352 299.402Z" fill="#4A4B4C"/>
<path d="M133.632 297.928L128.318 299.781H109.958V297.079H133.051L133.632 297.928Z" fill="#4A4B4C"/>
<path d="M137.578 280.652L128.318 299.781H128.323L142.793 298.125L152.655 277.698L137.578 280.652Z" fill="#BCBEC0"/>
<path d="M135.983 280.652L150.785 277.362L152.656 277.698L137.534 281.001L135.983 280.652Z" fill="#A5A7AA"/>
<path d="M128.318 299.781L137.534 281.001L135.983 280.652L126.678 299.781H128.318Z" fill="#4A4B4C"/>
</g>
<path d="M160.628 57L183.131 6.16778H152.048V0.33988H190.092V5.43929L167.832 57H160.628Z" fill="#E2E2E2"/>
<defs>
<linearGradient id="paint0_linear_2156_10281" x1="184.193" y1="243.744" x2="184.193" y2="168.188" gradientUnits="userSpaceOnUse">
<stop stop-color="white"/>
<stop offset="1" stop-color="white"/>
</linearGradient>
<linearGradient id="paint1_linear_2156_10281" x1="202.14" y1="305.809" x2="202.14" y2="270.327" gradientUnits="userSpaceOnUse">
<stop stop-color="white"/>
<stop offset="1" stop-color="white"/>
</linearGradient>
<linearGradient id="paint2_linear_2156_10281" x1="202.14" y1="305.809" x2="202.14" y2="270.328" gradientUnits="userSpaceOnUse">
<stop stop-color="white"/>
<stop offset="1" stop-color="white"/>
</linearGradient>
<linearGradient id="paint3_linear_2156_10281" x1="160.113" y1="269.082" x2="160.113" y2="221.375" gradientUnits="userSpaceOnUse">
<stop stop-color="white"/>
<stop offset="1" stop-color="white"/>
</linearGradient>
<linearGradient id="paint4_linear_2156_10281" x1="160.112" y1="269.08" x2="160.112" y2="221.377" gradientUnits="userSpaceOnUse">
<stop stop-color="white"/>
<stop offset="1" stop-color="white"/>
</linearGradient>
<linearGradient id="paint5_linear_2156_10281" x1="123.962" y1="309.78" x2="133.891" y2="263.142" gradientUnits="userSpaceOnUse">
<stop stop-color="white"/>
<stop offset="1" stop-color="white"/>
</linearGradient>
<linearGradient id="paint6_linear_2156_10281" x1="229.753" y1="276.943" x2="237.367" y2="241.17" gradientUnits="userSpaceOnUse">
<stop stop-color="white"/>
<stop offset="1" stop-color="white"/>
</linearGradient>
<linearGradient id="paint7_linear_2156_10281" x1="187.649" y1="281.359" x2="187.649" y2="248.583" gradientUnits="userSpaceOnUse">
<stop stop-color="white"/>
<stop offset="1" stop-color="white"/>
</linearGradient>
<clipPath id="clip0_2156_10281">
<rect width="220" height="202" fill="white" transform="translate(50.2808 161)"/>
</clipPath>
</defs>
</svg>
