<svg width="50" height="54" viewBox="0 0 50 54" fill="none" xmlns="http://www.w3.org/2000/svg">
<path fill-rule="evenodd" clip-rule="evenodd" d="M3.06178 0.996808C2.11299 1.35335 1.35259 2.11218 0.916984 3.13707C0.704989 3.63593 0.700991 3.71433 0.700991 7.41512V11.185L0.95687 11.7774C1.28386 12.5343 2.0276 13.3413 2.72518 13.6961L3.2712 13.9737H25.0228H46.7745L47.3205 13.6961C48.0181 13.3413 48.7618 12.5343 49.0888 11.7774L49.3447 11.185V7.41512V3.64523L49.0888 3.05279C48.7618 2.29592 48.0181 1.48896 47.3205 1.13418L46.7745 0.856548L25.1656 0.833619C4.56697 0.811826 3.53365 0.819469 3.06178 0.996808ZM5.2714 20.8022C4.20838 21.0811 3.34822 21.6291 2.45864 22.5942C1.20256 23.9572 0.65625 25.3671 0.65625 27.2457C0.65625 29.1246 1.20266 30.5346 2.45864 31.8969C3.71005 33.2539 5.02276 33.8529 6.74575 33.8529C8.47722 33.8529 9.7767 33.2601 11.0329 31.8973C12.2889 30.5343 12.8353 29.1244 12.8353 27.2457C12.8353 25.3763 12.2832 23.952 11.0325 22.5942C10.1288 21.6133 9.27703 21.0777 8.17365 20.7964C7.40706 20.6009 6.02838 20.6037 5.2714 20.8022ZM19.2058 20.8779C17.9291 21.4495 17.141 22.4965 16.9288 23.903C16.8061 24.7152 16.8061 49.6069 16.9288 50.4191C17.1174 51.669 17.8469 52.7278 18.9109 53.2961L19.5452 53.6349H33.1598H46.7745L47.3205 53.3573C48.0181 53.0025 48.7618 52.1956 49.0888 51.4387L49.3447 50.8463V37.1611V23.4759L49.0888 22.8834C48.7618 22.1266 48.0181 21.3196 47.3205 20.9648L46.7745 20.6872L33.257 20.6631L19.7396 20.6389L19.2058 20.8779ZM5.2714 40.6329C4.20838 40.9117 3.34822 41.4598 2.45864 42.4249C1.20256 43.7878 0.65625 45.1977 0.65625 47.0764C0.65625 48.9552 1.20266 50.3653 2.45864 51.7275C3.71005 53.0845 5.02276 53.6835 6.74575 53.6835C8.47722 53.6835 9.7767 53.0907 11.0329 51.7279C12.2889 50.365 12.8353 48.955 12.8353 47.0764C12.8353 45.2069 12.2832 43.7826 11.0325 42.4249C10.1288 41.444 9.27703 40.9083 8.17365 40.627C7.40706 40.4316 6.02838 40.4344 5.2714 40.6329Z" fill="#E2E2E2"/>
</svg>
