<svg width="99" height="99" viewBox="0 0 99 99" fill="none" xmlns="http://www.w3.org/2000/svg">
<rect x="12.375" y="12.375" width="74.25" height="74.25" rx="16.5" fill="#470137"/>
<path fill-rule="evenodd" clip-rule="evenodd" d="M65.5139 67.2447C63.2511 67.2753 60.9883 66.8153 58.9396 65.8645C57.0132 64.975 55.4232 63.5028 54.3224 61.6932C53.191 59.8223 52.6406 57.4913 52.6406 54.7003C52.61 52.4307 53.191 50.1917 54.3224 48.2288C55.4844 46.2352 57.1661 44.5789 59.1843 43.4748C61.3247 42.2786 63.8932 41.6959 66.9204 41.6959C67.0733 41.6959 67.2874 41.6959 67.5626 41.7266C67.7104 41.743 67.8671 41.7507 68.0374 41.759C68.184 41.7661 68.3407 41.7737 68.5105 41.7879V32.0959C68.5105 31.8812 68.6022 31.7586 68.8163 31.7586H75.0235C75.1764 31.7279 75.2987 31.8506 75.3293 31.9732V61.2332C75.3293 61.7345 75.3545 62.2865 75.3821 62.889L75.3905 63.0734C75.4422 63.6182 75.4721 64.1411 75.4985 64.6048L75.5128 64.8523C75.5128 65.067 75.4211 65.2511 75.207 65.3431C73.617 66.0178 71.9352 66.5086 70.2228 66.8153C68.6634 67.0913 67.1039 67.2447 65.5139 67.2447ZM68.5105 61.1105V47.6154C68.2353 47.554 67.9601 47.4927 67.6849 47.462C67.3485 47.4313 67.0122 47.4007 66.6758 47.4007C65.4833 47.4007 64.2907 47.646 63.2205 48.1981C62.1809 48.7195 61.2941 49.4863 60.6214 50.4677C59.9487 51.4492 59.6124 52.768 59.6124 54.3629C59.5818 55.4364 59.7652 56.5099 60.1322 57.522C60.438 58.3501 60.8966 59.0862 61.5082 59.6996C62.0891 60.2517 62.7924 60.6811 63.5875 60.9265C64.4131 61.2025 65.2692 61.3252 66.1254 61.3252C66.5841 61.3252 67.0122 61.2945 67.4097 61.2639C67.8072 61.2945 68.1435 61.2332 68.5105 61.1105Z" fill="#FF61F6"/>
<path d="M42.2139 50.069L51.3872 34.887C51.4484 34.8256 51.5095 34.703 51.4789 34.6723C51.4484 34.5189 51.2955 34.4269 51.1426 34.4576H44.6907C44.5378 34.4269 44.4155 34.4576 44.2932 34.5189C44.2014 34.5803 44.1403 34.703 44.1097 34.8256C43.8352 35.3388 43.5606 35.8622 43.284 36.3896C42.8828 37.1545 42.4772 37.9277 42.061 38.6902C41.3577 39.9783 40.6544 41.2665 39.9817 42.5547C39.309 43.8429 38.6363 45.1617 37.9941 46.5112H37.933C37.2908 45.1924 36.6181 43.9042 35.8843 42.616C35.2586 41.5618 34.674 40.5075 34.08 39.4364C33.9482 39.1988 33.8159 38.9603 33.6827 38.7208C32.9794 37.402 32.3067 36.0831 31.7257 34.7643C31.634 34.6416 31.5422 34.5496 31.4199 34.4883C31.2976 34.4576 31.1447 34.4269 30.9918 34.4269H24.0507C23.9284 34.4269 23.8061 34.4576 23.7449 34.5496C23.6837 34.6109 23.7143 34.7336 23.8061 34.8563L33.0711 50.5904L23.5614 66.2325C23.5003 66.3246 23.4697 66.4472 23.5003 66.5699C23.5003 66.6859 23.5528 66.6791 23.6312 66.6689C23.6565 66.6656 23.6845 66.6619 23.7143 66.6619H30.4414C30.7778 66.6619 31.0224 66.6313 31.1447 66.3246C31.6136 65.4862 32.0824 64.6207 32.5513 63.7551C32.7857 63.3223 33.0201 62.8894 33.2546 62.46C33.9273 61.1719 34.6306 59.853 35.3339 58.5342C36.0371 57.2153 36.7405 55.8965 37.3826 54.5776H37.4437C38.1776 55.9271 38.9115 57.246 39.6453 58.5648C40.3792 59.8837 41.0825 61.1719 41.7246 62.4294C42.0457 63.0734 42.3744 63.7099 42.7031 64.3463C43.0318 64.9827 43.3605 65.6191 43.6816 66.2632C43.8956 66.5699 44.232 66.6006 44.7212 66.6006H51.7236C51.7944 66.5887 51.8562 66.5952 51.907 66.6005C51.9878 66.609 52.0411 66.6145 52.0599 66.5392C52.0905 66.4166 52.0599 66.2939 51.9988 66.1712L42.2139 50.069Z" fill="#FF61F6"/>
</svg>
