<svg width="100" height="100" viewBox="0 0 100 100" fill="none" xmlns="http://www.w3.org/2000/svg">
<path fill-rule="evenodd" clip-rule="evenodd" d="M24.06 61.3591L20.1364 62.7924L19.9258 74.4646L33.5077 69.503C28.8492 67.9381 25.4474 65.185 24.06 61.3591Z" fill="#FDBD39"/>
<path fill-rule="evenodd" clip-rule="evenodd" d="M26.1133 49.0138L12.5 53.9869L20.1365 62.7924L24.06 61.3591C22.6767 57.5444 23.5298 53.2322 26.1133 49.0138Z" fill="#F69833"/>
<path fill-rule="evenodd" clip-rule="evenodd" d="M49.0218 32.1716C31.6866 38.5044 20.5106 51.5721 24.0598 61.3592L86.8363 38.4261C83.2872 28.639 66.3571 25.8388 49.0218 32.1716Z" fill="#FECF33"/>
<path fill-rule="evenodd" clip-rule="evenodd" d="M61.875 67.6136C79.2103 61.2808 90.4072 48.271 86.8371 38.426L24.0605 61.3591C27.6306 71.2041 44.5398 73.9464 61.875 67.6136Z" fill="#EE6723"/>
<path fill-rule="evenodd" clip-rule="evenodd" d="M86.8371 38.426L24.0605 61.3591C25.2898 64.7489 29.9774 66.4189 36.5547 66.4189C42.967 66.4189 51.1754 64.8328 59.7329 61.7066C77.0682 55.3738 89.2647 45.1206 86.8371 38.426Z" fill="#F69833"/>
<path fill-rule="evenodd" clip-rule="evenodd" d="M74.3422 33.3662C67.9299 33.3662 59.7216 34.9524 51.1639 38.0786C33.8287 44.4114 21.6322 54.6645 24.0599 61.3591L86.8364 38.4261C85.6072 35.0362 80.9195 33.3662 74.3422 33.3662Z" fill="#FDBD39"/>
<path fill-rule="evenodd" clip-rule="evenodd" d="M70.8751 75.0827H70.8746C69.0276 75.0827 66.3028 73.4143 62.7756 70.124C58.6028 66.2313 53.8228 60.5297 49.316 54.0696C44.8094 47.6098 41.1063 41.1515 38.8888 35.8843C36.4728 30.1444 36.1283 26.6151 37.8649 25.3944C38.2457 25.127 38.7047 24.9916 39.2291 24.9916C40.6417 24.9916 43.3941 26.0433 48.4838 31.0539L48.5951 31.1634L48.58 31.3191C48.5452 31.6791 48.5131 32.0423 48.4845 32.3987L48.4278 33.1065L47.9285 32.6035C42.4445 27.0786 40.0305 26.4822 39.2471 26.4822C39.0236 26.4822 38.8457 26.5276 38.7182 26.6173C37.9649 27.1466 37.9164 29.7389 40.2588 35.3032C42.4367 40.4765 46.086 46.8371 50.5344 53.2133C54.983 59.59 59.6898 65.2074 63.788 69.0305C68.2073 73.153 70.1988 73.5982 70.8499 73.5982C71.0748 73.5982 71.2574 73.5499 71.3929 73.4546C72.1876 72.8962 72.1885 70.1191 69.5764 64.1302L69.4565 63.8552L69.719 63.7115C69.9815 63.5678 70.2354 63.4263 70.4735 63.2909L70.788 63.1122L70.933 63.4443C72.7851 67.688 74.5164 73.0816 72.2462 74.6775C71.8634 74.9463 71.4022 75.0827 70.8751 75.0827ZM70.8746 74.4281H70.8751L70.8748 74.7553L70.8746 74.4281Z" fill="#EE6723"/>
<path fill-rule="evenodd" clip-rule="evenodd" d="M62.296 67.4347L62.2696 67.7609C61.8313 73.1838 60.6774 79.7034 57.6687 79.9672C57.6081 79.9726 57.5453 79.9754 57.4826 79.9754C55.4386 79.9754 53.5049 77.0469 51.7352 71.2712C50.0608 65.807 48.7615 58.4704 48.0766 50.613C47.3917 42.7573 47.402 35.3058 48.1055 29.6313C48.8724 23.4478 50.3323 20.2186 52.4446 20.0333C52.507 20.0275 52.5717 20.0245 52.6356 20.0245C54.1184 20.0245 56.353 21.7035 58.6407 29.5237L57.147 29.812C56.3832 27.1987 55.5507 25.0732 54.7244 23.6127C53.9599 22.2618 53.2167 21.5178 52.6314 21.5178C52.6122 21.5178 52.5928 21.5186 52.5737 21.5203C51.6582 21.6007 50.3248 23.8215 49.5815 29.8156C48.8905 35.3883 48.8821 42.7282 49.558 50.4831C50.2343 58.2392 51.5124 65.4661 53.1567 70.8324C53.8932 73.2358 54.7009 75.2166 55.4926 76.5606C56.2227 77.8001 56.9293 78.4827 57.4821 78.4827C57.5011 78.4827 57.5201 78.4818 57.5389 78.4802C58.4149 78.4035 60.0658 76.0925 60.7606 67.9616L62.296 67.4347Z" fill="#EE6723"/>
</svg>
