<svg width="76" height="76" viewBox="0 0 76 76" fill="none" xmlns="http://www.w3.org/2000/svg">
<path d="M28.9287 16.9927H39.0764V9.03882H28.9287V16.9927Z" fill="#71ABD5"/>
<path d="M46.8896 14.6968V22.6528H57.0373V14.6968H46.8896Z" fill="#71ABD5"/>
<path d="M21.5876 30.6082H12.8779V40.3582H25.3128V30.6082H21.5876Z" fill="#71ABD5"/>
<path d="M48.7773 24.5393V35.7836H63.121V24.5393H48.7773Z" fill="#ABCDE5"/>
<path d="M19.4824 26.8344H29.6279V18.8792H19.4824V26.8344Z" fill="#ABCDE5"/>
<path d="M20.9068 30.364C21.2482 30.3929 21.4428 30.4831 21.5874 30.6081H23.8298C23.5911 29.9364 23.7574 29.2662 24.2638 28.1836C23.2591 28.926 22.7585 30.0332 22.8113 30.0801C21.9014 29.2662 21.3726 29.5746 19.8189 29.55C19.5059 29.545 19.1944 29.5053 18.8901 29.4316C17.1946 29.0199 16.9306 28.8141 16.2861 28.3772C17.0377 29.6223 19.0334 30.2065 20.9068 30.364Z" fill="#404041"/>
<path d="M50.6123 59.5879C49.0528 58.4258 47.0767 58.1796 46.3642 56.3379C47.358 56.3834 48.6788 56.4477 49.5266 56.7857C50.5204 57.1829 50.4271 57.5613 51.3226 58.1023C52.4489 58.7812 52.7693 58.3045 53.7241 58.8122C54.8641 59.4174 53.7371 59.6002 56.1328 59.6738C56.1328 59.6738 55.2525 59.2448 54.744 58.8252C52.3801 56.8796 52.3143 58.0553 51.6648 56.5452C53.2836 57.0168 53.8044 57.5606 55.7726 57.6148C57.8182 57.6711 58.2066 57.9138 59.8956 58.272C59.8956 58.272 59.0117 56.4296 46.6745 54.7244C42.1131 54.0939 38.3851 46.3979 39.5988 42.2105C40.6665 38.5308 43.8079 37.8671 46.9935 36.9563C48.1653 36.6219 50.017 36.1402 50.2687 36.8769C50.2926 36.9491 50.3186 37.0379 50.3331 37.0899C50.6564 38.2556 50.7671 39.1844 52.1414 39.2414C53.327 39.2934 54.5552 39.0854 55.8442 39.6437C54.7274 38.6131 53.57 38.7583 52.2087 38.3156C52.0518 38.2619 51.9154 38.1611 51.818 38.027C51.7206 37.893 51.6671 37.7322 51.6648 37.5666C51.6517 36.7722 51.7479 36.2009 51.9375 35.7827H48.7779V34.6777C48.4264 34.9782 47.9287 35.2649 47.1909 35.535C45.0209 36.3294 43.5302 36.146 41.1027 36.8986C41.5511 35.9445 42.0965 34.5001 42.9594 33.3597C44.4322 31.4198 46.4416 31.3923 47.656 29.3246C45.8282 30.4896 44.7482 30.6759 43.434 31.5252C41.3211 32.8917 41.0296 34.3599 39.3761 35.3689C40.3562 31.778 39.1591 31.4292 38.8032 29.4467H44.9985V21.2588C45.6112 20.9887 46.2456 20.7273 46.8879 20.4644V19.4215C46.3649 19.6902 45.7508 19.8491 44.9985 20.0578V18.8791H37.0173C36.9034 18.2249 36.6987 17.5897 36.4089 16.9919H35.3565C35.8013 17.8745 35.6733 17.8427 35.7811 18.8791H31.5178V29.4496H35.9909C36.3446 29.9927 36.503 30.5394 36.6375 31.1403C37.5149 35.0807 36.4024 36.4313 35.3456 38.7633L34.2143 37.6034C33.2986 36.5858 31.7 36.5764 30.8393 35.5379C29.2971 33.6803 31.5626 31.6379 30.7235 29.451C30.3619 28.5049 29.4215 27.7292 28.6982 26.8344H27.3239C27.6855 27.2518 28.0559 27.6664 28.3879 28.1301C30.38 30.9084 28.8356 31.1381 28.5948 34.131C27.6921 33.8421 27.6436 33.6305 26.696 33.3524C25.8201 33.0953 25.7608 33 25.3123 32.5277V35.4209C26.3937 35.6534 27.4555 36.0117 28.2541 36.5584C29.8736 37.6684 32.0451 39.0139 33.3058 40.3385C36.5739 43.7705 34.9695 53.1341 30.7373 54.3388C28.1051 55.0892 26.2967 54.1134 23.036 55.4633C20.9831 56.3133 15.7028 57.5223 15.8344 58.2337C15.8344 58.2337 18.5318 57.0493 23.2848 56.8174C22.3141 58.4273 20.4146 58.6309 18.1491 59.2593C23.3101 59.9598 24.5022 56.062 28.6454 56.6102C28.2389 57.0016 27.4881 57.9188 26.8863 58.2713C26.0732 58.7523 25.3528 58.8281 24.4269 59.4492C21.7672 61.2302 20.9549 59.7099 18.9679 60.8279C19.5234 61.1594 20.1976 61.1941 21.0526 61.3378C20.7748 61.8051 20.8254 62.1727 20.8254 62.1727C21.5039 61.4642 22.2569 61.5632 22.2569 61.5632C22.2569 61.5632 22.0399 62.502 22.7763 63.2308C23.9336 62.8798 23.6247 61.0396 26.3387 59.8696C26.5268 62.692 26.3054 62.4428 25.6284 64.6203C27.3817 64.0057 27.1264 62.4009 27.3962 60.3852C27.5409 59.338 27.8468 59.1654 28.547 58.6346C29.1452 58.1803 29.5684 57.7888 30.3836 57.44C30.4559 59.0354 30.7655 61.1623 30.0479 62.4724C29.525 63.4287 28.0002 64.7012 28.1015 65.4762C29.1141 65.5903 29.6328 65.3397 30.0501 64.6167C30.5065 65.4632 30.7662 65.9716 31.9764 66.4086C31.266 64.1754 32.1753 62.5367 32.0762 60.3968C31.9735 58.1889 32.2143 56.9301 33.457 55.7392C34.652 58.935 33.4042 59.5294 33.8086 62.3988C34.1861 60.9854 34.4444 60.0306 35.2465 59.0534C36.2057 59.4579 36.5934 59.8277 36.6701 60.9132C35.3681 62.9043 33.3427 63.3485 33.0057 66.5335C33.6516 65.9124 34.7026 63.3694 36.8393 62.6588C36.8285 64.4297 36.6903 64.9518 36.4169 65.7564C36.3475 65.9629 36.3363 66.1844 36.3844 66.3968C36.4325 66.6092 36.538 66.8044 36.6896 66.9611C37.2643 66.5736 37.6652 65.9777 37.8071 65.2999C38.0379 64.2166 38.1768 62.7765 38.2607 62.133C40.401 63.2886 39.9931 65.6899 40.1493 66.2988C40.2527 66.7011 40.4466 66.8809 40.4466 66.8809C40.8654 66.6404 41.2647 66.1789 41.2256 65.5303C43.0788 65.8553 44.0068 66.7278 44.0068 66.7278C44.7873 65.8828 44.8401 64.3733 44.8401 64.3733C45.9931 65.0956 45.8159 66.1341 47.0911 65.5289C45.3703 62.5945 43.2864 62.9845 44.6397 57.2696C45.6748 57.5996 47.6264 59.4182 47.8268 60.4806C47.8564 60.6402 47.4716 63.8288 49.413 64.7106C48.974 62.6263 48.3599 62.5764 48.8264 59.8804C49.7465 60.0797 50.2072 60.7774 50.8214 61.4462C51.2821 61.9517 51.4152 62.3562 51.5526 62.7339C51.5983 62.8577 51.6697 62.9705 51.7619 63.065C51.8542 63.1595 51.9654 63.2334 52.0883 63.2821C52.2111 63.3307 52.3429 63.353 52.4749 63.3474C52.607 63.3418 52.7364 63.3084 52.8546 63.2495C52.8546 63.2495 52.1957 62.497 52.5921 61.6888C55.4724 61.8976 56.5198 60.9139 56.5198 60.9139C56.5198 60.9139 56.1256 60.5304 55.5838 60.5015C54.0293 60.4184 52.7201 61.1587 50.6123 59.5879ZM43.2878 65.6314C40.2462 64.6434 41.8694 62.3352 39.2133 60.2198L38.061 58.1146C39.9417 59.7273 39.3761 58.4619 41.0375 60.3332C41.3508 60.6851 41.5886 61.0973 41.7363 61.5444L42.3772 63.4944C42.7641 60.4892 41.2119 58.2597 41.3688 56.7055C41.5569 54.8573 40.7866 54.1828 40.728 52.5758C44.0039 57.8972 42.4618 59.8833 43.1916 62.0651C43.8983 64.1762 43.7255 63.4294 43.2878 65.6314Z" fill="#404041"/>
<path d="M37.1866 10.9231H30.8184V15.1055H37.1866V10.9231Z" fill="white"/>
<path d="M55.1475 16.584H48.7793V20.7664H55.1475V16.584Z" fill="white"/>
<path d="M23.4237 32.4951H14.7676V38.4708H23.4237V32.4951Z" fill="white"/>
<path d="M61.2311 26.4263H50.6689V33.8969H61.2311V26.4263Z" fill="white"/>
<path d="M27.7383 20.7656H21.3701V24.948H27.7383V20.7656Z" fill="white"/>
<path d="M38.9697 48.7264C39.0276 48.8622 39.0898 49.0037 39.157 49.1482C39.6033 50.1138 39.1115 51.1704 39.1115 51.1704C39.1115 49.6147 38.3881 49.2666 38.1068 47.8987C37.9621 47.2126 38.1899 46.26 38.2579 45.4742C38.3303 44.6458 38.3303 43.8254 38.6355 43.0512L38.6912 42.9067C38.7172 43.0649 38.6138 44.929 38.54 46.2008C38.4861 47.0645 38.6332 47.9289 38.9697 48.7264Z" fill="white"/>
<path d="M43.1107 20.7656H33.4072V27.5625H43.1107V20.7656Z" fill="white"/>
<path d="M34.7295 53.5068C34.8421 53.0275 34.9896 52.5571 35.1707 52.0992C35.4326 51.4752 35.3009 51.2809 35.442 50.597C35.583 49.913 35.7234 49.3389 35.7234 49.3389C35.7234 49.3389 36.0192 52.5802 34.7295 53.5068Z" fill="white"/>
<path d="M37.2039 52.5801C36.9543 54.3857 35.8983 55.469 35.0498 56.1002C35.0498 56.1002 35.7731 54.5186 35.9966 53.8556C36.3851 52.7 37.0882 51.283 36.4863 49.2153C36.1804 48.163 36.5153 44.0066 36.6954 42.053C36.7502 41.5066 36.9783 40.992 37.3464 40.584C37.839 40.0279 38.3923 39.1504 38.3923 39.1504C38.3923 39.1504 37.392 43.3147 37.3109 44.8971C37.2762 45.6663 37.6379 49.4608 37.2039 52.5801Z" fill="white"/>
</svg>
