<svg width="55" height="54" viewBox="0 0 55 54" fill="none" xmlns="http://www.w3.org/2000/svg">
<path fill-rule="evenodd" clip-rule="evenodd" d="M22.4885 1.03518C22.4564 1.15075 22.2307 2.16047 21.987 3.27879C21.7433 4.39711 21.4797 5.381 21.4013 5.46509C21.3228 5.5493 20.7615 5.73467 20.154 5.87691C19.5465 6.01926 18.625 6.29221 18.1065 6.48358C17.5879 6.67507 17.0797 6.8316 16.9772 6.8316C16.8748 6.8316 16.1038 6.05038 15.264 5.09568L13.7371 3.35976L13.1243 3.73758C12.7872 3.94541 12.0824 4.3887 11.558 4.72267L10.6044 5.32994L11.197 7.49233C11.5229 8.68165 11.7901 9.74579 11.7908 9.85703C11.7917 10.0416 8.54373 13.6782 8.37632 13.6799C8.33657 13.6804 7.36687 13.3773 6.22134 13.0064C5.07593 12.6356 4.12505 12.3515 4.10844 12.375C3.97214 12.568 2.38052 15.6368 2.38052 15.7067C2.38052 15.7564 3.07806 16.5142 3.93062 17.3906C5.06031 18.5518 5.48072 19.0598 5.48072 19.2639C5.48072 19.4181 5.33546 20.0263 5.15797 20.6157C4.98048 21.205 4.74952 22.1557 4.64466 22.7282C4.53992 23.3006 4.39045 23.8639 4.3125 23.98C4.21506 24.125 3.52029 24.3605 2.08544 24.7347L0 25.2786V27.2542V29.2298L2.07393 29.7738C3.21458 30.0729 4.21684 30.3987 4.30109 30.4978C4.38535 30.5969 4.54003 31.1602 4.64477 31.7496C4.74952 32.339 4.98048 33.3034 5.15797 33.8928C5.33546 34.4821 5.48072 35.0904 5.48072 35.2445C5.48072 35.4486 5.06031 35.9567 3.93062 37.1179C3.07806 37.9942 2.38052 38.752 2.38052 38.8018C2.38052 38.8724 3.97546 41.9467 4.10977 42.1349C4.12704 42.1591 5.05522 41.8754 6.17218 41.5042C7.28925 41.133 8.25773 40.8293 8.32428 40.8293C8.51372 40.8293 11.7919 44.4155 11.7919 44.6227C11.7919 44.7242 11.5194 45.7881 11.1863 46.9867C10.8534 48.1854 10.5917 49.1733 10.605 49.1823C11.5648 49.8277 13.6312 51.0418 13.7261 51.0161C13.7982 50.9965 14.4666 50.2777 15.2112 49.4188C15.9559 48.5598 16.6624 47.808 16.7813 47.7482C16.9347 47.6709 17.3272 47.7492 18.132 48.0173C18.756 48.2251 19.7041 48.499 20.2391 48.6258C20.774 48.7526 21.2812 48.9189 21.3661 48.9954C21.4509 49.0718 21.7008 49.9552 21.9213 50.9584C22.1419 51.9616 22.3714 52.9853 22.4313 53.233L22.5404 53.6835H23.6988H24.857V48.5307V43.378L23.7221 43.294C21.4565 43.1263 19.5299 42.5813 17.728 41.5981C13.5064 39.2946 10.5461 34.9509 9.731 29.864C9.59614 29.0223 9.56646 28.2648 9.60754 26.7136C9.65427 24.9472 9.70653 24.4848 9.99485 23.2898C10.6659 20.5072 11.8882 18.1529 13.732 16.0912C16.4068 13.1004 19.7254 11.4584 23.6131 11.2023L24.857 11.1202V5.97265V0.824951H23.7019C22.6978 0.824951 22.5392 0.852462 22.4885 1.03518ZM39.2508 1.79575C38.1717 2.32577 37.6519 3.2013 37.6519 4.48901C37.6519 5.4777 37.8997 6.09387 38.5442 6.70787C39.1089 7.24582 39.5698 7.43227 40.3347 7.43227C42.0944 7.43227 43.4193 5.65502 43.0167 3.8344C42.6214 2.04646 40.7753 1.04708 39.2508 1.79575ZM26.075 4.48901V5.26987H31.2235H36.3721V4.48901V3.70814H31.2235H26.075V4.48901ZM47.203 10.7187C45.5294 11.2223 44.6888 13.245 45.4635 14.9038C46.3835 16.8734 48.9218 17.109 50.1065 15.3345C51.613 13.0782 49.663 9.97837 47.203 10.7187ZM23.1408 12.5619C17.4504 13.1228 12.6811 17.5328 11.1492 23.6502C10.8855 24.7034 10.8635 24.9815 10.8635 27.2542C10.8635 29.5269 10.8855 29.805 11.1492 30.8582C12.5356 36.3945 16.5455 40.5469 21.5907 41.6708C25.9429 42.6403 30.3475 41.2787 33.6347 37.9479C39.6629 31.8397 39.2408 21.3249 32.7417 15.7039C30.0701 13.3932 26.5141 12.2294 23.1408 12.5619ZM31.0574 12.8821C31.0574 12.9063 31.452 13.1747 31.9345 13.4788C32.4168 13.783 32.8433 14.0875 32.8821 14.1558C32.9292 14.2384 34.7901 14.2799 38.4546 14.2799H43.9565V13.5591V12.8383H37.507C33.9597 12.8383 31.0574 12.858 31.0574 12.8821ZM26.7612 16.9091C31.854 18.3488 35.0028 23.8165 33.9443 29.3818C33.1659 33.4741 30.2867 36.6542 26.4473 37.6622C25.3166 37.959 23.2909 37.9328 22.0556 37.6054C18.3346 36.6188 15.5038 33.4431 14.7044 29.3586C14.4938 28.2824 14.5673 25.483 14.8339 24.4311C15.1194 23.3044 15.9313 21.5963 16.6438 20.6235C18.1662 18.5448 20.1717 17.2519 22.6805 16.7319C23.7357 16.513 25.6551 16.5964 26.7612 16.9091ZM23.1383 17.9947C18.8232 18.7435 15.7778 22.5747 15.7778 27.2542C15.7778 31.5448 18.2942 35.1015 22.1675 36.2857C23.2566 36.6186 25.1912 36.6455 26.3317 36.3436C28.7039 35.7156 30.8127 33.9221 31.9342 31.579C32.6871 30.0059 32.8828 29.1142 32.8828 27.2542C32.8828 25.8908 32.8416 25.4897 32.6243 24.7366C32.0803 22.8511 31.1239 21.2474 29.859 20.0998C28.9946 19.3155 27.4294 18.4497 26.4071 18.1904C25.5151 17.9642 23.8787 17.8662 23.1383 17.9947ZM51.7625 20.8955C50.7733 21.3467 50.3647 22.6363 50.8897 23.6497C51.4977 24.8234 53.0439 24.932 53.8014 23.8543C54.6435 22.6566 53.9346 20.9178 52.5605 20.81C52.2738 20.7876 51.9146 20.826 51.7625 20.8955ZM38.3651 22.04C38.3651 22.0794 38.4433 22.4037 38.539 22.7608L38.713 23.41H44.0751H49.4372V22.6892V21.9684H43.9011C40.8563 21.9684 38.3651 22.0006 38.3651 22.04ZM51.5323 30.1703C50.9584 30.5898 50.6552 31.16 50.6552 31.8193C50.6552 33.2568 52.1157 34.1865 53.2571 33.4757C53.8456 33.1091 54.2314 32.3154 54.1637 31.6098C54.1077 31.0242 53.6825 30.347 53.2015 30.0772C52.7185 29.8062 51.9734 29.8478 51.5323 30.1703ZM38.5514 31.7397C38.4489 32.0925 38.3651 32.4168 38.3651 32.4605C38.3651 32.5043 40.8563 32.5401 43.9011 32.5401H49.4372V31.8193V31.0985H44.0875H38.7376L38.5514 31.7397ZM46.6878 38.2588C44.9735 39.1857 44.6558 41.7579 46.0873 43.1215C46.6469 43.6545 47.1063 43.8329 47.9113 43.8299C48.8011 43.8266 49.3705 43.5477 49.9528 42.8299C51.5096 40.9108 50.2568 37.9589 47.8812 37.9487C47.4372 37.9468 47.1055 38.0329 46.6878 38.2588ZM32.8821 40.3527C32.8433 40.4209 32.4069 40.7317 31.9123 41.0434L31.0133 41.6101L34.2463 41.642C36.0244 41.6595 38.9286 41.6595 40.7 41.642L43.9206 41.6101L43.9387 40.9194L43.9567 40.2286H38.4547C34.7901 40.2286 32.9292 40.27 32.8821 40.3527ZM39.1646 47.3373C38.09 47.9027 37.4439 49.3086 37.6836 50.56C38.2588 53.5628 42.0786 53.7997 42.97 50.8879C43.4028 49.4743 42.692 47.8299 41.3939 47.2414C40.845 46.9926 39.7287 47.0406 39.1646 47.3373ZM26.075 50.0194V50.8003H31.2235H36.3721V50.0194V49.2386H31.2235H26.075V50.0194Z" fill="#E2E2E2"/>
</svg>
