<svg width="54" height="54" viewBox="0 0 54 54" fill="none" xmlns="http://www.w3.org/2000/svg">
<path fill-rule="evenodd" clip-rule="evenodd" d="M25.0631 0.965129C22.0964 1.69935 19.7903 3.69843 18.5085 6.64702C17.98 7.86279 17.7458 8.84803 17.6587 10.2215L17.5887 11.3276L16.6973 11.8912C10.8852 15.5663 7.06635 22.0091 6.43172 29.2104L6.35296 30.1043L5.62985 30.5124C3.52169 31.702 1.85642 33.9464 1.07928 36.6455C0.8443 37.4614 0.804688 37.8653 0.804688 39.443C0.804688 41.0206 0.8443 41.4245 1.07928 42.2405C2.07277 45.691 4.36341 48.1763 7.54358 49.2543C8.30466 49.5123 8.65849 49.5517 10.1805 49.5482C11.8388 49.5444 11.9983 49.5218 12.9925 49.1487L14.0464 48.7532L14.4574 49.1046C16.0284 50.4478 18.493 51.854 20.5684 52.5917C23.9091 53.7791 27.8225 54.0098 31.3211 53.2257C34.0417 52.616 37.4051 50.9295 39.5395 49.1046L39.9505 48.7532L41.0045 49.1487C41.9987 49.5218 42.1582 49.5444 43.8164 49.5482C45.3399 49.5517 45.6911 49.5124 46.4492 49.2541C49.6885 48.1505 51.9004 45.7506 52.9175 42.236C53.1529 41.423 53.1922 41.0223 53.1922 39.443C53.1922 37.8653 53.1526 37.4614 52.9177 36.6455C52.1405 33.9464 50.4752 31.702 48.3671 30.5124L47.644 30.1043L47.5652 29.2104C46.9397 22.1127 43.1978 15.7096 37.5335 12.0441L36.4074 11.3152L36.3428 10.1411C36.2128 7.7776 35.2579 5.53577 33.6275 3.76634C32.5157 2.55984 31.4396 1.8391 29.911 1.27756C28.9459 0.923166 28.633 0.870014 27.2915 0.832883C26.2875 0.805162 25.5275 0.850304 25.0631 0.965129ZM18.8945 16.0998C19.6162 17.576 21.0856 19.0881 22.6621 19.9769C24.229 20.8603 25.0557 21.0684 26.9985 21.0684C28.9413 21.0684 29.768 20.8603 31.3348 19.9769C32.9113 19.0881 34.3808 17.576 35.1025 16.0998C35.2539 15.7902 35.4203 15.5369 35.4722 15.5369C35.5243 15.5369 35.8936 15.7749 36.2929 16.0658C39.2527 18.2218 41.5379 21.3456 42.7859 24.9411C43.0688 25.7562 43.5621 27.8794 43.681 28.7933C43.7408 29.2528 43.7303 29.2702 43.3939 29.2702C42.8125 29.2702 41.2847 29.6522 40.4762 29.9997C37.7154 31.1863 35.74 33.5141 34.8325 36.6499C34.5971 37.463 34.5577 37.8636 34.5577 39.443C34.5577 41.0218 34.5972 41.4231 34.8322 42.235C35.1692 43.3993 35.75 44.6703 36.3068 45.4617C36.5373 45.7894 36.7254 46.0999 36.7249 46.1518C36.7217 46.4499 34.0466 47.9795 32.479 48.5797C29.0974 49.8743 24.9091 49.8748 21.5179 48.5809C20.0859 48.0347 18.0674 46.9129 17.2823 46.2271C17.2563 46.2043 17.4473 45.8559 17.7069 45.4529C18.3405 44.4691 18.8325 43.3831 19.1645 42.236C19.3998 41.423 19.4392 41.0223 19.4392 39.443C19.4392 37.4096 19.2554 36.4925 18.5354 34.9332C17.0766 31.7742 14.1938 29.5956 11.0966 29.3115C10.3084 29.2391 10.247 29.2128 10.2929 28.9656C10.3202 28.8184 10.4053 28.2974 10.4821 27.8078C10.7936 25.8197 11.8553 22.9969 12.969 21.1955C13.7792 19.8851 15.0118 18.3765 16.0143 17.4683C17.051 16.529 18.3113 15.5538 18.5018 15.5434C18.5664 15.5398 18.743 15.7902 18.8945 16.0998Z" fill="#E2E2E2"/>
</svg>
