<svg width="84" height="84" viewBox="0 0 84 84" fill="none" xmlns="http://www.w3.org/2000/svg">
<circle cx="42" cy="42" r="39.5" stroke="white" stroke-width="5"/>
<path d="M28.877 59.4999V50.7499M28.877 33.2499V24.4999M24.502 28.8749H33.252M24.502 55.1249H33.252M43.752 26.2499L40.7171 34.1404C40.2236 35.4236 39.9769 36.0652 39.5931 36.6048C39.253 37.0831 38.8351 37.501 38.3569 37.8411C37.8172 38.2248 37.1756 38.4716 35.8925 38.9651L28.002 41.9999L35.8925 45.0348C37.1756 45.5283 37.8172 45.775 38.3569 46.1588C38.8351 46.4989 39.253 46.9167 39.5931 47.395C39.9769 47.9347 40.2236 48.5763 40.7171 49.8594L43.752 57.7499L46.7868 49.8594C47.2803 48.5763 47.527 47.9347 47.9108 47.395C48.2509 46.9167 48.6688 46.4989 49.1471 46.1588C49.6867 45.775 50.3283 45.5283 51.6114 45.0347L59.502 41.9999L51.6114 38.9651C50.3283 38.4716 49.6867 38.2248 49.1471 37.8411C48.6688 37.501 48.2509 37.0831 47.9108 36.6048C47.527 36.0652 47.2803 35.4236 46.7868 34.1404L43.752 26.2499Z" stroke="white" stroke-width="2.625" stroke-linecap="round" stroke-linejoin="round"/>
</svg>
