<svg xmlns="http://www.w3.org/2000/svg" width="49" height="43" fill="none"><path fill="#E2E2E2" fill-rule="evenodd" d="M20.3.17a96.45 96.45 0 0 0-.44 1.818c-.215.906-.446 1.703-.515 1.772-.07.068-.563.218-1.097.333-.534.115-1.344.337-1.8.492-.456.155-.902.282-.992.282-.09 0-.768-.633-1.506-1.407l-1.343-1.406-.538.306a144 144 0 0 0-1.377.798l-.839.492.521 1.752c.287.964.522 1.826.522 1.916.001.15-2.854 3.096-3.001 3.097-.035 0-.888-.245-1.895-.545-1.007-.3-1.842-.531-1.857-.512-.12.156-1.52 2.643-1.52 2.7 0 .04.614.654 1.364 1.364.993.94 1.362 1.352 1.362 1.518 0 .124-.127.617-.283 1.095a17.93 17.93 0 0 0-.452 1.711c-.092.464-.223.92-.292 1.015-.085.117-.696.308-1.957.611l-1.834.44v3.202l1.823.44c1.003.243 1.884.507 1.958.587.074.08.21.537.302 1.015.092.477.296 1.258.452 1.736.156.477.283.97.283 1.095 0 .166-.37.577-1.362 1.518-.75.71-1.363 1.324-1.363 1.364 0 .058 1.402 2.548 1.52 2.7.015.02.831-.21 1.813-.51.982-.3 1.833-.547 1.892-.547.167 0 3.048 2.906 3.048 3.074 0 .082-.24.944-.532 1.915-.293.971-.523 1.771-.511 1.779.844.523 2.66 1.506 2.744 1.486.063-.016.65-.599 1.305-1.295.655-.696 1.276-1.305 1.38-1.353.135-.063.48 0 1.188.218.548.168 1.382.39 1.852.493.47.103.916.237.99.3.075.061.295.777.489 1.59.194.813.396 1.642.448 1.843l.096.365h2.037v-8.35l-.998-.068c-1.992-.136-3.685-.577-5.27-1.374a13.135 13.135 0 0 1-7.03-9.507c-.118-.682-.144-1.296-.108-2.553.041-1.43.087-1.806.34-2.774a12.828 12.828 0 0 1 3.286-5.832c2.351-2.423 5.269-3.754 8.686-3.961l1.094-.067V0h-1.016c-.883 0-1.022.022-1.067.17Zm14.736.617c-.949.429-1.406 1.138-1.406 2.182 0 .8.218 1.3.785 1.797.496.436.901.587 1.574.587 1.547 0 2.711-1.44 2.358-2.915C37.998.99 36.376.18 35.035.787ZM23.453 2.969V3.6h9.052V2.336h-9.052v.633Zm18.573 5.047c-1.47.408-2.21 2.047-1.529 3.39.81 1.597 3.04 1.788 4.082.35 1.324-1.828-.39-4.34-2.553-3.74ZM20.874 9.51c-5.002.455-9.195 4.028-10.542 8.984-.232.854-.25 1.079-.25 2.92 0 1.842.018 2.067.25 2.92 1.22 4.486 4.744 7.85 9.18 8.76 3.825.786 7.697-.317 10.587-3.016 5.3-4.948 4.928-13.468-.785-18.022-2.349-1.872-5.475-2.815-8.44-2.546Zm6.96.26c0 .02.346.237.77.483.424.247.8.493.833.549.042.067 1.678.1 4.899.1h4.837V9.733h-5.67c-3.118 0-5.67.016-5.67.036Zm-3.777 3.263c4.477 1.166 7.245 5.596 6.314 10.105-.684 3.316-3.215 5.892-6.59 6.709-.994.24-2.775.22-3.861-.046-3.271-.8-5.76-3.372-6.462-6.682-.185-.872-.12-3.14.114-3.992.25-.913.964-2.297 1.59-3.085 1.339-1.684 3.102-2.732 5.307-3.153.928-.177 2.615-.11 3.587.144Zm-3.185.88c-3.794.606-6.47 3.71-6.47 7.501 0 3.477 2.211 6.358 5.616 7.318.958.27 2.658.291 3.661.047 2.085-.51 3.94-1.962 4.925-3.86.662-1.275.834-1.998.834-3.505 0-1.104-.036-1.43-.227-2.04-.479-1.527-1.32-2.826-2.431-3.756-.76-.636-2.136-1.337-3.035-1.547-.784-.184-2.222-.263-2.873-.159Zm25.163 2.35a1.583 1.583 0 0 0-.767 2.231c.534.95 1.893 1.039 2.56.166.74-.97.116-2.38-1.092-2.467-.252-.018-.567.013-.701.07Zm-11.778.927c0 .032.07.294.153.584l.153.526h9.428V17.13h-4.867c-2.677 0-4.867.026-4.867.058Zm11.575 6.587c-.504.34-.77.802-.77 1.336 0 1.165 1.283 1.918 2.287 1.342.517-.297.856-.94.797-1.512-.05-.474-.423-1.023-.846-1.241-.425-.22-1.08-.186-1.468.075Zm-11.41 1.272c-.091.285-.165.548-.165.584 0 .035 2.19.064 4.867.064h4.867v-1.168h-9.406l-.164.52Zm7.152 5.281c-1.507.751-1.787 2.835-.528 3.94.492.432.896.577 1.603.574.782-.003 1.283-.228 1.795-.81 1.368-1.555.267-3.947-1.821-3.955a2.132 2.132 0 0 0-1.05.251Zm-12.137 1.697c-.034.055-.417.307-.852.56l-.79.459 2.842.026c1.563.014 4.116.014 5.673 0l2.831-.026.016-.56.016-.56h-4.837c-3.221 0-4.857.034-4.899.1Zm5.523 5.659c-.944.458-1.513 1.597-1.302 2.611.506 2.433 3.864 2.625 4.647.266.38-1.146-.244-2.478-1.385-2.955-.483-.201-1.464-.162-1.96.078Zm-11.507 2.173v.633h9.052v-1.266h-9.052v.633Z" clip-rule="evenodd"/></svg>