<svg width="53" height="56" viewBox="0 0 53 56" fill="none" xmlns="http://www.w3.org/2000/svg">
<g clip-path="url(#clip0_4930_26145)">
<path d="M53 0H0V56H53V0Z" fill="#512BD4"/>
<path d="M9.4487 35.7776C9.07396 35.7776 8.75543 35.6456 8.4931 35.3816C8.23077 35.1108 8.09961 34.7892 8.09961 34.4169C8.09961 34.0378 8.23077 33.7129 8.4931 33.4421C8.75543 33.1713 9.07396 33.0359 9.4487 33.0359C9.8297 33.0359 10.1514 33.1713 10.4137 33.4421C10.6823 33.7129 10.8165 34.0378 10.8165 34.4169C10.8165 34.7892 10.6823 35.1108 10.4137 35.3816C10.1514 35.6456 9.8297 35.7776 9.4487 35.7776Z" fill="white"/>
<path d="M24.4276 35.5545H21.9917L15.5742 24.8569C15.4118 24.5862 15.2774 24.3054 15.1713 24.0144H15.1151C15.165 24.3257 15.19 24.9922 15.19 26.0138V35.5545H13.0352V21H15.6303L21.8325 31.4439C22.0948 31.877 22.2634 32.1747 22.3384 32.3371H22.3758C22.3134 31.9514 22.2821 31.2985 22.2821 30.3782V21H24.4276V35.5545Z" fill="white"/>
<path d="M34.9207 35.5545H27.3789V21H34.621V23.0503H29.6087V27.1709H34.2275V29.211H29.6087V33.5144H34.9207V35.5545Z" fill="white"/>
<path d="M45.6356 23.0503H41.7757V35.5545H39.5458V23.0503H35.6953V21H45.6356V23.0503Z" fill="white"/>
</g>
<defs>
<clipPath id="clip0_4930_26145">
<rect width="53" height="56" fill="white"/>
</clipPath>
</defs>
</svg>
