<svg xmlns="http://www.w3.org/2000/svg" width="58" height="61" fill="none"><path fill="#FFCA28" d="M7.25 7.625h43.5v45.75H7.25z"/><path fill="#3E3E3E" d="m33.66 45.675 3.204-2.228c.25.829 1.84 2.799 3.848 2.799 2.007 0 2.94-1.154 2.94-1.918 0-2.084-2.05-2.818-3.035-3.171a5.53 5.53 0 0 1-.383-.147 5.49 5.49 0 0 0-.207-.085c-1.095-.44-5.135-2.064-5.135-6.77 0-5.183 4.756-5.779 5.831-5.779.704 0 4.088.09 5.773 3.421l-3.108 2.28c-.68-1.45-1.813-1.93-2.51-1.93-1.72 0-2.079 1.327-2.079 1.93 0 1.695 1.87 2.455 3.449 3.096.413.168.806.328 1.14.494 1.721.855 4.255 2.255 4.255 6.66 0 2.208-1.76 5.78-6.19 5.78-5.952 0-7.53-3.758-7.792-4.431ZM18.125 46.118l3.338-2.228c.262.83 1.278 2.358 2.753 2.358s2.23-1.593 2.23-2.358V28.866h4.105V43.89c.066 2.073-1.027 6.217-5.85 6.217-4.434 0-6.277-2.771-6.576-3.989Z"/></svg>