<svg width="48" height="49" viewBox="0 0 48 49" fill="none" xmlns="http://www.w3.org/2000/svg">
    <rect x="6" y="6.81641" width="36" height="36" fill="#FFCA28" />
    <path
        d="M27.8571 36.7577L30.5077 35.0039C30.7154 35.6565 32.0308 37.2064 33.6923 37.2064C35.3538 37.2064 36.1253 36.2989 36.1253 35.6973C36.1253 34.0577 34.4287 33.4797 33.6138 33.202C33.4809 33.1567 33.3715 33.1195 33.2967 33.0869C33.2584 33.0702 33.2003 33.048 33.1258 33.0195C32.2195 32.6733 28.8758 31.3958 28.8758 27.6928C28.8758 23.6141 32.8121 23.145 33.7022 23.145C34.2845 23.145 37.0846 23.2164 38.4791 25.837L35.9077 27.6316C35.344 26.4896 34.4073 26.1123 33.8308 26.1123C32.4066 26.1123 32.1099 27.1564 32.1099 27.6316C32.1099 28.9652 33.6572 29.5629 34.9637 30.0676C35.3055 30.1996 35.6309 30.3253 35.9077 30.4561C37.3319 31.1291 39.4286 32.2303 39.4286 35.6973C39.4286 37.4337 37.9721 40.245 34.3055 40.245C29.3802 40.245 28.0747 37.288 27.8571 36.7577Z"
        fill="#3E3E3E" />
    <path
        d="M15 37.106L17.7626 35.353C17.9791 36.0053 18.8202 37.2079 20.0407 37.2079C21.2612 37.2079 21.8858 35.9543 21.8858 35.353V23.5307H25.2834V35.353C25.3384 36.9837 24.434 40.245 20.4427 40.245C16.773 40.245 15.2474 38.064 15 37.106Z"
        fill="#3E3E3E" />
</svg>