<svg width="36" height="36" viewBox="0 0 36 36" fill="none" xmlns="http://www.w3.org/2000/svg">
<g clip-path="url(#clip0_1637_6590)">
<path d="M36 0H0V36H36V0Z" fill="#512BD4"/>
<path d="M6.41832 22.9989C6.16378 22.9989 5.94741 22.9141 5.76923 22.7445C5.59105 22.5705 5.50195 22.3639 5.50195 22.1247C5.50195 21.881 5.59105 21.6723 5.76923 21.4983C5.94741 21.3243 6.16378 21.2373 6.41832 21.2373C6.67711 21.2373 6.8956 21.3243 7.07378 21.4983C7.2562 21.6723 7.34742 21.881 7.34742 22.1247C7.34742 22.3639 7.2562 22.5705 7.07378 22.7445C6.8956 22.9141 6.67711 22.9989 6.41832 22.9989Z" fill="white"/>
<path d="M16.5918 22.8564H14.9372L10.5781 15.9794C10.4678 15.8054 10.3766 15.6249 10.3045 15.4378H10.2663C10.3002 15.638 10.3172 16.0664 10.3172 16.7232V22.8564H8.85352V13.5H10.6163L14.829 20.2139C15.0072 20.4924 15.1218 20.6837 15.1727 20.7881H15.1981C15.1557 20.5402 15.1345 20.1204 15.1345 19.5288V13.5H16.5918V22.8564Z" fill="white"/>
<path d="M23.7204 22.8564H18.5977V13.5H23.5168V14.818H20.1123V17.467H23.2495V18.7785H20.1123V21.545H23.7204V22.8564Z" fill="white"/>
<path d="M30.998 14.818H28.3761V22.8564H26.8615V14.818H24.2461V13.5H30.998V14.818Z" fill="white"/>
</g>
<defs>
<clipPath id="clip0_1637_6590">
<rect width="36" height="36" fill="white"/>
</clipPath>
</defs>
</svg>
