<svg xmlns="http://www.w3.org/2000/svg" width="53" height="56" fill="none"><g clip-path="url(#a)"><path fill="#512BD4" d="M53 0H0v56h53V0Z"/><path fill="#fff" d="M9.449 35.778c-.375 0-.694-.132-.956-.396a1.34 1.34 0 0 1-.393-.965c0-.38.13-.704.393-.975.262-.27.581-.406.956-.406.38 0 .702.135.965.406.268.27.402.596.402.975 0 .372-.134.694-.402.965a1.308 1.308 0 0 1-.965.396ZM24.428 35.554h-2.436l-6.418-10.697a4.893 4.893 0 0 1-.403-.843h-.056c.05.312.075.978.075 2v9.54h-2.155V21h2.595l6.202 10.444c.263.433.431.73.506.893h.038c-.063-.386-.094-1.039-.094-1.959V21h2.146v14.554ZM34.92 35.554H27.38V21h7.242v2.05h-5.012v4.12h4.618v2.041H29.61v4.303h5.312v2.04ZM45.636 23.05h-3.86v12.504h-2.23V23.05h-3.85V21h9.94v2.05Z"/></g><defs><clipPath id="a"><path fill="#fff" d="M0 0h53v56H0z"/></clipPath></defs></svg>