<svg width="48" height="48" viewBox="0 0 48 48" fill="none" xmlns="http://www.w3.org/2000/svg">
<path d="M23.9997 42C23.5036 42 23.0405 41.8677 22.6106 41.6362L18.2119 39.0234C17.5504 38.6596 17.8812 38.5273 18.0796 38.4612C18.9726 38.1635 19.1379 38.0974 20.064 37.5682C20.1632 37.5021 20.2955 37.5351 20.3947 37.6013L23.7682 39.6187C23.9004 39.6849 24.0658 39.6849 24.165 39.6187L37.3612 31.9789C37.4935 31.9127 37.5596 31.7804 37.5596 31.6151V16.3684C37.5596 16.203 37.4935 16.0707 37.3612 16.0046L24.165 8.3978C24.0327 8.33165 23.8674 8.33165 23.7682 8.3978L10.572 16.0046C10.4397 16.0707 10.3736 16.2361 10.3736 16.3684V31.6151C10.3736 31.7474 10.4397 31.9127 10.572 31.9789L14.177 34.0625C16.1283 35.0547 17.352 33.8971 17.352 32.7395V17.6913C17.352 17.4929 17.5174 17.2944 17.7489 17.2944H19.4356C19.634 17.2944 19.8325 17.4598 19.8325 17.6913V32.7395C19.8325 35.3523 18.4103 36.8737 15.9298 36.8737C15.1692 36.8737 14.5739 36.8737 12.8871 36.0469L9.41446 34.0625C8.55456 33.5664 8.02539 32.6403 8.02539 31.6481V16.4015C8.02539 15.4093 8.55456 14.4832 9.41446 13.9871L22.6106 6.34727C23.4374 5.88424 24.5619 5.88424 25.3887 6.34727L38.5849 13.9871C39.4448 14.4832 39.9739 15.4093 39.9739 16.4015V31.6481C39.9739 32.6403 39.4448 33.5664 38.5849 34.0625L25.3887 41.7023C24.9588 41.9008 24.4627 42 23.9997 42ZM28.0676 31.5158C22.2799 31.5158 21.0892 28.87 21.0892 26.621C21.0892 26.4226 21.2546 26.2242 21.4861 26.2242H23.2059C23.4044 26.2242 23.5697 26.3565 23.5697 26.5549C23.8343 28.3078 24.595 29.1677 28.1007 29.1677C30.8789 29.1677 32.0695 28.5393 32.0695 27.051C32.0695 26.1911 31.7388 25.5627 27.4062 25.1328C23.8012 24.7689 21.5523 23.9752 21.5523 21.0978C21.5523 18.4189 23.8012 16.8314 27.5716 16.8314C31.8049 16.8314 33.8885 18.2866 34.1531 21.4616C34.1531 21.5609 34.12 21.6601 34.0539 21.7593C33.9877 21.8254 33.8885 21.8916 33.7893 21.8916H32.0695C31.9041 21.8916 31.7388 21.7593 31.7057 21.5939C31.3088 19.7749 30.2835 19.1796 27.5716 19.1796C24.5288 19.1796 24.165 20.2379 24.165 21.0317C24.165 21.9908 24.595 22.2885 28.696 22.8176C32.764 23.3468 34.6823 24.1075 34.6823 26.9518C34.6492 29.8622 32.2679 31.5158 28.0676 31.5158Z" fill="#539E43"/>
</svg>
