<svg xmlns="http://www.w3.org/2000/svg" width="68" height="72" fill="none"><path fill="#539E43" d="M34 63c-.703 0-1.36-.198-1.968-.546L25.8 58.535c-.937-.546-.469-.744-.187-.843 1.265-.447 1.499-.546 2.81-1.34.141-.099.329-.05.47.05l4.778 3.026c.188.1.422.1.563 0l18.694-11.46c.188-.099.281-.297.281-.545v-22.87c0-.248-.093-.447-.28-.546l-18.695-11.41c-.188-.1-.422-.1-.563 0l-18.694 11.41c-.188.1-.281.347-.281.546v22.87c0 .198.093.446.28.545l5.108 3.126c2.764 1.488 4.498-.248 4.498-1.985V26.537c0-.298.234-.595.562-.595h2.39c.28 0 .562.248.562.595v22.572c0 3.92-2.015 6.201-5.529 6.201-1.078 0-1.92 0-4.31-1.24l-4.92-2.976c-1.218-.744-1.968-2.133-1.968-3.622v-22.87c0-1.488.75-2.877 1.968-3.621L32.032 9.52c1.17-.695 2.764-.695 3.935 0l18.695 11.46c1.218.744 1.968 2.133 1.968 3.621v22.87c0 1.489-.75 2.878-1.968 3.622l-18.695 11.46A4.57 4.57 0 0 1 34 63Zm5.762-15.726c-8.199 0-9.886-3.969-9.886-7.342 0-.298.234-.596.563-.596h2.436c.281 0 .515.199.515.496.375 2.63 1.453 3.92 6.42 3.92 3.935 0 5.622-.943 5.622-3.175 0-1.29-.469-2.233-6.607-2.878-5.107-.546-8.293-1.736-8.293-6.052 0-4.019 3.186-6.4 8.527-6.4 5.998 0 8.95 2.183 9.324 6.946a.833.833 0 0 1-.14.446c-.094.1-.234.198-.375.198h-2.436c-.235 0-.469-.198-.516-.446-.562-2.729-2.014-3.622-5.856-3.622-4.311 0-4.826 1.588-4.826 2.779 0 1.438.609 1.885 6.419 2.679 5.763.793 8.48 1.934 8.48 6.2-.047 4.366-3.42 6.847-9.37 6.847Z"/></svg>