<svg xmlns="http://www.w3.org/2000/svg" width="50" height="52" fill="none"><path fill="url(#a)" d="M24.823.135C12.299.135 13.08 5.86 13.08 5.86l.014 5.93h11.95v1.781H8.349S.334 12.613.334 25.933 7.329 38.78 7.329 38.78h4.174V32.6s-.225-7.373 6.883-7.373H30.24s6.66.113 6.66-6.785V7.037S37.91.135 24.822.135Zm-6.59 3.989c1.189 0 2.15 1.013 2.15 2.266 0 1.253-.961 2.266-2.15 2.266-1.19 0-2.15-1.013-2.15-2.266 0-1.253.96-2.266 2.15-2.266Z"/><path fill="url(#b)" d="M25.179 51.864c12.524 0 11.741-5.724 11.741-5.724l-.014-5.93h-11.95v-1.782h16.697s8.014.959 8.014-12.361-6.994-12.847-6.994-12.847h-4.175v6.18s.225 7.373-6.883 7.373H19.762s-6.66-.113-6.66 6.784v11.405s-1.011 6.902 12.077 6.902Zm6.59-3.988c-1.19 0-2.15-1.013-2.15-2.266 0-1.253.96-2.266 2.15-2.266 1.189 0 2.15 1.013 2.15 2.266 0 1.253-.961 2.266-2.15 2.266Z"/><defs><linearGradient id="a" x1="5.075" x2="30.795" y1="4.788" y2="28.946" gradientUnits="userSpaceOnUse"><stop stop-color="#387EB8"/><stop offset="1" stop-color="#366994"/></linearGradient><linearGradient id="b" x1="20.081" x2="47.635" y1="21.171" y2="45.882" gradientUnits="userSpaceOnUse"><stop stop-color="#FFE052"/><stop offset="1" stop-color="#FFC331"/></linearGradient></defs></svg>