<svg xmlns="http://www.w3.org/2000/svg" width="109" height="41" fill="none"><path fill="#C00" fill-rule="evenodd" d="M94.063 34.958v5.225h8.926c1.829 0 4.969-1.414 5.078-5.37v-2.02c0-3.378-2.621-5.37-5.078-5.37h-4.45v-2.425h8.818v-5.255h-8.462c-2.184 0-5.105 1.906-5.105 5.457v1.819c0 3.55 2.893 5.37 5.105 5.37 6.142.028-1.474 0 4.203 0v2.54m-56.861-1.242s4.777-.433 4.777-6.957c0-6.525-5.787-7.13-5.787-7.13H34.799v20.583h5.241v-4.965l4.532 4.965h7.752l-6.087-6.496Zm-2.02-4.214H40.04v-4.706h4.204s1.174.462 1.174 2.338c0 1.877-1.201 2.367-1.201 2.367Zm19.736-9.73H58.63c-3.794 0-5.077 3.638-5.077 5.37v15.07h5.323v-3.609h4.995v3.61h5.16v-15.07c0-4.389-3.768-5.37-5.078-5.37Zm-.082 11h-5.023v-4.995s0-1.126 1.666-1.126h1.828c1.475 0 1.502 1.126 1.502 1.126v4.995h.027Z" clip-rule="evenodd"/><path fill="#C00" d="M77.01 19.744H71.47v20.44h5.541v-20.44Z"/><path fill="#C00" fill-rule="evenodd" d="M84.784 34.9V19.745h-5.515v20.44H92.236v-5.283h-7.452ZM1.908 40.187h21.566S19.352 20.296 33 12.24c2.975-1.53 12.448-7.246 27.953 4.879.491-.433.955-.78.955-.78s-14.195-14.983-30-13.308c-7.944.75-17.717 8.4-23.45 18.505-5.732 10.104-6.55 18.65-6.55 18.65Z" clip-rule="evenodd"/><path fill="#C00" fill-rule="evenodd" d="M1.908 40.187h21.566S19.352 20.296 33 12.24c2.975-1.53 12.448-7.246 27.953 4.879.491-.433.955-.78.955-.78s-14.195-14.983-30-13.308c-7.944.75-17.717 8.4-23.45 18.505-5.732 10.104-6.55 18.65-6.55 18.65Z" clip-rule="evenodd"/><path fill="#C00" fill-rule="evenodd" d="M1.908 40.187h21.566S19.352 20.296 33 12.24c2.975-1.53 12.448-7.246 27.953 4.879.491-.433.955-.78.955-.78s-14.195-14.983-30-13.308c-7.971.75-17.744 8.4-23.477 18.505C2.7 31.64 1.908 40.187 1.908 40.187ZM46.841 4.648l.109-1.934c-.246-.144-.928-.49-2.648-1.01l-.11 1.905c.902.318 1.775.664 2.649 1.04Z" clip-rule="evenodd"/><path fill="#C00" fill-rule="evenodd" d="m44.25 10.768-.11 1.82c.902.028 1.803.143 2.703.346l.11-1.79a18.342 18.342 0 0 0-2.703-.376Zm-10.1-9.007h.273L33.877 0c-.846 0-1.72.058-2.62.173l.518 1.704a21.8 21.8 0 0 1 2.375-.116Zm1.31 10.624.628 1.992a16.73 16.73 0 0 1 2.375-1.01l-.6-1.906c-.929.289-1.72.606-2.403.924ZM23.067 4.792 21.838 2.8c-.682.376-1.392.78-2.129 1.242l1.256 2.02c.71-.461 1.392-.894 2.102-1.27Zm5.596 12.992 1.31 2.078c.464-.721 1.01-1.385 1.61-2.05l-1.228-1.963a15.671 15.671 0 0 0-1.692 1.935Zm-3.958 9.296 2.21 1.847c.11-1.126.301-2.252.574-3.378l-1.965-1.645c-.355 1.068-.6 2.136-.82 3.176ZM12.748 13.367l-1.938-1.79a48.79 48.79 0 0 0-2.02 2.165l2.102 1.905a28.842 28.842 0 0 1 1.856-2.28ZM4.504 26.27l-3.14-1.212C.847 26.3.274 27.744 0 28.523l3.14 1.213c.354-.982.927-2.397 1.364-3.465Zm19.791 8.141c.055 1.53.191 2.772.328 3.638l3.276 1.241a40.135 40.135 0 0 1-.656-3.753l-2.948-1.126Z" clip-rule="evenodd"/></svg>