<svg width="48" height="49" viewBox="0 0 48 49" fill="none" xmlns="http://www.w3.org/2000/svg">
    <path
        d="M35.5992 19.183C35.2258 19.0544 34.8388 18.9328 34.4403 18.8178C34.5058 18.5505 34.5659 18.2867 34.6194 18.0274C35.4966 13.7691 34.9231 10.3386 32.9645 9.20911C31.0864 8.12611 28.015 9.25532 24.9131 11.9549C24.6148 12.2144 24.3157 12.4893 24.0167 12.7773C23.8174 12.5867 23.6185 12.4026 23.4201 12.2264C20.1692 9.3399 16.9106 8.12348 14.954 9.25621C13.0777 10.3424 12.5221 13.5674 13.3117 17.603C13.388 17.9928 13.4771 18.3908 13.5779 18.7955C13.1167 18.9265 12.6715 19.066 12.2455 19.2145C8.43412 20.5433 6 22.6259 6 24.7861C6 27.0171 8.61303 29.2549 12.5829 30.6118C12.8962 30.7189 13.2212 30.8201 13.5563 30.9162C13.4475 31.354 13.3529 31.7829 13.2735 32.2013C12.5206 36.1669 13.1086 39.3157 14.9798 40.3949C16.9127 41.5095 20.1565 40.3639 23.3152 37.6028C23.5648 37.3846 23.8154 37.1531 24.0664 36.9105C24.3917 37.2238 24.7165 37.5203 25.0396 37.7984C28.0992 40.4312 31.121 41.4944 32.9905 40.4121C34.9214 39.2943 35.5489 35.9117 34.7342 31.7962C34.672 31.4819 34.5996 31.1608 34.5183 30.834C34.7461 30.7667 34.9697 30.6972 35.1878 30.6249C39.3148 29.2575 42 27.0469 42 24.7861C42 22.6181 39.4874 20.5215 35.5992 19.183ZM34.7041 29.1651C34.5072 29.2302 34.3053 29.2932 34.0994 29.3543C33.6438 27.9119 33.0289 26.3782 32.2764 24.7936C32.9945 23.2467 33.5857 21.7326 34.0285 20.2995C34.3968 20.4061 34.7542 20.5185 35.0986 20.6371C38.43 21.784 40.4621 23.4796 40.4621 24.7861C40.4621 26.1778 38.2675 27.9843 34.7041 29.1651ZM33.2255 32.0949C33.5858 33.9147 33.6372 35.56 33.3986 36.8462C33.1842 38.002 32.753 38.7725 32.2199 39.0811C31.0853 39.7378 28.6592 38.8842 26.0426 36.6326C25.7426 36.3745 25.4405 36.0989 25.1374 35.8072C26.1518 34.6978 27.1656 33.408 28.155 31.9757C29.8954 31.8212 31.5396 31.5688 33.0307 31.2241C33.1041 31.5203 33.1693 31.8109 33.2255 32.0949ZM18.2732 38.9676C17.1648 39.3591 16.2819 39.3703 15.7483 39.0626C14.6127 38.4077 14.1407 35.8795 14.7846 32.4881C14.8584 32.0997 14.9461 31.7008 15.0473 31.293C16.522 31.6191 18.1542 31.8537 19.8987 31.9951C20.8948 33.3968 21.9379 34.6851 22.9891 35.8131C22.7594 36.0349 22.5307 36.2459 22.3032 36.4448C20.9064 37.6657 19.5067 38.532 18.2732 38.9676ZM13.0803 29.1566C11.3249 28.5566 9.87521 27.7768 8.88153 26.9259C7.98864 26.1612 7.53784 25.4021 7.53784 24.7861C7.53784 23.4752 9.49221 21.8032 12.7517 20.6667C13.1472 20.5288 13.5613 20.3989 13.9909 20.2768C14.4414 21.7422 15.0323 23.2742 15.7455 24.8235C15.0231 26.3958 14.4238 27.9522 13.9689 29.4348C13.6626 29.3467 13.3658 29.2541 13.0803 29.1566ZM14.821 17.3076C14.1444 13.85 14.5938 11.2417 15.7245 10.5872C16.9288 9.88996 19.592 10.8841 22.399 13.3765C22.5784 13.5358 22.7585 13.7025 22.9392 13.875C21.8932 14.9981 20.8597 16.2768 19.8724 17.6701C18.1793 17.827 16.5586 18.0791 15.0685 18.4167C14.9748 18.0398 14.8918 17.6696 14.821 17.3076ZM30.3498 21.1421C29.9935 20.5268 29.6278 19.926 29.255 19.3417C30.4037 19.4869 31.5042 19.6796 32.5376 19.9155C32.2274 20.9099 31.8406 21.9496 31.3854 23.0154C31.0589 22.3955 30.7135 21.7704 30.3498 21.1421ZM24.0172 14.9741C24.7265 15.7426 25.4369 16.6006 26.1356 17.5316C25.4315 17.4983 24.7187 17.481 24 17.481C23.2881 17.481 22.5805 17.4979 21.8808 17.5306C22.5802 16.6083 23.2967 15.7514 24.0172 14.9741ZM17.644 21.1527C17.2882 21.7697 16.9492 22.3914 16.6278 23.0143C16.1799 21.9522 15.7968 20.9077 15.4838 19.8992C16.511 19.6694 17.6063 19.4814 18.7476 19.339C18.3695 19.9287 18.0008 20.5339 17.644 21.1526V21.1527ZM18.7805 30.3429C17.6013 30.2113 16.4895 30.033 15.4626 29.8095C15.7806 28.783 16.1722 27.7163 16.6295 26.6313C16.9518 27.2537 17.2921 27.8757 17.6501 28.494H17.6502C18.0148 29.124 18.3927 29.7411 18.7805 30.3429ZM24.0597 34.7065C23.3308 33.92 22.6038 33.0501 21.8937 32.1143C22.583 32.1414 23.2858 32.1552 24 32.1552C24.7338 32.1552 25.4592 32.1387 26.1731 32.1069C25.4721 33.0595 24.7643 33.9308 24.0597 34.7065ZM31.4001 26.576C31.8813 27.6727 32.2869 28.7339 32.609 29.7429C31.5652 29.981 30.4382 30.1728 29.2508 30.3153C29.6245 29.7231 29.9934 29.112 30.3559 28.4835C30.7226 27.8475 31.0709 27.2107 31.4001 26.576ZM29.0238 27.7151C28.461 28.6909 27.8833 29.6223 27.2968 30.5016C26.2285 30.578 25.1249 30.6173 24 30.6173C22.8797 30.6173 21.79 30.5825 20.7406 30.5144C20.1304 29.6236 19.5401 28.6894 18.981 27.7235H18.9811C18.4234 26.7603 17.9101 25.7889 17.4451 24.823C17.91 23.8548 18.4219 22.8823 18.9764 21.9208L18.9763 21.921C19.5322 20.9569 20.1174 20.0273 20.7219 19.1421C21.7925 19.0611 22.8904 19.0189 23.9999 19.0189H24C25.1145 19.0189 26.2138 19.0615 27.2841 19.1431C27.8794 20.0218 28.4606 20.9485 29.0187 21.9127C29.5832 22.8877 30.1017 23.8537 30.5707 24.8011C30.1031 25.7648 29.5857 26.7406 29.0238 27.7151ZM32.1963 10.5415C33.4018 11.2367 33.8706 14.0404 33.1132 17.717C33.0649 17.9515 33.0105 18.1905 32.9514 18.4327C31.4578 18.088 29.836 17.8316 28.1379 17.6723C27.1487 16.2636 26.1237 14.983 25.0947 13.8743C25.3714 13.6082 25.6476 13.3544 25.9227 13.115C28.5805 10.802 31.0645 9.88881 32.1963 10.5415ZM24 21.5714C25.7754 21.5714 27.2147 23.0106 27.2147 24.7861C27.2147 26.5615 25.7754 28.0008 24 28.0008C22.2246 28.0008 20.7853 26.5615 20.7853 24.7861C20.7853 23.0106 22.2246 21.5714 24 21.5714Z"
        fill="#00D8FF" />
    <path
        d="M35.5992 19.183C35.2258 19.0544 34.8388 18.9328 34.4403 18.8178C34.5058 18.5505 34.5659 18.2867 34.6194 18.0274C35.4966 13.7691 34.9231 10.3386 32.9645 9.20911C31.0864 8.12611 28.015 9.25532 24.9131 11.9549C24.6148 12.2144 24.3157 12.4893 24.0167 12.7773C23.8174 12.5867 23.6185 12.4026 23.4201 12.2264C20.1692 9.3399 16.9106 8.12348 14.954 9.25621C13.0777 10.3424 12.5221 13.5674 13.3117 17.603C13.388 17.9928 13.4771 18.3908 13.5779 18.7955C13.1167 18.9265 12.6715 19.066 12.2455 19.2145C8.43412 20.5433 6 22.6259 6 24.7861C6 27.0171 8.61303 29.2549 12.5829 30.6118C12.8962 30.7189 13.2212 30.8201 13.5563 30.9162C13.4475 31.354 13.3529 31.7829 13.2735 32.2013C12.5206 36.1669 13.1086 39.3157 14.9798 40.3949C16.9127 41.5095 20.1565 40.3639 23.3152 37.6028C23.5648 37.3846 23.8154 37.1531 24.0664 36.9105C24.3917 37.2238 24.7165 37.5203 25.0396 37.7984C28.0992 40.4312 31.121 41.4944 32.9905 40.4121C34.9214 39.2943 35.5489 35.9117 34.7342 31.7962C34.672 31.4819 34.5996 31.1608 34.5183 30.834C34.7461 30.7667 34.9697 30.6972 35.1878 30.6249C39.3148 29.2575 42 27.0469 42 24.7861C42 22.6181 39.4874 20.5215 35.5992 19.183ZM34.7041 29.1651C34.5072 29.2302 34.3053 29.2932 34.0994 29.3543C33.6438 27.9119 33.0289 26.3782 32.2764 24.7936C32.9945 23.2467 33.5857 21.7326 34.0285 20.2995C34.3968 20.4061 34.7542 20.5185 35.0986 20.6371C38.43 21.784 40.4621 23.4796 40.4621 24.7861C40.4621 26.1778 38.2675 27.9843 34.7041 29.1651ZM33.2255 32.0949C33.5858 33.9147 33.6372 35.56 33.3986 36.8462C33.1842 38.002 32.753 38.7725 32.2199 39.0811C31.0853 39.7378 28.6592 38.8842 26.0426 36.6326C25.7426 36.3745 25.4405 36.0989 25.1374 35.8072C26.1518 34.6978 27.1656 33.408 28.155 31.9757C29.8954 31.8212 31.5396 31.5688 33.0307 31.2241C33.1041 31.5203 33.1693 31.8109 33.2255 32.0949ZM18.2732 38.9676C17.1648 39.3591 16.2819 39.3703 15.7483 39.0626C14.6127 38.4077 14.1407 35.8795 14.7846 32.4881C14.8584 32.0997 14.9461 31.7008 15.0473 31.293C16.522 31.6191 18.1542 31.8537 19.8987 31.9951C20.8948 33.3968 21.9379 34.6851 22.9891 35.8131C22.7594 36.0349 22.5307 36.2459 22.3032 36.4448C20.9064 37.6657 19.5067 38.532 18.2732 38.9676ZM13.0803 29.1566C11.3249 28.5566 9.87521 27.7768 8.88153 26.9259C7.98864 26.1612 7.53784 25.4021 7.53784 24.7861C7.53784 23.4752 9.49221 21.8032 12.7517 20.6667C13.1472 20.5288 13.5613 20.3989 13.9909 20.2768C14.4414 21.7422 15.0323 23.2742 15.7455 24.8235C15.0231 26.3958 14.4238 27.9522 13.9689 29.4348C13.6626 29.3467 13.3658 29.2541 13.0803 29.1566ZM14.821 17.3076C14.1444 13.85 14.5938 11.2417 15.7245 10.5872C16.9288 9.88996 19.592 10.8841 22.399 13.3765C22.5784 13.5358 22.7585 13.7025 22.9392 13.875C21.8932 14.9981 20.8597 16.2768 19.8724 17.6701C18.1793 17.827 16.5586 18.0791 15.0685 18.4167C14.9748 18.0398 14.8918 17.6696 14.821 17.3076ZM30.3498 21.1421C29.9935 20.5268 29.6278 19.926 29.255 19.3417C30.4037 19.4869 31.5042 19.6796 32.5376 19.9155C32.2274 20.9099 31.8406 21.9496 31.3854 23.0154C31.0589 22.3955 30.7135 21.7704 30.3498 21.1421ZM24.0172 14.9741C24.7265 15.7426 25.4369 16.6006 26.1356 17.5316C25.4315 17.4983 24.7187 17.481 24 17.481C23.2881 17.481 22.5805 17.4979 21.8808 17.5306C22.5802 16.6083 23.2967 15.7514 24.0172 14.9741ZM17.644 21.1527C17.2882 21.7697 16.9492 22.3914 16.6278 23.0143C16.1799 21.9522 15.7968 20.9077 15.4838 19.8992C16.511 19.6694 17.6063 19.4814 18.7476 19.339C18.3695 19.9287 18.0008 20.5339 17.644 21.1526V21.1527ZM18.7805 30.3429C17.6013 30.2113 16.4895 30.033 15.4626 29.8095C15.7806 28.783 16.1722 27.7163 16.6295 26.6313C16.9518 27.2537 17.2921 27.8757 17.6501 28.494H17.6502C18.0148 29.124 18.3927 29.7411 18.7805 30.3429ZM24.0597 34.7065C23.3308 33.92 22.6038 33.0501 21.8937 32.1143C22.583 32.1414 23.2858 32.1552 24 32.1552C24.7338 32.1552 25.4592 32.1387 26.1731 32.1069C25.4721 33.0595 24.7643 33.9308 24.0597 34.7065ZM31.4001 26.576C31.8813 27.6727 32.2869 28.7339 32.609 29.7429C31.5652 29.981 30.4382 30.1728 29.2508 30.3153C29.6245 29.7231 29.9934 29.112 30.3559 28.4835C30.7226 27.8475 31.0709 27.2107 31.4001 26.576ZM29.0238 27.7151C28.461 28.6909 27.8833 29.6223 27.2968 30.5016C26.2285 30.578 25.1249 30.6173 24 30.6173C22.8797 30.6173 21.79 30.5825 20.7406 30.5144C20.1304 29.6236 19.5401 28.6894 18.981 27.7235H18.9811C18.4234 26.7603 17.9101 25.7889 17.4451 24.823C17.91 23.8548 18.4219 22.8823 18.9764 21.9208L18.9763 21.921C19.5322 20.9569 20.1174 20.0273 20.7219 19.1421C21.7925 19.0611 22.8904 19.0189 23.9999 19.0189H24C25.1145 19.0189 26.2138 19.0615 27.2841 19.1431C27.8794 20.0218 28.4606 20.9485 29.0187 21.9127C29.5832 22.8877 30.1017 23.8537 30.5707 24.8011C30.1031 25.7648 29.5857 26.7406 29.0238 27.7151ZM32.1963 10.5415C33.4018 11.2367 33.8706 14.0404 33.1132 17.717C33.0649 17.9515 33.0105 18.1905 32.9514 18.4327C31.4578 18.088 29.836 17.8316 28.1379 17.6723C27.1487 16.2636 26.1237 14.983 25.0947 13.8743C25.3714 13.6082 25.6476 13.3544 25.9227 13.115C28.5805 10.802 31.0645 9.88881 32.1963 10.5415ZM24 21.5714C25.7754 21.5714 27.2147 23.0106 27.2147 24.7861C27.2147 26.5615 25.7754 28.0008 24 28.0008C22.2246 28.0008 20.7853 26.5615 20.7853 24.7861C20.7853 23.0106 22.2246 21.5714 24 21.5714Z"
        fill="#00D8FF" />
    <path
        d="M35.5992 19.183C35.2258 19.0544 34.8388 18.9328 34.4403 18.8178C34.5058 18.5505 34.5659 18.2867 34.6194 18.0274C35.4966 13.7691 34.9231 10.3386 32.9645 9.20911C31.0864 8.12611 28.015 9.25532 24.9131 11.9549C24.6148 12.2144 24.3157 12.4893 24.0167 12.7773C23.8174 12.5867 23.6185 12.4026 23.4201 12.2264C20.1692 9.3399 16.9106 8.12348 14.954 9.25621C13.0777 10.3424 12.5221 13.5674 13.3117 17.603C13.388 17.9928 13.4771 18.3908 13.5779 18.7955C13.1167 18.9265 12.6715 19.066 12.2455 19.2145C8.43412 20.5433 6 22.6259 6 24.7861C6 27.0171 8.61303 29.2549 12.5829 30.6118C12.8962 30.7189 13.2212 30.8201 13.5563 30.9162C13.4475 31.354 13.3529 31.7829 13.2735 32.2013C12.5206 36.1669 13.1086 39.3157 14.9798 40.3949C16.9127 41.5095 20.1565 40.3639 23.3152 37.6028C23.5648 37.3846 23.8154 37.1531 24.0664 36.9105C24.3917 37.2238 24.7165 37.5203 25.0396 37.7984C28.0992 40.4312 31.121 41.4944 32.9905 40.4121C34.9214 39.2943 35.5489 35.9117 34.7342 31.7962C34.672 31.4819 34.5996 31.1608 34.5183 30.834C34.7461 30.7667 34.9697 30.6972 35.1878 30.6249C39.3148 29.2575 42 27.0469 42 24.7861C42 22.6181 39.4874 20.5215 35.5992 19.183ZM34.7041 29.1651C34.5072 29.2302 34.3053 29.2932 34.0994 29.3543C33.6438 27.9119 33.0289 26.3782 32.2764 24.7936C32.9945 23.2467 33.5857 21.7326 34.0285 20.2995C34.3968 20.4061 34.7542 20.5185 35.0986 20.6371C38.43 21.784 40.4621 23.4796 40.4621 24.7861C40.4621 26.1778 38.2675 27.9843 34.7041 29.1651ZM33.2255 32.0949C33.5858 33.9147 33.6372 35.56 33.3986 36.8462C33.1842 38.002 32.753 38.7725 32.2199 39.0811C31.0853 39.7378 28.6592 38.8842 26.0426 36.6326C25.7426 36.3745 25.4405 36.0989 25.1374 35.8072C26.1518 34.6978 27.1656 33.408 28.155 31.9757C29.8954 31.8212 31.5396 31.5688 33.0307 31.2241C33.1041 31.5203 33.1693 31.8109 33.2255 32.0949ZM18.2732 38.9676C17.1648 39.3591 16.2819 39.3703 15.7483 39.0626C14.6127 38.4077 14.1407 35.8795 14.7846 32.4881C14.8584 32.0997 14.9461 31.7008 15.0473 31.293C16.522 31.6191 18.1542 31.8537 19.8987 31.9951C20.8948 33.3968 21.9379 34.6851 22.9891 35.8131C22.7594 36.0349 22.5307 36.2459 22.3032 36.4448C20.9064 37.6657 19.5067 38.532 18.2732 38.9676ZM13.0803 29.1566C11.3249 28.5566 9.87521 27.7768 8.88153 26.9259C7.98864 26.1612 7.53784 25.4021 7.53784 24.7861C7.53784 23.4752 9.49221 21.8032 12.7517 20.6667C13.1472 20.5288 13.5613 20.3989 13.9909 20.2768C14.4414 21.7422 15.0323 23.2742 15.7455 24.8235C15.0231 26.3958 14.4238 27.9522 13.9689 29.4348C13.6626 29.3467 13.3658 29.2541 13.0803 29.1566ZM14.821 17.3076C14.1444 13.85 14.5938 11.2417 15.7245 10.5872C16.9288 9.88996 19.592 10.8841 22.399 13.3765C22.5784 13.5358 22.7585 13.7025 22.9392 13.875C21.8932 14.9981 20.8597 16.2768 19.8724 17.6701C18.1793 17.827 16.5586 18.0791 15.0685 18.4167C14.9748 18.0398 14.8918 17.6696 14.821 17.3076ZM30.3498 21.1421C29.9935 20.5268 29.6278 19.926 29.255 19.3417C30.4037 19.4869 31.5042 19.6796 32.5376 19.9155C32.2274 20.9099 31.8406 21.9496 31.3854 23.0154C31.0589 22.3955 30.7135 21.7704 30.3498 21.1421ZM24.0172 14.9741C24.7265 15.7426 25.4369 16.6006 26.1356 17.5316C25.4315 17.4983 24.7187 17.481 24 17.481C23.2881 17.481 22.5805 17.4979 21.8808 17.5306C22.5802 16.6083 23.2967 15.7514 24.0172 14.9741ZM17.644 21.1527C17.2882 21.7697 16.9492 22.3914 16.6278 23.0143C16.1799 21.9522 15.7968 20.9077 15.4838 19.8992C16.511 19.6694 17.6063 19.4814 18.7476 19.339C18.3695 19.9287 18.0008 20.5339 17.644 21.1526V21.1527ZM18.7805 30.3429C17.6013 30.2113 16.4895 30.033 15.4626 29.8095C15.7806 28.783 16.1722 27.7163 16.6295 26.6313C16.9518 27.2537 17.2921 27.8757 17.6501 28.494H17.6502C18.0148 29.124 18.3927 29.7411 18.7805 30.3429ZM24.0597 34.7065C23.3308 33.92 22.6038 33.0501 21.8937 32.1143C22.583 32.1414 23.2858 32.1552 24 32.1552C24.7338 32.1552 25.4592 32.1387 26.1731 32.1069C25.4721 33.0595 24.7643 33.9308 24.0597 34.7065ZM31.4001 26.576C31.8813 27.6727 32.2869 28.7339 32.609 29.7429C31.5652 29.981 30.4382 30.1728 29.2508 30.3153C29.6245 29.7231 29.9934 29.112 30.3559 28.4835C30.7226 27.8475 31.0709 27.2107 31.4001 26.576ZM29.0238 27.7151C28.461 28.6909 27.8833 29.6223 27.2968 30.5016C26.2285 30.578 25.1249 30.6173 24 30.6173C22.8797 30.6173 21.79 30.5825 20.7406 30.5144C20.1304 29.6236 19.5401 28.6894 18.981 27.7235H18.9811C18.4234 26.7603 17.9101 25.7889 17.4451 24.823C17.91 23.8548 18.4219 22.8823 18.9764 21.9208L18.9763 21.921C19.5322 20.9569 20.1174 20.0273 20.7219 19.1421C21.7925 19.0611 22.8904 19.0189 23.9999 19.0189H24C25.1145 19.0189 26.2138 19.0615 27.2841 19.1431C27.8794 20.0218 28.4606 20.9485 29.0187 21.9127C29.5832 22.8877 30.1017 23.8537 30.5707 24.8011C30.1031 25.7648 29.5857 26.7406 29.0238 27.7151ZM32.1963 10.5415C33.4018 11.2367 33.8706 14.0404 33.1132 17.717C33.0649 17.9515 33.0105 18.1905 32.9514 18.4327C31.4578 18.088 29.836 17.8316 28.1379 17.6723C27.1487 16.2636 26.1237 14.983 25.0947 13.8743C25.3714 13.6082 25.6476 13.3544 25.9227 13.115C28.5805 10.802 31.0645 9.88881 32.1963 10.5415ZM24 21.5714C25.7754 21.5714 27.2147 23.0106 27.2147 24.7861C27.2147 26.5615 25.7754 28.0008 24 28.0008C22.2246 28.0008 20.7853 26.5615 20.7853 24.7861C20.7853 23.0106 22.2246 21.5714 24 21.5714Z"
        fill="#00D8FF" />
    <path
        d="M35.5992 19.183C35.2258 19.0544 34.8388 18.9328 34.4403 18.8178C34.5058 18.5505 34.5659 18.2867 34.6194 18.0274C35.4966 13.7691 34.9231 10.3386 32.9645 9.20911C31.0864 8.12611 28.015 9.25532 24.9131 11.9549C24.6148 12.2144 24.3157 12.4893 24.0167 12.7773C23.8174 12.5867 23.6185 12.4026 23.4201 12.2264C20.1692 9.3399 16.9106 8.12348 14.954 9.25621C13.0777 10.3424 12.5221 13.5674 13.3117 17.603C13.388 17.9928 13.4771 18.3908 13.5779 18.7955C13.1167 18.9265 12.6715 19.066 12.2455 19.2145C8.43412 20.5433 6 22.6259 6 24.7861C6 27.0171 8.61303 29.2549 12.5829 30.6118C12.8962 30.7189 13.2212 30.8201 13.5563 30.9162C13.4475 31.354 13.3529 31.7829 13.2735 32.2013C12.5206 36.1669 13.1086 39.3157 14.9798 40.3949C16.9127 41.5095 20.1565 40.3639 23.3152 37.6028C23.5648 37.3846 23.8154 37.1531 24.0664 36.9105C24.3917 37.2238 24.7165 37.5203 25.0396 37.7984C28.0992 40.4312 31.121 41.4944 32.9905 40.4121C34.9214 39.2943 35.5489 35.9117 34.7342 31.7962C34.672 31.4819 34.5996 31.1608 34.5183 30.834C34.7461 30.7667 34.9697 30.6972 35.1878 30.6249C39.3148 29.2575 42 27.0469 42 24.7861C42 22.6181 39.4874 20.5215 35.5992 19.183ZM34.7041 29.1651C34.5072 29.2302 34.3053 29.2932 34.0994 29.3543C33.6438 27.9119 33.0289 26.3782 32.2764 24.7936C32.9945 23.2467 33.5857 21.7326 34.0285 20.2995C34.3968 20.4061 34.7542 20.5185 35.0986 20.6371C38.43 21.784 40.4621 23.4796 40.4621 24.7861C40.4621 26.1778 38.2675 27.9843 34.7041 29.1651ZM33.2255 32.0949C33.5858 33.9147 33.6372 35.56 33.3986 36.8462C33.1842 38.002 32.753 38.7725 32.2199 39.0811C31.0853 39.7378 28.6592 38.8842 26.0426 36.6326C25.7426 36.3745 25.4405 36.0989 25.1374 35.8072C26.1518 34.6978 27.1656 33.408 28.155 31.9757C29.8954 31.8212 31.5396 31.5688 33.0307 31.2241C33.1041 31.5203 33.1693 31.8109 33.2255 32.0949ZM18.2732 38.9676C17.1648 39.3591 16.2819 39.3703 15.7483 39.0626C14.6127 38.4077 14.1407 35.8795 14.7846 32.4881C14.8584 32.0997 14.9461 31.7008 15.0473 31.293C16.522 31.6191 18.1542 31.8537 19.8987 31.9951C20.8948 33.3968 21.9379 34.6851 22.9891 35.8131C22.7594 36.0349 22.5307 36.2459 22.3032 36.4448C20.9064 37.6657 19.5067 38.532 18.2732 38.9676ZM13.0803 29.1566C11.3249 28.5566 9.87521 27.7768 8.88153 26.9259C7.98864 26.1612 7.53784 25.4021 7.53784 24.7861C7.53784 23.4752 9.49221 21.8032 12.7517 20.6667C13.1472 20.5288 13.5613 20.3989 13.9909 20.2768C14.4414 21.7422 15.0323 23.2742 15.7455 24.8235C15.0231 26.3958 14.4238 27.9522 13.9689 29.4348C13.6626 29.3467 13.3658 29.2541 13.0803 29.1566ZM14.821 17.3076C14.1444 13.85 14.5938 11.2417 15.7245 10.5872C16.9288 9.88996 19.592 10.8841 22.399 13.3765C22.5784 13.5358 22.7585 13.7025 22.9392 13.875C21.8932 14.9981 20.8597 16.2768 19.8724 17.6701C18.1793 17.827 16.5586 18.0791 15.0685 18.4167C14.9748 18.0398 14.8918 17.6696 14.821 17.3076ZM30.3498 21.1421C29.9935 20.5268 29.6278 19.926 29.255 19.3417C30.4037 19.4869 31.5042 19.6796 32.5376 19.9155C32.2274 20.9099 31.8406 21.9496 31.3854 23.0154C31.0589 22.3955 30.7135 21.7704 30.3498 21.1421ZM24.0172 14.9741C24.7265 15.7426 25.4369 16.6006 26.1356 17.5316C25.4315 17.4983 24.7187 17.481 24 17.481C23.2881 17.481 22.5805 17.4979 21.8808 17.5306C22.5802 16.6083 23.2967 15.7514 24.0172 14.9741ZM17.644 21.1527C17.2882 21.7697 16.9492 22.3914 16.6278 23.0143C16.1799 21.9522 15.7968 20.9077 15.4838 19.8992C16.511 19.6694 17.6063 19.4814 18.7476 19.339C18.3695 19.9287 18.0008 20.5339 17.644 21.1526V21.1527ZM18.7805 30.3429C17.6013 30.2113 16.4895 30.033 15.4626 29.8095C15.7806 28.783 16.1722 27.7163 16.6295 26.6313C16.9518 27.2537 17.2921 27.8757 17.6501 28.494H17.6502C18.0148 29.124 18.3927 29.7411 18.7805 30.3429ZM24.0597 34.7065C23.3308 33.92 22.6038 33.0501 21.8937 32.1143C22.583 32.1414 23.2858 32.1552 24 32.1552C24.7338 32.1552 25.4592 32.1387 26.1731 32.1069C25.4721 33.0595 24.7643 33.9308 24.0597 34.7065ZM31.4001 26.576C31.8813 27.6727 32.2869 28.7339 32.609 29.7429C31.5652 29.981 30.4382 30.1728 29.2508 30.3153C29.6245 29.7231 29.9934 29.112 30.3559 28.4835C30.7226 27.8475 31.0709 27.2107 31.4001 26.576ZM29.0238 27.7151C28.461 28.6909 27.8833 29.6223 27.2968 30.5016C26.2285 30.578 25.1249 30.6173 24 30.6173C22.8797 30.6173 21.79 30.5825 20.7406 30.5144C20.1304 29.6236 19.5401 28.6894 18.981 27.7235H18.9811C18.4234 26.7603 17.9101 25.7889 17.4451 24.823C17.91 23.8548 18.4219 22.8823 18.9764 21.9208L18.9763 21.921C19.5322 20.9569 20.1174 20.0273 20.7219 19.1421C21.7925 19.0611 22.8904 19.0189 23.9999 19.0189H24C25.1145 19.0189 26.2138 19.0615 27.2841 19.1431C27.8794 20.0218 28.4606 20.9485 29.0187 21.9127C29.5832 22.8877 30.1017 23.8537 30.5707 24.8011C30.1031 25.7648 29.5857 26.7406 29.0238 27.7151ZM32.1963 10.5415C33.4018 11.2367 33.8706 14.0404 33.1132 17.717C33.0649 17.9515 33.0105 18.1905 32.9514 18.4327C31.4578 18.088 29.836 17.8316 28.1379 17.6723C27.1487 16.2636 26.1237 14.983 25.0947 13.8743C25.3714 13.6082 25.6476 13.3544 25.9227 13.115C28.5805 10.802 31.0645 9.88881 32.1963 10.5415ZM24 21.5714C25.7754 21.5714 27.2147 23.0106 27.2147 24.7861C27.2147 26.5615 25.7754 28.0008 24 28.0008C22.2246 28.0008 20.7853 26.5615 20.7853 24.7861C20.7853 23.0106 22.2246 21.5714 24 21.5714Z"
        fill="#00D8FF" />
</svg>