<svg width="64" height="68" viewBox="0 0 64 68" fill="none" xmlns="http://www.w3.org/2000/svg">
<path d="M47.4656 26.0193C46.9677 25.8372 46.4517 25.6649 45.9205 25.502C46.0078 25.1233 46.0879 24.7496 46.1592 24.3822C47.3288 18.3496 46.5641 13.4898 43.9526 11.8897C41.4486 10.3554 37.3534 11.9551 33.2174 15.7795C32.8197 16.1472 32.4209 16.5366 32.0222 16.9446C31.7566 16.6747 31.4914 16.4138 31.2269 16.1642C26.8923 12.075 22.5475 10.3517 19.9386 11.9564C17.4369 13.4951 16.6961 18.0639 17.749 23.781C17.8506 24.3332 17.9695 24.8971 18.1039 25.4705C17.489 25.6559 16.8953 25.8536 16.3273 26.064C11.2455 27.9465 8 30.8968 8 33.9571C8 37.1177 11.484 40.2879 16.7772 42.2102C17.1949 42.3619 17.6283 42.5053 18.075 42.6415C17.93 43.2616 17.8039 43.8692 17.6981 44.4619C16.6941 50.0798 17.4781 54.5406 19.9731 56.0696C22.5502 57.6486 26.8753 56.0256 31.0869 52.1141C31.4198 51.8049 31.7538 51.477 32.0885 51.1333C32.5223 51.5771 32.9554 51.9972 33.3862 52.3911C37.4656 56.121 41.4946 57.6271 43.9873 56.0939C46.5619 54.5103 47.3986 49.7183 46.3123 43.8881C46.2293 43.4429 46.1328 42.988 46.0244 42.525C46.3281 42.4296 46.6263 42.3311 46.917 42.2287C52.4198 40.2915 56 37.1599 56 33.9571C56 30.8857 52.6498 27.9155 47.4656 26.0193ZM46.2721 40.1606C46.0097 40.253 45.7404 40.3422 45.4659 40.4287C44.8585 38.3854 44.0386 36.2126 43.0353 33.9677C43.9927 31.7763 44.7809 29.6312 45.3713 27.6011C45.8624 27.7521 46.3389 27.9113 46.7982 28.0794C51.24 29.704 53.9495 32.1061 53.9495 33.9571C53.9495 35.9286 51.0233 38.4879 46.2721 40.1606ZM44.3007 44.3112C44.781 46.8893 44.8497 49.2201 44.5315 51.0423C44.2456 52.6796 43.6707 53.7712 42.9598 54.2084C41.4471 55.1387 38.2122 53.9294 34.7235 50.7396C34.3235 50.3739 33.9207 49.9835 33.5165 49.5703C34.8691 47.9986 36.2208 46.1715 37.5401 44.1423C39.8605 43.9235 42.0528 43.5659 44.0409 43.0776C44.1388 43.4972 44.2258 43.9088 44.3007 44.3112ZM24.3643 54.0476C22.8864 54.6022 21.7093 54.6181 20.9977 54.1821C19.4836 53.2543 18.8542 49.6727 19.7128 44.8683C19.8111 44.3181 19.9282 43.7529 20.0631 43.1751C22.0294 43.6371 24.2056 43.9696 26.5316 44.1699C27.8598 46.1555 29.2506 47.9806 30.6521 49.5787C30.3459 49.8928 30.0409 50.1918 29.7376 50.4736C27.8752 52.2032 26.009 53.4304 24.3643 54.0476ZM17.4404 40.1486C15.0998 39.2986 13.1669 38.1939 11.842 36.9884C10.6515 35.9052 10.0505 34.8297 10.0505 33.9571C10.0505 32.1 12.6563 29.7313 17.0023 28.1213C17.5296 27.9259 18.0817 27.7418 18.6545 27.5689C19.2552 29.6449 20.0431 31.8153 20.994 34.0101C20.0308 36.2374 19.2317 38.4425 18.6252 40.5427C18.2168 40.418 17.8211 40.2867 17.4404 40.1486ZM19.7613 23.3626C18.8593 18.4643 19.4584 14.7692 20.9659 13.842C22.5718 12.8542 26.1227 14.2626 29.8653 17.7934C30.1045 18.0191 30.3447 18.2553 30.5856 18.4997C29.1909 20.0908 27.8129 21.9022 26.4965 23.8761C24.239 24.0984 22.0781 24.4555 20.0913 24.9338C19.9664 24.3999 19.8557 23.8754 19.7613 23.3626ZM40.4664 28.7947C39.9914 27.923 39.5038 27.072 39.0067 26.2442C40.5382 26.4499 42.0055 26.7229 43.3835 27.0571C42.9698 28.4658 42.4542 29.9387 41.8472 31.4486C41.4118 30.5703 40.9513 29.6848 40.4664 28.7947ZM32.0229 20.0567C32.9687 21.1455 33.9159 22.361 34.8475 23.6798C33.9087 23.6327 32.9583 23.6082 32 23.6082C31.0508 23.6082 30.1073 23.6322 29.1743 23.6785C30.1069 22.3719 31.0623 21.158 32.0229 20.0567ZM23.5254 28.8098C23.0509 29.6839 22.5989 30.5646 22.1704 31.447C21.5732 29.9423 21.0624 28.4627 20.6451 27.034C22.0146 26.7084 23.475 26.4422 24.9968 26.2404C24.4927 27.0758 24.0011 27.9331 23.5254 28.8096V28.8098ZM25.0406 41.8292C23.4684 41.6428 21.986 41.3902 20.6168 41.0736C21.0408 39.6194 21.5629 38.1082 22.1727 36.5711C22.6024 37.4529 23.0561 38.334 23.5335 39.21H23.5336C24.0198 40.1024 24.5235 40.9766 25.0406 41.8292ZM32.0796 48.011C31.1078 46.8968 30.1384 45.6644 29.1916 44.3388C30.1107 44.3771 31.0477 44.3967 32 44.3967C32.9784 44.3967 33.9455 44.3732 34.8975 44.3282C33.9628 45.6777 33.019 46.9121 32.0796 48.011ZM41.8668 36.4928C42.5084 38.0465 43.0492 39.5498 43.4786 40.9792C42.0869 41.3165 40.5843 41.5882 39.0011 41.7901C39.4994 40.9511 39.9912 40.0855 40.4746 39.195C40.9635 38.2941 41.4278 37.3919 41.8668 36.4928ZM38.6984 38.1066C37.948 39.4889 37.1777 40.8084 36.3957 42.054C34.9713 42.1622 33.4998 42.218 32 42.218C30.5063 42.218 29.0533 42.1687 27.6541 42.0722C26.8406 40.8103 26.0535 39.4868 25.308 38.1185H25.3081C24.5646 36.7539 23.8802 35.3777 23.2601 34.0093C23.88 32.6378 24.5626 31.2601 25.3019 29.8979L25.3017 29.8982C26.043 28.5324 26.8231 27.2154 27.6292 25.9614C29.0567 25.8467 30.5205 25.7869 31.9999 25.7869H32C33.486 25.7869 34.9518 25.8472 36.3789 25.9628C37.1726 27.2077 37.9474 28.5205 38.6916 29.8864C39.4442 31.2677 40.1356 32.6362 40.7609 33.9784C40.1375 35.3436 39.4477 36.7259 38.6984 38.1066ZM42.9284 13.7772C44.5357 14.762 45.1608 18.734 44.1509 23.9425C44.0865 24.2748 44.014 24.6133 43.9352 24.9564C41.9438 24.4682 39.7813 24.1049 37.5172 23.8792C36.1983 21.8836 34.8315 20.0694 33.4596 18.4987C33.8285 18.1217 34.1968 17.7622 34.5636 17.423C38.1073 14.1463 41.4193 12.8526 42.9284 13.7772ZM32 29.4029C34.3672 29.4029 36.2862 31.4418 36.2862 33.9571C36.2862 36.4722 34.3672 38.5112 32 38.5112C29.6328 38.5112 27.7138 36.4722 27.7138 33.9571C27.7138 31.4418 29.6328 29.4029 32 29.4029Z" fill="#00D8FF"/>
<path d="M47.4656 26.0193C46.9677 25.8372 46.4517 25.6649 45.9205 25.502C46.0078 25.1233 46.0879 24.7496 46.1592 24.3822C47.3288 18.3496 46.5641 13.4898 43.9526 11.8897C41.4486 10.3554 37.3534 11.9551 33.2174 15.7795C32.8197 16.1472 32.4209 16.5366 32.0222 16.9446C31.7566 16.6747 31.4914 16.4138 31.2269 16.1642C26.8923 12.075 22.5475 10.3517 19.9386 11.9564C17.4369 13.4951 16.6961 18.0639 17.749 23.781C17.8506 24.3332 17.9695 24.8971 18.1039 25.4705C17.489 25.6559 16.8953 25.8536 16.3273 26.064C11.2455 27.9465 8 30.8968 8 33.9571C8 37.1177 11.484 40.2879 16.7772 42.2102C17.1949 42.3619 17.6283 42.5053 18.075 42.6415C17.93 43.2616 17.8039 43.8692 17.6981 44.4619C16.6941 50.0798 17.4781 54.5406 19.9731 56.0696C22.5502 57.6486 26.8753 56.0256 31.0869 52.1141C31.4198 51.8049 31.7538 51.477 32.0885 51.1333C32.5223 51.5771 32.9554 51.9972 33.3862 52.3911C37.4656 56.121 41.4946 57.6271 43.9873 56.0939C46.5619 54.5103 47.3986 49.7183 46.3123 43.8881C46.2293 43.4429 46.1328 42.988 46.0244 42.525C46.3281 42.4296 46.6263 42.3311 46.917 42.2287C52.4198 40.2915 56 37.1599 56 33.9571C56 30.8857 52.6498 27.9155 47.4656 26.0193ZM46.2721 40.1606C46.0097 40.253 45.7404 40.3422 45.4659 40.4287C44.8585 38.3854 44.0386 36.2126 43.0353 33.9677C43.9927 31.7763 44.7809 29.6312 45.3713 27.6011C45.8624 27.7521 46.3389 27.9113 46.7982 28.0794C51.24 29.704 53.9495 32.1061 53.9495 33.9571C53.9495 35.9286 51.0233 38.4879 46.2721 40.1606ZM44.3007 44.3112C44.781 46.8893 44.8497 49.2201 44.5315 51.0423C44.2456 52.6796 43.6707 53.7712 42.9598 54.2084C41.4471 55.1387 38.2122 53.9294 34.7235 50.7396C34.3235 50.3739 33.9207 49.9835 33.5165 49.5703C34.8691 47.9986 36.2208 46.1715 37.5401 44.1423C39.8605 43.9235 42.0528 43.5659 44.0409 43.0776C44.1388 43.4972 44.2258 43.9088 44.3007 44.3112ZM24.3643 54.0476C22.8864 54.6022 21.7093 54.6181 20.9977 54.1821C19.4836 53.2543 18.8542 49.6727 19.7128 44.8683C19.8111 44.3181 19.9282 43.7529 20.0631 43.1751C22.0294 43.6371 24.2056 43.9696 26.5316 44.1699C27.8598 46.1555 29.2506 47.9806 30.6521 49.5787C30.3459 49.8928 30.0409 50.1918 29.7376 50.4736C27.8752 52.2032 26.009 53.4304 24.3643 54.0476ZM17.4404 40.1486C15.0998 39.2986 13.1669 38.1939 11.842 36.9884C10.6515 35.9052 10.0505 34.8297 10.0505 33.9571C10.0505 32.1 12.6563 29.7313 17.0023 28.1213C17.5296 27.9259 18.0817 27.7418 18.6545 27.5689C19.2552 29.6449 20.0431 31.8153 20.994 34.0101C20.0308 36.2374 19.2317 38.4425 18.6252 40.5427C18.2168 40.418 17.8211 40.2867 17.4404 40.1486ZM19.7613 23.3626C18.8593 18.4643 19.4584 14.7692 20.9659 13.842C22.5718 12.8542 26.1227 14.2626 29.8653 17.7934C30.1045 18.0191 30.3447 18.2553 30.5856 18.4997C29.1909 20.0908 27.8129 21.9022 26.4965 23.8761C24.239 24.0984 22.0781 24.4555 20.0913 24.9338C19.9664 24.3999 19.8557 23.8754 19.7613 23.3626ZM40.4664 28.7947C39.9914 27.923 39.5038 27.072 39.0067 26.2442C40.5382 26.4499 42.0055 26.7229 43.3835 27.0571C42.9698 28.4658 42.4542 29.9387 41.8472 31.4486C41.4118 30.5703 40.9513 29.6848 40.4664 28.7947ZM32.0229 20.0567C32.9687 21.1455 33.9159 22.361 34.8475 23.6798C33.9087 23.6327 32.9583 23.6082 32 23.6082C31.0508 23.6082 30.1073 23.6322 29.1743 23.6785C30.1069 22.3719 31.0623 21.158 32.0229 20.0567ZM23.5254 28.8098C23.0509 29.6839 22.5989 30.5646 22.1704 31.447C21.5732 29.9423 21.0624 28.4627 20.6451 27.034C22.0146 26.7084 23.475 26.4422 24.9968 26.2404C24.4927 27.0758 24.0011 27.9331 23.5254 28.8096V28.8098ZM25.0406 41.8292C23.4684 41.6428 21.986 41.3902 20.6168 41.0736C21.0408 39.6194 21.5629 38.1082 22.1727 36.5711C22.6024 37.4529 23.0561 38.334 23.5335 39.21H23.5336C24.0198 40.1024 24.5235 40.9766 25.0406 41.8292ZM32.0796 48.011C31.1078 46.8968 30.1384 45.6644 29.1916 44.3388C30.1107 44.3771 31.0477 44.3967 32 44.3967C32.9784 44.3967 33.9455 44.3732 34.8975 44.3282C33.9628 45.6777 33.019 46.9121 32.0796 48.011ZM41.8668 36.4928C42.5084 38.0465 43.0492 39.5498 43.4786 40.9792C42.0869 41.3165 40.5843 41.5882 39.0011 41.7901C39.4994 40.9511 39.9912 40.0855 40.4746 39.195C40.9635 38.2941 41.4278 37.3919 41.8668 36.4928ZM38.6984 38.1066C37.948 39.4889 37.1777 40.8084 36.3957 42.054C34.9713 42.1622 33.4998 42.218 32 42.218C30.5063 42.218 29.0533 42.1687 27.6541 42.0722C26.8406 40.8103 26.0535 39.4868 25.308 38.1185H25.3081C24.5646 36.7539 23.8802 35.3777 23.2601 34.0093C23.88 32.6378 24.5626 31.2601 25.3019 29.8979L25.3017 29.8982C26.043 28.5324 26.8231 27.2154 27.6292 25.9614C29.0567 25.8467 30.5205 25.7869 31.9999 25.7869H32C33.486 25.7869 34.9518 25.8472 36.3789 25.9628C37.1726 27.2077 37.9474 28.5205 38.6916 29.8864C39.4442 31.2677 40.1356 32.6362 40.7609 33.9784C40.1375 35.3436 39.4477 36.7259 38.6984 38.1066ZM42.9284 13.7772C44.5357 14.762 45.1608 18.734 44.1509 23.9425C44.0865 24.2748 44.014 24.6133 43.9352 24.9564C41.9438 24.4682 39.7813 24.1049 37.5172 23.8792C36.1983 21.8836 34.8315 20.0694 33.4596 18.4987C33.8285 18.1217 34.1968 17.7622 34.5636 17.423C38.1073 14.1463 41.4193 12.8526 42.9284 13.7772ZM32 29.4029C34.3672 29.4029 36.2862 31.4418 36.2862 33.9571C36.2862 36.4722 34.3672 38.5112 32 38.5112C29.6328 38.5112 27.7138 36.4722 27.7138 33.9571C27.7138 31.4418 29.6328 29.4029 32 29.4029Z" fill="#00D8FF"/>
<path d="M47.4656 26.0193C46.9677 25.8372 46.4517 25.6649 45.9205 25.502C46.0078 25.1233 46.0879 24.7496 46.1592 24.3822C47.3288 18.3496 46.5641 13.4898 43.9526 11.8897C41.4486 10.3554 37.3534 11.9551 33.2174 15.7795C32.8197 16.1472 32.4209 16.5366 32.0222 16.9446C31.7566 16.6747 31.4914 16.4138 31.2269 16.1642C26.8923 12.075 22.5475 10.3517 19.9386 11.9564C17.4369 13.4951 16.6961 18.0639 17.749 23.781C17.8506 24.3332 17.9695 24.8971 18.1039 25.4705C17.489 25.6559 16.8953 25.8536 16.3273 26.064C11.2455 27.9465 8 30.8968 8 33.9571C8 37.1177 11.484 40.2879 16.7772 42.2102C17.1949 42.3619 17.6283 42.5053 18.075 42.6415C17.93 43.2616 17.8039 43.8692 17.6981 44.4619C16.6941 50.0798 17.4781 54.5406 19.9731 56.0696C22.5502 57.6486 26.8753 56.0256 31.0869 52.1141C31.4198 51.8049 31.7538 51.477 32.0885 51.1333C32.5223 51.5771 32.9554 51.9972 33.3862 52.3911C37.4656 56.121 41.4946 57.6271 43.9873 56.0939C46.5619 54.5103 47.3986 49.7183 46.3123 43.8881C46.2293 43.4429 46.1328 42.988 46.0244 42.525C46.3281 42.4296 46.6263 42.3311 46.917 42.2287C52.4198 40.2915 56 37.1599 56 33.9571C56 30.8857 52.6498 27.9155 47.4656 26.0193ZM46.2721 40.1606C46.0097 40.253 45.7404 40.3422 45.4659 40.4287C44.8585 38.3854 44.0386 36.2126 43.0353 33.9677C43.9927 31.7763 44.7809 29.6312 45.3713 27.6011C45.8624 27.7521 46.3389 27.9113 46.7982 28.0794C51.24 29.704 53.9495 32.1061 53.9495 33.9571C53.9495 35.9286 51.0233 38.4879 46.2721 40.1606ZM44.3007 44.3112C44.781 46.8893 44.8497 49.2201 44.5315 51.0423C44.2456 52.6796 43.6707 53.7712 42.9598 54.2084C41.4471 55.1387 38.2122 53.9294 34.7235 50.7396C34.3235 50.3739 33.9207 49.9835 33.5165 49.5703C34.8691 47.9986 36.2208 46.1715 37.5401 44.1423C39.8605 43.9235 42.0528 43.5659 44.0409 43.0776C44.1388 43.4972 44.2258 43.9088 44.3007 44.3112ZM24.3643 54.0476C22.8864 54.6022 21.7093 54.6181 20.9977 54.1821C19.4836 53.2543 18.8542 49.6727 19.7128 44.8683C19.8111 44.3181 19.9282 43.7529 20.0631 43.1751C22.0294 43.6371 24.2056 43.9696 26.5316 44.1699C27.8598 46.1555 29.2506 47.9806 30.6521 49.5787C30.3459 49.8928 30.0409 50.1918 29.7376 50.4736C27.8752 52.2032 26.009 53.4304 24.3643 54.0476ZM17.4404 40.1486C15.0998 39.2986 13.1669 38.1939 11.842 36.9884C10.6515 35.9052 10.0505 34.8297 10.0505 33.9571C10.0505 32.1 12.6563 29.7313 17.0023 28.1213C17.5296 27.9259 18.0817 27.7418 18.6545 27.5689C19.2552 29.6449 20.0431 31.8153 20.994 34.0101C20.0308 36.2374 19.2317 38.4425 18.6252 40.5427C18.2168 40.418 17.8211 40.2867 17.4404 40.1486ZM19.7613 23.3626C18.8593 18.4643 19.4584 14.7692 20.9659 13.842C22.5718 12.8542 26.1227 14.2626 29.8653 17.7934C30.1045 18.0191 30.3447 18.2553 30.5856 18.4997C29.1909 20.0908 27.8129 21.9022 26.4965 23.8761C24.239 24.0984 22.0781 24.4555 20.0913 24.9338C19.9664 24.3999 19.8557 23.8754 19.7613 23.3626ZM40.4664 28.7947C39.9914 27.923 39.5038 27.072 39.0067 26.2442C40.5382 26.4499 42.0055 26.7229 43.3835 27.0571C42.9698 28.4658 42.4542 29.9387 41.8472 31.4486C41.4118 30.5703 40.9513 29.6848 40.4664 28.7947ZM32.0229 20.0567C32.9687 21.1455 33.9159 22.361 34.8475 23.6798C33.9087 23.6327 32.9583 23.6082 32 23.6082C31.0508 23.6082 30.1073 23.6322 29.1743 23.6785C30.1069 22.3719 31.0623 21.158 32.0229 20.0567ZM23.5254 28.8098C23.0509 29.6839 22.5989 30.5646 22.1704 31.447C21.5732 29.9423 21.0624 28.4627 20.6451 27.034C22.0146 26.7084 23.475 26.4422 24.9968 26.2404C24.4927 27.0758 24.0011 27.9331 23.5254 28.8096V28.8098ZM25.0406 41.8292C23.4684 41.6428 21.986 41.3902 20.6168 41.0736C21.0408 39.6194 21.5629 38.1082 22.1727 36.5711C22.6024 37.4529 23.0561 38.334 23.5335 39.21H23.5336C24.0198 40.1024 24.5235 40.9766 25.0406 41.8292ZM32.0796 48.011C31.1078 46.8968 30.1384 45.6644 29.1916 44.3388C30.1107 44.3771 31.0477 44.3967 32 44.3967C32.9784 44.3967 33.9455 44.3732 34.8975 44.3282C33.9628 45.6777 33.019 46.9121 32.0796 48.011ZM41.8668 36.4928C42.5084 38.0465 43.0492 39.5498 43.4786 40.9792C42.0869 41.3165 40.5843 41.5882 39.0011 41.7901C39.4994 40.9511 39.9912 40.0855 40.4746 39.195C40.9635 38.2941 41.4278 37.3919 41.8668 36.4928ZM38.6984 38.1066C37.948 39.4889 37.1777 40.8084 36.3957 42.054C34.9713 42.1622 33.4998 42.218 32 42.218C30.5063 42.218 29.0533 42.1687 27.6541 42.0722C26.8406 40.8103 26.0535 39.4868 25.308 38.1185H25.3081C24.5646 36.7539 23.8802 35.3777 23.2601 34.0093C23.88 32.6378 24.5626 31.2601 25.3019 29.8979L25.3017 29.8982C26.043 28.5324 26.8231 27.2154 27.6292 25.9614C29.0567 25.8467 30.5205 25.7869 31.9999 25.7869H32C33.486 25.7869 34.9518 25.8472 36.3789 25.9628C37.1726 27.2077 37.9474 28.5205 38.6916 29.8864C39.4442 31.2677 40.1356 32.6362 40.7609 33.9784C40.1375 35.3436 39.4477 36.7259 38.6984 38.1066ZM42.9284 13.7772C44.5357 14.762 45.1608 18.734 44.1509 23.9425C44.0865 24.2748 44.014 24.6133 43.9352 24.9564C41.9438 24.4682 39.7813 24.1049 37.5172 23.8792C36.1983 21.8836 34.8315 20.0694 33.4596 18.4987C33.8285 18.1217 34.1968 17.7622 34.5636 17.423C38.1073 14.1463 41.4193 12.8526 42.9284 13.7772ZM32 29.4029C34.3672 29.4029 36.2862 31.4418 36.2862 33.9571C36.2862 36.4722 34.3672 38.5112 32 38.5112C29.6328 38.5112 27.7138 36.4722 27.7138 33.9571C27.7138 31.4418 29.6328 29.4029 32 29.4029Z" fill="#00D8FF"/>
<path d="M47.4656 26.0193C46.9677 25.8372 46.4517 25.6649 45.9205 25.502C46.0078 25.1233 46.0879 24.7496 46.1592 24.3822C47.3288 18.3496 46.5641 13.4898 43.9526 11.8897C41.4486 10.3554 37.3534 11.9551 33.2174 15.7795C32.8197 16.1472 32.4209 16.5366 32.0222 16.9446C31.7566 16.6747 31.4914 16.4138 31.2269 16.1642C26.8923 12.075 22.5475 10.3517 19.9386 11.9564C17.4369 13.4951 16.6961 18.0639 17.749 23.781C17.8506 24.3332 17.9695 24.8971 18.1039 25.4705C17.489 25.6559 16.8953 25.8536 16.3273 26.064C11.2455 27.9465 8 30.8968 8 33.9571C8 37.1177 11.484 40.2879 16.7772 42.2102C17.1949 42.3619 17.6283 42.5053 18.075 42.6415C17.93 43.2616 17.8039 43.8692 17.6981 44.4619C16.6941 50.0798 17.4781 54.5406 19.9731 56.0696C22.5502 57.6486 26.8753 56.0256 31.0869 52.1141C31.4198 51.8049 31.7538 51.477 32.0885 51.1333C32.5223 51.5771 32.9554 51.9972 33.3862 52.3911C37.4656 56.121 41.4946 57.6271 43.9873 56.0939C46.5619 54.5103 47.3986 49.7183 46.3123 43.8881C46.2293 43.4429 46.1328 42.988 46.0244 42.525C46.3281 42.4296 46.6263 42.3311 46.917 42.2287C52.4198 40.2915 56 37.1599 56 33.9571C56 30.8857 52.6498 27.9155 47.4656 26.0193ZM46.2721 40.1606C46.0097 40.253 45.7404 40.3422 45.4659 40.4287C44.8585 38.3854 44.0386 36.2126 43.0353 33.9677C43.9927 31.7763 44.7809 29.6312 45.3713 27.6011C45.8624 27.7521 46.3389 27.9113 46.7982 28.0794C51.24 29.704 53.9495 32.1061 53.9495 33.9571C53.9495 35.9286 51.0233 38.4879 46.2721 40.1606ZM44.3007 44.3112C44.781 46.8893 44.8497 49.2201 44.5315 51.0423C44.2456 52.6796 43.6707 53.7712 42.9598 54.2084C41.4471 55.1387 38.2122 53.9294 34.7235 50.7396C34.3235 50.3739 33.9207 49.9835 33.5165 49.5703C34.8691 47.9986 36.2208 46.1715 37.5401 44.1423C39.8605 43.9235 42.0528 43.5659 44.0409 43.0776C44.1388 43.4972 44.2258 43.9088 44.3007 44.3112ZM24.3643 54.0476C22.8864 54.6022 21.7093 54.6181 20.9977 54.1821C19.4836 53.2543 18.8542 49.6727 19.7128 44.8683C19.8111 44.3181 19.9282 43.7529 20.0631 43.1751C22.0294 43.6371 24.2056 43.9696 26.5316 44.1699C27.8598 46.1555 29.2506 47.9806 30.6521 49.5787C30.3459 49.8928 30.0409 50.1918 29.7376 50.4736C27.8752 52.2032 26.009 53.4304 24.3643 54.0476ZM17.4404 40.1486C15.0998 39.2986 13.1669 38.1939 11.842 36.9884C10.6515 35.9052 10.0505 34.8297 10.0505 33.9571C10.0505 32.1 12.6563 29.7313 17.0023 28.1213C17.5296 27.9259 18.0817 27.7418 18.6545 27.5689C19.2552 29.6449 20.0431 31.8153 20.994 34.0101C20.0308 36.2374 19.2317 38.4425 18.6252 40.5427C18.2168 40.418 17.8211 40.2867 17.4404 40.1486ZM19.7613 23.3626C18.8593 18.4643 19.4584 14.7692 20.9659 13.842C22.5718 12.8542 26.1227 14.2626 29.8653 17.7934C30.1045 18.0191 30.3447 18.2553 30.5856 18.4997C29.1909 20.0908 27.8129 21.9022 26.4965 23.8761C24.239 24.0984 22.0781 24.4555 20.0913 24.9338C19.9664 24.3999 19.8557 23.8754 19.7613 23.3626ZM40.4664 28.7947C39.9914 27.923 39.5038 27.072 39.0067 26.2442C40.5382 26.4499 42.0055 26.7229 43.3835 27.0571C42.9698 28.4658 42.4542 29.9387 41.8472 31.4486C41.4118 30.5703 40.9513 29.6848 40.4664 28.7947ZM32.0229 20.0567C32.9687 21.1455 33.9159 22.361 34.8475 23.6798C33.9087 23.6327 32.9583 23.6082 32 23.6082C31.0508 23.6082 30.1073 23.6322 29.1743 23.6785C30.1069 22.3719 31.0623 21.158 32.0229 20.0567ZM23.5254 28.8098C23.0509 29.6839 22.5989 30.5646 22.1704 31.447C21.5732 29.9423 21.0624 28.4627 20.6451 27.034C22.0146 26.7084 23.475 26.4422 24.9968 26.2404C24.4927 27.0758 24.0011 27.9331 23.5254 28.8096V28.8098ZM25.0406 41.8292C23.4684 41.6428 21.986 41.3902 20.6168 41.0736C21.0408 39.6194 21.5629 38.1082 22.1727 36.5711C22.6024 37.4529 23.0561 38.334 23.5335 39.21H23.5336C24.0198 40.1024 24.5235 40.9766 25.0406 41.8292ZM32.0796 48.011C31.1078 46.8968 30.1384 45.6644 29.1916 44.3388C30.1107 44.3771 31.0477 44.3967 32 44.3967C32.9784 44.3967 33.9455 44.3732 34.8975 44.3282C33.9628 45.6777 33.019 46.9121 32.0796 48.011ZM41.8668 36.4928C42.5084 38.0465 43.0492 39.5498 43.4786 40.9792C42.0869 41.3165 40.5843 41.5882 39.0011 41.7901C39.4994 40.9511 39.9912 40.0855 40.4746 39.195C40.9635 38.2941 41.4278 37.3919 41.8668 36.4928ZM38.6984 38.1066C37.948 39.4889 37.1777 40.8084 36.3957 42.054C34.9713 42.1622 33.4998 42.218 32 42.218C30.5063 42.218 29.0533 42.1687 27.6541 42.0722C26.8406 40.8103 26.0535 39.4868 25.308 38.1185H25.3081C24.5646 36.7539 23.8802 35.3777 23.2601 34.0093C23.88 32.6378 24.5626 31.2601 25.3019 29.8979L25.3017 29.8982C26.043 28.5324 26.8231 27.2154 27.6292 25.9614C29.0567 25.8467 30.5205 25.7869 31.9999 25.7869H32C33.486 25.7869 34.9518 25.8472 36.3789 25.9628C37.1726 27.2077 37.9474 28.5205 38.6916 29.8864C39.4442 31.2677 40.1356 32.6362 40.7609 33.9784C40.1375 35.3436 39.4477 36.7259 38.6984 38.1066ZM42.9284 13.7772C44.5357 14.762 45.1608 18.734 44.1509 23.9425C44.0865 24.2748 44.014 24.6133 43.9352 24.9564C41.9438 24.4682 39.7813 24.1049 37.5172 23.8792C36.1983 21.8836 34.8315 20.0694 33.4596 18.4987C33.8285 18.1217 34.1968 17.7622 34.5636 17.423C38.1073 14.1463 41.4193 12.8526 42.9284 13.7772ZM32 29.4029C34.3672 29.4029 36.2862 31.4418 36.2862 33.9571C36.2862 36.4722 34.3672 38.5112 32 38.5112C29.6328 38.5112 27.7138 36.4722 27.7138 33.9571C27.7138 31.4418 29.6328 29.4029 32 29.4029Z" fill="#00D8FF"/>
</svg>
