<svg xmlns="http://www.w3.org/2000/svg" width="64" height="68" fill="none"><path fill="#00D8FF" d="M47.466 26.02a30.752 30.752 0 0 0-1.546-.518c.088-.379.168-.752.24-1.12 1.169-6.032.404-10.892-2.207-12.492-2.504-1.535-6.6.065-10.736 3.89-.397.367-.796.757-1.195 1.165-.265-.27-.53-.531-.795-.78-4.335-4.09-8.68-5.813-11.288-4.209-2.502 1.54-3.243 6.108-2.19 11.825.102.552.22 1.116.355 1.69a30.32 30.32 0 0 0-1.777.593C11.245 27.947 8 30.897 8 33.957c0 3.16 3.484 6.33 8.777 8.253.418.152.851.295 1.298.431-.145.62-.271 1.228-.377 1.82-1.004 5.619-.22 10.08 2.275 11.609 2.577 1.579 6.902-.044 11.114-3.956.333-.31.667-.637 1.002-.98.433.443.866.863 1.297 1.257 4.08 3.73 8.109 5.236 10.601 3.703 2.575-1.584 3.412-6.376 2.325-12.206-.083-.445-.18-.9-.288-1.363.304-.095.602-.194.893-.296C52.42 40.29 56 37.159 56 33.957c0-3.071-3.35-6.041-8.534-7.938Zm-1.194 14.14c-.262.093-.532.182-.806.269-.608-2.044-1.427-4.216-2.43-6.461.957-2.192 1.745-4.337 2.335-6.367.491.151.968.31 1.427.478 4.442 1.625 7.151 4.027 7.151 5.878 0 1.972-2.926 4.53-7.677 6.204Zm-1.971 4.151c.48 2.578.549 4.91.23 6.731-.285 1.638-.86 2.73-1.571 3.166-1.513.93-4.748-.279-8.236-3.468-.4-.366-.803-.757-1.207-1.17 1.352-1.571 2.704-3.398 4.023-5.428 2.32-.219 4.513-.576 6.5-1.064.099.42.186.83.26 1.233Zm-19.937 9.737c-1.478.554-2.655.57-3.366.134-1.514-.928-2.144-4.51-1.285-9.314.098-.55.215-1.115.35-1.693 1.966.462 4.143.795 6.469.995a52.585 52.585 0 0 0 4.12 5.409c-.306.314-.611.613-.914.895-1.863 1.73-3.729 2.956-5.374 3.574Zm-6.924-13.9c-2.34-.85-4.273-1.954-5.598-3.16-1.19-1.083-1.792-2.158-1.792-3.03 0-1.858 2.606-4.227 6.952-5.837.528-.195 1.08-.38 1.652-.552a54.26 54.26 0 0 0 2.34 6.441 55.137 55.137 0 0 0-2.369 6.533 24.219 24.219 0 0 1-1.185-.394Zm2.321-16.785c-.902-4.899-.303-8.594 1.205-9.521 1.606-.988 5.157.42 8.9 3.951.239.226.479.462.72.707a51.734 51.734 0 0 0-4.09 5.376c-2.257.222-4.418.58-6.405 1.058a33.678 33.678 0 0 1-.33-1.571Zm20.705 5.432a70.236 70.236 0 0 0-1.46-2.55 42.8 42.8 0 0 1 4.377.812 48.407 48.407 0 0 1-1.536 4.392 77.558 77.558 0 0 0-1.38-2.654Zm-8.443-8.738a46.09 46.09 0 0 1 2.824 3.623 56.854 56.854 0 0 0-5.673-.002 47.524 47.524 0 0 1 2.849-3.621Zm-8.498 8.753a65.55 65.55 0 0 0-1.355 2.637 50.053 50.053 0 0 1-1.525-4.413c1.37-.326 2.83-.592 4.352-.794a64.837 64.837 0 0 0-1.472 2.57Zm1.516 13.02a41.304 41.304 0 0 1-4.424-.756 50.93 50.93 0 0 1 1.556-4.503 65.28 65.28 0 0 0 2.868 5.258Zm7.039 6.181a48.393 48.393 0 0 1-2.888-3.672c.919.038 1.856.058 2.808.058.978 0 1.946-.024 2.898-.069a45.926 45.926 0 0 1-2.818 3.683Zm9.787-11.518a48.03 48.03 0 0 1 1.612 4.486A41.24 41.24 0 0 1 39 41.79c.498-.839.99-1.704 1.474-2.595.489-.9.953-1.803 1.392-2.702Zm-3.169 1.614a72.38 72.38 0 0 1-2.302 3.947 58.151 58.151 0 0 1-4.396.164c-1.494 0-2.947-.05-4.346-.146a62.677 62.677 0 0 1-4.394-8.063 63.255 63.255 0 0 1 2.042-4.111 61.889 61.889 0 0 1 2.327-3.937 54.68 54.68 0 0 1 4.37-.174H32c1.486 0 2.952.06 4.379.176a66.438 66.438 0 0 1 2.313 3.923 73.043 73.043 0 0 1 2.069 4.092 67.17 67.17 0 0 1-2.063 4.129Zm4.23-24.33c1.608.985 2.233 4.957 1.223 10.165-.065.333-.137.671-.216 1.014a46.46 46.46 0 0 0-6.418-1.077c-1.319-1.995-2.686-3.81-4.057-5.38.368-.377.737-.737 1.104-1.076 3.543-3.277 6.855-4.57 8.364-3.646ZM32 29.403c2.367 0 4.286 2.039 4.286 4.554S34.367 38.511 32 38.511c-2.367 0-4.286-2.039-4.286-4.554s1.919-4.554 4.286-4.554Z"/><path fill="#00D8FF" d="M47.466 26.02a30.752 30.752 0 0 0-1.546-.518c.088-.379.168-.752.24-1.12 1.169-6.032.404-10.892-2.207-12.492-2.504-1.535-6.6.065-10.736 3.89-.397.367-.796.757-1.195 1.165-.265-.27-.53-.531-.795-.78-4.335-4.09-8.68-5.813-11.288-4.209-2.502 1.54-3.243 6.108-2.19 11.825.102.552.22 1.116.355 1.69a30.32 30.32 0 0 0-1.777.593C11.245 27.947 8 30.897 8 33.957c0 3.16 3.484 6.33 8.777 8.253.418.152.851.295 1.298.431-.145.62-.271 1.228-.377 1.82-1.004 5.619-.22 10.08 2.275 11.609 2.577 1.579 6.902-.044 11.114-3.956.333-.31.667-.637 1.002-.98.433.443.866.863 1.297 1.257 4.08 3.73 8.109 5.236 10.601 3.703 2.575-1.584 3.412-6.376 2.325-12.206-.083-.445-.18-.9-.288-1.363.304-.095.602-.194.893-.296C52.42 40.29 56 37.159 56 33.957c0-3.071-3.35-6.041-8.534-7.938Zm-1.194 14.14c-.262.093-.532.182-.806.269-.608-2.044-1.427-4.216-2.43-6.461.957-2.192 1.745-4.337 2.335-6.367.491.151.968.31 1.427.478 4.442 1.625 7.151 4.027 7.151 5.878 0 1.972-2.926 4.53-7.677 6.204Zm-1.971 4.151c.48 2.578.549 4.91.23 6.731-.285 1.638-.86 2.73-1.571 3.166-1.513.93-4.748-.279-8.236-3.468-.4-.366-.803-.757-1.207-1.17 1.352-1.571 2.704-3.398 4.023-5.428 2.32-.219 4.513-.576 6.5-1.064.099.42.186.83.26 1.233Zm-19.937 9.737c-1.478.554-2.655.57-3.366.134-1.514-.928-2.144-4.51-1.285-9.314.098-.55.215-1.115.35-1.693 1.966.462 4.143.795 6.469.995a52.585 52.585 0 0 0 4.12 5.409c-.306.314-.611.613-.914.895-1.863 1.73-3.729 2.956-5.374 3.574Zm-6.924-13.9c-2.34-.85-4.273-1.954-5.598-3.16-1.19-1.083-1.792-2.158-1.792-3.03 0-1.858 2.606-4.227 6.952-5.837.528-.195 1.08-.38 1.652-.552a54.26 54.26 0 0 0 2.34 6.441 55.137 55.137 0 0 0-2.369 6.533 24.219 24.219 0 0 1-1.185-.394Zm2.321-16.785c-.902-4.899-.303-8.594 1.205-9.521 1.606-.988 5.157.42 8.9 3.951.239.226.479.462.72.707a51.734 51.734 0 0 0-4.09 5.376c-2.257.222-4.418.58-6.405 1.058a33.678 33.678 0 0 1-.33-1.571Zm20.705 5.432a70.236 70.236 0 0 0-1.46-2.55 42.8 42.8 0 0 1 4.377.812 48.407 48.407 0 0 1-1.536 4.392 77.558 77.558 0 0 0-1.38-2.654Zm-8.443-8.738a46.09 46.09 0 0 1 2.824 3.623 56.854 56.854 0 0 0-5.673-.002 47.524 47.524 0 0 1 2.849-3.621Zm-8.498 8.753a65.55 65.55 0 0 0-1.355 2.637 50.053 50.053 0 0 1-1.525-4.413c1.37-.326 2.83-.592 4.352-.794a64.837 64.837 0 0 0-1.472 2.57Zm1.516 13.02a41.304 41.304 0 0 1-4.424-.756 50.93 50.93 0 0 1 1.556-4.503 65.28 65.28 0 0 0 2.868 5.258Zm7.039 6.181a48.393 48.393 0 0 1-2.888-3.672c.919.038 1.856.058 2.808.058.978 0 1.946-.024 2.898-.069a45.926 45.926 0 0 1-2.818 3.683Zm9.787-11.518a48.03 48.03 0 0 1 1.612 4.486A41.24 41.24 0 0 1 39 41.79c.498-.839.99-1.704 1.474-2.595.489-.9.953-1.803 1.392-2.702Zm-3.169 1.614a72.38 72.38 0 0 1-2.302 3.947 58.151 58.151 0 0 1-4.396.164c-1.494 0-2.947-.05-4.346-.146a62.677 62.677 0 0 1-4.394-8.063 63.255 63.255 0 0 1 2.042-4.111 61.889 61.889 0 0 1 2.327-3.937 54.68 54.68 0 0 1 4.37-.174H32c1.486 0 2.952.06 4.379.176a66.438 66.438 0 0 1 2.313 3.923 73.043 73.043 0 0 1 2.069 4.092 67.17 67.17 0 0 1-2.063 4.129Zm4.23-24.33c1.608.985 2.233 4.957 1.223 10.165-.065.333-.137.671-.216 1.014a46.46 46.46 0 0 0-6.418-1.077c-1.319-1.995-2.686-3.81-4.057-5.38.368-.377.737-.737 1.104-1.076 3.543-3.277 6.855-4.57 8.364-3.646ZM32 29.403c2.367 0 4.286 2.039 4.286 4.554S34.367 38.511 32 38.511c-2.367 0-4.286-2.039-4.286-4.554s1.919-4.554 4.286-4.554Z"/><path fill="#00D8FF" d="M47.466 26.02a30.752 30.752 0 0 0-1.546-.518c.088-.379.168-.752.24-1.12 1.169-6.032.404-10.892-2.207-12.492-2.504-1.535-6.6.065-10.736 3.89-.397.367-.796.757-1.195 1.165-.265-.27-.53-.531-.795-.78-4.335-4.09-8.68-5.813-11.288-4.209-2.502 1.54-3.243 6.108-2.19 11.825.102.552.22 1.116.355 1.69a30.32 30.32 0 0 0-1.777.593C11.245 27.947 8 30.897 8 33.957c0 3.16 3.484 6.33 8.777 8.253.418.152.851.295 1.298.431-.145.62-.271 1.228-.377 1.82-1.004 5.619-.22 10.08 2.275 11.609 2.577 1.579 6.902-.044 11.114-3.956.333-.31.667-.637 1.002-.98.433.443.866.863 1.297 1.257 4.08 3.73 8.109 5.236 10.601 3.703 2.575-1.584 3.412-6.376 2.325-12.206-.083-.445-.18-.9-.288-1.363.304-.095.602-.194.893-.296C52.42 40.29 56 37.159 56 33.957c0-3.071-3.35-6.041-8.534-7.938Zm-1.194 14.14c-.262.093-.532.182-.806.269-.608-2.044-1.427-4.216-2.43-6.461.957-2.192 1.745-4.337 2.335-6.367.491.151.968.31 1.427.478 4.442 1.625 7.151 4.027 7.151 5.878 0 1.972-2.926 4.53-7.677 6.204Zm-1.971 4.151c.48 2.578.549 4.91.23 6.731-.285 1.638-.86 2.73-1.571 3.166-1.513.93-4.748-.279-8.236-3.468-.4-.366-.803-.757-1.207-1.17 1.352-1.571 2.704-3.398 4.023-5.428 2.32-.219 4.513-.576 6.5-1.064.099.42.186.83.26 1.233Zm-19.937 9.737c-1.478.554-2.655.57-3.366.134-1.514-.928-2.144-4.51-1.285-9.314.098-.55.215-1.115.35-1.693 1.966.462 4.143.795 6.469.995a52.585 52.585 0 0 0 4.12 5.409c-.306.314-.611.613-.914.895-1.863 1.73-3.729 2.956-5.374 3.574Zm-6.924-13.9c-2.34-.85-4.273-1.954-5.598-3.16-1.19-1.083-1.792-2.158-1.792-3.03 0-1.858 2.606-4.227 6.952-5.837.528-.195 1.08-.38 1.652-.552a54.26 54.26 0 0 0 2.34 6.441 55.137 55.137 0 0 0-2.369 6.533 24.219 24.219 0 0 1-1.185-.394Zm2.321-16.785c-.902-4.899-.303-8.594 1.205-9.521 1.606-.988 5.157.42 8.9 3.951.239.226.479.462.72.707a51.734 51.734 0 0 0-4.09 5.376c-2.257.222-4.418.58-6.405 1.058a33.678 33.678 0 0 1-.33-1.571Zm20.705 5.432a70.236 70.236 0 0 0-1.46-2.55 42.8 42.8 0 0 1 4.377.812 48.407 48.407 0 0 1-1.536 4.392 77.558 77.558 0 0 0-1.38-2.654Zm-8.443-8.738a46.09 46.09 0 0 1 2.824 3.623 56.854 56.854 0 0 0-5.673-.002 47.524 47.524 0 0 1 2.849-3.621Zm-8.498 8.753a65.55 65.55 0 0 0-1.355 2.637 50.053 50.053 0 0 1-1.525-4.413c1.37-.326 2.83-.592 4.352-.794a64.837 64.837 0 0 0-1.472 2.57Zm1.516 13.02a41.304 41.304 0 0 1-4.424-.756 50.93 50.93 0 0 1 1.556-4.503 65.28 65.28 0 0 0 2.868 5.258Zm7.039 6.181a48.393 48.393 0 0 1-2.888-3.672c.919.038 1.856.058 2.808.058.978 0 1.946-.024 2.898-.069a45.926 45.926 0 0 1-2.818 3.683Zm9.787-11.518a48.03 48.03 0 0 1 1.612 4.486A41.24 41.24 0 0 1 39 41.79c.498-.839.99-1.704 1.474-2.595.489-.9.953-1.803 1.392-2.702Zm-3.169 1.614a72.38 72.38 0 0 1-2.302 3.947 58.151 58.151 0 0 1-4.396.164c-1.494 0-2.947-.05-4.346-.146a62.677 62.677 0 0 1-4.394-8.063 63.255 63.255 0 0 1 2.042-4.111 61.889 61.889 0 0 1 2.327-3.937 54.68 54.68 0 0 1 4.37-.174H32c1.486 0 2.952.06 4.379.176a66.438 66.438 0 0 1 2.313 3.923 73.043 73.043 0 0 1 2.069 4.092 67.17 67.17 0 0 1-2.063 4.129Zm4.23-24.33c1.608.985 2.233 4.957 1.223 10.165-.065.333-.137.671-.216 1.014a46.46 46.46 0 0 0-6.418-1.077c-1.319-1.995-2.686-3.81-4.057-5.38.368-.377.737-.737 1.104-1.076 3.543-3.277 6.855-4.57 8.364-3.646ZM32 29.403c2.367 0 4.286 2.039 4.286 4.554S34.367 38.511 32 38.511c-2.367 0-4.286-2.039-4.286-4.554s1.919-4.554 4.286-4.554Z"/><path fill="#00D8FF" d="M47.466 26.02a30.752 30.752 0 0 0-1.546-.518c.088-.379.168-.752.24-1.12 1.169-6.032.404-10.892-2.207-12.492-2.504-1.535-6.6.065-10.736 3.89-.397.367-.796.757-1.195 1.165-.265-.27-.53-.531-.795-.78-4.335-4.09-8.68-5.813-11.288-4.209-2.502 1.54-3.243 6.108-2.19 11.825.102.552.22 1.116.355 1.69a30.32 30.32 0 0 0-1.777.593C11.245 27.947 8 30.897 8 33.957c0 3.16 3.484 6.33 8.777 8.253.418.152.851.295 1.298.431-.145.62-.271 1.228-.377 1.82-1.004 5.619-.22 10.08 2.275 11.609 2.577 1.579 6.902-.044 11.114-3.956.333-.31.667-.637 1.002-.98.433.443.866.863 1.297 1.257 4.08 3.73 8.109 5.236 10.601 3.703 2.575-1.584 3.412-6.376 2.325-12.206-.083-.445-.18-.9-.288-1.363.304-.095.602-.194.893-.296C52.42 40.29 56 37.159 56 33.957c0-3.071-3.35-6.041-8.534-7.938Zm-1.194 14.14c-.262.093-.532.182-.806.269-.608-2.044-1.427-4.216-2.43-6.461.957-2.192 1.745-4.337 2.335-6.367.491.151.968.31 1.427.478 4.442 1.625 7.151 4.027 7.151 5.878 0 1.972-2.926 4.53-7.677 6.204Zm-1.971 4.151c.48 2.578.549 4.91.23 6.731-.285 1.638-.86 2.73-1.571 3.166-1.513.93-4.748-.279-8.236-3.468-.4-.366-.803-.757-1.207-1.17 1.352-1.571 2.704-3.398 4.023-5.428 2.32-.219 4.513-.576 6.5-1.064.099.42.186.83.26 1.233Zm-19.937 9.737c-1.478.554-2.655.57-3.366.134-1.514-.928-2.144-4.51-1.285-9.314.098-.55.215-1.115.35-1.693 1.966.462 4.143.795 6.469.995a52.585 52.585 0 0 0 4.12 5.409c-.306.314-.611.613-.914.895-1.863 1.73-3.729 2.956-5.374 3.574Zm-6.924-13.9c-2.34-.85-4.273-1.954-5.598-3.16-1.19-1.083-1.792-2.158-1.792-3.03 0-1.858 2.606-4.227 6.952-5.837.528-.195 1.08-.38 1.652-.552a54.26 54.26 0 0 0 2.34 6.441 55.137 55.137 0 0 0-2.369 6.533 24.219 24.219 0 0 1-1.185-.394Zm2.321-16.785c-.902-4.899-.303-8.594 1.205-9.521 1.606-.988 5.157.42 8.9 3.951.239.226.479.462.72.707a51.734 51.734 0 0 0-4.09 5.376c-2.257.222-4.418.58-6.405 1.058a33.678 33.678 0 0 1-.33-1.571Zm20.705 5.432a70.236 70.236 0 0 0-1.46-2.55 42.8 42.8 0 0 1 4.377.812 48.407 48.407 0 0 1-1.536 4.392 77.558 77.558 0 0 0-1.38-2.654Zm-8.443-8.738a46.09 46.09 0 0 1 2.824 3.623 56.854 56.854 0 0 0-5.673-.002 47.524 47.524 0 0 1 2.849-3.621Zm-8.498 8.753a65.55 65.55 0 0 0-1.355 2.637 50.053 50.053 0 0 1-1.525-4.413c1.37-.326 2.83-.592 4.352-.794a64.837 64.837 0 0 0-1.472 2.57Zm1.516 13.02a41.304 41.304 0 0 1-4.424-.756 50.93 50.93 0 0 1 1.556-4.503 65.28 65.28 0 0 0 2.868 5.258Zm7.039 6.181a48.393 48.393 0 0 1-2.888-3.672c.919.038 1.856.058 2.808.058.978 0 1.946-.024 2.898-.069a45.926 45.926 0 0 1-2.818 3.683Zm9.787-11.518a48.03 48.03 0 0 1 1.612 4.486A41.24 41.24 0 0 1 39 41.79c.498-.839.99-1.704 1.474-2.595.489-.9.953-1.803 1.392-2.702Zm-3.169 1.614a72.38 72.38 0 0 1-2.302 3.947 58.151 58.151 0 0 1-4.396.164c-1.494 0-2.947-.05-4.346-.146a62.677 62.677 0 0 1-4.394-8.063 63.255 63.255 0 0 1 2.042-4.111 61.889 61.889 0 0 1 2.327-3.937 54.68 54.68 0 0 1 4.37-.174H32c1.486 0 2.952.06 4.379.176a66.438 66.438 0 0 1 2.313 3.923 73.043 73.043 0 0 1 2.069 4.092 67.17 67.17 0 0 1-2.063 4.129Zm4.23-24.33c1.608.985 2.233 4.957 1.223 10.165-.065.333-.137.671-.216 1.014a46.46 46.46 0 0 0-6.418-1.077c-1.319-1.995-2.686-3.81-4.057-5.38.368-.377.737-.737 1.104-1.076 3.543-3.277 6.855-4.57 8.364-3.646ZM32 29.403c2.367 0 4.286 2.039 4.286 4.554S34.367 38.511 32 38.511c-2.367 0-4.286-2.039-4.286-4.554s1.919-4.554 4.286-4.554Z"/></svg>