<svg width="74" height="74" viewBox="0 0 74 74" fill="none" xmlns="http://www.w3.org/2000/svg">
<rect x="0.5" y="0.5" width="73" height="73" rx="36.5" fill="url(#paint0_linear_1526_8277)"/>
<rect x="0.5" y="0.5" width="73" height="73" rx="36.5" stroke="url(#paint1_linear_1526_8277)"/>
<path d="M36.497 49.6234L36.4878 49.6185L36.4557 49.6011C36.4284 49.5862 36.3893 49.5648 36.3392 49.5369C36.2391 49.481 36.0951 49.3993 35.9134 49.2923C35.55 49.0786 35.0353 48.7639 34.4196 48.3546C33.1902 47.5373 31.5476 46.336 29.9005 44.8006C26.6411 41.7622 23.1875 37.2481 23.1875 31.6875C23.1875 27.5394 26.6776 24.25 30.8906 24.25C33.3682 24.25 35.5866 25.382 37 27.1564C38.4134 25.382 40.6318 24.25 43.1094 24.25C47.3224 24.25 50.8125 27.5394 50.8125 31.6875C50.8125 37.2481 47.3589 41.7622 44.0995 44.8006C42.4524 46.336 40.8098 47.5373 39.5804 48.3546C38.9647 48.7639 38.45 49.0786 38.0866 49.2923C37.9049 49.3993 37.7609 49.481 37.6608 49.5369C37.6107 49.5648 37.5716 49.5862 37.5443 49.6011L37.5122 49.6185L37.503 49.6234L37.4991 49.6255C37.1874 49.791 36.8126 49.791 36.5009 49.6255L36.497 49.6234Z" fill="#E2E2E2"/>
<defs>
<linearGradient id="paint0_linear_1526_8277" x1="37" y1="0" x2="37" y2="74" gradientUnits="userSpaceOnUse">
<stop stop-color="#1A1A1A"/>
<stop offset="1" stop-color="#1A1A1A" stop-opacity="0"/>
</linearGradient>
<linearGradient id="paint1_linear_1526_8277" x1="37" y1="0" x2="37" y2="74" gradientUnits="userSpaceOnUse">
<stop stop-color="#262626"/>
<stop offset="1" stop-color="#262626" stop-opacity="0"/>
</linearGradient>
</defs>
</svg>
