<svg width="74" height="74" viewBox="0 0 74 74" fill="none" xmlns="http://www.w3.org/2000/svg">
<rect x="0.5" y="0.5" width="73" height="73" rx="36.5" fill="url(#paint0_linear_1526_8272)"/>
<rect x="0.5" y="0.5" width="73" height="73" rx="36.5" stroke="url(#paint1_linear_1526_8272)"/>
<path d="M43.915 26.156C40.9808 27.3299 37.8383 28.0937 34.5576 28.3768C33.612 28.4584 32.6547 28.5 31.6875 28.5H30.625C26.5174 28.5 23.1875 31.8299 23.1875 35.9375C23.1875 39.6203 25.8642 42.6779 29.3783 43.271C29.8518 45.2104 30.5089 47.0779 31.33 48.8539C31.9874 50.2758 33.7017 50.7239 34.9887 49.9809L35.9185 49.4441C37.1653 48.7242 37.5699 47.1877 37.0123 45.9475C36.6796 45.2075 36.3826 44.448 36.1237 43.6711C38.84 44.0367 41.451 44.7333 43.915 45.719C44.9431 42.6458 45.5 39.3567 45.5 35.9375C45.5 32.5184 44.9431 29.2293 43.915 26.156Z" fill="#E2E2E2"/>
<path d="M45.8692 25.2994C47.0075 28.6366 47.625 32.2149 47.625 35.9375C47.625 39.6601 47.0074 43.2385 45.8692 46.5757C45.791 46.8048 45.7107 47.033 45.6277 47.2598C45.426 47.8109 45.7092 48.4211 46.2602 48.6228C46.8112 48.8245 47.4215 48.5413 47.6232 47.9903C47.8215 47.4484 48.0069 46.9002 48.1789 46.3462C48.9208 43.9566 49.4139 41.4581 49.6281 38.881C50.3605 38.1182 50.8125 37.0803 50.8125 35.9375C50.8125 34.7948 50.3605 33.7569 49.6281 32.9941C49.4139 30.417 48.9208 27.9184 48.1789 25.5289C48.0069 24.9749 47.8215 24.4267 47.6232 23.8848C47.4215 23.3338 46.8112 23.0506 46.2602 23.2523C45.7092 23.454 45.426 24.0642 45.6277 24.6153C45.7107 24.8421 45.7911 25.0702 45.8692 25.2994Z" fill="#E2E2E2"/>
<defs>
<linearGradient id="paint0_linear_1526_8272" x1="37" y1="0" x2="37" y2="74" gradientUnits="userSpaceOnUse">
<stop stop-color="#1A1A1A"/>
<stop offset="1" stop-color="#1A1A1A" stop-opacity="0"/>
</linearGradient>
<linearGradient id="paint1_linear_1526_8272" x1="37" y1="0" x2="37" y2="74" gradientUnits="userSpaceOnUse">
<stop stop-color="#262626"/>
<stop offset="1" stop-color="#262626" stop-opacity="0"/>
</linearGradient>
</defs>
</svg>
