<svg width="74" height="74" viewBox="0 0 74 74" fill="none" xmlns="http://www.w3.org/2000/svg">
<rect x="0.5" y="0.5" width="73" height="73" rx="36.5" fill="url(#paint0_linear_1526_8307)"/>
<rect x="0.5" y="0.5" width="73" height="73" rx="36.5" stroke="url(#paint1_linear_1526_8307)"/>
<path d="M36.5746 23.9741C36.8458 23.8556 37.1542 23.8556 37.4254 23.9741C42.6937 26.276 47.6868 29.0898 52.3417 32.3527C52.6786 32.5888 52.8489 32.9982 52.7789 33.4036C52.7088 33.8089 52.4111 34.1375 52.0146 34.2469C51.0443 34.5148 50.0823 34.8032 49.1291 35.1106C45.2601 36.3584 41.5357 37.9284 37.9875 39.7891L37.9829 39.7915C37.822 39.8759 37.6615 39.9609 37.5013 40.0464C37.1885 40.2136 36.8128 40.2136 36.4999 40.0464C36.3382 39.96 36.1762 39.8742 36.0138 39.7891C34.2593 38.869 32.4617 38.0201 30.6249 37.246V36.9291C30.6249 36.743 30.7204 36.5779 30.8682 36.4883C33.0004 35.1966 35.1998 34.0046 37.4599 32.9191C37.9889 32.665 38.2117 32.0302 37.9576 31.5013C37.7036 30.9723 37.0688 30.7495 36.5398 31.0036C34.2176 32.119 31.9578 33.3437 29.7671 34.6709C29.1248 35.06 28.693 35.6968 28.551 36.4103C27.3398 35.9444 26.1128 35.5105 24.8708 35.11C23.9176 34.8026 22.9557 34.5147 21.9854 34.2469C21.5888 34.1375 21.2911 33.8089 21.2211 33.4035C21.1511 32.9982 21.3214 32.5888 21.6582 32.3527C26.3132 29.0898 31.3063 26.276 36.5746 23.9741Z" fill="#E2E2E2"/>
<path d="M38.5028 41.9207C41.9578 40.0746 45.5878 38.5139 49.3614 37.27C49.5516 39.2743 49.673 41.2985 49.7233 43.3402C49.7341 43.7783 49.4749 44.1781 49.0705 44.3469C45.0314 46.0332 41.1895 48.0982 37.5891 50.4975C37.2323 50.7353 36.7675 50.7353 36.4107 50.4975C32.8103 48.0982 28.9684 46.0332 24.9293 44.3469C24.5249 44.1781 24.2657 43.7783 24.2765 43.3402C24.3268 41.2984 24.4482 39.274 24.6384 37.2695C25.9432 37.6996 27.2308 38.1675 28.4999 38.672V40.4718C27.8647 40.8392 27.4374 41.5259 27.4374 42.3125C27.4374 43.0142 27.7775 43.6364 28.3019 44.0234C28.175 44.5626 27.9874 45.0903 27.7388 45.5956C28.3801 45.8983 29.0159 46.2107 29.6461 46.5326C30.005 45.8027 30.2652 45.0366 30.4267 44.2543C31.1696 43.9232 31.6874 43.1783 31.6874 42.3125C31.6874 41.5259 31.26 40.8392 30.6249 40.4718V39.5583C32.2844 40.2834 33.9099 41.0719 35.4985 41.9207C36.4371 42.4222 37.5641 42.4222 38.5028 41.9207Z" fill="#E2E2E2"/>
<path d="M26.3214 47.5716C26.9151 46.9778 27.3878 46.309 27.7388 45.5956C28.3801 45.8983 29.0159 46.2107 29.6461 46.5326C29.1948 47.4504 28.5872 48.3109 27.824 49.0742C27.409 49.4891 26.7363 49.4891 26.3214 49.0742C25.9064 48.6592 25.9064 47.9865 26.3214 47.5716Z" fill="#E2E2E2"/>
<defs>
<linearGradient id="paint0_linear_1526_8307" x1="37" y1="0" x2="37" y2="74" gradientUnits="userSpaceOnUse">
<stop stop-color="#1A1A1A"/>
<stop offset="1" stop-color="#1A1A1A" stop-opacity="0"/>
</linearGradient>
<linearGradient id="paint1_linear_1526_8307" x1="37" y1="0" x2="37" y2="74" gradientUnits="userSpaceOnUse">
<stop stop-color="#262626"/>
<stop offset="1" stop-color="#262626" stop-opacity="0"/>
</linearGradient>
</defs>
</svg>
