<svg width="74" height="74" viewBox="0 0 74 74" fill="none" xmlns="http://www.w3.org/2000/svg">
<rect x="0.5" y="0.5" width="73" height="73" rx="36.5" fill="url(#paint0_linear_1526_8287)"/>
<rect x="0.5" y="0.5" width="73" height="73" rx="36.5" stroke="url(#paint1_linear_1526_8287)"/>
<path fill-rule="evenodd" clip-rule="evenodd" d="M38.3647 23.2381C38.1922 23.0068 37.933 22.8556 37.6468 22.8193C37.3605 22.7829 37.0717 22.8646 36.8469 23.0455C34.1975 25.1773 32.3496 28.2701 31.8337 31.7956C30.9036 31.1214 30.0867 30.2998 29.4174 29.3653C29.2333 29.1082 28.9443 28.9464 28.6288 28.924C28.3134 28.9016 28.0044 29.0209 27.7858 29.2494C25.5965 31.5379 24.25 34.6438 24.25 38.0619C24.25 45.1036 29.9584 50.8119 37 50.8119C44.0416 50.8119 49.75 45.1036 49.75 38.0619C49.75 32.8757 46.6536 28.4149 42.213 26.4232C40.6417 25.6561 39.3441 24.5515 38.3647 23.2381ZM42.3125 40.1875C42.3125 43.1215 39.934 45.5 37 45.5C34.066 45.5 31.6875 43.1215 31.6875 40.1875C31.6875 39.6076 31.7804 39.0494 31.9522 38.527C32.8425 39.1852 33.8659 39.6737 34.9746 39.9447C35.2804 37.9603 36.2726 36.2023 37.7011 34.9209C40.3037 35.264 42.3125 37.4912 42.3125 40.1875Z" fill="#E2E2E2"/>
<defs>
<linearGradient id="paint0_linear_1526_8287" x1="37" y1="0" x2="37" y2="74" gradientUnits="userSpaceOnUse">
<stop stop-color="#1A1A1A"/>
<stop offset="1" stop-color="#1A1A1A" stop-opacity="0"/>
</linearGradient>
<linearGradient id="paint1_linear_1526_8287" x1="37" y1="0" x2="37" y2="74" gradientUnits="userSpaceOnUse">
<stop stop-color="#262626"/>
<stop offset="1" stop-color="#262626" stop-opacity="0"/>
</linearGradient>
</defs>
</svg>
