<svg width="74" height="74" viewBox="0 0 74 74" fill="none" xmlns="http://www.w3.org/2000/svg">
<rect x="0.5" y="0.5" width="73" height="73" rx="36.5" fill="url(#paint0_linear_1526_8262)"/>
<rect x="0.5" y="0.5" width="73" height="73" rx="36.5" stroke="url(#paint1_linear_1526_8262)"/>
<path d="M37 30.625C35.2396 30.625 33.8125 32.0521 33.8125 33.8125C33.8125 35.5729 35.2396 37 37 37C38.7604 37 40.1875 35.5729 40.1875 33.8125C40.1875 32.0521 38.7604 30.625 37 30.625Z" fill="#E2E2E2"/>
<path fill-rule="evenodd" clip-rule="evenodd" d="M22.125 26.9062C22.125 25.4392 23.3142 24.25 24.7812 24.25H49.2188C50.6858 24.25 51.875 25.4392 51.875 26.9062V40.7188C51.875 42.1858 50.6858 43.375 49.2188 43.375H24.7812C23.3142 43.375 22.125 42.1858 22.125 40.7188V26.9062ZM31.6875 33.8125C31.6875 30.8785 34.066 28.5 37 28.5C39.934 28.5 42.3125 30.8785 42.3125 33.8125C42.3125 36.7465 39.934 39.125 37 39.125C34.066 39.125 31.6875 36.7465 31.6875 33.8125ZM46.5625 32.75C45.9757 32.75 45.5 33.2257 45.5 33.8125V33.8231C45.5 34.4099 45.9757 34.8856 46.5625 34.8856H46.5731C47.1599 34.8856 47.6356 34.4099 47.6356 33.8231V33.8125C47.6356 33.2257 47.1599 32.75 46.5731 32.75H46.5625ZM26.375 33.8125C26.375 33.2257 26.8507 32.75 27.4375 32.75H27.4481C28.0349 32.75 28.5106 33.2257 28.5106 33.8125V33.8231C28.5106 34.4099 28.0349 34.8856 27.4481 34.8856H27.4375C26.8507 34.8856 26.375 34.4099 26.375 33.8231V33.8125Z" fill="#E2E2E2"/>
<path d="M23.1875 45.5C22.6007 45.5 22.125 45.9757 22.125 46.5625C22.125 47.1493 22.6007 47.625 23.1875 47.625C30.8376 47.625 38.247 48.6481 45.2872 50.5644C46.9738 51.0235 48.6875 49.7738 48.6875 47.9864V46.5625C48.6875 45.9757 48.2118 45.5 47.625 45.5H23.1875Z" fill="#E2E2E2"/>
<defs>
<linearGradient id="paint0_linear_1526_8262" x1="37" y1="0" x2="37" y2="74" gradientUnits="userSpaceOnUse">
<stop stop-color="#1A1A1A"/>
<stop offset="1" stop-color="#1A1A1A" stop-opacity="0"/>
</linearGradient>
<linearGradient id="paint1_linear_1526_8262" x1="37" y1="0" x2="37" y2="74" gradientUnits="userSpaceOnUse">
<stop stop-color="#262626"/>
<stop offset="1" stop-color="#262626" stop-opacity="0"/>
</linearGradient>
</defs>
</svg>
