<svg width="74" height="74" viewBox="0 0 74 74" fill="none" xmlns="http://www.w3.org/2000/svg">
<rect x="0.5" y="0.5" width="73" height="73" rx="36.5" fill="url(#paint0_linear_1526_8312)"/>
<rect x="0.5" y="0.5" width="73" height="73" rx="36.5" stroke="url(#paint1_linear_1526_8312)"/>
<path fill-rule="evenodd" clip-rule="evenodd" d="M27.3187 23.7136V24.928C25.8526 25.1377 24.4018 25.395 22.9679 25.6982C22.4104 25.816 22.0451 26.3527 22.14 26.9145C22.8631 31.1981 26.4319 34.5135 30.8363 34.8473C31.9493 35.7563 33.2721 36.4201 34.7214 36.7549C34.5814 38.4098 34.02 39.9433 33.145 41.25H32.0996C30.6326 41.25 29.4433 42.4392 29.4433 43.9062V47.625H28.3807C26.6203 47.625 25.1932 49.0521 25.1932 50.8125C25.1932 51.3993 25.6689 51.875 26.2557 51.875H47.5057C48.0925 51.875 48.5682 51.3993 48.5682 50.8125C48.5682 49.0521 47.1411 47.625 45.3807 47.625H44.3183V43.9062C44.3183 42.4392 43.1291 41.25 41.6621 41.25H40.616C39.7412 39.9434 39.1802 38.41 39.0402 36.755C40.4898 36.4203 41.8129 35.7564 42.9261 34.8473C47.3305 34.5135 50.8993 31.1981 51.6224 26.9145C51.7173 26.3527 51.352 25.816 50.7945 25.6982C49.3606 25.395 47.9098 25.1377 46.4437 24.928V23.7136C46.4437 23.1776 46.0445 22.7256 45.5127 22.6593C42.6846 22.3066 39.8039 22.125 36.8812 22.125C33.9585 22.125 31.0778 22.3066 28.2497 22.6593C27.7179 22.7256 27.3187 23.1776 27.3187 23.7136ZM27.3187 27.4375C27.3187 29.1321 27.76 30.7241 28.5331 32.1043C26.6105 31.2437 25.1195 29.5905 24.4767 27.5606C25.4169 27.3784 26.3644 27.2165 27.3187 27.0754V27.4375ZM46.4437 27.4375V27.0754C47.398 27.2165 48.3455 27.3784 49.2857 27.5606C48.6429 29.5905 47.1518 31.2437 45.2293 32.1043C46.0024 30.7241 46.4437 29.1321 46.4437 27.4375Z" fill="#E2E2E2"/>
<defs>
<linearGradient id="paint0_linear_1526_8312" x1="37" y1="0" x2="37" y2="74" gradientUnits="userSpaceOnUse">
<stop stop-color="#1A1A1A"/>
<stop offset="1" stop-color="#1A1A1A" stop-opacity="0"/>
</linearGradient>
<linearGradient id="paint1_linear_1526_8312" x1="37" y1="0" x2="37" y2="74" gradientUnits="userSpaceOnUse">
<stop stop-color="#262626"/>
<stop offset="1" stop-color="#262626" stop-opacity="0"/>
</linearGradient>
</defs>
</svg>
