<svg width="74" height="74" viewBox="0 0 74 74" fill="none" xmlns="http://www.w3.org/2000/svg">
<rect x="0.5" y="0.5" width="73" height="73" rx="36.5" fill="url(#paint0_linear_1526_8267)"/>
<rect x="0.5" y="0.5" width="73" height="73" rx="36.5" stroke="url(#paint1_linear_1526_8267)"/>
<path fill-rule="evenodd" clip-rule="evenodd" d="M24.25 23.1875C23.6632 23.1875 23.1875 23.6632 23.1875 24.25C23.1875 24.8368 23.6632 25.3125 24.25 25.3125V48.6875H23.1875C22.6007 48.6875 22.125 49.1632 22.125 49.75C22.125 50.3368 22.6007 50.8125 23.1875 50.8125H41.25V25.3125C41.8368 25.3125 42.3125 24.8368 42.3125 24.25C42.3125 23.6632 41.8368 23.1875 41.25 23.1875H24.25ZM29.5625 47.625V44.4375C29.5625 43.8507 30.0382 43.375 30.625 43.375H34.875C35.4618 43.375 35.9375 43.8507 35.9375 44.4375V47.625C35.9375 48.2118 35.4618 48.6875 34.875 48.6875H30.625C30.0382 48.6875 29.5625 48.2118 29.5625 47.625ZM28.5 29.5625C28.5 28.9757 28.9757 28.5 29.5625 28.5H30.625C31.2118 28.5 31.6875 28.9757 31.6875 29.5625C31.6875 30.1493 31.2118 30.625 30.625 30.625H29.5625C28.9757 30.625 28.5 30.1493 28.5 29.5625ZM29.5625 32.75C28.9757 32.75 28.5 33.2257 28.5 33.8125C28.5 34.3993 28.9757 34.875 29.5625 34.875H30.625C31.2118 34.875 31.6875 34.3993 31.6875 33.8125C31.6875 33.2257 31.2118 32.75 30.625 32.75H29.5625ZM28.5 38.0625C28.5 37.4757 28.9757 37 29.5625 37H30.625C31.2118 37 31.6875 37.4757 31.6875 38.0625C31.6875 38.6493 31.2118 39.125 30.625 39.125H29.5625C28.9757 39.125 28.5 38.6493 28.5 38.0625ZM34.875 28.5C34.2882 28.5 33.8125 28.9757 33.8125 29.5625C33.8125 30.1493 34.2882 30.625 34.875 30.625H35.9375C36.5243 30.625 37 30.1493 37 29.5625C37 28.9757 36.5243 28.5 35.9375 28.5H34.875ZM33.8125 33.8125C33.8125 33.2257 34.2882 32.75 34.875 32.75H35.9375C36.5243 32.75 37 33.2257 37 33.8125C37 34.3993 36.5243 34.875 35.9375 34.875H34.875C34.2882 34.875 33.8125 34.3993 33.8125 33.8125ZM34.875 37C34.2882 37 33.8125 37.4757 33.8125 38.0625C33.8125 38.6493 34.2882 39.125 34.875 39.125H35.9375C36.5243 39.125 37 38.6493 37 38.0625C37 37.4757 36.5243 37 35.9375 37H34.875Z" fill="#E2E2E2"/>
<path fill-rule="evenodd" clip-rule="evenodd" d="M43.375 29.5625V50.8125H50.8125C51.3993 50.8125 51.875 50.3368 51.875 49.75C51.875 49.1632 51.3993 48.6875 50.8125 48.6875H49.75V31.6875C50.3368 31.6875 50.8125 31.2118 50.8125 30.625C50.8125 30.0382 50.3368 29.5625 49.75 29.5625H43.375ZM45.5 35.9375C45.5 35.3507 45.9757 34.875 46.5625 34.875H46.5731C47.1599 34.875 47.6356 35.3507 47.6356 35.9375V35.9481C47.6356 36.5349 47.1599 37.0106 46.5731 37.0106H46.5625C45.9757 37.0106 45.5 36.5349 45.5 35.9481V35.9375ZM46.5625 39.125C45.9757 39.125 45.5 39.6007 45.5 40.1875V40.1981C45.5 40.7849 45.9757 41.2606 46.5625 41.2606H46.5731C47.1599 41.2606 47.6356 40.7849 47.6356 40.1981V40.1875C47.6356 39.6007 47.1599 39.125 46.5731 39.125H46.5625ZM45.5 44.4375C45.5 43.8507 45.9757 43.375 46.5625 43.375H46.5731C47.1599 43.375 47.6356 43.8507 47.6356 44.4375V44.4481C47.6356 45.0349 47.1599 45.5106 46.5731 45.5106H46.5625C45.9757 45.5106 45.5 45.0349 45.5 44.4481V44.4375Z" fill="#E2E2E2"/>
<defs>
<linearGradient id="paint0_linear_1526_8267" x1="37" y1="0" x2="37" y2="74" gradientUnits="userSpaceOnUse">
<stop stop-color="#1A1A1A"/>
<stop offset="1" stop-color="#1A1A1A" stop-opacity="0"/>
</linearGradient>
<linearGradient id="paint1_linear_1526_8267" x1="37" y1="0" x2="37" y2="74" gradientUnits="userSpaceOnUse">
<stop stop-color="#262626"/>
<stop offset="1" stop-color="#262626" stop-opacity="0"/>
</linearGradient>
</defs>
</svg>
