<svg width="74" height="74" viewBox="0 0 74 74" fill="none" xmlns="http://www.w3.org/2000/svg">
<rect x="0.5" y="0.5" width="73" height="73" rx="36.5" fill="url(#paint0_linear_1526_8302)"/>
<rect x="0.5" y="0.5" width="73" height="73" rx="36.5" stroke="url(#paint1_linear_1526_8302)"/>
<path fill-rule="evenodd" clip-rule="evenodd" d="M23.1875 25.8438C23.1875 24.3767 24.3767 23.1875 25.8438 23.1875H33.2812C34.7483 23.1875 35.9375 24.3767 35.9375 25.8438V44.4375C35.9375 47.9583 33.0833 50.8125 29.5625 50.8125C26.0417 50.8125 23.1875 47.9583 23.1875 44.4375V25.8438ZM29.5625 46.0312C30.4427 46.0312 31.1562 45.3177 31.1562 44.4375C31.1562 43.5573 30.4427 42.8438 29.5625 42.8438C28.6823 42.8438 27.9688 43.5573 27.9688 44.4375C27.9688 45.3177 28.6823 46.0312 29.5625 46.0312Z" fill="#E2E2E2"/>
<path d="M35.1852 50.8125H48.1564C49.6234 50.8125 50.8127 49.6233 50.8127 48.1562V40.7188C50.8127 39.2517 49.6234 38.0625 48.1564 38.0625H47.9584L35.573 50.4479C35.4466 50.5743 35.3173 50.6958 35.1852 50.8125Z" fill="#E2E2E2"/>
<path d="M38.0459 44.9694L47.2178 35.7975C48.2551 34.7602 48.2551 33.0784 47.2178 32.041L41.9587 26.7819C40.9213 25.7446 39.2395 25.7446 38.2021 26.7819L38.0623 26.9218V44.4375C38.0623 44.6161 38.0568 44.7935 38.0459 44.9694Z" fill="#E2E2E2"/>
<defs>
<linearGradient id="paint0_linear_1526_8302" x1="37" y1="0" x2="37" y2="74" gradientUnits="userSpaceOnUse">
<stop stop-color="#1A1A1A"/>
<stop offset="1" stop-color="#1A1A1A" stop-opacity="0"/>
</linearGradient>
<linearGradient id="paint1_linear_1526_8302" x1="37" y1="0" x2="37" y2="74" gradientUnits="userSpaceOnUse">
<stop stop-color="#262626"/>
<stop offset="1" stop-color="#262626" stop-opacity="0"/>
</linearGradient>
</defs>
</svg>
