<svg width="74" height="74" viewBox="0 0 74 74" fill="none" xmlns="http://www.w3.org/2000/svg">
<rect x="0.5" y="0.5" width="73" height="73" rx="36.5" fill="url(#paint0_linear_1526_8292)"/>
<rect x="0.5" y="0.5" width="73" height="73" rx="36.5" stroke="url(#paint1_linear_1526_8292)"/>
<path d="M38.0625 38.0625C38.0625 38.6493 37.5868 39.125 37 39.125C36.4132 39.125 35.9375 38.6493 35.9375 38.0625C35.9375 37.4757 36.4132 37 37 37C37.5868 37 38.0625 37.4757 38.0625 38.0625Z" fill="#E2E2E2"/>
<path d="M30.625 42.3125C31.2118 42.3125 31.6875 41.8368 31.6875 41.25C31.6875 40.6632 31.2118 40.1875 30.625 40.1875C30.0382 40.1875 29.5625 40.6632 29.5625 41.25C29.5625 41.8368 30.0382 42.3125 30.625 42.3125Z" fill="#E2E2E2"/>
<path d="M31.6875 44.4375C31.6875 45.0243 31.2118 45.5 30.625 45.5C30.0382 45.5 29.5625 45.0243 29.5625 44.4375C29.5625 43.8507 30.0382 43.375 30.625 43.375C31.2118 43.375 31.6875 43.8507 31.6875 44.4375Z" fill="#E2E2E2"/>
<path d="M33.8125 42.3125C34.3993 42.3125 34.875 41.8368 34.875 41.25C34.875 40.6632 34.3993 40.1875 33.8125 40.1875C33.2257 40.1875 32.75 40.6632 32.75 41.25C32.75 41.8368 33.2257 42.3125 33.8125 42.3125Z" fill="#E2E2E2"/>
<path d="M34.875 44.4375C34.875 45.0243 34.3993 45.5 33.8125 45.5C33.2257 45.5 32.75 45.0243 32.75 44.4375C32.75 43.8507 33.2257 43.375 33.8125 43.375C34.3993 43.375 34.875 43.8507 34.875 44.4375Z" fill="#E2E2E2"/>
<path d="M37 42.3125C37.5868 42.3125 38.0625 41.8368 38.0625 41.25C38.0625 40.6632 37.5868 40.1875 37 40.1875C36.4132 40.1875 35.9375 40.6632 35.9375 41.25C35.9375 41.8368 36.4132 42.3125 37 42.3125Z" fill="#E2E2E2"/>
<path d="M38.0625 44.4375C38.0625 45.0243 37.5868 45.5 37 45.5C36.4132 45.5 35.9375 45.0243 35.9375 44.4375C35.9375 43.8507 36.4132 43.375 37 43.375C37.5868 43.375 38.0625 43.8507 38.0625 44.4375Z" fill="#E2E2E2"/>
<path d="M40.1875 42.3125C40.7743 42.3125 41.25 41.8368 41.25 41.25C41.25 40.6632 40.7743 40.1875 40.1875 40.1875C39.6007 40.1875 39.125 40.6632 39.125 41.25C39.125 41.8368 39.6007 42.3125 40.1875 42.3125Z" fill="#E2E2E2"/>
<path d="M41.25 44.4375C41.25 45.0243 40.7743 45.5 40.1875 45.5C39.6007 45.5 39.125 45.0243 39.125 44.4375C39.125 43.8507 39.6007 43.375 40.1875 43.375C40.7743 43.375 41.25 43.8507 41.25 44.4375Z" fill="#E2E2E2"/>
<path d="M43.375 42.3125C43.9618 42.3125 44.4375 41.8368 44.4375 41.25C44.4375 40.6632 43.9618 40.1875 43.375 40.1875C42.7882 40.1875 42.3125 40.6632 42.3125 41.25C42.3125 41.8368 42.7882 42.3125 43.375 42.3125Z" fill="#E2E2E2"/>
<path d="M41.25 38.0625C41.25 38.6493 40.7743 39.125 40.1875 39.125C39.6007 39.125 39.125 38.6493 39.125 38.0625C39.125 37.4757 39.6007 37 40.1875 37C40.7743 37 41.25 37.4757 41.25 38.0625Z" fill="#E2E2E2"/>
<path d="M43.375 39.125C43.9618 39.125 44.4375 38.6493 44.4375 38.0625C44.4375 37.4757 43.9618 37 43.375 37C42.7882 37 42.3125 37.4757 42.3125 38.0625C42.3125 38.6493 42.7882 39.125 43.375 39.125Z" fill="#E2E2E2"/>
<path fill-rule="evenodd" clip-rule="evenodd" d="M29.5625 23.1875C30.1493 23.1875 30.625 23.6632 30.625 24.25V26.375H43.375V24.25C43.375 23.6632 43.8507 23.1875 44.4375 23.1875C45.0243 23.1875 45.5 23.6632 45.5 24.25V26.375H46.5625C48.9097 26.375 50.8125 28.2778 50.8125 30.625V46.5625C50.8125 48.9097 48.9097 50.8125 46.5625 50.8125H27.4375C25.0903 50.8125 23.1875 48.9097 23.1875 46.5625V30.625C23.1875 28.2778 25.0903 26.375 27.4375 26.375H28.5V24.25C28.5 23.6632 28.9757 23.1875 29.5625 23.1875ZM48.6875 35.9375C48.6875 34.7639 47.7361 33.8125 46.5625 33.8125H27.4375C26.2639 33.8125 25.3125 34.7639 25.3125 35.9375V46.5625C25.3125 47.7361 26.2639 48.6875 27.4375 48.6875H46.5625C47.7361 48.6875 48.6875 47.7361 48.6875 46.5625V35.9375Z" fill="#E2E2E2"/>
<defs>
<linearGradient id="paint0_linear_1526_8292" x1="37" y1="0" x2="37" y2="74" gradientUnits="userSpaceOnUse">
<stop stop-color="#1A1A1A"/>
<stop offset="1" stop-color="#1A1A1A" stop-opacity="0"/>
</linearGradient>
<linearGradient id="paint1_linear_1526_8292" x1="37" y1="0" x2="37" y2="74" gradientUnits="userSpaceOnUse">
<stop stop-color="#262626"/>
<stop offset="1" stop-color="#262626" stop-opacity="0"/>
</linearGradient>
</defs>
</svg>
