<svg width="96" height="96" viewBox="0 0 96 96" fill="none" xmlns="http://www.w3.org/2000/svg">
<rect x="1" y="1" width="94" height="94" rx="47" fill="#1A1A1A"/>
<rect x="1" y="1" width="94" height="94" rx="47" stroke="url(#paint0_linear_1526_8207)" stroke-width="2"/>
<rect x="19" y="19" width="58" height="58" rx="29" fill="#1A1A1A"/>
<rect x="19" y="19" width="58" height="58" rx="29" stroke="#333333" stroke-width="2"/>
<path fill-rule="evenodd" clip-rule="evenodd" d="M48 37.5C48.4142 37.5 48.75 37.8358 48.75 38.25V40.5C48.75 40.9142 48.4142 41.25 48 41.25C47.5858 41.25 47.25 40.9142 47.25 40.5V38.25C47.25 37.8358 47.5858 37.5 48 37.5ZM41.636 40.136C41.9289 39.8431 42.4038 39.8431 42.6967 40.136L44.2877 41.727C44.5806 42.0199 44.5806 42.4948 44.2877 42.7877C43.9948 43.0806 43.5199 43.0806 43.227 42.7877L41.636 41.1967C41.3431 40.9038 41.3431 40.4289 41.636 40.136ZM54.364 40.136C54.6569 40.4289 54.6569 40.9038 54.364 41.1967L52.773 42.7877C52.4801 43.0806 52.0052 43.0806 51.7123 42.7877C51.4194 42.4948 51.4194 42.0199 51.7123 41.727L53.3033 40.136C53.5962 39.8431 54.0711 39.8431 54.364 40.136ZM47.5484 44.6318C47.8602 44.5482 48.1905 44.6736 48.3684 44.943L53.5955 52.8599C53.7627 53.113 53.7609 53.4419 53.591 53.6932C53.421 53.9445 53.1165 54.0687 52.8193 54.0079L50.722 53.5787L51.7668 57.4777C51.874 57.8778 51.6365 58.289 51.2364 58.3963C50.8363 58.5035 50.4251 58.266 50.3179 57.8659L49.2732 53.967L47.6717 55.3872C47.4447 55.5884 47.1189 55.6332 46.8461 55.5005C46.5733 55.3678 46.4073 55.0839 46.4254 54.7811L46.9939 45.3113C47.0132 44.9891 47.2366 44.7153 47.5484 44.6318ZM39 46.5C39 46.0858 39.3358 45.75 39.75 45.75H42C42.4142 45.75 42.75 46.0858 42.75 46.5C42.75 46.9142 42.4142 47.25 42 47.25H39.75C39.3358 47.25 39 46.9142 39 46.5ZM53.25 46.5C53.25 46.0858 53.5858 45.75 54 45.75H56.25C56.6642 45.75 57 46.0858 57 46.5C57 46.9142 56.6642 47.25 56.25 47.25H54C53.5858 47.25 53.25 46.9142 53.25 46.5ZM44.2877 50.2123C44.5806 50.5052 44.5806 50.9801 44.2877 51.273L42.6967 52.864C42.4038 53.1569 41.9289 53.1569 41.636 52.864C41.3431 52.5711 41.3431 52.0962 41.636 51.8033L43.227 50.2123C43.5199 49.9194 43.9948 49.9194 44.2877 50.2123Z" fill="white"/>
<defs>
<linearGradient id="paint0_linear_1526_8207" x1="48" y1="0" x2="48" y2="96" gradientUnits="userSpaceOnUse">
<stop stop-color="#333333"/>
<stop offset="0.82384" stop-color="#333333" stop-opacity="0"/>
</linearGradient>
</defs>
</svg>
