<svg width="68" height="48" viewBox="0 0 68 48" fill="none" xmlns="http://www.w3.org/2000/svg">
<rect width="68" height="48" rx="24" fill="#1A1A1A"/>
<path fill-rule="evenodd" clip-rule="evenodd" d="M26.2223 23.9999C26.2223 23.3233 26.7551 22.7749 27.4123 22.7749H37.9445L34.5208 19.5746C34.0471 19.1057 34.0323 18.3302 34.4878 17.8425C34.9434 17.3548 35.6967 17.3396 36.1704 17.8085L41.7238 23.1169C41.9571 23.3478 42.089 23.6667 42.089 23.9999C42.089 24.3331 41.9571 24.6519 41.7238 24.8829L36.1704 30.1912C35.6967 30.6602 34.9434 30.645 34.4878 30.1573C34.0323 29.6696 34.0471 28.8941 34.5208 28.4252L37.9445 25.2249H27.4123C26.7551 25.2249 26.2223 24.6764 26.2223 23.9999Z" fill="white"/>
</svg>
