<svg width="28" height="28" viewBox="0 0 28 28" fill="none" xmlns="http://www.w3.org/2000/svg">
<path d="M14 8.75C12.5503 8.75 11.375 9.92525 11.375 11.375C11.375 12.8247 12.5503 14 14 14C15.4497 14 16.625 12.8247 16.625 11.375C16.625 9.92525 15.4497 8.75 14 8.75Z" fill="white"/>
<path fill-rule="evenodd" clip-rule="evenodd" d="M1.75 5.6875C1.75 4.47938 2.72938 3.5 3.9375 3.5H24.0625C25.2706 3.5 26.25 4.47938 26.25 5.6875V17.0625C26.25 18.2706 25.2706 19.25 24.0625 19.25H3.9375C2.72938 19.25 1.75 18.2706 1.75 17.0625V5.6875ZM9.625 11.375C9.625 8.95875 11.5838 7 14 7C16.4162 7 18.375 8.95875 18.375 11.375C18.375 13.7912 16.4162 15.75 14 15.75C11.5838 15.75 9.625 13.7912 9.625 11.375ZM21.875 10.5C21.3918 10.5 21 10.8918 21 11.375V11.3837C21 11.867 21.3918 12.2587 21.875 12.2587H21.8838C22.367 12.2587 22.7588 11.867 22.7588 11.3837V11.375C22.7588 10.8918 22.367 10.5 21.8838 10.5H21.875ZM5.25 11.375C5.25 10.8918 5.64175 10.5 6.125 10.5H6.13375C6.617 10.5 7.00875 10.8918 7.00875 11.375V11.3837C7.00875 11.867 6.617 12.2587 6.13375 12.2587H6.125C5.64175 12.2587 5.25 11.867 5.25 11.3837V11.375Z" fill="white"/>
<path d="M2.625 21C2.14175 21 1.75 21.3918 1.75 21.875C1.75 22.3582 2.14175 22.75 2.625 22.75C8.92506 22.75 15.0269 23.5926 20.8247 25.1707C22.2137 25.5488 23.625 24.5196 23.625 23.0476V21.875C23.625 21.3918 23.2332 21 22.75 21H2.625Z" fill="white"/>
</svg>
