<svg width="96" height="96" viewBox="0 0 96 96" fill="none" xmlns="http://www.w3.org/2000/svg">
<rect x="1" y="1" width="94" height="94" rx="47" fill="#1A1A1A"/>
<rect x="1" y="1" width="94" height="94" rx="47" stroke="url(#paint0_linear_1526_8151)" stroke-width="2"/>
<rect x="19" y="19" width="58" height="58" rx="29" fill="url(#paint1_linear_1526_8151)"/>
<rect x="19" y="19" width="58" height="58" rx="29" stroke="#333333" stroke-width="2"/>
<path fill-rule="evenodd" clip-rule="evenodd" d="M46.7881 39.2107C47.2364 38.1327 48.7635 38.1327 49.2118 39.2107L51.2938 44.2164L56.6979 44.6496C57.8616 44.7429 58.3335 46.1952 57.4469 46.9547L53.3295 50.4817L54.5874 55.7551C54.8583 56.8908 53.6229 57.7883 52.6266 57.1798L47.9999 54.3538L43.3733 57.1798C42.377 57.7883 41.1416 56.8908 41.4125 55.7551L42.6704 50.4817L38.553 46.9547C37.6664 46.1952 38.1383 44.7429 39.302 44.6496L44.7061 44.2164L46.7881 39.2107Z" fill="white"/>
<defs>
<linearGradient id="paint0_linear_1526_8151" x1="48" y1="0" x2="48" y2="96" gradientUnits="userSpaceOnUse">
<stop stop-color="#333333"/>
<stop offset="0.82384" stop-color="#333333" stop-opacity="0"/>
</linearGradient>
<linearGradient id="paint1_linear_1526_8151" x1="48" y1="20" x2="48" y2="76" gradientUnits="userSpaceOnUse">
<stop stop-color="#1A1A1A"/>
<stop offset="1" stop-color="#1A1A1A" stop-opacity="0"/>
</linearGradient>
</defs>
</svg>
