<svg xmlns="http://www.w3.org/2000/svg" xmlns:xlink="http://www.w3.org/1999/xlink" fill="none"
    viewBox="0 0 1539 610">
    <defs>

        <mask id="gradient-mask1">
            <rect class="mask-rect1" x="0" y="98" width="10%" height="30%" fill="#d7d7d7" />
        </mask>
        <mask id="gradient-mask2">
            <rect class="mask-rect2" x="309" y="98" width="10%" height="30%" fill="#d7d7d7" />
        </mask>
        <mask id="gradient-mask3">
            <rect class="mask-rect3" x="200" y="378" width="50%" height="30%" fill="#d7d7d7" />
        </mask>
        <mask id="gradient-mask4">
            <rect class="mask-rect4" x="1004" y="378" width="10%" height="30%" fill="#d7d7d7" />
        </mask>
        <mask id="gradient-mask5">
            <rect class="mask-rect5" x="882" y="98" width="50%" height="30%" fill="#d7d7d7" />
        </mask>
        <mask id="gradient-mask6">
            <rect class="mask-rect6" x="1197" y="98" width="50%" height="30%" fill="#d7d7d7" />
        </mask>
        <path id="Line 7" fill="#15AED5"
            d="M54.4253 97.6215c-.9328 0-1.6889.7562-1.6889 1.6889 0 .9326.7561 1.6886 1.6889 1.6886v-3.3775Zm0 3.3775H173.492v-3.3775H54.4253v3.3775Z" />
        <path id="reuse-0" fill="#fff" d="M0 0h67.5556v67.5556H0z" />
    </defs>
    <g id="Group 1000005982">
        <g id="Rectangle 15">
            <mask id="path-1-outside-1_1_114" width="306" height="201" x="941" y="6" fill="#000"
                maskUnits="userSpaceOnUse">
                <path fill="#fff" d="M941 6h306v201H941z" />
                <path
                    d="M944 16c0-5.5229 4.477-10 10-10h283c5.52 0 10 4.4772 10 10v181c0 5.523-4.48 10-10 10H954c-5.523 0-10-4.477-10-10V16Z" />
            </mask>
            <path fill="url(#paint0_linear_1_114)"
                d="M944 16c0-5.5229 4.477-10 10-10h283c5.52 0 10 4.4772 10 10v181c0 5.523-4.48 10-10 10H954c-5.523 0-10-4.477-10-10V16Z" />
            <path fill="#15AED5"
                d="M944 6h303-303Zm303 201H944h303Zm-293 0c-7.18 0-13-5.82-13-13V19c0-7.1797 5.82-13 13-13-3.866 0-7 4.4772-7 10v181c0 5.523 3.134 10 7 10ZM1247 6v201V6Z"
                mask="url(#path-1-outside-1_1_114)" />
        </g>
        <g id="Rectangle 16">
            <mask id="path-3-outside-2_1_114" width="324" height="207" x="1215" y="0" fill="#000"
                maskUnits="userSpaceOnUse">
                <path fill="#fff" d="M1215 0h324v207h-324z" />
                <path
                    d="M1218 10c0-5.5228 4.48-10 10-10h301c5.52 0 10 4.4771 10 10v187c0 5.523-4.48 10-10 10h-301c-5.52 0-10-4.477-10-10V10Z" />
            </mask>
            <path fill="url(#paint1_linear_1_114)"
                d="M1218 10c0-5.5228 4.48-10 10-10h301c5.52 0 10 4.4771 10 10v187c0 5.523-4.48 10-10 10h-301c-5.52 0-10-4.477-10-10V10Z" />
            <path fill="#15AED5"
                d="M1218 0h321-321Zm321 207h-321 321Zm-311 0c-7.18 0-13-5.82-13-13V13c0-7.1797 5.82-13 13-13-3.87 0-7 4.4771-7 10v187c0 5.523 3.13 10 7 10ZM1539 0v207V0Z"
                mask="url(#path-3-outside-2_1_114)" />
        </g>
        <g id="Rectangle 13">
            <mask id="path-5-outside-3_1_114" width="259" height="149" x="30.3141" y="34.2882"
                fill="#000" maskUnits="userSpaceOnUse">
                <path fill="#fff" d="M30.3141 34.2882h259v149h-259z" />
                <path
                    d="M33.3141 42.7326c0-4.6637 3.7808-8.4444 8.4445-8.4444H279.892c4.664 0 8.444 3.7807 8.444 8.4444V174.466c0 4.664-3.78 8.444-8.444 8.444H41.7586c-4.6638 0-8.4445-3.78-8.4445-8.444V42.7326Z" />
            </mask>
            <path fill="url(#paint2_linear_1_114)"
                d="M33.3141 42.7326c0-4.6637 3.7808-8.4444 8.4445-8.4444H279.892c4.664 0 8.444 3.7807 8.444 8.4444V174.466c0 4.664-3.78 8.444-8.444 8.444H41.7586c-4.6638 0-8.4445-3.78-8.4445-8.444V42.7326Z" />
            <path fill="#15AED5"
                d="M33.3141 34.2882H288.336 33.3141ZM288.336 182.91H33.3141 288.336Zm-246.5774 0c-6.0629 0-10.9778-4.915-10.9778-10.977V45.266c0-6.0629 4.9149-10.9778 10.9778-10.9778-3.2646 0-5.9111 3.7807-5.9111 8.4444V174.466c0 4.664 2.6465 8.444 5.9111 8.444ZM288.336 34.2882V182.91 34.2882Z"
                mask="url(#path-5-outside-3_1_114)" />
        </g>
        <g id="Rectangle 14">
            <mask id="path-7-outside-4_1_114" width="259" height="149" x="390.047" y="34.2882"
                fill="#000" maskUnits="userSpaceOnUse">
                <path fill="#fff" d="M390.047 34.2882h259v149h-259z" />
                <path
                    d="M393.047 42.7326c0-4.6637 3.781-8.4444 8.445-8.4444h238.133c4.664 0 8.445 3.7807 8.445 8.4444V174.466c0 4.664-3.781 8.444-8.445 8.444H401.492c-4.664 0-8.445-3.78-8.445-8.444V42.7326Z" />
            </mask>
            <path fill="url(#paint3_linear_1_114)"
                d="M393.047 42.7326c0-4.6637 3.781-8.4444 8.445-8.4444h238.133c4.664 0 8.445 3.7807 8.445 8.4444V174.466c0 4.664-3.781 8.444-8.445 8.444H401.492c-4.664 0-8.445-3.78-8.445-8.444V42.7326Z" />
            <path fill="#15AED5"
                d="M393.047 34.2882H648.07 393.047ZM648.07 182.91H393.047 648.07Zm-246.578 0c-6.063 0-10.978-4.915-10.978-10.977V45.266c0-6.0629 4.915-10.9778 10.978-10.9778-3.265 0-5.911 3.7807-5.911 8.4444V174.466c0 4.664 2.646 8.444 5.911 8.444ZM648.07 34.2882V182.91 34.2882Z"
                mask="url(#path-7-outside-4_1_114)" />
        </g>
        <g id="Rectangle 17">
            <mask id="path-9-outside-5_1_114" width="264" height="134" x="227.07" y="448.066"
                fill="#000" maskUnits="userSpaceOnUse">
                <path fill="#fff" d="M227.07 448.066h264v134h-264z" />
                <path
                    d="M230.07 456.51c0-4.663 3.78-8.444 8.444-8.444h243.2c4.664 0 8.445 3.781 8.445 8.444v116.534c0 4.663-3.781 8.444-8.445 8.444h-243.2c-4.664 0-8.444-3.781-8.444-8.444V456.51Z" />
            </mask>
            <path fill="url(#paint4_linear_1_114)"
                d="M230.07 456.51c0-4.663 3.78-8.444 8.444-8.444h243.2c4.664 0 8.445 3.781 8.445 8.444v116.534c0 4.663-3.781 8.444-8.445 8.444h-243.2c-4.664 0-8.444-3.781-8.444-8.444V456.51Z" />
            <path fill="#15AED5"
                d="M230.07 448.066h260.089H230.07Zm260.089 133.422H230.07h260.089Zm-251.645 0c-6.063 0-10.978-4.915-10.978-10.978V459.044c0-6.063 4.915-10.978 10.978-10.978-3.264 0-5.911 3.781-5.911 8.444v116.534c0 4.663 2.647 8.444 5.911 8.444Zm251.645-133.422v133.422-133.422Z"
                mask="url(#path-9-outside-5_1_114)" />
        </g>
        <g id="Rectangle 18">
            <mask id="path-11-outside-6_1_114" width="258" height="162" x="1040.27" y="448.066"
                fill="#000" maskUnits="userSpaceOnUse">
                <path fill="#fff" d="M1040.27 448.066h258v162h-258z" />
                <path
                    d="M1043.27 456.51c0-4.663 3.78-8.444 8.44-8.444H1289c4.67 0 8.45 3.781 8.45 8.444v144.4c0 4.664-3.78 8.445-8.45 8.445h-237.29c-4.66 0-8.44-3.781-8.44-8.445v-144.4Z" />
            </mask>
            <path fill="url(#paint5_linear_1_114)"
                d="M1043.27 456.51c0-4.663 3.78-8.444 8.44-8.444H1289c4.67 0 8.45 3.781 8.45 8.444v144.4c0 4.664-3.78 8.445-8.45 8.445h-237.29c-4.66 0-8.44-3.781-8.44-8.445v-144.4Z" />
            <path fill="#15AED5"
                d="M1043.27 448.066h254.18-254.18Zm254.18 161.289h-254.18 254.18Zm-245.74 0c-6.06 0-10.97-4.915-10.97-10.978V459.044c0-6.063 4.91-10.978 10.97-10.978-3.26 0-5.91 3.781-5.91 8.444v144.4c0 4.664 2.65 8.445 5.91 8.445Zm245.74-161.289v161.289-161.289Z"
                mask="url(#path-11-outside-6_1_114)" />
        </g>
        <rect id="Rectangle 9" width="1462.58" height="130.889" x="38.803" y="246.666"
            fill="#4B4B4B" stroke="#15AED5" stroke-width=".8444" rx="65.4444" />
        <text xml:space="preserve" id="SCOPE DOCUMENT" fill="#fff" font-family="Poppins"
            font-size="16.4475" font-weight="600" letter-spacing="0em" style="white-space:pre"><tspan x="120.292" y="57.6115">SCOPE
</tspan><tspan x="120.292" y="82.6115">DOCUMENT</tspan></text>
        <text xml:space="preserve" id="Functional Requirement Document (FRD)" fill="#fff"
            font-family="Poppins" font-size="11.8222" letter-spacing="0em" style="white-space:pre"><tspan x="72.1586" y="130.182">Functional Requirement 
</tspan><tspan x="54.4253" y="148.182">      Document (FRD)</tspan></text>
        <text xml:space="preserve"
            id="System Architecture Server Specifications Database Diagram Tech Stack" fill="#fff"
            font-family="Poppins" font-size="11.8222" letter-spacing="0em" style="white-space:pre"><tspan x="428.514" y="130.182">System Architecture
</tspan><tspan x="428.514" y="148.182">Server Specifications
</tspan><tspan x="428.514" y="166.182">Database Diagram
</tspan><tspan x="428.514" y="184.182">Tech Stack</tspan></text>
        <text xml:space="preserve"
            id="User Manual (Optional) Code Quality Document Source Code Delivery Document Security Check Document Deployment Document"
            fill="#fff" font-family="Poppins" font-size="11.8222" letter-spacing="0em"
            style="white-space:pre"><tspan x="1261.14" y="111.604"> User Manual (Optional)
</tspan><tspan x="1261.14" y="129.604"> Code Quality Document
</tspan><tspan x="1261.14" y="147.604"> Source Code Delivery Document
</tspan><tspan x="1261.14" y="165.604"> Security Check Document
</tspan><tspan x="1261.14" y="183.604"> Deployment Document</tspan></text>
        <text xml:space="preserve" id="Test Plan Test Checklist Test Case Test Closure Report"
            fill="#fff" font-family="Poppins" font-size="11.8222" letter-spacing="0em"
            style="white-space:pre"><tspan x="977.914" y="116.67">Test Plan 
</tspan><tspan x="977.914" y="134.67">Test Checklist
</tspan><tspan x="977.914" y="152.67">Test Case
</tspan><tspan x="977.914" y="170.67">Test Closure Report</tspan></text>
        <text xml:space="preserve" id="QUALITY INSIGHTS" fill="#fff" font-family="Poppins"
            font-size="16.4475" font-weight="600" letter-spacing="0em" style="white-space:pre"><tspan x="1036.18" y="47.4781">QUALITY
</tspan><tspan x="1036.18" y="72.4781">INSIGHTS</tspan></text>
        <text xml:space="preserve" id="CLOSURE DOCUMENTATION" fill="#fff" font-family="Poppins"
            font-size="16.4475" font-weight="600" letter-spacing="0em" style="white-space:pre"><tspan x="1315.78" y="39.0337">CLOSURE </tspan><tspan x="1315.78" y="64.0337">DOCUMENTATION</tspan></text>
        <text xml:space="preserve" id="TECHNICAL DOCUMENTATION" fill="#fff" font-family="Poppins"
            font-size="16.4475" font-weight="600" letter-spacing="0em" style="white-space:pre"><tspan x="489.314" y="57.6115">TECHNICAL </tspan><tspan x="489.314" y="82.6115">DOCUMENTATION</tspan></text>
        <text xml:space="preserve" id="S5" fill="#15AED5" font-family="Poppins" font-size="56.3243"
            font-weight="600" letter-spacing="0em" style="white-space:pre"
            transform="translate(958.492 10.6437)"><tspan x=".2148" y="61.7135">S5</tspan></text>
        <text xml:space="preserve" id="S2" fill="#15AED5" font-family="Poppins" font-size="56.3243"
            font-weight="600" letter-spacing="0em" style="white-space:pre"
            transform="translate(410.781 24.1548)"><tspan x=".1674" y="61.7135">S2</tspan></text>
        <text xml:space="preserve" id="S6" fill="#15AED5" font-family="Poppins" font-size="56.3243"
            font-weight="600" letter-spacing="0em" style="white-space:pre"
            transform="translate(1240.87 5.577)"><tspan x=".3248" y="61.7135">S6</tspan></text>
        <text xml:space="preserve" id="S3" fill="#15AED5" font-family="Poppins" font-size="56.3243"
            font-weight="600" letter-spacing="0em" style="white-space:pre"
            transform="translate(240.203 441.31)"><tspan x=".4799" y="61.7135">S3</tspan></text>
        <text xml:space="preserve" id="S4" fill="#15AED5" font-family="Poppins" font-size="56.3243"
            font-weight="600" letter-spacing="0em" style="white-space:pre"
            transform="translate(1055.09 441.31)"><tspan x=".2198" y="61.7135">S4</tspan></text>
        <g id="Group 29">
            <circle id="Ellipse 8" cx="104.248" cy="312.109" r="65.8667" fill="#15AED5" />
            <g id="target_5475555 1" clip-path="url(#clip0_1_114)">
                <g id="Group">
                    <g id="Group_2" fill="#fff">
                        <path id="Vector" d="M116.784 279.493v12.035h12.035l-12.035-12.035Z" />
                        <g id="Group_3">
                            <path id="Vector_2"
                                d="M114.805 295.489c-1.093 0-1.979-.886-1.979-1.979v-15.174H80.4997c-1.093 0-1.9791.886-1.9791 1.979v63.598c0 1.093.8861 1.979 1.9791 1.979H128c1.093 0 1.979-.886 1.979-1.979v-48.424h-15.174Zm-26.3886-9.236h11.8746c2.624.097 2.622 3.862 0 3.958H88.4164c-2.6232-.097-2.6212-3.862 0-3.958Zm0 7.917h11.8746c2.624.097 2.622 3.861 0 3.958H88.4164c-2.6232-.097-2.6212-3.862 0-3.958Zm31.6666 27.708h-2.121c-.87 6.058-5.675 10.862-11.733 11.733v2.121c-.097 2.623-3.862 2.621-3.958 0v-2.121c-6.0588-.871-10.863-5.675-11.7335-11.733h-2.1211c-2.6232-.097-2.6212-3.862 0-3.958h2.1211c.8705-6.059 5.6747-10.863 11.7335-11.733v-2.122c.097-2.623 3.861-2.621 3.958 0v2.122c6.058.87 10.863 5.674 11.733 11.733h2.121c2.623.097 2.621 3.861 0 3.958Z" />
                            <path id="Vector_3"
                                d="M112.165 317.918h1.78c-.789-3.871-3.846-6.928-7.717-7.717v1.78c-.098 2.623-3.862 2.621-3.959 0v-1.78c-3.8714.789-6.928 3.846-7.7172 7.717h1.7801c2.6232.098 2.6212 3.862 0 3.959h-1.7801c.789 3.871 3.8458 6.928 7.7172 7.717v-1.78c.098-2.623 3.862-2.621 3.959 0v1.78c3.871-.789 6.928-3.846 7.717-7.717h-1.78c-2.623-.098-2.621-3.862 0-3.959Zm-7.916 3.959c-1.093 0-1.98-.886-1.98-1.979.097-2.623 3.862-2.622 3.959 0 0 1.093-.886 1.979-1.979 1.979Z" />
                        </g>
                    </g>
                </g>
            </g>
        </g>
        <g id="Group 1000005978">
            <circle id="Ellipse 9" cx="313.67" cy="312.109" r="65.8667" fill="#15AED5" />
            <g id="document-adjustment_10326042 1">
                <path id="Vector_4" fill="#fff" fill-rule="evenodd"
                    d="M311.848 287.401h-2.014a.156.156 0 0 0-.11.047.1537.1537 0 0 0-.047.11v1.073h-.004c0 .201-.069.397-.195.554a.8903.8903 0 0 1-.499.31c-.487.108-.964.259-1.424.45v-.001l-.003.001c-.437.181-.859.398-1.26.649a.8906.8906 0 0 1-.599.182.892.892 0 0 1-.57-.259l-.759-.759a.1583.1583 0 0 0-.111-.045.16.16 0 0 0-.111.045l-1.424 1.425a.1606.1606 0 0 0 0 .223l.759.758-.003.003c.143.142.232.329.254.529.022.2-.025.402-.133.572-.269.422-.5.867-.69 1.329h-.002c-.181.437-.326.889-.432 1.35a.8906.8906 0 0 1-.296.551c-.162.142-.37.22-.585.22h-1.073a.1623.1623 0 0 0-.11.047.1647.1647 0 0 0-.047.111v2.012c.001.042.018.082.047.111.029.029.069.046.11.047h1.073v.003a.8845.8845 0 0 1 .864.695c.211.951.583 1.86 1.099 2.686.131.172.196.384.182.599a.8886.8886 0 0 1-.258.57l-.759.759a.1606.1606 0 0 0 0 .223l1.424 1.424a.1606.1606 0 0 0 .223 0l.758-.759.003.002a.8867.8867 0 0 1 1.101-.12c.823.524 1.728.904 2.679 1.124a.8875.8875 0 0 1 .771.88v1.073c.001.042.017.081.047.111.029.029.069.046.11.046h2.014c.041 0 .081-.017.11-.046a.156.156 0 0 0 .047-.111v-1.073h.004c0-.201.069-.397.195-.554a.887.887 0 0 1 .499-.31c.952-.211 1.86-.582 2.687-1.099a.8898.8898 0 0 1 1.169.077l.759.759a.16.16 0 0 0 .111.044c.041 0 .081-.016.111-.044l1.424-1.424a.1602.1602 0 0 0 .035-.051c.009-.019.013-.04.013-.061h-.003c0-.02-.004-.041-.011-.06a.1572.1572 0 0 0-.034-.051l-.759-.759.003-.002a.8832.8832 0 0 1-.254-.53c-.022-.2.025-.402.133-.571.524-.823.904-1.729 1.124-2.679a.8932.8932 0 0 1 .296-.551c.162-.142.369-.22.585-.22h1.073a.1623.1623 0 0 0 .11-.047.1628.1628 0 0 0 .047-.111v-2.013a.1628.1628 0 0 0-.047-.111.1623.1623 0 0 0-.11-.047h-1.073v-.003a.8845.8845 0 0 1-.554-.195.883.883 0 0 1-.31-.499 8.5534 8.5534 0 0 0-1.1-2.687.8898.8898 0 0 1 .077-1.169l.759-.759a.1606.1606 0 0 0 0-.223l-1.424-1.424a.1606.1606 0 0 0-.223 0l-.758.759-.003-.003a.8852.8852 0 0 1-1.101.121 8.5914 8.5914 0 0 0-2.679-1.124.8881.8881 0 0 1-.771-.881v-1.072a.1579.1579 0 0 0-.047-.11.1537.1537 0 0 0-.11-.047Zm-2.014-1.777h2.014c.513.001 1.004.205 1.367.567.362.363.566.854.567 1.367v.388c.696.205 1.367.484 2.004.831l.275-.274a1.938 1.938 0 0 1 1.368-.566c.512 0 1.004.204 1.368.566l1.423 1.424c.363.363.566.855.566 1.367 0 .513-.203 1.005-.566 1.368l-.274.275c.347.637.625 1.308.83 2.004h.388a1.9376 1.9376 0 0 1 1.935 1.934v2.013a1.9358 1.9358 0 0 1-.568 1.367c-.362.363-.854.567-1.367.568h-.388c-.205.696-.484 1.367-.831 2.004l.275.275c.179.179.322.392.419.627.097.235.147.486.146.74h-.002c.001.254-.048.506-.145.74-.096.235-.238.448-.417.628l-1.424 1.424a1.938 1.938 0 0 1-1.368.566 1.938 1.938 0 0 1-1.368-.566l-.275-.274c-.636.347-1.308.625-2.004.83v.388c0 .513-.204 1.004-.567 1.367s-.854.567-1.367.568h-2.014a1.9376 1.9376 0 0 1-1.934-1.935v-.388c-.696-.205-1.368-.484-2.004-.831l-.275.275a1.937 1.937 0 0 1-1.368.565 1.937 1.937 0 0 1-1.368-.565l-1.424-1.424a1.937 1.937 0 0 1-.565-1.368c0-.513.203-1.005.565-1.368l.275-.275c-.347-.636-.625-1.308-.831-2.004h-.388c-.512 0-1.004-.205-1.366-.567a1.9358 1.9358 0 0 1-.568-1.367v-2.013c.001-.513.205-1.005.568-1.367.362-.363.854-.567 1.366-.568h.388c.103-.346.223-.687.361-1.021l.002-.003h-.002c.139-.334.296-.661.47-.979l-.275-.275a1.9387 1.9387 0 0 1 0-2.736l1.424-1.424a1.9387 1.9387 0 0 1 2.736 0l.275.275c.318-.173.645-.329.979-.468v-.001c.335-.139.677-.26 1.025-.362v-.388a1.9376 1.9376 0 0 1 1.934-1.934Zm4.426 8.838a4.8403 4.8403 0 0 1 1.393 2.946 4.83 4.83 0 0 1-.792 3.16 4.8346 4.8346 0 0 1-5.871 1.781 4.838 4.838 0 0 1-2.414-2.188 4.8394 4.8394 0 0 1-.478-3.223 4.8438 4.8438 0 0 1 1.675-2.794 4.8352 4.8352 0 0 1 3.068-1.098c.635 0 1.264.124 1.851.367.586.243 1.119.6 1.568 1.049Zm-3.419-3.193c1.53 0 3.012.531 4.195 1.501a6.6149 6.6149 0 0 1 2.291 3.822c.298 1.5.067 3.058-.654 4.407a6.6118 6.6118 0 0 1-3.301 2.992 6.6099 6.6099 0 0 1-4.45.219 6.6131 6.6131 0 0 1-4.662-6.976c.15-1.523.824-2.946 1.905-4.028a6.614 6.614 0 0 1 2.145-1.435 6.5974 6.5974 0 0 1 2.531-.502Zm-21.862-3.926h3.653c.24-.001.469-.097.638-.266.17-.17.265-.399.267-.639v-4.617l-4.558 5.522Zm6.335-6.84h37.476c.239.002.469.098.638.267.169.17.265.399.266.638v56.486a.9092.9092 0 0 1-.266.638.9163.9163 0 0 1-.638.267h-43.898a.9127.9127 0 0 1-.638-.267.906.906 0 0 1-.267-.638V289.12h4.645a2.6932 2.6932 0 0 0 1.895-.787c.503-.503.786-1.184.787-1.895v-5.935Zm-1.712 46.103h34.477c.118.001.235-.021.344-.065a.8875.8875 0 0 0 .487-.481.8977.8977 0 0 0 .069-.343c0-.117-.024-.234-.069-.342a.8928.8928 0 0 0-.195-.29.8875.8875 0 0 0-.292-.192.8795.8795 0 0 0-.344-.064h-34.477a.8846.8846 0 0 0-.621.264.8841.8841 0 0 0-.257.624c0 .234.092.459.257.625.164.166.387.261.621.264Zm0 5.613h34.477c.236 0 .462-.094.628-.261a.8854.8854 0 0 0 .261-.628c0-.236-.094-.462-.261-.628a.8844.8844 0 0 0-.628-.26h-34.477c-.236 0-.462.093-.628.26a.8844.8844 0 0 0-.26.628c0 .236.093.462.26.628.166.167.392.261.628.261Zm0-16.839h34.477c.236 0 .462-.093.628-.26a.8854.8854 0 0 0 .261-.628c0-.236-.094-.462-.261-.628a.8854.8854 0 0 0-.628-.261h-34.477c-.236 0-.462.094-.628.261a.8844.8844 0 0 0-.26.628c0 .236.093.462.26.628.166.167.392.26.628.26Zm0 5.613h34.477c.118.002.235-.02.344-.064.109-.044.208-.11.292-.192.083-.083.15-.181.195-.29a.8928.8928 0 0 0 .069-.342c0-.118-.024-.234-.069-.343a.9035.9035 0 0 0-.195-.29.9007.9007 0 0 0-.292-.191.8989.8989 0 0 0-.344-.065h-34.477a.8889.8889 0 0 0-.621.264.8864.8864 0 0 0-.257.625c0 .233.092.458.257.624.164.167.387.261.621.264Zm.045 19.582h39.143c.71-.002 1.392-.285 1.894-.788.503-.502.786-1.183.788-1.894v-52.472h2.978c.24.001.469.097.638.267.17.169.265.398.267.638v56.485a.9125.9125 0 0 1-.267.639.9074.9074 0 0 1-.638.266h-43.898a.9092.9092 0 0 1-.638-.266.9125.9125 0 0 1-.267-.639v-2.236Z"
                    clip-rule="evenodd" />
            </g>
        </g>
        <g id="Group 1000005977">
            <circle id="Ellipse 10" cx="523.093" cy="312.109" r="65.8667" fill="#15AED5" />
            <g id="ux_17109631 1" fill="#fff">
                <path id="Vector_5"
                    d="M548.394 285.764h-50.603a4.2637 4.2637 0 0 0-3.006 1.248 4.2637 4.2637 0 0 0-1.248 3.006v27.803h59.111v-27.803a4.2637 4.2637 0 0 0-1.248-3.006 4.262 4.262 0 0 0-3.006-1.248Zm-38.126 19.391c-.1 5.561-8.704 5.582-8.804.01v-6.734c.006-.277.12-.54.317-.733.197-.194.463-.302.739-.302.276 0 .542.108.739.302.197.193.311.457.316.733v6.734c-.008 2.766 4.593 2.758 4.582-.01v-6.756c0-.28.111-.548.309-.746.198-.198.466-.309.746-.309.28 0 .549.111.746.309.198.198.31.466.31.746v6.756Zm10.376-6.144-3.272 4.518 2.818 4.159c.15.232.202.514.147.785a1.0568 1.0568 0 0 1-1.226.827c-.272-.05-.514-.204-.673-.43l-2.386-3.525-2.575 3.557c-.166.226-.415.377-.692.42-.276.044-.559-.024-.786-.188a1.0547 1.0547 0 0 1-.282-.302 1.0641 1.0641 0 0 1-.143-.388c-.022-.138-.016-.278.017-.413.033-.135.093-.263.176-.375l3.029-4.169-3.051-4.497a1.0604 1.0604 0 0 1-.161-.792c.053-.275.213-.518.444-.675a1.061 1.061 0 0 1 1.47.274l2.617 3.864 2.819-3.885c.166-.22.412-.366.685-.406.272-.041.55.026.774.188.223.161.375.404.422.675.047.272-.015.551-.171.778Zm9.964-3.24-7.726 16.181c-.124.249-.34.438-.602.529-.262.09-.549.074-.799-.045a1.0588 1.0588 0 0 1-.54-.591c-.095-.261-.084-.548.03-.8l7.727-16.182c.124-.246.34-.433.601-.522.262-.09.547-.073.796.045.249.119.442.33.538.588.096.259.087.545-.025.797Zm10.07 9.384c-.099 5.561-8.703 5.583-8.803.01v-6.734a1.0552 1.0552 0 0 1 1.055-1.035c.277 0 .542.108.74.302.197.193.31.457.316.733v6.734c-.001 2.767 4.591 2.757 4.581-.01v-6.756c0-.28.111-.548.309-.746a1.0566 1.0566 0 0 1 1.493 0c.198.198.309.466.309.746v6.756Zm4.043 3.124a1.052 1.052 0 0 1-.315.736c-.197.195-.463.304-.741.304-.277 0-.543-.109-.74-.304a1.052 1.052 0 0 1-.315-.736v-9.88c.005-.276.118-.54.316-.734.197-.194.463-.302.739-.302.277 0 .543.108.74.302.197.194.311.458.316.734v9.88Z" />
                <path id="Vector_6"
                    d="M495.648 319.931h-2.111v2.871a4.262 4.262 0 0 0 1.248 3.006 4.2637 4.2637 0 0 0 3.006 1.248h20.678c.116 2.512-4.085 6.925-7.42 9.511-.176.134-.304.319-.368.53-.065.211-.061.437.01.646.072.209.206.39.386.518.18.128.395.196.616.195h22.8c.221-.006.436-.08.613-.213s.309-.318.376-.53c.067-.211.067-.438 0-.649-.068-.211-.2-.396-.377-.529-.074-.053-6.597-4.75-7.125-9.479h20.414a4.262 4.262 0 0 0 3.006-1.248 4.262 4.262 0 0 0 1.248-3.006v-2.871h-57Zm24.785 1.151h5.003a1.0553 1.0553 0 0 1 1.04 1.055c0 .277-.109.544-.304.741a1.052 1.052 0 0 1-.736.315h-5.003a1.0606 1.0606 0 0 1-.736-.315 1.0558 1.0558 0 0 1-.304-.741c0-.277.109-.543.304-.74.194-.198.459-.311.736-.315Z" />
            </g>
        </g>
        <g id="Group 1000005979">
            <circle id="Ellipse 11" cx="1011.18" cy="312.109" r="65.8667" fill="#15AED5" />
            <g id="planning_12043704 1">
                <path id="Vector_7" fill="#fff"
                    d="M1022.4 287.396c-.81 0-1.42.039-2.1-.554-.4-.343-.68-.832-.75-1.399-.31-2.269-3.04-3.285-4.75-1.781-.52.448-.88 1.069-.97 1.781-.16 1.122-1.11 1.953-2.23 1.953-.58 0-1.04-.079-1.46.356-.39.383-.36.739-.36 1.214v4.037c0 .66.54 1.201 1.2 1.201h11.42c.65 0 1.2-.541 1.2-1.201v-4.42c-.02-.659-.56-1.187-1.2-1.187Zm7.73 11.532h-2.77c-.82 0-1.49.673-1.49 1.491v2.771c0 .818.67 1.491 1.49 1.491h2.77c.82 0 1.49-.673 1.49-1.491v-2.771c0-.818-.67-1.491-1.49-1.491Zm-2.77-1.043h2.77c1.4 0 2.54 1.148 2.54 2.547v2.771c0 1.398-1.14 2.546-2.54 2.546h-2.77c-1.4 0-2.55-1.148-2.55-2.546v-2.771c0-1.412 1.15-2.547 2.55-2.547Zm2.77 13.446h-2.77c-.82 0-1.49.672-1.49 1.491v2.77c0 .818.67 1.491 1.49 1.491h2.77c.82 0 1.49-.673 1.49-1.491v-2.77c0-.819-.67-1.491-1.49-1.491Zm-2.77-1.056h2.77c1.4 0 2.54 1.148 2.54 2.547v2.77c0 1.399-1.14 2.547-2.54 2.547h-2.77c-1.4 0-2.55-1.148-2.55-2.547v-2.77c0-1.412 1.15-2.547 2.55-2.547Zm2.77 13.445h-2.77c-.82 0-1.49.673-1.49 1.491v2.758c0 .818.67 1.491 1.49 1.491h2.77c.82 0 1.49-.673 1.49-1.491v-2.758c0-.818-.67-1.491-1.49-1.491Zm-2.77-1.055h2.77c1.4 0 2.54 1.148 2.54 2.546v2.758c0 1.398-1.14 2.546-2.54 2.546h-2.77c-1.4 0-2.55-1.148-2.55-2.546v-2.758c0-1.412 1.15-2.546 2.55-2.546Zm-20.1 13.194v-6.412c0-1.373-1.12-2.494-2.49-2.494h-6.415l8.905 8.906Zm-10.713-14.065h-2.942v16.269c0 1.768 1.438 3.206 3.206 3.206h39.759c1.76 0 3.2-1.438 3.2-3.206v-45.376c0-1.768-1.44-3.206-3.2-3.206h-11.93v2.599h8.61c1.96 0 3.57 1.596 3.57 3.549v38.475c0 1.953-1.6 3.549-3.57 3.549h-25.46c-.15 0-.28-.052-.38-.158l-10.705-10.701a.5282.5282 0 0 1-.158-.382v-4.618Zm1.056-21.52h3.987c1.48 0 2.68 1.2 2.68 2.678v16.163c0 1.478-1.2 2.679-2.68 2.679h-3.987v4.103h7.167c1.95 0 3.56 1.597 3.56 3.55v7.164h24.94c1.37 0 2.49-1.121 2.49-2.494v-38.488c0-1.372-1.12-2.494-2.49-2.494h-8.63c-.08 1.175-1.07 2.098-2.24 2.098h-11.42c-1.19 0-2.16-.923-2.24-2.098h-8.63c-1.373 0-2.507 1.122-2.507 2.494v4.645Zm-7.732 1.055v8.009l2.797-1.57a.515.515 0 0 1 .515 0l2.757 1.57v-7.996h-6.069v-.013Zm7.138 0v8.906c0 .383-.422.687-.818.436l-3.259-1.847-3.325 1.873c-.356.198-.792-.066-.792-.462v-8.906h-4.591c-.898 0-1.623.726-1.623 1.623v16.163c0 .898.738 1.623 1.623 1.623h17.376c.88 0 1.62-.739 1.62-1.623v-16.163c0-.884-.72-1.623-1.62-1.623h-4.591Zm-3.404-1.055h2.942v-4.645c0-1.953 1.597-3.549 3.563-3.549h8.62v-2.599h-11.919c-1.768 0-3.206 1.438-3.206 3.206v7.587Zm-7.191 16.968c-.7 0-.7-1.056 0-1.056h4.552c.699 0 .699 1.056 0 1.056h-4.552Zm0-2.204c-.7 0-.7-1.055 0-1.055h2.282c.687 0 .687 1.055 0 1.055h-2.282Zm34.676-13.762c.7 0 .7 1.056 0 1.056h-4.46c-1.54 0-2.81 1.267-2.81 2.81v8.524h7.27c.7 0 .7 1.056 0 1.056h-7.27v8.893c0 1.543 1.27 2.81 2.81 2.81h4.46c.7 0 .7 1.056 0 1.056h-4.46c-2.13 0-3.87-1.742-3.87-3.866v-8.893h-6.3c-.7 0-.7-1.056 0-1.056h6.3v-8.524c0-2.124 1.74-3.866 3.87-3.866h4.46Z" />
            </g>
        </g>
        <g id="Group 1000005981">
            <circle id="Ellipse 12" cx="1436.78" cy="312.109" r="65.8667" fill="#15AED5" />
            <g id="file_1975644 1" fill="#fff" clip-path="url(#clip1_1_114)">
                <path id="Vector_8"
                    d="M1452.32 293.042c-1.1 0-1.99-.89-1.99-1.987v-11.882h-33.97c-1.1 0-1.99.89-1.99 1.987v63.582c0 1.097.89 1.987 1.99 1.987h45.85c1.1 0 1.99-.89 1.99-1.987v-51.7h-11.88Zm4.53 43.405c0 1.097-.89 1.987-1.99 1.987h-31.14c-1.1 0-1.99-.89-1.99-1.987V313.92c0-1.099.89-1.987 1.99-1.987h3.74v-5.488c0-6.524 5.3-11.832 11.83-11.832 6.52 0 11.83 5.308 11.83 11.832v5.488h3.74c1.1 0 1.99.888 1.99 1.987v22.527Z" />
                <path id="Vector_9" d="M1454.31 281.984v7.085h7.08l-7.08-7.085Z" />
                <path id="Vector_10"
                    d="M1447.15 306.444c0-4.333-3.53-7.858-7.86-7.858s-7.86 3.525-7.86 7.858v5.488h15.72v-5.488Z" />
                <path id="Vector_11"
                    d="M1425.71 315.907v18.554h27.16v-18.554h-27.16Zm18.32 10.112-1.49.403 1.15 1.659c.63.901.41 2.14-.49 2.766-.9.629-2.14.407-2.77-.494-.94-1.353-.7-1.004-1.14-1.64-.44.636-.2.287-1.14 1.64-.63.901-1.87 1.122-2.77.494-.9-.626-1.12-1.865-.49-2.766l1.15-1.659-1.49-.403c-1.06-.286-1.69-1.376-1.4-2.436.29-1.06 1.38-1.687 2.43-1.402l1.72.463v-1.496c0-1.097.89-1.987 1.99-1.987s1.99.89 1.99 1.987v1.496l1.71-.463c1.06-.285 2.15.342 2.44 1.402.28 1.06-.34 2.15-1.4 2.436Z" />
            </g>
        </g>
        <g id="Group 1000005980">
            <circle id="Ellipse 13" cx="1223.98" cy="312.109" r="65.8667" fill="#15AED5" />
            <g id="exam-results_3774343 1">
                <g id="Group_4" fill="#fff">
                    <path id="Vector_12"
                        d="M1238.34 292.055c-.53 0-1.06-.528-1.06-1.056v-9.5h-28.5c-2.95 0-5.28 2.322-5.28 5.278v50.666c0 2.956 2.33 5.278 5.28 5.278h33.78c2.95 0 5.28-2.322 5.28-5.278v-45.388h-9.5Zm3.16 5.277c.53 0 1.06.528 1.06 1.056s-.53 1.055-1.06 1.055h-11.61c-.53 0-1.05-.527-1.05-1.055 0-.528.52-1.056 1.05-1.056h11.61Zm0 10.556c.53 0 1.06.528 1.06 1.055 0 .528-.53 1.056-1.06 1.056h-23.22c-.53 0-1.05-.528-1.05-1.056 0-.527.52-1.055 1.05-1.055h23.22Zm-14.77-5.278c0-.528.52-1.055 1.05-1.055h4.22c.53 0 1.06.527 1.06 1.055 0 .528-.53 1.056-1.06 1.056h-4.22c-.53 0-1.05-.528-1.05-1.056Zm-8.45 17.945c-.53 0-1.05-.528-1.05-1.056s.52-1.056 1.05-1.056h23.22c.53 0 1.06.528 1.06 1.056s-.53 1.056-1.06 1.056h-23.22Zm14.78 3.166c0 .528-.53 1.056-1.06 1.056h-13.72c-.53 0-1.05-.528-1.05-1.056s.52-1.055 1.05-1.055H1232c.53 0 1.06.527 1.06 1.055Zm-15.83-10.555c0-.528.52-1.056 1.05-1.056H1232c.53 0 1.06.528 1.06 1.056 0 .527-.53 1.055-1.06 1.055h-13.72c-.53 0-1.05-.528-1.05-1.055Zm-.11-7.706c-5.17 0-9.39-4.222-9.39-9.289 0-5.066 4.22-9.394 9.39-9.394 5.17 0 9.29 4.222 9.29 9.394s-4.12 9.289-9.29 9.289Zm-3.06 8.761h-4.22c-.53 0-1.06-.528-1.06-1.055v-4.223c0-.527.53-1.055 1.06-1.055h4.22c.53 0 1.05.528 1.05 1.055v4.223c0 .527-.52 1.055-1.05 1.055Zm1.05 5.278v4.222c0 .528-.52 1.056-1.05 1.056h-4.22c-.53 0-1.06-.528-1.06-1.056v-4.222c0-.528.53-1.056 1.06-1.056h4.22c.53 0 1.05.528 1.05 1.056Zm-6.33 10.556c0-.528.53-1.056 1.06-1.056h4.22c.53 0 1.05.528 1.05 1.056v4.222c0 .528-.52 1.055-1.05 1.055h-4.22c-.53 0-1.06-.527-1.06-1.055v-4.222Zm8.45 4.222c0-.528.52-1.056 1.05-1.056H1232c.53 0 1.06.528 1.06 1.056s-.53 1.055-1.06 1.055h-13.72c-.53 0-1.05-.527-1.05-1.055Zm24.27-3.167h-23.22c-.53 0-1.05-.528-1.05-1.055 0-.528.52-1.056 1.05-1.056h23.22c.53 0 1.06.528 1.06 1.056 0 .527-.53 1.055-1.06 1.055Z" />
                    <path id="Vector_13" d="M1239.39 282.132v7.811h7.81l-7.81-7.811Z" />
                    <path id="Vector_14" d="M1210.89 331.11h2.11v2.111h-2.11v-2.111Z" />
                    <path id="Vector_15" d="M1210.89 320.555h2.11v2.111h-2.11v-2.111Z" />
                    <path id="Vector_16" d="M1210.89 309.999h2.11v2.111h-2.11v-2.111Z" />
                    <path id="Vector_17"
                        d="M1217.12 288.888c-4.01 0-7.28 3.272-7.28 7.283 0 4.011 3.27 7.178 7.28 7.178s7.18-3.272 7.18-7.178c.1-4.011-3.17-7.283-7.18-7.283Zm4.33 9.078h-.32l.63 1.372c.32.528 0 1.161-.52 1.372-.53.317-1.16 0-1.38-.528l-1.05-2.216-2.85.105-.42 2.322c-.11.634-.74.95-1.27.845-.53-.106-.95-.633-.84-1.267l.31-1.794-.74.211c-.52 0-1.05-.422-1.05-.95 0-.633.42-1.056 1.05-1.161l1.38-.106 1.16-5.594c.21-.95 1.58-1.161 2-.317l2.75 5.595 1.16-.106c.53 0 1.05.422 1.05 1.056 0 .633-.42 1.161-1.05 1.161Z" />
                    <path id="Vector_18" d="m1216.49 296.066 1.37-.106-.95-2.005-.42 2.111Z" />
                </g>
            </g>
        </g>
        <text xml:space="preserve"
            id="Baseline Schedule Milestone Breakdown Change Management Dependancy Management"
            fill="#fff" font-family="Poppins" font-size="11.8222" letter-spacing="0em"
            style="white-space:pre"><tspan x="1072.83" y="546.493">Baseline Schedule
</tspan><tspan x="1072.83" y="564.493">Milestone Breakdown
</tspan><tspan x="1072.83" y="582.493">Change Management
</tspan><tspan x="1072.83" y="600.493">Dependancy Management</tspan></text>
        <text xml:space="preserve" id="User Experience (UX) Design User Interface (UI) Design"
            fill="#fff" font-family="Poppins" font-size="11.8222" letter-spacing="0em"
            style="white-space:pre"><tspan x="257.936" y="546.493">User Experience (UX) Design
</tspan><tspan x="257.936" y="564.493">User Interface (UI) Design</tspan></text>
        <text xml:space="preserve" id="DESIGN DOCUMENTATION" fill="#fff" font-family="Poppins"
            font-size="16.4475" font-weight="600" letter-spacing="0em" style="white-space:pre"><tspan x="319.581" y="478.989">DESIGN
</tspan><tspan x="319.581" y="503.989">DOCUMENTATION</tspan></text>
        <text xml:space="preserve" id="PROJECT DELIVERY PLAN" fill="#fff" font-family="Poppins"
            font-size="16.4475" font-weight="600" letter-spacing="0em" style="white-space:pre"><tspan x="1138.69" y="476.456">PROJECT DELIVERY 
</tspan><tspan x="1138.69" y="501.456">PLAN </tspan></text>
        <g id="Group 1000005976">
            <circle id="Ellipse 15" cx="771.359" cy="416.823" r="114" fill="#3B3B3B" />
            <path id="Vector_19" fill="#15AED5" stroke="#3B3B3B" stroke-width="16.8889"
                d="M750.352 252.876 893.888 50.1466l9.433-13.324h-83.557l-2.528 3.5012L629.354 300.544l-.065.09-.062.091 6.973 4.762c-6.973-4.762-6.975-4.76-6.977-4.757l-.005.008-.013.019-.04.059c-.032.048-.076.113-.13.194-.109.164-.262.396-.455.693-.386.594-.932 1.453-1.611 2.559-1.355 2.212-3.239 5.421-5.416 9.499-4.35 8.149-9.896 19.823-14.734 34.011-9.633 28.254-16.648 67.071-5.111 107.96 17.913 73.748 86.837 128.291 168.701 128.291 95.313 0 173.217-74.031 173.217-166.128 0-92.096-77.904-166.127-173.217-166.127-6.783 0-13.476.377-20.057 1.108Zm20.32 265.118c-55.633 0-100.725-45.084-100.725-100.7s45.092-100.7 100.725-100.7c55.633 0 100.725 45.084 100.725 100.7s-45.092 100.7-100.725 100.7Z" />
        </g>
        <use xlink:href="#Line 7" />
        <use xlink:href="#Line 7" id="Line 11" />
        <path id="Line 12" fill="#15AED5"
            d="M240.203 515.621c-.933 0-1.689.757-1.689 1.689 0 .933.756 1.689 1.689 1.689v-3.378Zm0 3.378H359.27v-3.378H240.203v3.378Z" />
        <path id="Line 13" fill="#15AED5"
            d="M1054.25 515.621c-.94 0-1.69.757-1.69 1.689 0 .933.75 1.689 1.69 1.689v-3.378Zm0 3.378h119.06v-3.378h-119.06v3.378Z" />
        <path id="Line 8" fill="#15AED5"
            d="M410.781 97.6215c-.933 0-1.689.7562-1.689 1.6889 0 .9326.756 1.6886 1.689 1.6886v-3.3775Zm0 3.3775h119.066v-3.3775H410.781v3.3775Z" />
        <path id="Line 9" fill="#15AED5"
            d="M965.181 84.1104c-.933 0-1.689.7562-1.689 1.6889 0 .9328.756 1.6889 1.689 1.6889v-3.3778Zm0 3.3778h119.069v-3.3778H965.181v3.3778Z" />
        <path id="Line 10" fill="#15AED5"
            d="M1240.87 79.0437c-.93 0-1.69.7562-1.69 1.6889 0 .9328.76 1.6889 1.69 1.6889v-3.3778Zm0 3.3778h119.07v-3.3777l-119.07-.0001v3.3778Z" />
        <text xml:space="preserve" id="S1" fill="#15AED5" font-family="Poppins" font-size="56.3243"
            font-weight="600" letter-spacing="0em" style="white-space:pre"
            transform="translate(54.1812 24.1548)"><tspan x=".1354" y="61.7135">S1</tspan></text>
        <g id="Group 1000005985" fill="#D7D7D7">
            <path id="about_op_path1_gray"
                d="M98.7586 243.71c0 1.866 1.5124 3.378 3.3774 3.378 1.866 0 3.378-1.512 3.378-3.378 0-1.865-1.512-3.377-3.378-3.377-1.865 0-3.3774 1.512-3.3774 3.377ZM27.8253 98.6771H9.6697v1.2667h18.1556v-1.2667ZM.5919 107.755v95.844h1.2667v-95.844H.5919Zm9.0778 104.922H93.692v-1.267H9.6697v1.267Zm91.8333 7.811v23.222h1.267v-23.222h-1.267Zm-7.8111-7.811c4.314 0 7.8111 3.497 7.8111 7.811h1.267c0-5.013-4.0646-9.078-9.0781-9.078v1.267Zm-93.1-9.078c0 5.014 4.0643 9.078 9.0778 9.078v-1.267c-4.314 0-7.8111-3.497-7.8111-7.811H.5919ZM9.6697 98.6771c-5.0135 0-9.0778 4.0639-9.0778 9.0779h1.2667c0-4.314 3.4972-7.8112 7.8111-7.8112v-1.2667Z" />
            <path id="about_op_path2_gray"
                d="M309.447 243.71c0 1.866 1.513 3.378 3.378 3.378 1.866 0 3.378-1.512 3.378-3.378 0-1.865-1.512-3.377-3.378-3.377-1.865 0-3.378 1.512-3.378 3.377Zm77.267-145.0329H321.27v1.2667h65.444v-1.2667Zm-74.522 9.0779v84.444h1.267v-84.444h-1.267Zm0 84.444v51.511h1.267v-51.511h-1.267Zm9.078-93.5219c-5.014 0-9.078 4.0639-9.078 9.0779h1.267c0-4.314 3.497-7.8112 7.811-7.8112v-1.2667Z" />
            <path id="about_op_path3_gray"
                d="M519.292 381.777c0 1.866 1.512 3.378 3.378 3.378 1.865 0 3.377-1.512 3.377-3.378 0-1.865-1.512-3.378-3.377-3.378-1.866 0-3.378 1.513-3.378 3.378Zm2.744 0v31.244h1.267v-31.244h-1.267Zm-7.811 39.056H209.803v1.266h304.422v-1.266Zm-313.5 9.077v90.356h1.267V429.91h-1.267Zm9.078 99.434h18.156v-1.267h-18.156v1.267Zm-9.078-9.078c0 5.013 4.065 9.078 9.078 9.078v-1.267c-4.314 0-7.811-3.497-7.811-7.811h-1.267Zm9.078-99.433c-5.013 0-9.078 4.064-9.078 9.077h1.267c0-4.314 3.497-7.811 7.811-7.811v-1.266Zm312.233-7.812c0 4.314-3.497 7.812-7.811 7.812v1.266c5.014 0 9.078-4.064 9.078-9.078h-1.267Z" />
            <path id="about_op_path4_gray"
                d="M1004.85 381.777c0 1.866 1.51 3.378 3.38 3.378 1.86 0 3.37-1.512 3.37-3.378 0-1.865-1.51-3.378-3.37-3.378-1.87 0-3.38 1.513-3.38 3.378Zm3.38 39.689.63.005v-.005h-.63Zm-.64-39.689v39.689h1.27v-39.689h-1.27Zm8.3 147.567h20.2v-1.267h-20.2v1.267Zm-8.3-107.883-.78 98.733 1.27.01.78-98.733-1.27-.01Zm8.3 106.616c-4.34 0-7.84-3.535-7.81-7.873l-1.27-.01c-.04 5.042 4.04 9.15 9.08 9.15v-1.267Z" />
            <path id="about_op_path5_gray"
                d="M1221.03 243.71c0 1.866 1.51 3.378 3.37 3.378 1.87 0 3.38-1.512 3.38-3.378 0-1.865-1.51-3.377-3.38-3.377-1.86 0-3.37 1.512-3.37 3.377ZM937.5 98.6771h-46.23v1.2667h46.23v-1.2667ZM891.27 225.344h324.69v-1.267H891.27v1.267Zm332.5 7.811v10.555h1.27v-10.555h-1.27Zm-341.578-125.4v54.255h1.267v-54.255h-1.267Zm0 54.255v54.256h1.267V162.01h-1.267Zm333.768 63.334c4.31 0 7.81 3.497 7.81 7.811h1.27c0-5.014-4.07-9.078-9.08-9.078v1.267Zm-324.69-1.267c-4.314 0-7.811-3.497-7.811-7.811h-1.267c0 5.013 4.064 9.078 9.078 9.078v-1.267Zm0-125.3999c-5.014 0-9.078 4.0639-9.078 9.0779h1.267c0-4.314 3.497-7.8112 7.811-7.8112v-1.2667Z" />
            <path id="about_op_path6_gray"
                d="M1432.98 243.71c0 1.866 1.51 3.378 3.38 3.378 1.86 0 3.38-1.512 3.38-3.378 0-1.865-1.52-3.377-3.38-3.377-1.87 0-3.38 1.512-3.38 3.377ZM1214 98.6771h-7.75v1.2667h7.75v-1.2667Zm-16.83 9.0779v96.801h1.27v-96.801h-1.27Zm238.56 113.689v22.266h1.26v-22.266h-1.26Zm-229.48-7.811h109.25v-1.266h-109.25v1.266Zm109.25 0h112.41v-1.266H1315.5v1.266Zm121.49 7.811c0-5.013-4.06-9.077-9.08-9.077v1.266c4.32 0 7.82 3.497 7.82 7.811h1.26Zm-239.82-16.888c0 5.013 4.06 9.077 9.08 9.077v-1.266c-4.32 0-7.81-3.497-7.81-7.811h-1.27Zm9.08-105.8789c-5.02 0-9.08 4.0639-9.08 9.0779h1.27c0-4.314 3.49-7.8112 7.81-7.8112v-1.2667Z" />
        </g>
        <path id="about_op_path1" stroke="#15AED5" stroke-width="2" fill="none"
            mask="url(#gradient-mask1)"
            d="M98.7586 243.71c0 1.866 1.5124 3.378 3.3774 3.378 1.866 0 3.378-1.512 3.378-3.378 0-1.865-1.512-3.377-3.378-3.377-1.865 0-3.3774 1.512-3.3774 3.377ZM27.8253 98.6771H9.6697v1.2667h18.1556v-1.2667ZM.5919 107.755v95.844h1.2667v-95.844H.5919Zm9.0778 104.922H93.692v-1.267H9.6697v1.267Zm91.8333 7.811v23.222h1.267v-23.222h-1.267Zm-7.8111-7.811c4.314 0 7.8111 3.497 7.8111 7.811h1.267c0-5.013-4.0646-9.078-9.0781-9.078v1.267Zm-93.1-9.078c0 5.014 4.0643 9.078 9.0778 9.078v-1.267c-4.314 0-7.8111-3.497-7.8111-7.811H.5919ZM9.6697 98.6771c-5.0135 0-9.0778 4.0639-9.0778 9.0779h1.2667c0-4.314 3.4972-7.8112 7.8111-7.8112v-1.2667Z" />
        <path id="about_op_path5" stroke="#15AED5" stroke-width="2" fill="none"
            mask="url(#gradient-mask5)"
            d="M1221.03 243.71c0 1.866 1.51 3.378 3.37 3.378 1.87 0 3.38-1.512 3.38-3.378 0-1.865-1.51-3.377-3.38-3.377-1.86 0-3.37 1.512-3.37 3.377ZM937.5 98.6771h-46.23v1.2667h46.23v-1.2667Zm-55.308 9.0779v108.511h1.267V107.755h-1.267Zm9.078 117.589h324.69v-1.267H891.27v1.267Zm332.5 7.811v10.555h1.27v-10.555h-1.27Zm-7.81-7.811c4.31 0 7.81 3.497 7.81 7.811h1.27c0-5.014-4.07-9.078-9.08-9.078v1.267Zm-333.768-9.078c0 5.013 4.064 9.078 9.078 9.078v-1.267c-4.314 0-7.811-3.497-7.811-7.811h-1.267Zm9.078-117.5889c-5.014 0-9.078 4.0639-9.078 9.0779h1.267c0-4.314 3.497-7.8112 7.811-7.8112v-1.2667Z" />
        <path id="about_op_path6" stroke="#15AED5" stroke-width="2" fill="none"
            mask="url(#gradient-mask6)"
            d="M1432.98 243.71c0 1.866 1.51 3.378 3.38 3.378 1.86 0 3.38-1.512 3.38-3.378 0-1.865-1.52-3.377-3.38-3.377-1.87 0-3.38 1.512-3.38 3.377ZM1214 98.6771h-7.75v1.2667h7.75v-1.2667Zm-16.83 9.0779v96.801h1.27v-96.801h-1.27Zm238.56 113.689v22.266h1.26v-22.266h-1.26Zm-229.48-7.811h109.25v-1.266h-109.25v1.266Zm109.25 0h112.41v-1.266H1315.5v1.266Zm121.49 7.811c0-5.013-4.06-9.077-9.08-9.077v1.266c4.32 0 7.82 3.497 7.82 7.811h1.26Zm-239.82-16.888c0 5.013 4.06 9.077 9.08 9.077v-1.266c-4.32 0-7.81-3.497-7.81-7.811h-1.27Zm9.08-105.8789c-5.02 0-9.08 4.0639-9.08 9.0779h1.27c0-4.314 3.49-7.8112 7.81-7.8112v-1.2667Z" />
        <path id="about_op_path2" stroke="#15AED5" stroke-width="2" fill="none"
            mask="url(#gradient-mask2)"
            d="M309.447 243.71c0 1.866 1.513 3.378 3.378 3.378 1.866 0 3.378-1.512 3.378-3.378 0-1.865-1.512-3.377-3.378-3.377-1.865 0-3.378 1.512-3.378 3.377Zm77.267-145.0329H321.27v1.2667h65.444v-1.2667Zm-74.522 9.0779v84.444h1.267v-84.444h-1.267Zm0 84.444v51.511h1.267v-51.511h-1.267Zm9.078-93.5219c-5.014 0-9.078 4.0639-9.078 9.0779h1.267c0-4.314 3.497-7.8112 7.811-7.8112v-1.2667Z" />
        <path id="about_op_path3" stroke="#15AED5" stroke-width="2" fill="none"
            mask="url(#gradient-mask3)"
            d="M519.292 381.777c0 1.866 1.512 3.378 3.378 3.378 1.865 0 3.377-1.512 3.377-3.378 0-1.865-1.512-3.378-3.377-3.378-1.866 0-3.378 1.513-3.378 3.378Zm2.744 0v31.244h1.267v-31.244h-1.267Zm-7.811 39.056H209.803v1.266h304.422v-1.266Zm-313.5 9.077v90.356h1.267V429.91h-1.267Zm9.078 99.434h18.156v-1.267h-18.156v1.267Zm-9.078-9.078c0 5.013 4.065 9.078 9.078 9.078v-1.267c-4.314 0-7.811-3.497-7.811-7.811h-1.267Zm9.078-99.433c-5.013 0-9.078 4.064-9.078 9.077h1.267c0-4.314 3.497-7.811 7.811-7.811v-1.266Zm312.233-7.812c0 4.314-3.497 7.812-7.811 7.812v1.266c5.014 0 9.078-4.064 9.078-9.078h-1.267Z" />
        <path id="about_op_path4" stroke="#15AED5" stroke-width="2" fill="none"
            mask="url(#gradient-mask4)"
            d="M1004.85 381.777c0 1.866 1.51 3.378 3.38 3.378 1.86 0 3.37-1.512 3.37-3.378 0-1.865-1.51-3.378-3.37-3.378-1.87 0-3.38 1.513-3.38 3.378Zm3.38 39.689.63.005v-.005h-.63Zm-.64-39.689v39.689h1.27v-39.689h-1.27Zm8.3 147.567h20.2v-1.267h-20.2v1.267Zm-8.3-107.883-.78 98.733 1.27.01.78-98.733-1.27-.01Zm8.3 106.616c-4.34 0-7.84-3.535-7.81-7.873l-1.27-.01c-.04 5.042 4.04 9.15 9.08 9.15v-1.267Z" />
    </g>
    <defs>
        <linearGradient id="paint0_linear_1_114" x1="854.204" x2="1247" y1="106.5" y2="106.5"
            gradientUnits="userSpaceOnUse">
            <stop stop-color="#15AED5" />
            <stop offset=".324" stop-color="#fff" stop-opacity="0" />
        </linearGradient>
        <linearGradient id="paint1_linear_1_114" x1="1122.87" x2="1539" y1="103.5" y2="103.5"
            gradientUnits="userSpaceOnUse">
            <stop stop-color="#15AED5" />
            <stop offset=".324" stop-color="#fff" stop-opacity="0" />
        </linearGradient>
        <linearGradient id="paint2_linear_1_114" x1="-42.2636" x2="288.336" y1="108.599"
            y2="108.599" gradientUnits="userSpaceOnUse">
            <stop stop-color="#15AED5" />
            <stop offset=".324" stop-color="#fff" stop-opacity="0" />
        </linearGradient>
        <linearGradient id="paint3_linear_1_114" x1="317.47" x2="648.07" y1="108.599" y2="108.599"
            gradientUnits="userSpaceOnUse">
            <stop stop-color="#15AED5" />
            <stop offset=".324" stop-color="#fff" stop-opacity="0" />
        </linearGradient>
        <linearGradient id="paint4_linear_1_114" x1="152.99" x2="490.159" y1="514.777" y2="514.777"
            gradientUnits="userSpaceOnUse">
            <stop stop-color="#15AED5" />
            <stop offset=".324" stop-color="#fff" stop-opacity="0" />
        </linearGradient>
        <linearGradient id="paint5_linear_1_114" x1="967.942" x2="1297.45" y1="528.71" y2="528.71"
            gradientUnits="userSpaceOnUse">
            <stop stop-color="#15AED5" />
            <stop offset=".324" stop-color="#fff" stop-opacity="0" />
        </linearGradient>
        <clipPath id="clip0_1_114">
            <use xlink:href="#reuse-0" transform="translate(70.4699 278.331)" />
        </clipPath>
        <clipPath id="clip1_1_114">
            <use xlink:href="#reuse-0" transform="translate(1405.53 279.175)" />
        </clipPath>
    </defs>
</svg>